%TF.GenerationSoftware,KiCad,Pcbnew,9.0.0*%
%TF.CreationDate,2025-03-24T14:10:48-05:00*%
%TF.ProjectId,DIIN-proyecto,4449494e-2d70-4726-9f79-6563746f2e6b,rev?*%
%TF.SameCoordinates,Original*%
%TF.FileFunction,Legend,Top*%
%TF.FilePolarity,Positive*%
%FSLAX46Y46*%
G04 Gerber Fmt 4.6, Leading zero omitted, Abs format (unit mm)*
G04 Created by KiCad (PCBNEW 9.0.0) date 2025-03-24 14:10:48*
%MOMM*%
%LPD*%
G01*
G04 APERTURE LIST*
%ADD10C,0.150000*%
%ADD11C,0.100000*%
%ADD12C,0.120000*%
G04 APERTURE END LIST*
D10*
X150954819Y-61666666D02*
X150478628Y-61999999D01*
X150954819Y-62238094D02*
X149954819Y-62238094D01*
X149954819Y-62238094D02*
X149954819Y-61857142D01*
X149954819Y-61857142D02*
X150002438Y-61761904D01*
X150002438Y-61761904D02*
X150050057Y-61714285D01*
X150050057Y-61714285D02*
X150145295Y-61666666D01*
X150145295Y-61666666D02*
X150288152Y-61666666D01*
X150288152Y-61666666D02*
X150383390Y-61714285D01*
X150383390Y-61714285D02*
X150431009Y-61761904D01*
X150431009Y-61761904D02*
X150478628Y-61857142D01*
X150478628Y-61857142D02*
X150478628Y-62238094D01*
X150954819Y-60714285D02*
X150954819Y-61285713D01*
X150954819Y-60999999D02*
X149954819Y-60999999D01*
X149954819Y-60999999D02*
X150097676Y-61095237D01*
X150097676Y-61095237D02*
X150192914Y-61190475D01*
X150192914Y-61190475D02*
X150240533Y-61285713D01*
X146954819Y-61666666D02*
X146478628Y-61999999D01*
X146954819Y-62238094D02*
X145954819Y-62238094D01*
X145954819Y-62238094D02*
X145954819Y-61857142D01*
X145954819Y-61857142D02*
X146002438Y-61761904D01*
X146002438Y-61761904D02*
X146050057Y-61714285D01*
X146050057Y-61714285D02*
X146145295Y-61666666D01*
X146145295Y-61666666D02*
X146288152Y-61666666D01*
X146288152Y-61666666D02*
X146383390Y-61714285D01*
X146383390Y-61714285D02*
X146431009Y-61761904D01*
X146431009Y-61761904D02*
X146478628Y-61857142D01*
X146478628Y-61857142D02*
X146478628Y-62238094D01*
X146050057Y-61285713D02*
X146002438Y-61238094D01*
X146002438Y-61238094D02*
X145954819Y-61142856D01*
X145954819Y-61142856D02*
X145954819Y-60904761D01*
X145954819Y-60904761D02*
X146002438Y-60809523D01*
X146002438Y-60809523D02*
X146050057Y-60761904D01*
X146050057Y-60761904D02*
X146145295Y-60714285D01*
X146145295Y-60714285D02*
X146240533Y-60714285D01*
X146240533Y-60714285D02*
X146383390Y-60761904D01*
X146383390Y-60761904D02*
X146954819Y-61333332D01*
X146954819Y-61333332D02*
X146954819Y-60714285D01*
D11*
X170748095Y-72697419D02*
X170748095Y-73506942D01*
X170748095Y-73506942D02*
X170795714Y-73602180D01*
X170795714Y-73602180D02*
X170843333Y-73649800D01*
X170843333Y-73649800D02*
X170938571Y-73697419D01*
X170938571Y-73697419D02*
X171129047Y-73697419D01*
X171129047Y-73697419D02*
X171224285Y-73649800D01*
X171224285Y-73649800D02*
X171271904Y-73602180D01*
X171271904Y-73602180D02*
X171319523Y-73506942D01*
X171319523Y-73506942D02*
X171319523Y-72697419D01*
X171843333Y-73697419D02*
X172033809Y-73697419D01*
X172033809Y-73697419D02*
X172129047Y-73649800D01*
X172129047Y-73649800D02*
X172176666Y-73602180D01*
X172176666Y-73602180D02*
X172271904Y-73459323D01*
X172271904Y-73459323D02*
X172319523Y-73268847D01*
X172319523Y-73268847D02*
X172319523Y-72887895D01*
X172319523Y-72887895D02*
X172271904Y-72792657D01*
X172271904Y-72792657D02*
X172224285Y-72745038D01*
X172224285Y-72745038D02*
X172129047Y-72697419D01*
X172129047Y-72697419D02*
X171938571Y-72697419D01*
X171938571Y-72697419D02*
X171843333Y-72745038D01*
X171843333Y-72745038D02*
X171795714Y-72792657D01*
X171795714Y-72792657D02*
X171748095Y-72887895D01*
X171748095Y-72887895D02*
X171748095Y-73125990D01*
X171748095Y-73125990D02*
X171795714Y-73221228D01*
X171795714Y-73221228D02*
X171843333Y-73268847D01*
X171843333Y-73268847D02*
X171938571Y-73316466D01*
X171938571Y-73316466D02*
X172129047Y-73316466D01*
X172129047Y-73316466D02*
X172224285Y-73268847D01*
X172224285Y-73268847D02*
X172271904Y-73221228D01*
X172271904Y-73221228D02*
X172319523Y-73125990D01*
D12*
%TO.C,J1*%
X141370000Y-51300000D02*
X141370000Y-74280000D01*
X138770000Y-53900000D02*
X138770000Y-51300000D01*
X138770000Y-51300000D02*
X141370000Y-51300000D01*
X136170000Y-74280000D02*
X141370000Y-74280000D01*
X136170000Y-53900000D02*
X138770000Y-53900000D01*
X136170000Y-53900000D02*
X136170000Y-74280000D01*
X136170000Y-52630000D02*
X136170000Y-51300000D01*
X136170000Y-51300000D02*
X137500000Y-51300000D01*
%TO.C,R1*%
X150500000Y-65540000D02*
X150500000Y-64770000D01*
X149130000Y-64770000D02*
X151870000Y-64770000D01*
X151870000Y-64770000D02*
X151870000Y-58230000D01*
X149130000Y-58230000D02*
X149130000Y-64770000D01*
X151870000Y-58230000D02*
X149130000Y-58230000D01*
X150500000Y-57460000D02*
X150500000Y-58230000D01*
%TO.C,R2*%
X146450000Y-65540000D02*
X146450000Y-64770000D01*
X145080000Y-64770000D02*
X147820000Y-64770000D01*
X147820000Y-64770000D02*
X147820000Y-58230000D01*
X145080000Y-58230000D02*
X145080000Y-64770000D01*
X147820000Y-58230000D02*
X145080000Y-58230000D01*
X146450000Y-57460000D02*
X146450000Y-58230000D01*
D11*
%TO.C,U9*%
X154510000Y-45280000D02*
X154510000Y-80280000D01*
X154510000Y-80280000D02*
X188510000Y-80280000D01*
X188510000Y-45280000D02*
X154510000Y-45280000D01*
X188510000Y-80280000D02*
X188510000Y-45280000D01*
%TD*%
M02*
