%TF.GenerationSoftware,KiCad,Pcbnew,9.0.0*%
%TF.CreationDate,2025-03-24T14:10:48-05:00*%
%TF.ProjectId,DIIN-proyecto,4449494e-2d70-4726-9f79-6563746f2e6b,rev?*%
%TF.SameCoordinates,Original*%
%TF.FileFunction,Copper,L2,Bot*%
%TF.FilePolarity,Positive*%
%FSLAX46Y46*%
G04 Gerber Fmt 4.6, Leading zero omitted, Abs format (unit mm)*
G04 Created by KiCad (PCBNEW 9.0.0) date 2025-03-24 14:10:48*
%MOMM*%
%LPD*%
G01*
G04 APERTURE LIST*
%TA.AperFunction,ComponentPad*%
%ADD10O,1.700000X1.700000*%
%TD*%
%TA.AperFunction,ComponentPad*%
%ADD11R,1.700000X1.700000*%
%TD*%
%TA.AperFunction,ComponentPad*%
%ADD12O,1.600000X1.600000*%
%TD*%
%TA.AperFunction,ComponentPad*%
%ADD13C,1.600000*%
%TD*%
%TA.AperFunction,ComponentPad*%
%ADD14C,2.200000*%
%TD*%
%TA.AperFunction,ViaPad*%
%ADD15C,0.600000*%
%TD*%
%TA.AperFunction,Conductor*%
%ADD16C,0.200000*%
%TD*%
G04 APERTURE END LIST*
D10*
%TO.P,J1,18,Pin_18*%
%TO.N,PWDN*%
X140040000Y-72950000D03*
%TO.P,J1,17,Pin_17*%
%TO.N,RESET*%
X137500000Y-72950000D03*
%TO.P,J1,16,Pin_16*%
%TO.N,D0*%
X140040000Y-70410000D03*
%TO.P,J1,15,Pin_15*%
%TO.N,D1*%
X137500000Y-70410000D03*
%TO.P,J1,14,Pin_14*%
%TO.N,D2*%
X140040000Y-67870000D03*
%TO.P,J1,13,Pin_13*%
%TO.N,D3*%
X137500000Y-67870000D03*
%TO.P,J1,12,Pin_12*%
%TO.N,D4*%
X140040000Y-65330000D03*
%TO.P,J1,11,Pin_11*%
%TO.N,D5*%
X137500000Y-65330000D03*
%TO.P,J1,10,Pin_10*%
%TO.N,D6*%
X140040000Y-62790000D03*
%TO.P,J1,9,Pin_9*%
%TO.N,D7*%
X137500000Y-62790000D03*
%TO.P,J1,8,Pin_8*%
%TO.N,XCLK*%
X140040000Y-60250000D03*
%TO.P,J1,7,Pin_7*%
%TO.N,PCLK*%
X137500000Y-60250000D03*
%TO.P,J1,6,Pin_6*%
%TO.N,HREF*%
X140040000Y-57710000D03*
%TO.P,J1,5,Pin_5*%
%TO.N,VSYNC*%
X137500000Y-57710000D03*
%TO.P,J1,4,Pin_4*%
%TO.N,SOID*%
X140040000Y-55170000D03*
%TO.P,J1,3,Pin_3*%
%TO.N,SOIC*%
X137500000Y-55170000D03*
%TO.P,J1,2,Pin_2*%
%TO.N,GND*%
X140040000Y-52630000D03*
D11*
%TO.P,J1,1,Pin_1*%
%TO.N,+3.3V*%
X137500000Y-52630000D03*
%TD*%
D12*
%TO.P,R1,2*%
%TO.N,SOID*%
X150500000Y-66580000D03*
D13*
%TO.P,R1,1*%
%TO.N,+3.3V*%
X150500000Y-56420000D03*
%TD*%
D12*
%TO.P,R2,2*%
%TO.N,SOIC*%
X146450000Y-66580000D03*
D13*
%TO.P,R2,1*%
%TO.N,+3.3V*%
X146450000Y-56420000D03*
%TD*%
D14*
%TO.P,U9,1,+3.3V*%
%TO.N,+3.3V*%
X161350000Y-72470000D03*
%TO.P,U9,2,GND*%
%TO.N,GND*%
X161350000Y-75010000D03*
%TO.P,U9,3,SOIC*%
%TO.N,SOIC*%
X163890000Y-72470000D03*
%TO.P,U9,4,SOID*%
%TO.N,SOID*%
X163890000Y-75010000D03*
%TO.P,U9,5,VSYNC*%
%TO.N,VSYNC*%
X166430000Y-72470000D03*
%TO.P,U9,6,HREF*%
%TO.N,HREF*%
X166430000Y-75010000D03*
%TO.P,U9,7,PCLK*%
%TO.N,PCLK*%
X168970000Y-72470000D03*
%TO.P,U9,8,XCLK*%
%TO.N,XCLK*%
X168970000Y-75010000D03*
%TO.P,U9,9,D7*%
%TO.N,D7*%
X171510000Y-72470000D03*
%TO.P,U9,10,D6*%
%TO.N,D6*%
X171510000Y-75010000D03*
%TO.P,U9,11,D5*%
%TO.N,D5*%
X174050000Y-72470000D03*
%TO.P,U9,12,D4*%
%TO.N,D4*%
X174050000Y-75010000D03*
%TO.P,U9,13,D3*%
%TO.N,D3*%
X176590000Y-72470000D03*
%TO.P,U9,14,D2*%
%TO.N,D2*%
X176590000Y-75010000D03*
%TO.P,U9,15,D1*%
%TO.N,D1*%
X179130000Y-72470000D03*
%TO.P,U9,16,D0*%
%TO.N,D0*%
X179130000Y-75010000D03*
%TO.P,U9,17,RESET*%
%TO.N,RESET*%
X181670000Y-72470000D03*
%TO.P,U9,18,PWDN*%
%TO.N,PWDN*%
X181670000Y-75010000D03*
%TD*%
D15*
%TO.N,VSYNC*%
X165746800Y-58980000D03*
%TO.N,D3*%
X176590000Y-50167200D03*
X136319800Y-50167200D03*
%TO.N,D6*%
X144412300Y-67934700D03*
%TO.N,PCLK*%
X167025000Y-61520000D03*
%TO.N,D7*%
X171510000Y-64005900D03*
%TO.N,D4*%
X174050000Y-79622200D03*
X138877100Y-79622200D03*
%TO.N,D1*%
X148691800Y-64607600D03*
X148691700Y-69360600D03*
%TD*%
D16*
%TO.N,VSYNC*%
X165746800Y-71786800D02*
X165746800Y-58980000D01*
X166430000Y-72470000D02*
X165746800Y-71786800D01*
%TO.N,D3*%
X136319800Y-65826000D02*
X136319800Y-50167200D01*
X137212100Y-66718300D02*
X136319800Y-65826000D01*
X137500000Y-66718300D02*
X137212100Y-66718300D01*
X137500000Y-67870000D02*
X137500000Y-66718300D01*
X176590000Y-72470000D02*
X176590000Y-50167200D01*
%TO.N,XCLK*%
X140040000Y-60250000D02*
X140040000Y-61401700D01*
X166738500Y-77241500D02*
X168970000Y-75010000D01*
X159049500Y-77241500D02*
X166738500Y-77241500D01*
X157579800Y-75771800D02*
X159049500Y-77241500D01*
X153490500Y-75771800D02*
X157579800Y-75771800D01*
X141191700Y-63473000D02*
X153490500Y-75771800D01*
X141191700Y-62289800D02*
X141191700Y-63473000D01*
X140303600Y-61401700D02*
X141191700Y-62289800D01*
X140040000Y-61401700D02*
X140303600Y-61401700D01*
%TO.N,SOID*%
X150500000Y-66580000D02*
X150500000Y-65478300D01*
X140040000Y-55170000D02*
X141191700Y-55170000D01*
X151601700Y-67244000D02*
X151601700Y-66580000D01*
X160795800Y-76438100D02*
X151601700Y-67244000D01*
X162461900Y-76438100D02*
X160795800Y-76438100D01*
X163890000Y-75010000D02*
X162461900Y-76438100D01*
X150500000Y-66580000D02*
X151601700Y-66580000D01*
X150500000Y-64478300D02*
X141191700Y-55170000D01*
X150500000Y-65478300D02*
X150500000Y-64478300D01*
%TO.N,HREF*%
X140040000Y-57710000D02*
X140040000Y-58861700D01*
X164600200Y-76839800D02*
X166430000Y-75010000D01*
X160549300Y-76839800D02*
X164600200Y-76839800D01*
X158754700Y-75045200D02*
X160549300Y-76839800D01*
X153331900Y-75045200D02*
X158754700Y-75045200D01*
X142218200Y-63931500D02*
X153331900Y-75045200D01*
X142218200Y-60751900D02*
X142218200Y-63931500D01*
X140328000Y-58861700D02*
X142218200Y-60751900D01*
X140040000Y-58861700D02*
X140328000Y-58861700D01*
%TO.N,D6*%
X140419300Y-63941700D02*
X140040000Y-63941700D01*
X144412300Y-67934700D02*
X140419300Y-63941700D01*
X140040000Y-62790000D02*
X140040000Y-63941700D01*
%TO.N,SOIC*%
X137500000Y-55170000D02*
X138651700Y-55170000D01*
X146450000Y-62426200D02*
X146450000Y-66580000D01*
X140463800Y-56440000D02*
X146450000Y-62426200D01*
X139653200Y-56440000D02*
X140463800Y-56440000D01*
X138651700Y-55438500D02*
X139653200Y-56440000D01*
X138651700Y-55170000D02*
X138651700Y-55438500D01*
%TO.N,PCLK*%
X167025000Y-70525000D02*
X168970000Y-72470000D01*
X167025000Y-61520000D02*
X167025000Y-70525000D01*
%TO.N,D7*%
X171510000Y-72470000D02*
X171510000Y-64005900D01*
%TO.N,D4*%
X138877100Y-67356700D02*
X138877100Y-79622200D01*
X139752100Y-66481700D02*
X138877100Y-67356700D01*
X140040000Y-66481700D02*
X139752100Y-66481700D01*
X140040000Y-65330000D02*
X140040000Y-66481700D01*
X174050000Y-75010000D02*
X174050000Y-79622200D01*
%TO.N,D1*%
X148691800Y-69360600D02*
X148691800Y-64607600D01*
X148691700Y-69360600D02*
X148691800Y-69360600D01*
%TO.N,+3.3V*%
X161350000Y-67270000D02*
X150500000Y-56420000D01*
X161350000Y-72470000D02*
X161350000Y-67270000D01*
%TD*%
%TA.AperFunction,Conductor*%
%TO.N,GND*%
G36*
X162636974Y-73520743D02*
G01*
X162663334Y-73522629D01*
X162672387Y-73528447D01*
X162679427Y-73529979D01*
X162707681Y-73551130D01*
X162808870Y-73652319D01*
X162842355Y-73713642D01*
X162837371Y-73783334D01*
X162808870Y-73827681D01*
X162669205Y-73967345D01*
X162669201Y-73967350D01*
X162521131Y-74171152D01*
X162507948Y-74197023D01*
X162485147Y-74228404D01*
X161873787Y-74839764D01*
X161862518Y-74797708D01*
X161790110Y-74672292D01*
X161687708Y-74569890D01*
X161562292Y-74497482D01*
X161520232Y-74486212D01*
X162131594Y-73874851D01*
X162162975Y-73852051D01*
X162188845Y-73838870D01*
X162392656Y-73690793D01*
X162532319Y-73551130D01*
X162540264Y-73546791D01*
X162545690Y-73539544D01*
X162570449Y-73530309D01*
X162593642Y-73517645D01*
X162602671Y-73518290D01*
X162611154Y-73515127D01*
X162636974Y-73520743D01*
G37*
%TD.AperFunction*%
%TA.AperFunction,Conductor*%
G36*
X188004043Y-43500765D02*
G01*
X188252895Y-43517075D01*
X188268953Y-43519190D01*
X188476105Y-43560395D01*
X188509535Y-43567045D01*
X188525202Y-43571243D01*
X188694947Y-43628863D01*
X188757481Y-43650091D01*
X188772458Y-43656294D01*
X188981799Y-43759529D01*
X188992460Y-43764787D01*
X189006508Y-43772897D01*
X189210464Y-43909177D01*
X189223328Y-43919048D01*
X189407749Y-44080781D01*
X189419218Y-44092250D01*
X189580951Y-44276671D01*
X189590825Y-44289539D01*
X189727102Y-44493492D01*
X189735212Y-44507539D01*
X189843702Y-44727534D01*
X189849909Y-44742520D01*
X189928756Y-44974797D01*
X189932954Y-44990464D01*
X189980807Y-45231035D01*
X189982925Y-45247116D01*
X189999235Y-45495956D01*
X189999500Y-45504066D01*
X189999500Y-80995933D01*
X189999235Y-81004043D01*
X189982925Y-81252883D01*
X189980807Y-81268964D01*
X189932954Y-81509535D01*
X189928756Y-81525202D01*
X189849909Y-81757479D01*
X189843702Y-81772465D01*
X189735212Y-81992460D01*
X189727102Y-82006507D01*
X189590825Y-82210460D01*
X189580951Y-82223328D01*
X189419218Y-82407749D01*
X189407749Y-82419218D01*
X189223328Y-82580951D01*
X189210460Y-82590825D01*
X189006507Y-82727102D01*
X188992460Y-82735212D01*
X188772465Y-82843702D01*
X188757479Y-82849909D01*
X188525202Y-82928756D01*
X188509535Y-82932954D01*
X188268964Y-82980807D01*
X188252883Y-82982925D01*
X188004043Y-82999235D01*
X187995933Y-82999500D01*
X135504067Y-82999500D01*
X135495957Y-82999235D01*
X135247116Y-82982925D01*
X135231035Y-82980807D01*
X134990464Y-82932954D01*
X134974797Y-82928756D01*
X134742520Y-82849909D01*
X134727534Y-82843702D01*
X134507539Y-82735212D01*
X134493492Y-82727102D01*
X134289539Y-82590825D01*
X134276671Y-82580951D01*
X134092250Y-82419218D01*
X134080781Y-82407749D01*
X133919048Y-82223328D01*
X133909174Y-82210460D01*
X133772897Y-82006507D01*
X133764787Y-81992460D01*
X133658855Y-81777652D01*
X133656294Y-81772458D01*
X133650090Y-81757479D01*
X133571243Y-81525202D01*
X133567045Y-81509535D01*
X133559186Y-81470026D01*
X133519190Y-81268953D01*
X133517075Y-81252895D01*
X133500765Y-81004043D01*
X133500500Y-80995933D01*
X133500500Y-50088353D01*
X135519300Y-50088353D01*
X135519300Y-50246046D01*
X135550061Y-50400689D01*
X135550064Y-50400701D01*
X135610402Y-50546372D01*
X135610409Y-50546385D01*
X135698402Y-50678074D01*
X135719280Y-50744751D01*
X135719300Y-50746965D01*
X135719300Y-65739330D01*
X135719299Y-65739348D01*
X135719299Y-65905054D01*
X135719298Y-65905054D01*
X135719299Y-65905057D01*
X135754873Y-66037820D01*
X135760224Y-66057787D01*
X135772355Y-66078798D01*
X135772356Y-66078800D01*
X135839277Y-66194712D01*
X135839281Y-66194717D01*
X135958149Y-66313585D01*
X135958155Y-66313590D01*
X136464794Y-66820229D01*
X136498279Y-66881552D01*
X136493295Y-66951244D01*
X136472708Y-66986230D01*
X136472759Y-66986267D01*
X136472377Y-66986792D01*
X136471416Y-66988426D01*
X136469902Y-66990198D01*
X136344951Y-67162180D01*
X136248444Y-67351585D01*
X136182753Y-67553760D01*
X136149500Y-67763713D01*
X136149500Y-67976286D01*
X136179895Y-68168197D01*
X136182754Y-68186243D01*
X136246932Y-68383763D01*
X136248444Y-68388414D01*
X136344951Y-68577820D01*
X136469890Y-68749786D01*
X136620213Y-68900109D01*
X136792182Y-69025050D01*
X136800946Y-69029516D01*
X136851742Y-69077491D01*
X136868536Y-69145312D01*
X136845998Y-69211447D01*
X136800946Y-69250484D01*
X136792182Y-69254949D01*
X136620213Y-69379890D01*
X136469890Y-69530213D01*
X136344951Y-69702179D01*
X136248444Y-69891585D01*
X136182753Y-70093760D01*
X136149500Y-70303713D01*
X136149500Y-70516286D01*
X136163401Y-70604057D01*
X136182754Y-70726243D01*
X136242106Y-70908910D01*
X136248444Y-70928414D01*
X136344951Y-71117820D01*
X136469890Y-71289786D01*
X136620213Y-71440109D01*
X136792182Y-71565050D01*
X136800946Y-71569516D01*
X136851742Y-71617491D01*
X136868536Y-71685312D01*
X136845998Y-71751447D01*
X136800946Y-71790484D01*
X136792182Y-71794949D01*
X136620213Y-71919890D01*
X136469890Y-72070213D01*
X136344951Y-72242179D01*
X136248444Y-72431585D01*
X136182753Y-72633760D01*
X136149500Y-72843713D01*
X136149500Y-73056287D01*
X136182754Y-73266243D01*
X136196597Y-73308848D01*
X136248444Y-73468414D01*
X136344951Y-73657820D01*
X136469890Y-73829786D01*
X136620213Y-73980109D01*
X136792179Y-74105048D01*
X136792181Y-74105049D01*
X136792184Y-74105051D01*
X136981588Y-74201557D01*
X137183757Y-74267246D01*
X137393713Y-74300500D01*
X137393714Y-74300500D01*
X137606286Y-74300500D01*
X137606287Y-74300500D01*
X137816243Y-74267246D01*
X138018412Y-74201557D01*
X138027311Y-74197023D01*
X138096304Y-74161869D01*
X138164974Y-74148972D01*
X138229714Y-74175248D01*
X138269972Y-74232354D01*
X138276600Y-74272353D01*
X138276600Y-79042434D01*
X138256915Y-79109473D01*
X138255702Y-79111325D01*
X138167709Y-79243014D01*
X138167702Y-79243027D01*
X138107364Y-79388698D01*
X138107361Y-79388710D01*
X138076600Y-79543353D01*
X138076600Y-79701046D01*
X138107361Y-79855689D01*
X138107364Y-79855701D01*
X138167702Y-80001372D01*
X138167709Y-80001385D01*
X138255310Y-80132488D01*
X138255313Y-80132492D01*
X138366807Y-80243986D01*
X138366811Y-80243989D01*
X138497914Y-80331590D01*
X138497927Y-80331597D01*
X138643598Y-80391935D01*
X138643603Y-80391937D01*
X138798253Y-80422699D01*
X138798256Y-80422700D01*
X138798258Y-80422700D01*
X138955944Y-80422700D01*
X138955945Y-80422699D01*
X139110597Y-80391937D01*
X139256279Y-80331594D01*
X139387389Y-80243989D01*
X139498889Y-80132489D01*
X139586494Y-80001379D01*
X139646837Y-79855697D01*
X139677600Y-79701042D01*
X139677600Y-79543358D01*
X139677600Y-79543355D01*
X139677599Y-79543353D01*
X139646838Y-79388710D01*
X139646837Y-79388703D01*
X139646835Y-79388698D01*
X139586497Y-79243027D01*
X139586490Y-79243014D01*
X139498498Y-79111325D01*
X139477620Y-79044647D01*
X139477600Y-79042434D01*
X139477600Y-74357935D01*
X139497285Y-74290896D01*
X139550089Y-74245141D01*
X139619247Y-74235197D01*
X139639905Y-74240000D01*
X139723757Y-74267246D01*
X139933713Y-74300500D01*
X139933714Y-74300500D01*
X140146286Y-74300500D01*
X140146287Y-74300500D01*
X140356243Y-74267246D01*
X140558412Y-74201557D01*
X140747816Y-74105051D01*
X140797022Y-74069301D01*
X140919786Y-73980109D01*
X140919788Y-73980106D01*
X140919792Y-73980104D01*
X141070104Y-73829792D01*
X141070106Y-73829788D01*
X141070109Y-73829786D01*
X141195048Y-73657820D01*
X141195047Y-73657820D01*
X141195051Y-73657816D01*
X141291557Y-73468412D01*
X141357246Y-73266243D01*
X141390500Y-73056287D01*
X141390500Y-72843713D01*
X141357246Y-72633757D01*
X141291557Y-72431588D01*
X141195051Y-72242184D01*
X141195049Y-72242181D01*
X141195048Y-72242179D01*
X141070109Y-72070213D01*
X140919786Y-71919890D01*
X140747820Y-71794951D01*
X140747115Y-71794591D01*
X140739054Y-71790485D01*
X140688259Y-71742512D01*
X140671463Y-71674692D01*
X140693999Y-71608556D01*
X140739054Y-71569515D01*
X140747816Y-71565051D01*
X140844136Y-71495071D01*
X140919786Y-71440109D01*
X140919788Y-71440106D01*
X140919792Y-71440104D01*
X141070104Y-71289792D01*
X141070106Y-71289788D01*
X141070109Y-71289786D01*
X141195048Y-71117820D01*
X141195047Y-71117820D01*
X141195051Y-71117816D01*
X141291557Y-70928412D01*
X141357246Y-70726243D01*
X141390500Y-70516287D01*
X141390500Y-70303713D01*
X141357246Y-70093757D01*
X141291557Y-69891588D01*
X141195051Y-69702184D01*
X141195049Y-69702181D01*
X141195048Y-69702179D01*
X141070109Y-69530213D01*
X140919786Y-69379890D01*
X140747820Y-69254951D01*
X140747115Y-69254591D01*
X140739054Y-69250485D01*
X140688259Y-69202512D01*
X140671463Y-69134692D01*
X140693999Y-69068556D01*
X140739054Y-69029515D01*
X140747816Y-69025051D01*
X140816601Y-68975076D01*
X140919786Y-68900109D01*
X140919788Y-68900106D01*
X140919792Y-68900104D01*
X141070104Y-68749792D01*
X141070106Y-68749788D01*
X141070109Y-68749786D01*
X141195048Y-68577820D01*
X141195047Y-68577820D01*
X141195051Y-68577816D01*
X141291557Y-68388412D01*
X141357246Y-68186243D01*
X141390500Y-67976287D01*
X141390500Y-67763713D01*
X141357246Y-67553757D01*
X141291557Y-67351588D01*
X141195051Y-67162184D01*
X141195049Y-67162181D01*
X141195048Y-67162179D01*
X141070109Y-66990213D01*
X140919786Y-66839890D01*
X140747815Y-66714948D01*
X140747812Y-66714946D01*
X140739050Y-66710481D01*
X140688256Y-66662505D01*
X140671463Y-66594683D01*
X140694003Y-66528549D01*
X140739060Y-66489512D01*
X140747816Y-66485051D01*
X140747819Y-66485049D01*
X140919786Y-66360109D01*
X140919788Y-66360106D01*
X140919792Y-66360104D01*
X141070104Y-66209792D01*
X141070106Y-66209788D01*
X141070109Y-66209786D01*
X141195050Y-66037817D01*
X141199514Y-66029056D01*
X141276593Y-65877779D01*
X141324566Y-65826985D01*
X141392387Y-65810189D01*
X141458522Y-65832726D01*
X141474758Y-65846394D01*
X143577725Y-67949360D01*
X143611210Y-68010683D01*
X143611661Y-68012849D01*
X143642561Y-68168191D01*
X143642564Y-68168201D01*
X143702902Y-68313872D01*
X143702909Y-68313885D01*
X143790510Y-68444988D01*
X143790513Y-68444992D01*
X143902007Y-68556486D01*
X143902011Y-68556489D01*
X144033114Y-68644090D01*
X144033127Y-68644097D01*
X144178798Y-68704435D01*
X144178803Y-68704437D01*
X144333453Y-68735199D01*
X144333456Y-68735200D01*
X144333458Y-68735200D01*
X144491144Y-68735200D01*
X144491145Y-68735199D01*
X144645797Y-68704437D01*
X144791479Y-68644094D01*
X144922589Y-68556489D01*
X145034089Y-68444989D01*
X145042507Y-68432389D01*
X145062444Y-68402554D01*
X145116056Y-68357748D01*
X145185381Y-68349041D01*
X145248408Y-68379195D01*
X145253227Y-68383763D01*
X153121784Y-76252320D01*
X153121786Y-76252321D01*
X153121790Y-76252324D01*
X153258709Y-76331373D01*
X153258716Y-76331377D01*
X153411443Y-76372301D01*
X153411445Y-76372301D01*
X153577154Y-76372301D01*
X153577170Y-76372300D01*
X155317145Y-76372300D01*
X155384184Y-76391985D01*
X155429939Y-76444789D01*
X155439883Y-76513947D01*
X155415520Y-76571787D01*
X155343075Y-76666196D01*
X155211958Y-76893299D01*
X155211953Y-76893309D01*
X155111605Y-77135571D01*
X155111602Y-77135581D01*
X155043730Y-77388885D01*
X155009500Y-77648872D01*
X155009500Y-77911127D01*
X155014594Y-77949815D01*
X155043730Y-78171116D01*
X155065178Y-78251161D01*
X155111602Y-78424418D01*
X155111605Y-78424428D01*
X155211953Y-78666690D01*
X155211958Y-78666700D01*
X155343075Y-78893803D01*
X155502718Y-79101851D01*
X155502726Y-79101860D01*
X155688140Y-79287274D01*
X155688148Y-79287281D01*
X155896196Y-79446924D01*
X156123299Y-79578041D01*
X156123309Y-79578046D01*
X156365571Y-79678394D01*
X156365581Y-79678398D01*
X156618884Y-79746270D01*
X156878880Y-79780500D01*
X156878887Y-79780500D01*
X157141113Y-79780500D01*
X157141120Y-79780500D01*
X157401116Y-79746270D01*
X157654419Y-79678398D01*
X157896697Y-79578043D01*
X158123803Y-79446924D01*
X158331851Y-79287282D01*
X158331855Y-79287277D01*
X158331860Y-79287274D01*
X158517274Y-79101860D01*
X158517277Y-79101855D01*
X158517282Y-79101851D01*
X158676924Y-78893803D01*
X158808043Y-78666697D01*
X158908398Y-78424419D01*
X158976270Y-78171116D01*
X159005406Y-77949815D01*
X159005713Y-77949120D01*
X159005605Y-77948370D01*
X159019820Y-77917231D01*
X159033673Y-77885919D01*
X159034306Y-77885501D01*
X159034622Y-77884810D01*
X159063458Y-77866272D01*
X159091998Y-77847448D01*
X159092967Y-77847302D01*
X159093395Y-77847028D01*
X159120797Y-77843086D01*
X159120782Y-77842959D01*
X159120790Y-77842958D01*
X159122380Y-77842858D01*
X159127951Y-77842057D01*
X159128329Y-77842001D01*
X159128558Y-77842001D01*
X159128558Y-77842000D01*
X159136154Y-77842000D01*
X166651831Y-77842000D01*
X166651847Y-77842001D01*
X166659443Y-77842001D01*
X166817554Y-77842001D01*
X166817557Y-77842001D01*
X166970285Y-77801077D01*
X167020404Y-77772139D01*
X167107216Y-77722020D01*
X167219020Y-77610216D01*
X167219020Y-77610214D01*
X167229228Y-77600007D01*
X167229229Y-77600004D01*
X168287078Y-76542156D01*
X168348399Y-76508673D01*
X168413071Y-76511907D01*
X168558944Y-76559305D01*
X168595214Y-76571090D01*
X168628109Y-76576300D01*
X168844038Y-76610500D01*
X168844039Y-76610500D01*
X169095961Y-76610500D01*
X169095962Y-76610500D01*
X169344785Y-76571090D01*
X169584379Y-76493241D01*
X169808845Y-76378870D01*
X170012656Y-76230793D01*
X170152319Y-76091130D01*
X170213642Y-76057645D01*
X170283334Y-76062629D01*
X170327681Y-76091130D01*
X170467345Y-76230794D01*
X170467350Y-76230798D01*
X170605781Y-76331373D01*
X170671155Y-76378870D01*
X170814184Y-76451747D01*
X170895616Y-76493239D01*
X170895618Y-76493239D01*
X170895621Y-76493241D01*
X171135215Y-76571090D01*
X171384038Y-76610500D01*
X171384039Y-76610500D01*
X171635961Y-76610500D01*
X171635962Y-76610500D01*
X171884785Y-76571090D01*
X172124379Y-76493241D01*
X172348845Y-76378870D01*
X172552656Y-76230793D01*
X172692319Y-76091130D01*
X172753642Y-76057645D01*
X172823334Y-76062629D01*
X172867681Y-76091130D01*
X173007345Y-76230794D01*
X173007350Y-76230798D01*
X173145781Y-76331373D01*
X173211155Y-76378870D01*
X173381795Y-76465815D01*
X173432591Y-76513789D01*
X173449500Y-76576300D01*
X173449500Y-79042434D01*
X173429815Y-79109473D01*
X173428602Y-79111325D01*
X173340609Y-79243014D01*
X173340602Y-79243027D01*
X173280264Y-79388698D01*
X173280261Y-79388710D01*
X173249500Y-79543353D01*
X173249500Y-79701046D01*
X173280261Y-79855689D01*
X173280264Y-79855701D01*
X173340602Y-80001372D01*
X173340609Y-80001385D01*
X173428210Y-80132488D01*
X173428213Y-80132492D01*
X173539707Y-80243986D01*
X173539711Y-80243989D01*
X173670814Y-80331590D01*
X173670827Y-80331597D01*
X173816498Y-80391935D01*
X173816503Y-80391937D01*
X173971153Y-80422699D01*
X173971156Y-80422700D01*
X173971158Y-80422700D01*
X174128844Y-80422700D01*
X174128845Y-80422699D01*
X174283497Y-80391937D01*
X174429179Y-80331594D01*
X174560289Y-80243989D01*
X174671789Y-80132489D01*
X174759394Y-80001379D01*
X174819737Y-79855697D01*
X174850500Y-79701042D01*
X174850500Y-79543358D01*
X174850500Y-79543355D01*
X174850499Y-79543353D01*
X174819738Y-79388710D01*
X174819737Y-79388703D01*
X174819735Y-79388698D01*
X174759397Y-79243027D01*
X174759390Y-79243014D01*
X174671398Y-79111325D01*
X174650520Y-79044647D01*
X174650500Y-79042434D01*
X174650500Y-77648872D01*
X184009500Y-77648872D01*
X184009500Y-77911127D01*
X184014594Y-77949815D01*
X184043730Y-78171116D01*
X184065178Y-78251161D01*
X184111602Y-78424418D01*
X184111605Y-78424428D01*
X184211953Y-78666690D01*
X184211958Y-78666700D01*
X184343075Y-78893803D01*
X184502718Y-79101851D01*
X184502726Y-79101860D01*
X184688140Y-79287274D01*
X184688148Y-79287281D01*
X184896196Y-79446924D01*
X185123299Y-79578041D01*
X185123309Y-79578046D01*
X185365571Y-79678394D01*
X185365581Y-79678398D01*
X185618884Y-79746270D01*
X185878880Y-79780500D01*
X185878887Y-79780500D01*
X186141113Y-79780500D01*
X186141120Y-79780500D01*
X186401116Y-79746270D01*
X186654419Y-79678398D01*
X186896697Y-79578043D01*
X187123803Y-79446924D01*
X187331851Y-79287282D01*
X187331855Y-79287277D01*
X187331860Y-79287274D01*
X187517274Y-79101860D01*
X187517277Y-79101855D01*
X187517282Y-79101851D01*
X187676924Y-78893803D01*
X187808043Y-78666697D01*
X187908398Y-78424419D01*
X187976270Y-78171116D01*
X188010500Y-77911120D01*
X188010500Y-77648880D01*
X187976270Y-77388884D01*
X187908398Y-77135581D01*
X187810204Y-76898520D01*
X187808046Y-76893309D01*
X187808041Y-76893299D01*
X187676924Y-76666196D01*
X187517281Y-76458148D01*
X187517274Y-76458140D01*
X187331860Y-76272726D01*
X187331851Y-76272718D01*
X187123803Y-76113075D01*
X186896700Y-75981958D01*
X186896690Y-75981953D01*
X186654428Y-75881605D01*
X186654421Y-75881603D01*
X186654419Y-75881602D01*
X186401116Y-75813730D01*
X186343339Y-75806123D01*
X186141127Y-75779500D01*
X186141120Y-75779500D01*
X185878880Y-75779500D01*
X185878872Y-75779500D01*
X185647772Y-75809926D01*
X185618884Y-75813730D01*
X185365581Y-75881602D01*
X185365571Y-75881605D01*
X185123309Y-75981953D01*
X185123299Y-75981958D01*
X184896196Y-76113075D01*
X184688148Y-76272718D01*
X184502718Y-76458148D01*
X184343075Y-76666196D01*
X184211958Y-76893299D01*
X184211953Y-76893309D01*
X184111605Y-77135571D01*
X184111602Y-77135581D01*
X184043730Y-77388885D01*
X184009500Y-77648872D01*
X174650500Y-77648872D01*
X174650500Y-76576300D01*
X174670185Y-76509261D01*
X174718204Y-76465815D01*
X174888845Y-76378870D01*
X175092656Y-76230793D01*
X175232319Y-76091130D01*
X175293642Y-76057645D01*
X175363334Y-76062629D01*
X175407681Y-76091130D01*
X175547345Y-76230794D01*
X175547350Y-76230798D01*
X175685781Y-76331373D01*
X175751155Y-76378870D01*
X175894184Y-76451747D01*
X175975616Y-76493239D01*
X175975618Y-76493239D01*
X175975621Y-76493241D01*
X176215215Y-76571090D01*
X176464038Y-76610500D01*
X176464039Y-76610500D01*
X176715961Y-76610500D01*
X176715962Y-76610500D01*
X176964785Y-76571090D01*
X177204379Y-76493241D01*
X177428845Y-76378870D01*
X177632656Y-76230793D01*
X177772319Y-76091130D01*
X177833642Y-76057645D01*
X177903334Y-76062629D01*
X177947681Y-76091130D01*
X178087345Y-76230794D01*
X178087350Y-76230798D01*
X178225781Y-76331373D01*
X178291155Y-76378870D01*
X178434184Y-76451747D01*
X178515616Y-76493239D01*
X178515618Y-76493239D01*
X178515621Y-76493241D01*
X178755215Y-76571090D01*
X179004038Y-76610500D01*
X179004039Y-76610500D01*
X179255961Y-76610500D01*
X179255962Y-76610500D01*
X179504785Y-76571090D01*
X179744379Y-76493241D01*
X179968845Y-76378870D01*
X180172656Y-76230793D01*
X180312319Y-76091130D01*
X180373642Y-76057645D01*
X180443334Y-76062629D01*
X180487681Y-76091130D01*
X180627345Y-76230794D01*
X180627350Y-76230798D01*
X180765781Y-76331373D01*
X180831155Y-76378870D01*
X180974184Y-76451747D01*
X181055616Y-76493239D01*
X181055618Y-76493239D01*
X181055621Y-76493241D01*
X181295215Y-76571090D01*
X181544038Y-76610500D01*
X181544039Y-76610500D01*
X181795961Y-76610500D01*
X181795962Y-76610500D01*
X182044785Y-76571090D01*
X182284379Y-76493241D01*
X182508845Y-76378870D01*
X182712656Y-76230793D01*
X182890793Y-76052656D01*
X183038870Y-75848845D01*
X183153241Y-75624379D01*
X183231090Y-75384785D01*
X183270500Y-75135962D01*
X183270500Y-74884038D01*
X183231090Y-74635215D01*
X183153241Y-74395621D01*
X183153239Y-74395618D01*
X183153239Y-74395616D01*
X183090433Y-74272353D01*
X183038870Y-74171155D01*
X182954534Y-74055076D01*
X182890798Y-73967350D01*
X182890794Y-73967345D01*
X182751130Y-73827681D01*
X182717645Y-73766358D01*
X182722629Y-73696666D01*
X182751130Y-73652319D01*
X182890793Y-73512656D01*
X183038870Y-73308845D01*
X183153241Y-73084379D01*
X183231090Y-72844785D01*
X183270500Y-72595962D01*
X183270500Y-72344038D01*
X183231090Y-72095215D01*
X183153241Y-71855621D01*
X183153239Y-71855618D01*
X183153239Y-71855616D01*
X183084574Y-71720855D01*
X183038870Y-71631155D01*
X182954534Y-71515076D01*
X182890798Y-71427350D01*
X182890794Y-71427345D01*
X182712654Y-71249205D01*
X182712649Y-71249201D01*
X182508848Y-71101132D01*
X182508847Y-71101131D01*
X182508845Y-71101130D01*
X182438747Y-71065413D01*
X182284383Y-70986760D01*
X182044785Y-70908910D01*
X182011884Y-70903699D01*
X181795962Y-70869500D01*
X181544038Y-70869500D01*
X181419626Y-70889205D01*
X181295214Y-70908910D01*
X181055616Y-70986760D01*
X180831151Y-71101132D01*
X180627350Y-71249201D01*
X180627345Y-71249205D01*
X180487681Y-71388870D01*
X180426358Y-71422355D01*
X180356666Y-71417371D01*
X180312319Y-71388870D01*
X180172654Y-71249205D01*
X180172649Y-71249201D01*
X179968848Y-71101132D01*
X179968847Y-71101131D01*
X179968845Y-71101130D01*
X179898747Y-71065413D01*
X179744383Y-70986760D01*
X179504785Y-70908910D01*
X179471884Y-70903699D01*
X179255962Y-70869500D01*
X179004038Y-70869500D01*
X178879626Y-70889205D01*
X178755214Y-70908910D01*
X178515616Y-70986760D01*
X178291151Y-71101132D01*
X178087350Y-71249201D01*
X178087345Y-71249205D01*
X177947681Y-71388870D01*
X177886358Y-71422355D01*
X177816666Y-71417371D01*
X177772319Y-71388870D01*
X177632654Y-71249205D01*
X177632649Y-71249201D01*
X177428848Y-71101132D01*
X177428847Y-71101131D01*
X177428845Y-71101130D01*
X177359186Y-71065637D01*
X177258205Y-71014184D01*
X177207409Y-70966209D01*
X177190500Y-70903699D01*
X177190500Y-50746965D01*
X177210185Y-50679926D01*
X177211398Y-50678074D01*
X177299390Y-50546385D01*
X177299390Y-50546384D01*
X177299394Y-50546379D01*
X177359737Y-50400697D01*
X177390500Y-50246042D01*
X177390500Y-50088358D01*
X177390500Y-50088355D01*
X177390499Y-50088353D01*
X177359738Y-49933710D01*
X177359737Y-49933703D01*
X177359735Y-49933698D01*
X177299397Y-49788027D01*
X177299390Y-49788014D01*
X177211789Y-49656911D01*
X177211786Y-49656907D01*
X177100292Y-49545413D01*
X177100288Y-49545410D01*
X176969185Y-49457809D01*
X176969172Y-49457802D01*
X176823501Y-49397464D01*
X176823489Y-49397461D01*
X176668845Y-49366700D01*
X176668842Y-49366700D01*
X176511158Y-49366700D01*
X176511155Y-49366700D01*
X176356510Y-49397461D01*
X176356498Y-49397464D01*
X176210827Y-49457802D01*
X176210814Y-49457809D01*
X176079711Y-49545410D01*
X176079707Y-49545413D01*
X175968213Y-49656907D01*
X175968210Y-49656911D01*
X175880609Y-49788014D01*
X175880602Y-49788027D01*
X175820264Y-49933698D01*
X175820261Y-49933710D01*
X175789500Y-50088353D01*
X175789500Y-50246046D01*
X175820261Y-50400689D01*
X175820264Y-50400701D01*
X175880602Y-50546372D01*
X175880609Y-50546385D01*
X175968602Y-50678074D01*
X175989480Y-50744751D01*
X175989500Y-50746965D01*
X175989500Y-70903699D01*
X175969815Y-70970738D01*
X175921795Y-71014184D01*
X175751151Y-71101132D01*
X175547350Y-71249201D01*
X175547345Y-71249205D01*
X175407681Y-71388870D01*
X175346358Y-71422355D01*
X175276666Y-71417371D01*
X175232319Y-71388870D01*
X175092654Y-71249205D01*
X175092649Y-71249201D01*
X174888848Y-71101132D01*
X174888847Y-71101131D01*
X174888845Y-71101130D01*
X174818747Y-71065413D01*
X174664383Y-70986760D01*
X174424785Y-70908910D01*
X174391884Y-70903699D01*
X174175962Y-70869500D01*
X173924038Y-70869500D01*
X173799626Y-70889205D01*
X173675214Y-70908910D01*
X173435616Y-70986760D01*
X173211151Y-71101132D01*
X173007350Y-71249201D01*
X173007345Y-71249205D01*
X172867681Y-71388870D01*
X172806358Y-71422355D01*
X172736666Y-71417371D01*
X172692319Y-71388870D01*
X172552654Y-71249205D01*
X172552649Y-71249201D01*
X172348848Y-71101132D01*
X172348847Y-71101131D01*
X172348845Y-71101130D01*
X172279186Y-71065637D01*
X172178205Y-71014184D01*
X172127409Y-70966209D01*
X172110500Y-70903699D01*
X172110500Y-64585665D01*
X172130185Y-64518626D01*
X172131398Y-64516774D01*
X172219390Y-64385085D01*
X172219390Y-64385084D01*
X172219394Y-64385079D01*
X172223938Y-64374110D01*
X172254680Y-64299890D01*
X172279737Y-64239397D01*
X172310500Y-64084742D01*
X172310500Y-63927058D01*
X172310500Y-63927055D01*
X172310499Y-63927053D01*
X172279737Y-63772403D01*
X172242608Y-63682765D01*
X172219397Y-63626727D01*
X172219390Y-63626714D01*
X172131789Y-63495611D01*
X172131786Y-63495607D01*
X172020292Y-63384113D01*
X172020288Y-63384110D01*
X171889185Y-63296509D01*
X171889172Y-63296502D01*
X171743501Y-63236164D01*
X171743489Y-63236161D01*
X171588845Y-63205400D01*
X171588842Y-63205400D01*
X171431158Y-63205400D01*
X171431155Y-63205400D01*
X171276510Y-63236161D01*
X171276498Y-63236164D01*
X171130827Y-63296502D01*
X171130814Y-63296509D01*
X170999711Y-63384110D01*
X170999707Y-63384113D01*
X170888213Y-63495607D01*
X170888210Y-63495611D01*
X170800609Y-63626714D01*
X170800602Y-63626727D01*
X170740264Y-63772398D01*
X170740261Y-63772410D01*
X170709500Y-63927053D01*
X170709500Y-64084746D01*
X170740261Y-64239389D01*
X170740264Y-64239401D01*
X170800602Y-64385072D01*
X170800609Y-64385085D01*
X170888602Y-64516774D01*
X170909480Y-64583451D01*
X170909500Y-64585665D01*
X170909500Y-70903699D01*
X170889815Y-70970738D01*
X170841795Y-71014184D01*
X170671151Y-71101132D01*
X170467350Y-71249201D01*
X170467345Y-71249205D01*
X170327681Y-71388870D01*
X170266358Y-71422355D01*
X170196666Y-71417371D01*
X170152319Y-71388870D01*
X170012654Y-71249205D01*
X170012649Y-71249201D01*
X169808848Y-71101132D01*
X169808847Y-71101131D01*
X169808845Y-71101130D01*
X169738747Y-71065413D01*
X169584383Y-70986760D01*
X169344785Y-70908910D01*
X169311884Y-70903699D01*
X169095962Y-70869500D01*
X168844038Y-70869500D01*
X168719626Y-70889205D01*
X168595214Y-70908910D01*
X168535194Y-70928412D01*
X168413074Y-70968091D01*
X168343234Y-70970086D01*
X168287076Y-70937841D01*
X167661819Y-70312584D01*
X167628334Y-70251261D01*
X167625500Y-70224903D01*
X167625500Y-62099765D01*
X167645185Y-62032726D01*
X167646398Y-62030874D01*
X167658363Y-62012968D01*
X167734394Y-61899179D01*
X167794737Y-61753497D01*
X167825500Y-61598842D01*
X167825500Y-61441158D01*
X167825500Y-61441155D01*
X167825499Y-61441153D01*
X167794737Y-61286503D01*
X167792089Y-61280109D01*
X167734397Y-61140827D01*
X167734390Y-61140814D01*
X167646789Y-61009711D01*
X167646786Y-61009707D01*
X167535292Y-60898213D01*
X167535288Y-60898210D01*
X167404185Y-60810609D01*
X167404172Y-60810602D01*
X167258501Y-60750264D01*
X167258489Y-60750261D01*
X167103845Y-60719500D01*
X167103842Y-60719500D01*
X166946158Y-60719500D01*
X166946155Y-60719500D01*
X166791510Y-60750261D01*
X166791498Y-60750264D01*
X166645827Y-60810602D01*
X166645814Y-60810609D01*
X166540191Y-60881185D01*
X166473513Y-60902063D01*
X166406133Y-60883578D01*
X166359443Y-60831599D01*
X166347300Y-60778083D01*
X166347300Y-59559765D01*
X166366985Y-59492726D01*
X166368198Y-59490874D01*
X166456190Y-59359185D01*
X166456190Y-59359184D01*
X166456194Y-59359179D01*
X166516537Y-59213497D01*
X166547300Y-59058842D01*
X166547300Y-58901158D01*
X166547300Y-58901155D01*
X166547299Y-58901153D01*
X166516537Y-58746503D01*
X166513889Y-58740109D01*
X166456197Y-58600827D01*
X166456190Y-58600814D01*
X166368589Y-58469711D01*
X166368586Y-58469707D01*
X166257092Y-58358213D01*
X166257088Y-58358210D01*
X166125985Y-58270609D01*
X166125972Y-58270602D01*
X165980301Y-58210264D01*
X165980289Y-58210261D01*
X165825645Y-58179500D01*
X165825642Y-58179500D01*
X165667958Y-58179500D01*
X165667955Y-58179500D01*
X165513310Y-58210261D01*
X165513298Y-58210264D01*
X165367627Y-58270602D01*
X165367614Y-58270609D01*
X165236511Y-58358210D01*
X165236507Y-58358213D01*
X165125013Y-58469707D01*
X165125010Y-58469711D01*
X165037409Y-58600814D01*
X165037402Y-58600827D01*
X164977064Y-58746498D01*
X164977061Y-58746510D01*
X164946300Y-58901153D01*
X164946300Y-59058846D01*
X164977061Y-59213489D01*
X164977064Y-59213501D01*
X165037402Y-59359172D01*
X165037409Y-59359185D01*
X165125402Y-59490874D01*
X165146280Y-59557551D01*
X165146300Y-59559765D01*
X165146300Y-71163489D01*
X165126615Y-71230528D01*
X165073811Y-71276283D01*
X165004653Y-71286227D01*
X164941097Y-71257202D01*
X164934619Y-71251170D01*
X164932654Y-71249205D01*
X164932649Y-71249201D01*
X164728848Y-71101132D01*
X164728847Y-71101131D01*
X164728845Y-71101130D01*
X164658747Y-71065413D01*
X164504383Y-70986760D01*
X164264785Y-70908910D01*
X164231884Y-70903699D01*
X164015962Y-70869500D01*
X163764038Y-70869500D01*
X163639626Y-70889205D01*
X163515214Y-70908910D01*
X163275616Y-70986760D01*
X163051151Y-71101132D01*
X162847350Y-71249201D01*
X162847345Y-71249205D01*
X162707681Y-71388870D01*
X162646358Y-71422355D01*
X162576666Y-71417371D01*
X162532319Y-71388870D01*
X162392654Y-71249205D01*
X162392649Y-71249201D01*
X162188848Y-71101132D01*
X162188847Y-71101131D01*
X162188845Y-71101130D01*
X162119186Y-71065637D01*
X162018205Y-71014184D01*
X161967409Y-70966209D01*
X161950500Y-70903699D01*
X161950500Y-67190945D01*
X161950500Y-67190943D01*
X161922653Y-67087016D01*
X161909577Y-67038215D01*
X161858694Y-66950084D01*
X161858693Y-66950082D01*
X161830522Y-66901287D01*
X161830521Y-66901286D01*
X161830520Y-66901284D01*
X161718716Y-66789480D01*
X161718715Y-66789479D01*
X161714385Y-66785149D01*
X161714374Y-66785139D01*
X151794077Y-56864842D01*
X151760592Y-56803519D01*
X151763828Y-56738841D01*
X151764079Y-56738069D01*
X151768477Y-56724534D01*
X151800500Y-56522352D01*
X151800500Y-56317648D01*
X151781178Y-56195657D01*
X151768477Y-56115465D01*
X151705218Y-55920776D01*
X151671503Y-55854607D01*
X151612287Y-55738390D01*
X151604556Y-55727749D01*
X151491971Y-55572786D01*
X151347213Y-55428028D01*
X151181613Y-55307715D01*
X151181612Y-55307714D01*
X151181610Y-55307713D01*
X151124653Y-55278691D01*
X150999223Y-55214781D01*
X150804534Y-55151522D01*
X150629995Y-55123878D01*
X150602352Y-55119500D01*
X150397648Y-55119500D01*
X150373329Y-55123351D01*
X150195465Y-55151522D01*
X150000776Y-55214781D01*
X149818386Y-55307715D01*
X149652786Y-55428028D01*
X149508028Y-55572786D01*
X149387715Y-55738386D01*
X149294781Y-55920776D01*
X149231522Y-56115465D01*
X149199500Y-56317648D01*
X149199500Y-56522351D01*
X149231522Y-56724534D01*
X149294781Y-56919223D01*
X149341517Y-57010946D01*
X149364472Y-57055998D01*
X149387715Y-57101613D01*
X149508028Y-57267213D01*
X149652786Y-57411971D01*
X149807749Y-57524556D01*
X149818390Y-57532287D01*
X149934607Y-57591503D01*
X150000776Y-57625218D01*
X150000778Y-57625218D01*
X150000781Y-57625220D01*
X150105137Y-57659127D01*
X150195465Y-57688477D01*
X150296557Y-57704488D01*
X150397648Y-57720500D01*
X150397649Y-57720500D01*
X150602351Y-57720500D01*
X150602352Y-57720500D01*
X150804534Y-57688477D01*
X150818842Y-57683827D01*
X150888682Y-57681831D01*
X150944842Y-57714077D01*
X160713181Y-67482416D01*
X160746666Y-67543739D01*
X160749500Y-67570097D01*
X160749500Y-70903699D01*
X160729815Y-70970738D01*
X160681795Y-71014184D01*
X160511151Y-71101132D01*
X160307350Y-71249201D01*
X160307345Y-71249205D01*
X160129205Y-71427345D01*
X160129201Y-71427350D01*
X159981132Y-71631151D01*
X159866760Y-71855616D01*
X159788910Y-72095214D01*
X159749500Y-72344038D01*
X159749500Y-72595961D01*
X159788910Y-72844785D01*
X159866760Y-73084383D01*
X159981132Y-73308848D01*
X160129201Y-73512649D01*
X160129205Y-73512654D01*
X160307345Y-73690794D01*
X160307350Y-73690798D01*
X160511153Y-73838869D01*
X160537018Y-73852048D01*
X160568405Y-73874852D01*
X161179765Y-74486212D01*
X161137708Y-74497482D01*
X161012292Y-74569890D01*
X160909890Y-74672292D01*
X160837482Y-74797708D01*
X160826212Y-74839765D01*
X160055748Y-74069300D01*
X160055747Y-74069301D01*
X159981559Y-74171413D01*
X159867220Y-74395813D01*
X159864887Y-74402993D01*
X159825444Y-74460664D01*
X159761083Y-74487856D01*
X159692238Y-74475935D01*
X159659279Y-74452344D01*
X152238519Y-67031584D01*
X152205034Y-66970261D01*
X152202200Y-66943903D01*
X152202200Y-66500945D01*
X152202200Y-66500943D01*
X152161277Y-66348216D01*
X152083756Y-66213944D01*
X152082224Y-66211290D01*
X152082218Y-66211282D01*
X151970417Y-66099481D01*
X151970409Y-66099475D01*
X151833490Y-66020426D01*
X151833485Y-66020423D01*
X151702650Y-65985366D01*
X151642990Y-65949000D01*
X151624260Y-65921887D01*
X151612286Y-65898388D01*
X151491971Y-65732786D01*
X151347213Y-65588028D01*
X151181610Y-65467712D01*
X151168200Y-65460879D01*
X151117406Y-65412903D01*
X151100500Y-65350397D01*
X151100500Y-64399245D01*
X151100499Y-64399241D01*
X151093762Y-64374098D01*
X151092115Y-64367949D01*
X151059577Y-64246515D01*
X150998369Y-64140500D01*
X150980520Y-64109584D01*
X150868716Y-63997780D01*
X150868713Y-63997778D01*
X143188583Y-56317648D01*
X145149500Y-56317648D01*
X145149500Y-56522351D01*
X145181522Y-56724534D01*
X145244781Y-56919223D01*
X145291517Y-57010946D01*
X145314472Y-57055998D01*
X145337715Y-57101613D01*
X145458028Y-57267213D01*
X145602786Y-57411971D01*
X145757749Y-57524556D01*
X145768390Y-57532287D01*
X145884607Y-57591503D01*
X145950776Y-57625218D01*
X145950778Y-57625218D01*
X145950781Y-57625220D01*
X146055137Y-57659127D01*
X146145465Y-57688477D01*
X146246557Y-57704488D01*
X146347648Y-57720500D01*
X146347649Y-57720500D01*
X146552351Y-57720500D01*
X146552352Y-57720500D01*
X146754534Y-57688477D01*
X146949219Y-57625220D01*
X147131610Y-57532287D01*
X147224590Y-57464732D01*
X147297213Y-57411971D01*
X147297215Y-57411968D01*
X147297219Y-57411966D01*
X147441966Y-57267219D01*
X147441968Y-57267215D01*
X147441971Y-57267213D01*
X147496915Y-57191588D01*
X147562287Y-57101610D01*
X147655220Y-56919219D01*
X147718477Y-56724534D01*
X147750500Y-56522352D01*
X147750500Y-56317648D01*
X147731178Y-56195657D01*
X147718477Y-56115465D01*
X147655218Y-55920776D01*
X147621503Y-55854607D01*
X147562287Y-55738390D01*
X147554556Y-55727749D01*
X147441971Y-55572786D01*
X147297213Y-55428028D01*
X147131613Y-55307715D01*
X147131612Y-55307714D01*
X147131610Y-55307713D01*
X147074653Y-55278691D01*
X146949223Y-55214781D01*
X146754534Y-55151522D01*
X146579995Y-55123878D01*
X146552352Y-55119500D01*
X146347648Y-55119500D01*
X146323329Y-55123351D01*
X146145465Y-55151522D01*
X145950776Y-55214781D01*
X145768386Y-55307715D01*
X145602786Y-55428028D01*
X145458028Y-55572786D01*
X145337715Y-55738386D01*
X145244781Y-55920776D01*
X145181522Y-56115465D01*
X145149500Y-56317648D01*
X143188583Y-56317648D01*
X141679290Y-54808355D01*
X141679288Y-54808352D01*
X141560417Y-54689481D01*
X141560416Y-54689480D01*
X141473604Y-54639360D01*
X141423485Y-54610423D01*
X141294424Y-54575840D01*
X141289257Y-54573952D01*
X141265398Y-54556334D01*
X141240072Y-54540897D01*
X141235469Y-54534234D01*
X141233050Y-54532448D01*
X141231596Y-54528627D01*
X141221342Y-54513783D01*
X141195051Y-54462184D01*
X141187023Y-54451134D01*
X141070109Y-54290213D01*
X140919786Y-54139890D01*
X140747817Y-54014949D01*
X140738504Y-54010204D01*
X140687707Y-53962230D01*
X140670912Y-53894409D01*
X140693449Y-53828274D01*
X140738507Y-53789232D01*
X140747558Y-53784620D01*
X140919459Y-53659727D01*
X140919464Y-53659723D01*
X141069723Y-53509464D01*
X141069727Y-53509459D01*
X141194620Y-53337557D01*
X141291095Y-53148217D01*
X141356757Y-52946129D01*
X141356757Y-52946126D01*
X141367231Y-52880000D01*
X140473012Y-52880000D01*
X140505925Y-52822993D01*
X140540000Y-52695826D01*
X140540000Y-52564174D01*
X140505925Y-52437007D01*
X140473012Y-52380000D01*
X141367231Y-52380000D01*
X141356757Y-52313873D01*
X141356757Y-52313870D01*
X141291095Y-52111782D01*
X141194620Y-51922442D01*
X141069727Y-51750540D01*
X141069723Y-51750535D01*
X140919464Y-51600276D01*
X140919459Y-51600272D01*
X140747557Y-51475379D01*
X140558215Y-51378903D01*
X140356124Y-51313241D01*
X140290000Y-51302768D01*
X140290000Y-52196988D01*
X140232993Y-52164075D01*
X140105826Y-52130000D01*
X139974174Y-52130000D01*
X139847007Y-52164075D01*
X139790000Y-52196988D01*
X139790000Y-51302768D01*
X139789999Y-51302768D01*
X139723875Y-51313241D01*
X139521784Y-51378903D01*
X139332442Y-51475379D01*
X139160541Y-51600271D01*
X139046865Y-51713947D01*
X138985542Y-51747431D01*
X138915850Y-51742447D01*
X138859917Y-51700575D01*
X138843002Y-51669598D01*
X138793797Y-51537671D01*
X138793793Y-51537664D01*
X138707547Y-51422455D01*
X138707544Y-51422452D01*
X138592335Y-51336206D01*
X138592328Y-51336202D01*
X138457482Y-51285908D01*
X138457483Y-51285908D01*
X138397883Y-51279501D01*
X138397881Y-51279500D01*
X138397873Y-51279500D01*
X138397865Y-51279500D01*
X137044300Y-51279500D01*
X136977261Y-51259815D01*
X136931506Y-51207011D01*
X136920300Y-51155500D01*
X136920300Y-50746965D01*
X136939985Y-50679926D01*
X136941198Y-50678074D01*
X137029190Y-50546385D01*
X137029190Y-50546384D01*
X137029194Y-50546379D01*
X137089537Y-50400697D01*
X137120300Y-50246042D01*
X137120300Y-50088358D01*
X137120300Y-50088355D01*
X137120299Y-50088353D01*
X137089538Y-49933710D01*
X137089537Y-49933703D01*
X137089535Y-49933698D01*
X137029197Y-49788027D01*
X137029190Y-49788014D01*
X136941589Y-49656911D01*
X136941586Y-49656907D01*
X136830092Y-49545413D01*
X136830088Y-49545410D01*
X136698985Y-49457809D01*
X136698972Y-49457802D01*
X136553301Y-49397464D01*
X136553289Y-49397461D01*
X136398645Y-49366700D01*
X136398642Y-49366700D01*
X136240958Y-49366700D01*
X136240955Y-49366700D01*
X136086310Y-49397461D01*
X136086298Y-49397464D01*
X135940627Y-49457802D01*
X135940614Y-49457809D01*
X135809511Y-49545410D01*
X135809507Y-49545413D01*
X135698013Y-49656907D01*
X135698010Y-49656911D01*
X135610409Y-49788014D01*
X135610402Y-49788027D01*
X135550064Y-49933698D01*
X135550061Y-49933710D01*
X135519300Y-50088353D01*
X133500500Y-50088353D01*
X133500500Y-47648872D01*
X155009500Y-47648872D01*
X155009500Y-47911127D01*
X155030436Y-48070140D01*
X155043730Y-48171116D01*
X155065178Y-48251161D01*
X155111602Y-48424418D01*
X155111605Y-48424428D01*
X155211953Y-48666690D01*
X155211958Y-48666700D01*
X155343075Y-48893803D01*
X155502718Y-49101851D01*
X155502726Y-49101860D01*
X155688140Y-49287274D01*
X155688148Y-49287281D01*
X155896196Y-49446924D01*
X156123299Y-49578041D01*
X156123309Y-49578046D01*
X156365571Y-49678394D01*
X156365581Y-49678398D01*
X156618884Y-49746270D01*
X156878880Y-49780500D01*
X156878887Y-49780500D01*
X157141113Y-49780500D01*
X157141120Y-49780500D01*
X157401116Y-49746270D01*
X157654419Y-49678398D01*
X157896697Y-49578043D01*
X158123803Y-49446924D01*
X158331851Y-49287282D01*
X158331855Y-49287277D01*
X158331860Y-49287274D01*
X158517274Y-49101860D01*
X158517277Y-49101855D01*
X158517282Y-49101851D01*
X158676924Y-48893803D01*
X158808043Y-48666697D01*
X158908398Y-48424419D01*
X158976270Y-48171116D01*
X159010500Y-47911120D01*
X159010500Y-47648880D01*
X159010499Y-47648872D01*
X184009500Y-47648872D01*
X184009500Y-47911127D01*
X184030436Y-48070140D01*
X184043730Y-48171116D01*
X184065178Y-48251161D01*
X184111602Y-48424418D01*
X184111605Y-48424428D01*
X184211953Y-48666690D01*
X184211958Y-48666700D01*
X184343075Y-48893803D01*
X184502718Y-49101851D01*
X184502726Y-49101860D01*
X184688140Y-49287274D01*
X184688148Y-49287281D01*
X184896196Y-49446924D01*
X185123299Y-49578041D01*
X185123309Y-49578046D01*
X185365571Y-49678394D01*
X185365581Y-49678398D01*
X185618884Y-49746270D01*
X185878880Y-49780500D01*
X185878887Y-49780500D01*
X186141113Y-49780500D01*
X186141120Y-49780500D01*
X186401116Y-49746270D01*
X186654419Y-49678398D01*
X186896697Y-49578043D01*
X187123803Y-49446924D01*
X187331851Y-49287282D01*
X187331855Y-49287277D01*
X187331860Y-49287274D01*
X187517274Y-49101860D01*
X187517277Y-49101855D01*
X187517282Y-49101851D01*
X187676924Y-48893803D01*
X187808043Y-48666697D01*
X187908398Y-48424419D01*
X187976270Y-48171116D01*
X188010500Y-47911120D01*
X188010500Y-47648880D01*
X187976270Y-47388884D01*
X187908398Y-47135581D01*
X187810204Y-46898520D01*
X187808046Y-46893309D01*
X187808041Y-46893299D01*
X187676924Y-46666196D01*
X187517281Y-46458148D01*
X187517274Y-46458140D01*
X187331860Y-46272726D01*
X187331851Y-46272718D01*
X187123803Y-46113075D01*
X186896700Y-45981958D01*
X186896690Y-45981953D01*
X186654428Y-45881605D01*
X186654421Y-45881603D01*
X186654419Y-45881602D01*
X186401116Y-45813730D01*
X186343339Y-45806123D01*
X186141127Y-45779500D01*
X186141120Y-45779500D01*
X185878880Y-45779500D01*
X185878872Y-45779500D01*
X185647772Y-45809926D01*
X185618884Y-45813730D01*
X185365581Y-45881602D01*
X185365571Y-45881605D01*
X185123309Y-45981953D01*
X185123299Y-45981958D01*
X184896196Y-46113075D01*
X184688148Y-46272718D01*
X184502718Y-46458148D01*
X184343075Y-46666196D01*
X184211958Y-46893299D01*
X184211953Y-46893309D01*
X184111605Y-47135571D01*
X184111602Y-47135581D01*
X184043730Y-47388885D01*
X184009500Y-47648872D01*
X159010499Y-47648872D01*
X158976270Y-47388884D01*
X158908398Y-47135581D01*
X158810204Y-46898520D01*
X158808046Y-46893309D01*
X158808041Y-46893299D01*
X158676924Y-46666196D01*
X158517281Y-46458148D01*
X158517274Y-46458140D01*
X158331860Y-46272726D01*
X158331851Y-46272718D01*
X158123803Y-46113075D01*
X157896700Y-45981958D01*
X157896690Y-45981953D01*
X157654428Y-45881605D01*
X157654421Y-45881603D01*
X157654419Y-45881602D01*
X157401116Y-45813730D01*
X157343339Y-45806123D01*
X157141127Y-45779500D01*
X157141120Y-45779500D01*
X156878880Y-45779500D01*
X156878872Y-45779500D01*
X156647772Y-45809926D01*
X156618884Y-45813730D01*
X156365581Y-45881602D01*
X156365571Y-45881605D01*
X156123309Y-45981953D01*
X156123299Y-45981958D01*
X155896196Y-46113075D01*
X155688148Y-46272718D01*
X155502718Y-46458148D01*
X155343075Y-46666196D01*
X155211958Y-46893299D01*
X155211953Y-46893309D01*
X155111605Y-47135571D01*
X155111602Y-47135581D01*
X155043730Y-47388885D01*
X155009500Y-47648872D01*
X133500500Y-47648872D01*
X133500500Y-45504066D01*
X133500765Y-45495956D01*
X133504819Y-45434108D01*
X133517075Y-45247102D01*
X133519190Y-45231048D01*
X133567045Y-44990462D01*
X133571243Y-44974797D01*
X133594337Y-44906762D01*
X133650093Y-44742512D01*
X133656291Y-44727547D01*
X133764790Y-44507533D01*
X133772893Y-44493498D01*
X133909182Y-44289527D01*
X133919039Y-44276681D01*
X134080786Y-44092244D01*
X134092244Y-44080786D01*
X134276681Y-43919039D01*
X134289527Y-43909182D01*
X134493498Y-43772893D01*
X134507533Y-43764790D01*
X134727547Y-43656291D01*
X134742512Y-43650093D01*
X134906762Y-43594337D01*
X134974797Y-43571243D01*
X134990464Y-43567045D01*
X135231048Y-43519190D01*
X135247102Y-43517075D01*
X135495957Y-43500765D01*
X135504067Y-43500500D01*
X135565892Y-43500500D01*
X187934108Y-43500500D01*
X187995933Y-43500500D01*
X188004043Y-43500765D01*
G37*
%TD.AperFunction*%
%TD*%
M02*
