%TF.GenerationSoftware,KiCad,Pcbnew,9.0.0*%
%TF.CreationDate,2025-03-24T14:10:48-05:00*%
%TF.ProjectId,DIIN-proyecto,4449494e-2d70-4726-9f79-6563746f2e6b,rev?*%
%TF.SameCoordinates,Original*%
%TF.FileFunction,Copper,L1,Top*%
%TF.FilePolarity,Positive*%
%FSLAX46Y46*%
G04 Gerber Fmt 4.6, Leading zero omitted, Abs format (unit mm)*
G04 Created by KiCad (PCBNEW 9.0.0) date 2025-03-24 14:10:48*
%MOMM*%
%LPD*%
G01*
G04 APERTURE LIST*
%TA.AperFunction,ComponentPad*%
%ADD10O,1.700000X1.700000*%
%TD*%
%TA.AperFunction,ComponentPad*%
%ADD11R,1.700000X1.700000*%
%TD*%
%TA.AperFunction,ComponentPad*%
%ADD12O,1.600000X1.600000*%
%TD*%
%TA.AperFunction,ComponentPad*%
%ADD13C,1.600000*%
%TD*%
%TA.AperFunction,ComponentPad*%
%ADD14C,2.200000*%
%TD*%
%TA.AperFunction,ViaPad*%
%ADD15C,0.600000*%
%TD*%
%TA.AperFunction,Conductor*%
%ADD16C,0.200000*%
%TD*%
G04 APERTURE END LIST*
D10*
%TO.P,J1,18,Pin_18*%
%TO.N,PWDN*%
X140040000Y-72950000D03*
%TO.P,J1,17,Pin_17*%
%TO.N,RESET*%
X137500000Y-72950000D03*
%TO.P,J1,16,Pin_16*%
%TO.N,D0*%
X140040000Y-70410000D03*
%TO.P,J1,15,Pin_15*%
%TO.N,D1*%
X137500000Y-70410000D03*
%TO.P,J1,14,Pin_14*%
%TO.N,D2*%
X140040000Y-67870000D03*
%TO.P,J1,13,Pin_13*%
%TO.N,D3*%
X137500000Y-67870000D03*
%TO.P,J1,12,Pin_12*%
%TO.N,D4*%
X140040000Y-65330000D03*
%TO.P,J1,11,Pin_11*%
%TO.N,D5*%
X137500000Y-65330000D03*
%TO.P,J1,10,Pin_10*%
%TO.N,D6*%
X140040000Y-62790000D03*
%TO.P,J1,9,Pin_9*%
%TO.N,D7*%
X137500000Y-62790000D03*
%TO.P,J1,8,Pin_8*%
%TO.N,XCLK*%
X140040000Y-60250000D03*
%TO.P,J1,7,Pin_7*%
%TO.N,PCLK*%
X137500000Y-60250000D03*
%TO.P,J1,6,Pin_6*%
%TO.N,HREF*%
X140040000Y-57710000D03*
%TO.P,J1,5,Pin_5*%
%TO.N,VSYNC*%
X137500000Y-57710000D03*
%TO.P,J1,4,Pin_4*%
%TO.N,SOID*%
X140040000Y-55170000D03*
%TO.P,J1,3,Pin_3*%
%TO.N,SOIC*%
X137500000Y-55170000D03*
%TO.P,J1,2,Pin_2*%
%TO.N,GND*%
X140040000Y-52630000D03*
D11*
%TO.P,J1,1,Pin_1*%
%TO.N,+3.3V*%
X137500000Y-52630000D03*
%TD*%
D12*
%TO.P,R1,2*%
%TO.N,SOID*%
X150500000Y-66580000D03*
D13*
%TO.P,R1,1*%
%TO.N,+3.3V*%
X150500000Y-56420000D03*
%TD*%
D12*
%TO.P,R2,2*%
%TO.N,SOIC*%
X146450000Y-66580000D03*
D13*
%TO.P,R2,1*%
%TO.N,+3.3V*%
X146450000Y-56420000D03*
%TD*%
D14*
%TO.P,U9,1,+3.3V*%
%TO.N,+3.3V*%
X161350000Y-72470000D03*
%TO.P,U9,2,GND*%
%TO.N,GND*%
X161350000Y-75010000D03*
%TO.P,U9,3,SOIC*%
%TO.N,SOIC*%
X163890000Y-72470000D03*
%TO.P,U9,4,SOID*%
%TO.N,SOID*%
X163890000Y-75010000D03*
%TO.P,U9,5,VSYNC*%
%TO.N,VSYNC*%
X166430000Y-72470000D03*
%TO.P,U9,6,HREF*%
%TO.N,HREF*%
X166430000Y-75010000D03*
%TO.P,U9,7,PCLK*%
%TO.N,PCLK*%
X168970000Y-72470000D03*
%TO.P,U9,8,XCLK*%
%TO.N,XCLK*%
X168970000Y-75010000D03*
%TO.P,U9,9,D7*%
%TO.N,D7*%
X171510000Y-72470000D03*
%TO.P,U9,10,D6*%
%TO.N,D6*%
X171510000Y-75010000D03*
%TO.P,U9,11,D5*%
%TO.N,D5*%
X174050000Y-72470000D03*
%TO.P,U9,12,D4*%
%TO.N,D4*%
X174050000Y-75010000D03*
%TO.P,U9,13,D3*%
%TO.N,D3*%
X176590000Y-72470000D03*
%TO.P,U9,14,D2*%
%TO.N,D2*%
X176590000Y-75010000D03*
%TO.P,U9,15,D1*%
%TO.N,D1*%
X179130000Y-72470000D03*
%TO.P,U9,16,D0*%
%TO.N,D0*%
X179130000Y-75010000D03*
%TO.P,U9,17,RESET*%
%TO.N,RESET*%
X181670000Y-72470000D03*
%TO.P,U9,18,PWDN*%
%TO.N,PWDN*%
X181670000Y-75010000D03*
%TD*%
D15*
%TO.N,VSYNC*%
X165746800Y-58980000D03*
%TO.N,D3*%
X176590000Y-50167200D03*
X136319800Y-50167200D03*
%TO.N,D6*%
X144412300Y-67934700D03*
%TO.N,PCLK*%
X167025000Y-61520000D03*
%TO.N,D7*%
X171510000Y-64005900D03*
%TO.N,D4*%
X174050000Y-79622200D03*
X138877100Y-79622200D03*
%TO.N,D1*%
X148691800Y-64607600D03*
X148691700Y-69360600D03*
%TD*%
D16*
%TO.N,RESET*%
X137500000Y-72950000D02*
X138651700Y-72950000D01*
X183090400Y-73890400D02*
X181670000Y-72470000D01*
X183090400Y-75573100D02*
X183090400Y-73890400D01*
X180571200Y-78092300D02*
X183090400Y-75573100D01*
X159895300Y-78092300D02*
X180571200Y-78092300D01*
X157290200Y-75487200D02*
X159895300Y-78092300D01*
X140901000Y-75487200D02*
X157290200Y-75487200D01*
X138651700Y-73237900D02*
X140901000Y-75487200D01*
X138651700Y-72950000D02*
X138651700Y-73237900D01*
%TO.N,VSYNC*%
X137500000Y-57710000D02*
X138651700Y-57710000D01*
X139653200Y-58980000D02*
X165746800Y-58980000D01*
X138651700Y-57978500D02*
X139653200Y-58980000D01*
X138651700Y-57710000D02*
X138651700Y-57978500D01*
%TO.N,D0*%
X176892900Y-77247100D02*
X179130000Y-75010000D01*
X160186100Y-77247100D02*
X176892900Y-77247100D01*
X153349000Y-70410000D02*
X160186100Y-77247100D01*
X140040000Y-70410000D02*
X153349000Y-70410000D01*
%TO.N,D3*%
X136319800Y-50167200D02*
X176590000Y-50167200D01*
%TO.N,D6*%
X152009700Y-67934700D02*
X144412300Y-67934700D01*
X160518700Y-76443700D02*
X152009700Y-67934700D01*
X170076300Y-76443700D02*
X160518700Y-76443700D01*
X171510000Y-75010000D02*
X170076300Y-76443700D01*
%TO.N,SOIC*%
X146450000Y-66580000D02*
X147551700Y-66580000D01*
X156838800Y-65418800D02*
X163890000Y-72470000D01*
X149908300Y-65418800D02*
X156838800Y-65418800D01*
X148747100Y-66580000D02*
X149908300Y-65418800D01*
X147551700Y-66580000D02*
X148747100Y-66580000D01*
%TO.N,PCLK*%
X137500000Y-60250000D02*
X138651700Y-60250000D01*
X139653200Y-61520000D02*
X167025000Y-61520000D01*
X138651700Y-60518500D02*
X139653200Y-61520000D01*
X138651700Y-60250000D02*
X138651700Y-60518500D01*
%TO.N,D7*%
X137500000Y-62790000D02*
X138651700Y-62790000D01*
X139599100Y-64005900D02*
X171510000Y-64005900D01*
X138651700Y-63058500D02*
X139599100Y-64005900D01*
X138651700Y-62790000D02*
X138651700Y-63058500D01*
%TO.N,D5*%
X138651700Y-65598500D02*
X138651700Y-65330000D01*
X139546300Y-66493100D02*
X138651700Y-65598500D01*
X142351800Y-66493100D02*
X139546300Y-66493100D01*
X143635600Y-65209300D02*
X142351800Y-66493100D01*
X149549800Y-65209300D02*
X143635600Y-65209300D01*
X149768900Y-64990200D02*
X149549800Y-65209300D01*
X166570200Y-64990200D02*
X149768900Y-64990200D01*
X174050000Y-72470000D02*
X166570200Y-64990200D01*
X137500000Y-65330000D02*
X138651700Y-65330000D01*
%TO.N,D4*%
X138877100Y-79622200D02*
X174050000Y-79622200D01*
%TO.N,D2*%
X140040000Y-67870000D02*
X141191700Y-67870000D01*
X142060000Y-68738300D02*
X141191700Y-67870000D01*
X148920300Y-68738300D02*
X142060000Y-68738300D01*
X149723700Y-69541700D02*
X148920300Y-68738300D01*
X153048700Y-69541700D02*
X149723700Y-69541700D01*
X160352400Y-76845400D02*
X153048700Y-69541700D01*
X174754600Y-76845400D02*
X160352400Y-76845400D01*
X176590000Y-75010000D02*
X174754600Y-76845400D01*
%TO.N,PWDN*%
X179031200Y-77648800D02*
X181670000Y-75010000D01*
X160019800Y-77648800D02*
X179031200Y-77648800D01*
X155321000Y-72950000D02*
X160019800Y-77648800D01*
X140040000Y-72950000D02*
X155321000Y-72950000D01*
%TO.N,D1*%
X137500000Y-70410000D02*
X138651700Y-70410000D01*
X138651700Y-70141500D02*
X138651700Y-70410000D01*
X139553000Y-69240200D02*
X138651700Y-70141500D01*
X148571300Y-69240200D02*
X139553000Y-69240200D01*
X148691700Y-69360600D02*
X148571300Y-69240200D01*
X148710900Y-64588500D02*
X148691800Y-64607600D01*
X170442700Y-64588500D02*
X148710900Y-64588500D01*
X170642900Y-64788700D02*
X170442700Y-64588500D01*
X171448700Y-64788700D02*
X170642900Y-64788700D01*
X179130000Y-72470000D02*
X171448700Y-64788700D01*
%TO.N,+3.3V*%
X150500000Y-56420000D02*
X146450000Y-56420000D01*
X138651700Y-52918000D02*
X138651700Y-52630000D01*
X139515400Y-53781700D02*
X138651700Y-52918000D01*
X143811700Y-53781700D02*
X139515400Y-53781700D01*
X146450000Y-56420000D02*
X143811700Y-53781700D01*
X137500000Y-52630000D02*
X138651700Y-52630000D01*
%TD*%
%TA.AperFunction,Conductor*%
%TO.N,GND*%
G36*
X156605742Y-66038985D02*
G01*
X156626384Y-66055619D01*
X161238616Y-70667852D01*
X161272101Y-70729175D01*
X161267117Y-70798867D01*
X161225245Y-70854800D01*
X161170333Y-70878006D01*
X160975214Y-70908909D01*
X160735616Y-70986760D01*
X160511151Y-71101132D01*
X160307350Y-71249201D01*
X160307345Y-71249205D01*
X160129205Y-71427345D01*
X160129201Y-71427350D01*
X159981132Y-71631151D01*
X159866760Y-71855616D01*
X159788910Y-72095214D01*
X159749500Y-72344038D01*
X159749500Y-72595961D01*
X159788910Y-72844785D01*
X159866760Y-73084383D01*
X159981132Y-73308848D01*
X160129201Y-73512649D01*
X160129205Y-73512654D01*
X160307345Y-73690794D01*
X160307350Y-73690798D01*
X160511153Y-73838869D01*
X160537018Y-73852048D01*
X160568405Y-73874852D01*
X161179765Y-74486212D01*
X161137708Y-74497482D01*
X161012292Y-74569890D01*
X160909890Y-74672292D01*
X160837482Y-74797708D01*
X160826212Y-74839765D01*
X160055748Y-74069300D01*
X160055747Y-74069301D01*
X159981559Y-74171413D01*
X159867220Y-74395814D01*
X159795562Y-74616353D01*
X159756124Y-74674028D01*
X159691766Y-74701226D01*
X159622919Y-74689311D01*
X159589950Y-74665715D01*
X152497290Y-67573055D01*
X152497288Y-67573052D01*
X152378417Y-67454181D01*
X152378416Y-67454180D01*
X152291604Y-67404060D01*
X152291604Y-67404059D01*
X152291600Y-67404058D01*
X152241485Y-67375123D01*
X152088757Y-67334199D01*
X151930643Y-67334199D01*
X151923047Y-67334199D01*
X151923031Y-67334200D01*
X151777651Y-67334200D01*
X151710612Y-67314515D01*
X151664857Y-67261711D01*
X151654913Y-67192553D01*
X151667166Y-67153905D01*
X151679772Y-67129162D01*
X151705220Y-67079219D01*
X151768477Y-66884534D01*
X151800500Y-66682352D01*
X151800500Y-66477648D01*
X151768477Y-66275466D01*
X151768476Y-66275462D01*
X151768476Y-66275461D01*
X151737985Y-66181618D01*
X151735990Y-66111776D01*
X151772071Y-66051944D01*
X151834772Y-66021116D01*
X151855916Y-66019300D01*
X156538703Y-66019300D01*
X156605742Y-66038985D01*
G37*
%TD.AperFunction*%
%TA.AperFunction,Conductor*%
G36*
X162636974Y-73520743D02*
G01*
X162663334Y-73522629D01*
X162672387Y-73528447D01*
X162679427Y-73529979D01*
X162707681Y-73551130D01*
X162808870Y-73652319D01*
X162842355Y-73713642D01*
X162837371Y-73783334D01*
X162808870Y-73827681D01*
X162669205Y-73967345D01*
X162669201Y-73967350D01*
X162521131Y-74171152D01*
X162507948Y-74197023D01*
X162485147Y-74228404D01*
X161873787Y-74839764D01*
X161862518Y-74797708D01*
X161790110Y-74672292D01*
X161687708Y-74569890D01*
X161562292Y-74497482D01*
X161520232Y-74486212D01*
X162131594Y-73874851D01*
X162162975Y-73852051D01*
X162188845Y-73838870D01*
X162392656Y-73690793D01*
X162532319Y-73551130D01*
X162540264Y-73546791D01*
X162545690Y-73539544D01*
X162570449Y-73530309D01*
X162593642Y-73517645D01*
X162602671Y-73518290D01*
X162611154Y-73515127D01*
X162636974Y-73520743D01*
G37*
%TD.AperFunction*%
%TA.AperFunction,Conductor*%
G36*
X188004043Y-43500765D02*
G01*
X188252895Y-43517075D01*
X188268953Y-43519190D01*
X188476105Y-43560395D01*
X188509535Y-43567045D01*
X188525202Y-43571243D01*
X188694947Y-43628863D01*
X188757481Y-43650091D01*
X188772458Y-43656294D01*
X188981799Y-43759529D01*
X188992460Y-43764787D01*
X189006508Y-43772897D01*
X189210464Y-43909177D01*
X189223328Y-43919048D01*
X189407749Y-44080781D01*
X189419218Y-44092250D01*
X189580951Y-44276671D01*
X189590825Y-44289539D01*
X189727102Y-44493492D01*
X189735212Y-44507539D01*
X189843702Y-44727534D01*
X189849909Y-44742520D01*
X189928756Y-44974797D01*
X189932954Y-44990464D01*
X189980807Y-45231035D01*
X189982925Y-45247116D01*
X189999235Y-45495956D01*
X189999500Y-45504066D01*
X189999500Y-80995933D01*
X189999235Y-81004043D01*
X189982925Y-81252883D01*
X189980807Y-81268964D01*
X189932954Y-81509535D01*
X189928756Y-81525202D01*
X189849909Y-81757479D01*
X189843702Y-81772465D01*
X189735212Y-81992460D01*
X189727102Y-82006507D01*
X189590825Y-82210460D01*
X189580951Y-82223328D01*
X189419218Y-82407749D01*
X189407749Y-82419218D01*
X189223328Y-82580951D01*
X189210460Y-82590825D01*
X189006507Y-82727102D01*
X188992460Y-82735212D01*
X188772465Y-82843702D01*
X188757479Y-82849909D01*
X188525202Y-82928756D01*
X188509535Y-82932954D01*
X188268964Y-82980807D01*
X188252883Y-82982925D01*
X188004043Y-82999235D01*
X187995933Y-82999500D01*
X135504067Y-82999500D01*
X135495957Y-82999235D01*
X135247116Y-82982925D01*
X135231035Y-82980807D01*
X134990464Y-82932954D01*
X134974797Y-82928756D01*
X134742520Y-82849909D01*
X134727534Y-82843702D01*
X134507539Y-82735212D01*
X134493492Y-82727102D01*
X134289539Y-82590825D01*
X134276671Y-82580951D01*
X134092250Y-82419218D01*
X134080781Y-82407749D01*
X133919048Y-82223328D01*
X133909174Y-82210460D01*
X133772897Y-82006507D01*
X133764787Y-81992460D01*
X133658855Y-81777652D01*
X133656294Y-81772458D01*
X133650090Y-81757479D01*
X133571243Y-81525202D01*
X133567045Y-81509535D01*
X133559186Y-81470026D01*
X133519190Y-81268953D01*
X133517075Y-81252895D01*
X133500765Y-81004043D01*
X133500500Y-80995933D01*
X133500500Y-51732135D01*
X136149500Y-51732135D01*
X136149500Y-53527870D01*
X136149501Y-53527876D01*
X136155908Y-53587483D01*
X136206202Y-53722328D01*
X136206206Y-53722335D01*
X136292452Y-53837544D01*
X136292455Y-53837547D01*
X136407664Y-53923793D01*
X136407671Y-53923797D01*
X136539082Y-53972810D01*
X136595016Y-54014681D01*
X136619433Y-54080145D01*
X136604582Y-54148418D01*
X136583431Y-54176673D01*
X136469889Y-54290215D01*
X136344951Y-54462179D01*
X136248444Y-54651585D01*
X136182753Y-54853760D01*
X136149500Y-55063713D01*
X136149500Y-55276287D01*
X136154478Y-55307715D01*
X136182753Y-55486239D01*
X136248444Y-55688414D01*
X136344951Y-55877820D01*
X136469890Y-56049786D01*
X136620213Y-56200109D01*
X136792182Y-56325050D01*
X136800946Y-56329516D01*
X136851742Y-56377491D01*
X136868536Y-56445312D01*
X136845998Y-56511447D01*
X136800946Y-56550484D01*
X136792182Y-56554949D01*
X136620213Y-56679890D01*
X136469890Y-56830213D01*
X136344951Y-57002179D01*
X136248444Y-57191585D01*
X136182753Y-57393760D01*
X136149500Y-57603713D01*
X136149500Y-57816286D01*
X136182753Y-58026239D01*
X136182753Y-58026241D01*
X136182754Y-58026243D01*
X136242546Y-58210264D01*
X136248444Y-58228414D01*
X136344951Y-58417820D01*
X136469890Y-58589786D01*
X136620213Y-58740109D01*
X136792182Y-58865050D01*
X136800946Y-58869516D01*
X136851742Y-58917491D01*
X136868536Y-58985312D01*
X136845998Y-59051447D01*
X136800946Y-59090484D01*
X136792182Y-59094949D01*
X136620213Y-59219890D01*
X136469890Y-59370213D01*
X136344951Y-59542179D01*
X136248444Y-59731585D01*
X136182753Y-59933760D01*
X136149500Y-60143713D01*
X136149500Y-60356286D01*
X136182753Y-60566239D01*
X136182753Y-60566241D01*
X136182754Y-60566243D01*
X136242546Y-60750264D01*
X136248444Y-60768414D01*
X136344951Y-60957820D01*
X136469890Y-61129786D01*
X136620213Y-61280109D01*
X136792182Y-61405050D01*
X136800946Y-61409516D01*
X136851742Y-61457491D01*
X136868536Y-61525312D01*
X136845998Y-61591447D01*
X136800946Y-61630484D01*
X136792182Y-61634949D01*
X136620213Y-61759890D01*
X136469890Y-61910213D01*
X136344951Y-62082179D01*
X136248444Y-62271585D01*
X136182753Y-62473760D01*
X136149500Y-62683713D01*
X136149500Y-62896286D01*
X136182753Y-63106239D01*
X136182753Y-63106241D01*
X136182754Y-63106243D01*
X136244575Y-63296509D01*
X136248444Y-63308414D01*
X136344951Y-63497820D01*
X136469890Y-63669786D01*
X136620213Y-63820109D01*
X136792182Y-63945050D01*
X136800946Y-63949516D01*
X136851742Y-63997491D01*
X136868536Y-64065312D01*
X136845998Y-64131447D01*
X136800946Y-64170484D01*
X136792182Y-64174949D01*
X136620213Y-64299890D01*
X136469890Y-64450213D01*
X136344951Y-64622179D01*
X136248444Y-64811585D01*
X136182753Y-65013760D01*
X136149500Y-65223713D01*
X136149500Y-65436286D01*
X136182753Y-65646239D01*
X136182753Y-65646241D01*
X136182754Y-65646243D01*
X136242293Y-65829485D01*
X136248444Y-65848414D01*
X136344951Y-66037820D01*
X136469890Y-66209786D01*
X136620213Y-66360109D01*
X136792182Y-66485050D01*
X136800946Y-66489516D01*
X136851742Y-66537491D01*
X136868536Y-66605312D01*
X136845998Y-66671447D01*
X136800946Y-66710484D01*
X136792182Y-66714949D01*
X136620213Y-66839890D01*
X136469890Y-66990213D01*
X136344951Y-67162179D01*
X136248444Y-67351585D01*
X136182753Y-67553760D01*
X136149500Y-67763713D01*
X136149500Y-67976286D01*
X136182753Y-68186239D01*
X136248444Y-68388414D01*
X136344951Y-68577820D01*
X136469890Y-68749786D01*
X136620213Y-68900109D01*
X136792182Y-69025050D01*
X136800946Y-69029516D01*
X136851742Y-69077491D01*
X136868536Y-69145312D01*
X136845998Y-69211447D01*
X136800946Y-69250484D01*
X136792182Y-69254949D01*
X136620213Y-69379890D01*
X136469890Y-69530213D01*
X136344951Y-69702179D01*
X136248444Y-69891585D01*
X136182753Y-70093760D01*
X136149500Y-70303713D01*
X136149500Y-70516286D01*
X136173505Y-70667852D01*
X136182754Y-70726243D01*
X136242106Y-70908910D01*
X136248444Y-70928414D01*
X136344951Y-71117820D01*
X136469890Y-71289786D01*
X136620213Y-71440109D01*
X136792182Y-71565050D01*
X136800946Y-71569516D01*
X136851742Y-71617491D01*
X136868536Y-71685312D01*
X136845998Y-71751447D01*
X136800946Y-71790484D01*
X136792182Y-71794949D01*
X136620213Y-71919890D01*
X136469890Y-72070213D01*
X136344951Y-72242179D01*
X136248444Y-72431585D01*
X136182753Y-72633760D01*
X136149500Y-72843713D01*
X136149500Y-73056287D01*
X136182754Y-73266243D01*
X136228017Y-73405549D01*
X136248444Y-73468414D01*
X136344951Y-73657820D01*
X136469890Y-73829786D01*
X136620213Y-73980109D01*
X136792179Y-74105048D01*
X136792181Y-74105049D01*
X136792184Y-74105051D01*
X136981588Y-74201557D01*
X137183757Y-74267246D01*
X137393713Y-74300500D01*
X137393714Y-74300500D01*
X137606286Y-74300500D01*
X137606287Y-74300500D01*
X137816243Y-74267246D01*
X138018412Y-74201557D01*
X138207816Y-74105051D01*
X138304136Y-74035071D01*
X138379787Y-73980108D01*
X138381546Y-73978606D01*
X138382353Y-73978244D01*
X138383734Y-73977241D01*
X138383944Y-73977530D01*
X138445303Y-73950027D01*
X138514390Y-73960456D01*
X138549769Y-73985204D01*
X140532284Y-75967720D01*
X140532286Y-75967721D01*
X140532290Y-75967724D01*
X140562089Y-75984928D01*
X140669216Y-76046777D01*
X140821943Y-76087701D01*
X140821945Y-76087701D01*
X140987654Y-76087701D01*
X140987670Y-76087700D01*
X155573804Y-76087700D01*
X155640843Y-76107385D01*
X155686598Y-76160189D01*
X155696542Y-76229347D01*
X155667517Y-76292903D01*
X155661485Y-76299381D01*
X155502718Y-76458148D01*
X155343075Y-76666196D01*
X155211958Y-76893299D01*
X155211953Y-76893309D01*
X155111605Y-77135571D01*
X155111602Y-77135581D01*
X155043730Y-77388885D01*
X155009500Y-77648872D01*
X155009500Y-77911127D01*
X155030436Y-78070140D01*
X155043730Y-78171116D01*
X155108831Y-78414076D01*
X155111602Y-78424418D01*
X155111605Y-78424428D01*
X155211953Y-78666690D01*
X155211958Y-78666700D01*
X155309530Y-78835700D01*
X155326003Y-78903601D01*
X155303150Y-78969627D01*
X155248229Y-79012818D01*
X155202143Y-79021700D01*
X139456866Y-79021700D01*
X139389827Y-79002015D01*
X139387975Y-79000802D01*
X139256285Y-78912809D01*
X139256272Y-78912802D01*
X139110601Y-78852464D01*
X139110589Y-78852461D01*
X138955945Y-78821700D01*
X138955942Y-78821700D01*
X138798258Y-78821700D01*
X138798255Y-78821700D01*
X138643610Y-78852461D01*
X138643598Y-78852464D01*
X138497927Y-78912802D01*
X138497914Y-78912809D01*
X138366811Y-79000410D01*
X138366807Y-79000413D01*
X138255313Y-79111907D01*
X138255310Y-79111911D01*
X138167709Y-79243014D01*
X138167702Y-79243027D01*
X138107364Y-79388698D01*
X138107361Y-79388710D01*
X138076600Y-79543353D01*
X138076600Y-79701046D01*
X138107361Y-79855689D01*
X138107364Y-79855701D01*
X138167702Y-80001372D01*
X138167709Y-80001385D01*
X138255310Y-80132488D01*
X138255313Y-80132492D01*
X138366807Y-80243986D01*
X138366811Y-80243989D01*
X138497914Y-80331590D01*
X138497927Y-80331597D01*
X138643598Y-80391935D01*
X138643603Y-80391937D01*
X138798253Y-80422699D01*
X138798256Y-80422700D01*
X138798258Y-80422700D01*
X138955944Y-80422700D01*
X138955945Y-80422699D01*
X139110597Y-80391937D01*
X139256279Y-80331594D01*
X139256285Y-80331590D01*
X139387975Y-80243598D01*
X139454653Y-80222720D01*
X139456866Y-80222700D01*
X173470234Y-80222700D01*
X173537273Y-80242385D01*
X173539125Y-80243598D01*
X173670814Y-80331590D01*
X173670827Y-80331597D01*
X173816498Y-80391935D01*
X173816503Y-80391937D01*
X173971153Y-80422699D01*
X173971156Y-80422700D01*
X173971158Y-80422700D01*
X174128844Y-80422700D01*
X174128845Y-80422699D01*
X174283497Y-80391937D01*
X174429179Y-80331594D01*
X174560289Y-80243989D01*
X174671789Y-80132489D01*
X174759394Y-80001379D01*
X174819737Y-79855697D01*
X174850500Y-79701042D01*
X174850500Y-79543358D01*
X174850500Y-79543355D01*
X174850499Y-79543353D01*
X174819738Y-79388710D01*
X174819737Y-79388703D01*
X174819735Y-79388698D01*
X174759397Y-79243027D01*
X174759390Y-79243014D01*
X174671789Y-79111911D01*
X174671786Y-79111907D01*
X174560292Y-79000413D01*
X174560288Y-79000410D01*
X174439800Y-78919902D01*
X174394995Y-78866290D01*
X174386288Y-78796965D01*
X174416443Y-78733937D01*
X174475886Y-78697218D01*
X174508691Y-78692800D01*
X180484531Y-78692800D01*
X180484547Y-78692801D01*
X180492143Y-78692801D01*
X180650254Y-78692801D01*
X180650257Y-78692801D01*
X180802985Y-78651877D01*
X180853104Y-78622939D01*
X180939916Y-78572820D01*
X181051720Y-78461016D01*
X181051720Y-78461014D01*
X181061928Y-78450807D01*
X181061930Y-78450804D01*
X181863862Y-77648872D01*
X184009500Y-77648872D01*
X184009500Y-77911127D01*
X184030436Y-78070140D01*
X184043730Y-78171116D01*
X184108831Y-78414076D01*
X184111602Y-78424418D01*
X184111605Y-78424428D01*
X184211953Y-78666690D01*
X184211958Y-78666700D01*
X184343075Y-78893803D01*
X184502718Y-79101851D01*
X184502726Y-79101860D01*
X184688140Y-79287274D01*
X184688148Y-79287281D01*
X184896196Y-79446924D01*
X185123299Y-79578041D01*
X185123309Y-79578046D01*
X185365571Y-79678394D01*
X185365581Y-79678398D01*
X185618884Y-79746270D01*
X185878880Y-79780500D01*
X185878887Y-79780500D01*
X186141113Y-79780500D01*
X186141120Y-79780500D01*
X186401116Y-79746270D01*
X186654419Y-79678398D01*
X186896697Y-79578043D01*
X187123803Y-79446924D01*
X187331851Y-79287282D01*
X187331855Y-79287277D01*
X187331860Y-79287274D01*
X187517274Y-79101860D01*
X187517277Y-79101855D01*
X187517282Y-79101851D01*
X187676924Y-78893803D01*
X187808043Y-78666697D01*
X187908398Y-78424419D01*
X187976270Y-78171116D01*
X188010500Y-77911120D01*
X188010500Y-77648880D01*
X187976270Y-77388884D01*
X187908398Y-77135581D01*
X187810204Y-76898520D01*
X187808046Y-76893309D01*
X187808041Y-76893299D01*
X187676924Y-76666196D01*
X187517281Y-76458148D01*
X187517274Y-76458140D01*
X187331860Y-76272726D01*
X187331851Y-76272718D01*
X187123803Y-76113075D01*
X186896700Y-75981958D01*
X186896690Y-75981953D01*
X186654428Y-75881605D01*
X186654421Y-75881603D01*
X186654419Y-75881602D01*
X186401116Y-75813730D01*
X186333941Y-75804886D01*
X186141127Y-75779500D01*
X186141120Y-75779500D01*
X185878880Y-75779500D01*
X185878872Y-75779500D01*
X185647772Y-75809926D01*
X185618884Y-75813730D01*
X185365581Y-75881602D01*
X185365571Y-75881605D01*
X185123309Y-75981953D01*
X185123299Y-75981958D01*
X184896196Y-76113075D01*
X184688148Y-76272718D01*
X184502718Y-76458148D01*
X184343075Y-76666196D01*
X184211958Y-76893299D01*
X184211953Y-76893309D01*
X184111605Y-77135571D01*
X184111602Y-77135581D01*
X184043730Y-77388885D01*
X184009500Y-77648872D01*
X181863862Y-77648872D01*
X183448906Y-76063828D01*
X183448911Y-76063824D01*
X183459114Y-76053620D01*
X183459116Y-76053620D01*
X183570920Y-75941816D01*
X183624596Y-75848845D01*
X183649977Y-75804885D01*
X183690901Y-75652157D01*
X183690901Y-75494042D01*
X183690901Y-75486447D01*
X183690900Y-75486429D01*
X183690900Y-73979459D01*
X183690901Y-73979446D01*
X183690901Y-73811345D01*
X183690901Y-73811343D01*
X183649977Y-73658615D01*
X183609081Y-73587782D01*
X183609081Y-73587780D01*
X183570924Y-73521690D01*
X183570921Y-73521686D01*
X183570920Y-73521684D01*
X183459116Y-73409880D01*
X183459115Y-73409879D01*
X183454785Y-73405549D01*
X183454774Y-73405539D01*
X183202158Y-73152923D01*
X183168673Y-73091600D01*
X183171907Y-73026928D01*
X183231090Y-72844785D01*
X183270500Y-72595962D01*
X183270500Y-72344038D01*
X183231090Y-72095215D01*
X183153241Y-71855621D01*
X183153239Y-71855618D01*
X183153239Y-71855616D01*
X183095609Y-71742512D01*
X183038870Y-71631155D01*
X182990841Y-71565048D01*
X182890798Y-71427350D01*
X182890794Y-71427345D01*
X182712654Y-71249205D01*
X182712649Y-71249201D01*
X182508848Y-71101132D01*
X182508847Y-71101131D01*
X182508845Y-71101130D01*
X182391740Y-71041462D01*
X182284383Y-70986760D01*
X182044785Y-70908910D01*
X181849666Y-70878006D01*
X181795962Y-70869500D01*
X181544038Y-70869500D01*
X181490334Y-70878006D01*
X181295214Y-70908910D01*
X181055616Y-70986760D01*
X180831151Y-71101132D01*
X180627350Y-71249201D01*
X180627345Y-71249205D01*
X180487681Y-71388870D01*
X180426358Y-71422355D01*
X180356666Y-71417371D01*
X180312319Y-71388870D01*
X180172654Y-71249205D01*
X180172649Y-71249201D01*
X179968848Y-71101132D01*
X179968847Y-71101131D01*
X179968845Y-71101130D01*
X179851740Y-71041462D01*
X179744383Y-70986760D01*
X179504785Y-70908910D01*
X179309666Y-70878006D01*
X179255962Y-70869500D01*
X179004038Y-70869500D01*
X178950334Y-70878006D01*
X178755213Y-70908910D01*
X178755210Y-70908910D01*
X178573075Y-70968090D01*
X178503234Y-70970085D01*
X178447076Y-70937840D01*
X172161143Y-64651908D01*
X172127658Y-64590585D01*
X172132642Y-64520893D01*
X172145718Y-64495342D01*
X172219394Y-64385079D01*
X172279737Y-64239397D01*
X172310500Y-64084742D01*
X172310500Y-63927058D01*
X172310500Y-63927055D01*
X172310499Y-63927053D01*
X172288341Y-63815657D01*
X172279737Y-63772403D01*
X172279735Y-63772398D01*
X172219397Y-63626727D01*
X172219390Y-63626714D01*
X172131789Y-63495611D01*
X172131786Y-63495607D01*
X172020292Y-63384113D01*
X172020288Y-63384110D01*
X171889185Y-63296509D01*
X171889172Y-63296502D01*
X171743501Y-63236164D01*
X171743489Y-63236161D01*
X171588845Y-63205400D01*
X171588842Y-63205400D01*
X171431158Y-63205400D01*
X171431155Y-63205400D01*
X171276510Y-63236161D01*
X171276498Y-63236164D01*
X171130827Y-63296502D01*
X171130814Y-63296509D01*
X170999125Y-63384502D01*
X170932447Y-63405380D01*
X170930234Y-63405400D01*
X141430715Y-63405400D01*
X141363676Y-63385715D01*
X141317921Y-63332911D01*
X141307977Y-63263753D01*
X141312784Y-63243082D01*
X141315033Y-63236161D01*
X141357246Y-63106243D01*
X141390500Y-62896287D01*
X141390500Y-62683713D01*
X141357246Y-62473757D01*
X141295206Y-62282818D01*
X141293211Y-62212977D01*
X141329291Y-62153144D01*
X141391992Y-62122316D01*
X141413137Y-62120500D01*
X166445234Y-62120500D01*
X166512273Y-62140185D01*
X166514125Y-62141398D01*
X166645814Y-62229390D01*
X166645827Y-62229397D01*
X166747687Y-62271588D01*
X166791503Y-62289737D01*
X166946153Y-62320499D01*
X166946156Y-62320500D01*
X166946158Y-62320500D01*
X167103844Y-62320500D01*
X167103845Y-62320499D01*
X167258497Y-62289737D01*
X167404179Y-62229394D01*
X167535289Y-62141789D01*
X167646789Y-62030289D01*
X167734394Y-61899179D01*
X167794737Y-61753497D01*
X167825500Y-61598842D01*
X167825500Y-61441158D01*
X167825500Y-61441155D01*
X167825499Y-61441153D01*
X167819206Y-61409516D01*
X167794737Y-61286503D01*
X167792088Y-61280107D01*
X167734397Y-61140827D01*
X167734390Y-61140814D01*
X167646789Y-61009711D01*
X167646786Y-61009707D01*
X167535292Y-60898213D01*
X167535288Y-60898210D01*
X167404185Y-60810609D01*
X167404172Y-60810602D01*
X167258501Y-60750264D01*
X167258489Y-60750261D01*
X167103845Y-60719500D01*
X167103842Y-60719500D01*
X166946158Y-60719500D01*
X166946155Y-60719500D01*
X166791510Y-60750261D01*
X166791498Y-60750264D01*
X166645827Y-60810602D01*
X166645814Y-60810609D01*
X166514125Y-60898602D01*
X166447447Y-60919480D01*
X166445234Y-60919500D01*
X141413137Y-60919500D01*
X141346098Y-60899815D01*
X141300343Y-60847011D01*
X141290399Y-60777853D01*
X141295206Y-60757182D01*
X141302733Y-60734015D01*
X141357246Y-60566243D01*
X141390500Y-60356287D01*
X141390500Y-60143713D01*
X141357246Y-59933757D01*
X141295206Y-59742818D01*
X141293211Y-59672977D01*
X141329291Y-59613144D01*
X141391992Y-59582316D01*
X141413137Y-59580500D01*
X165167034Y-59580500D01*
X165234073Y-59600185D01*
X165235925Y-59601398D01*
X165367614Y-59689390D01*
X165367627Y-59689397D01*
X165469487Y-59731588D01*
X165513303Y-59749737D01*
X165667953Y-59780499D01*
X165667956Y-59780500D01*
X165667958Y-59780500D01*
X165825644Y-59780500D01*
X165825645Y-59780499D01*
X165980297Y-59749737D01*
X166125979Y-59689394D01*
X166257089Y-59601789D01*
X166368589Y-59490289D01*
X166456194Y-59359179D01*
X166516537Y-59213497D01*
X166547300Y-59058842D01*
X166547300Y-58901158D01*
X166547300Y-58901155D01*
X166547299Y-58901153D01*
X166541006Y-58869516D01*
X166516537Y-58746503D01*
X166513888Y-58740107D01*
X166456197Y-58600827D01*
X166456190Y-58600814D01*
X166368589Y-58469711D01*
X166368586Y-58469707D01*
X166257092Y-58358213D01*
X166257088Y-58358210D01*
X166125985Y-58270609D01*
X166125972Y-58270602D01*
X165980301Y-58210264D01*
X165980289Y-58210261D01*
X165825645Y-58179500D01*
X165825642Y-58179500D01*
X165667958Y-58179500D01*
X165667955Y-58179500D01*
X165513310Y-58210261D01*
X165513298Y-58210264D01*
X165367627Y-58270602D01*
X165367614Y-58270609D01*
X165235925Y-58358602D01*
X165169247Y-58379480D01*
X165167034Y-58379500D01*
X141413137Y-58379500D01*
X141346098Y-58359815D01*
X141300343Y-58307011D01*
X141290399Y-58237853D01*
X141295206Y-58217182D01*
X141302733Y-58194015D01*
X141357246Y-58026243D01*
X141390500Y-57816287D01*
X141390500Y-57603713D01*
X141357246Y-57393757D01*
X141291557Y-57191588D01*
X141195051Y-57002184D01*
X141195049Y-57002181D01*
X141195048Y-57002179D01*
X141070109Y-56830213D01*
X140919786Y-56679890D01*
X140747820Y-56554951D01*
X140747115Y-56554591D01*
X140739054Y-56550485D01*
X140688259Y-56502512D01*
X140671463Y-56434692D01*
X140693999Y-56368556D01*
X140739054Y-56329515D01*
X140747816Y-56325051D01*
X140769789Y-56309086D01*
X140919786Y-56200109D01*
X140919788Y-56200106D01*
X140919792Y-56200104D01*
X141070104Y-56049792D01*
X141070106Y-56049788D01*
X141070109Y-56049786D01*
X141195048Y-55877820D01*
X141195047Y-55877820D01*
X141195051Y-55877816D01*
X141291557Y-55688412D01*
X141357246Y-55486243D01*
X141390500Y-55276287D01*
X141390500Y-55063713D01*
X141357246Y-54853757D01*
X141291557Y-54651588D01*
X141246162Y-54562495D01*
X141233266Y-54493826D01*
X141259542Y-54429085D01*
X141316649Y-54388828D01*
X141356647Y-54382200D01*
X143511603Y-54382200D01*
X143578642Y-54401885D01*
X143599284Y-54418519D01*
X145155921Y-55975157D01*
X145189406Y-56036480D01*
X145186173Y-56101149D01*
X145181523Y-56115460D01*
X145181523Y-56115462D01*
X145149500Y-56317648D01*
X145149500Y-56522351D01*
X145181522Y-56724534D01*
X145244781Y-56919223D01*
X145337715Y-57101613D01*
X145458028Y-57267213D01*
X145602786Y-57411971D01*
X145757749Y-57524556D01*
X145768390Y-57532287D01*
X145884607Y-57591503D01*
X145950776Y-57625218D01*
X145950778Y-57625218D01*
X145950781Y-57625220D01*
X146055137Y-57659127D01*
X146145465Y-57688477D01*
X146246557Y-57704488D01*
X146347648Y-57720500D01*
X146347649Y-57720500D01*
X146552351Y-57720500D01*
X146552352Y-57720500D01*
X146754534Y-57688477D01*
X146949219Y-57625220D01*
X147131610Y-57532287D01*
X147224590Y-57464732D01*
X147297213Y-57411971D01*
X147297215Y-57411968D01*
X147297219Y-57411966D01*
X147441966Y-57267219D01*
X147441968Y-57267215D01*
X147441971Y-57267213D01*
X147562284Y-57101614D01*
X147562285Y-57101613D01*
X147562287Y-57101610D01*
X147569117Y-57088204D01*
X147617091Y-57037409D01*
X147679602Y-57020500D01*
X149270398Y-57020500D01*
X149337437Y-57040185D01*
X149380883Y-57088205D01*
X149387715Y-57101614D01*
X149508028Y-57267213D01*
X149652786Y-57411971D01*
X149807749Y-57524556D01*
X149818390Y-57532287D01*
X149934607Y-57591503D01*
X150000776Y-57625218D01*
X150000778Y-57625218D01*
X150000781Y-57625220D01*
X150105137Y-57659127D01*
X150195465Y-57688477D01*
X150296557Y-57704488D01*
X150397648Y-57720500D01*
X150397649Y-57720500D01*
X150602351Y-57720500D01*
X150602352Y-57720500D01*
X150804534Y-57688477D01*
X150999219Y-57625220D01*
X151181610Y-57532287D01*
X151274590Y-57464732D01*
X151347213Y-57411971D01*
X151347215Y-57411968D01*
X151347219Y-57411966D01*
X151491966Y-57267219D01*
X151491968Y-57267215D01*
X151491971Y-57267213D01*
X151589509Y-57132961D01*
X151612287Y-57101610D01*
X151705220Y-56919219D01*
X151768477Y-56724534D01*
X151800500Y-56522352D01*
X151800500Y-56317648D01*
X151768477Y-56115466D01*
X151705220Y-55920781D01*
X151705218Y-55920778D01*
X151705218Y-55920776D01*
X151664166Y-55840209D01*
X151612287Y-55738390D01*
X151575978Y-55688414D01*
X151491971Y-55572786D01*
X151347213Y-55428028D01*
X151181613Y-55307715D01*
X151181612Y-55307714D01*
X151181610Y-55307713D01*
X151119931Y-55276286D01*
X150999223Y-55214781D01*
X150804534Y-55151522D01*
X150629995Y-55123878D01*
X150602352Y-55119500D01*
X150397648Y-55119500D01*
X150373329Y-55123351D01*
X150195465Y-55151522D01*
X150000776Y-55214781D01*
X149818386Y-55307715D01*
X149652786Y-55428028D01*
X149508028Y-55572786D01*
X149387715Y-55738385D01*
X149380883Y-55751795D01*
X149332909Y-55802591D01*
X149270398Y-55819500D01*
X147679602Y-55819500D01*
X147612563Y-55799815D01*
X147569117Y-55751795D01*
X147562284Y-55738385D01*
X147441971Y-55572786D01*
X147297213Y-55428028D01*
X147131613Y-55307715D01*
X147131612Y-55307714D01*
X147131610Y-55307713D01*
X147069931Y-55276286D01*
X146949223Y-55214781D01*
X146754534Y-55151522D01*
X146579995Y-55123878D01*
X146552352Y-55119500D01*
X146347648Y-55119500D01*
X146307211Y-55125904D01*
X146145462Y-55151523D01*
X146145460Y-55151523D01*
X146131149Y-55156173D01*
X146061308Y-55158164D01*
X146005157Y-55125921D01*
X144299290Y-53420055D01*
X144299288Y-53420052D01*
X144180417Y-53301181D01*
X144180412Y-53301177D01*
X144057994Y-53230500D01*
X144057994Y-53230499D01*
X144057991Y-53230498D01*
X144043485Y-53222123D01*
X143890757Y-53181199D01*
X143732643Y-53181199D01*
X143725047Y-53181199D01*
X143725031Y-53181200D01*
X141451050Y-53181200D01*
X141384011Y-53161515D01*
X141338256Y-53108711D01*
X141328312Y-53039553D01*
X141333119Y-53018883D01*
X141356756Y-52946133D01*
X141356757Y-52946126D01*
X141367231Y-52880000D01*
X140473012Y-52880000D01*
X140505925Y-52822993D01*
X140540000Y-52695826D01*
X140540000Y-52564174D01*
X140505925Y-52437007D01*
X140473012Y-52380000D01*
X141367231Y-52380000D01*
X141356757Y-52313873D01*
X141356757Y-52313870D01*
X141291095Y-52111782D01*
X141194620Y-51922442D01*
X141069727Y-51750540D01*
X141069723Y-51750535D01*
X140919464Y-51600276D01*
X140919459Y-51600272D01*
X140747557Y-51475379D01*
X140558215Y-51378903D01*
X140356124Y-51313241D01*
X140290000Y-51302768D01*
X140290000Y-52196988D01*
X140232993Y-52164075D01*
X140105826Y-52130000D01*
X139974174Y-52130000D01*
X139847007Y-52164075D01*
X139790000Y-52196988D01*
X139790000Y-51302768D01*
X139789999Y-51302768D01*
X139723875Y-51313241D01*
X139521784Y-51378903D01*
X139332442Y-51475379D01*
X139160541Y-51600271D01*
X139046865Y-51713947D01*
X138985542Y-51747431D01*
X138915850Y-51742447D01*
X138859917Y-51700575D01*
X138843002Y-51669598D01*
X138793797Y-51537671D01*
X138793793Y-51537664D01*
X138707547Y-51422455D01*
X138707544Y-51422452D01*
X138592335Y-51336206D01*
X138592328Y-51336202D01*
X138457482Y-51285908D01*
X138457483Y-51285908D01*
X138397883Y-51279501D01*
X138397881Y-51279500D01*
X138397873Y-51279500D01*
X138397864Y-51279500D01*
X136602129Y-51279500D01*
X136602123Y-51279501D01*
X136542516Y-51285908D01*
X136407671Y-51336202D01*
X136407664Y-51336206D01*
X136292455Y-51422452D01*
X136292452Y-51422455D01*
X136206206Y-51537664D01*
X136206202Y-51537671D01*
X136155908Y-51672517D01*
X136149501Y-51732116D01*
X136149500Y-51732135D01*
X133500500Y-51732135D01*
X133500500Y-50088353D01*
X135519300Y-50088353D01*
X135519300Y-50246046D01*
X135550061Y-50400689D01*
X135550064Y-50400701D01*
X135610402Y-50546372D01*
X135610409Y-50546385D01*
X135698010Y-50677488D01*
X135698013Y-50677492D01*
X135809507Y-50788986D01*
X135809511Y-50788989D01*
X135940614Y-50876590D01*
X135940627Y-50876597D01*
X136086298Y-50936935D01*
X136086303Y-50936937D01*
X136240953Y-50967699D01*
X136240956Y-50967700D01*
X136240958Y-50967700D01*
X136398644Y-50967700D01*
X136398645Y-50967699D01*
X136553297Y-50936937D01*
X136698979Y-50876594D01*
X136698985Y-50876590D01*
X136830675Y-50788598D01*
X136897353Y-50767720D01*
X136899566Y-50767700D01*
X176010234Y-50767700D01*
X176077273Y-50787385D01*
X176079125Y-50788598D01*
X176210814Y-50876590D01*
X176210827Y-50876597D01*
X176356498Y-50936935D01*
X176356503Y-50936937D01*
X176511153Y-50967699D01*
X176511156Y-50967700D01*
X176511158Y-50967700D01*
X176668844Y-50967700D01*
X176668845Y-50967699D01*
X176823497Y-50936937D01*
X176969179Y-50876594D01*
X177100289Y-50788989D01*
X177211789Y-50677489D01*
X177299394Y-50546379D01*
X177359737Y-50400697D01*
X177390500Y-50246042D01*
X177390500Y-50088358D01*
X177390500Y-50088355D01*
X177390499Y-50088353D01*
X177359738Y-49933710D01*
X177359737Y-49933703D01*
X177359735Y-49933698D01*
X177299397Y-49788027D01*
X177299390Y-49788014D01*
X177211789Y-49656911D01*
X177211786Y-49656907D01*
X177100292Y-49545413D01*
X177100288Y-49545410D01*
X176969185Y-49457809D01*
X176969172Y-49457802D01*
X176823501Y-49397464D01*
X176823489Y-49397461D01*
X176668845Y-49366700D01*
X176668842Y-49366700D01*
X176511158Y-49366700D01*
X176511155Y-49366700D01*
X176356510Y-49397461D01*
X176356498Y-49397464D01*
X176210827Y-49457802D01*
X176210814Y-49457809D01*
X176079125Y-49545802D01*
X176012447Y-49566680D01*
X176010234Y-49566700D01*
X158332999Y-49566700D01*
X158265960Y-49547015D01*
X158220205Y-49494211D01*
X158210261Y-49425053D01*
X158239286Y-49361497D01*
X158257512Y-49344325D01*
X158273150Y-49332324D01*
X158331851Y-49287282D01*
X158331855Y-49287277D01*
X158331860Y-49287274D01*
X158517274Y-49101860D01*
X158517277Y-49101855D01*
X158517282Y-49101851D01*
X158676924Y-48893803D01*
X158808043Y-48666697D01*
X158908398Y-48424419D01*
X158976270Y-48171116D01*
X159010500Y-47911120D01*
X159010500Y-47648880D01*
X159010499Y-47648872D01*
X184009500Y-47648872D01*
X184009500Y-47911127D01*
X184030436Y-48070140D01*
X184043730Y-48171116D01*
X184065178Y-48251161D01*
X184111602Y-48424418D01*
X184111605Y-48424428D01*
X184211953Y-48666690D01*
X184211958Y-48666700D01*
X184343075Y-48893803D01*
X184502718Y-49101851D01*
X184502726Y-49101860D01*
X184688140Y-49287274D01*
X184688148Y-49287281D01*
X184896196Y-49446924D01*
X185123299Y-49578041D01*
X185123309Y-49578046D01*
X185365571Y-49678394D01*
X185365581Y-49678398D01*
X185618884Y-49746270D01*
X185878880Y-49780500D01*
X185878887Y-49780500D01*
X186141113Y-49780500D01*
X186141120Y-49780500D01*
X186401116Y-49746270D01*
X186654419Y-49678398D01*
X186896697Y-49578043D01*
X187123803Y-49446924D01*
X187331851Y-49287282D01*
X187331855Y-49287277D01*
X187331860Y-49287274D01*
X187517274Y-49101860D01*
X187517277Y-49101855D01*
X187517282Y-49101851D01*
X187676924Y-48893803D01*
X187808043Y-48666697D01*
X187908398Y-48424419D01*
X187976270Y-48171116D01*
X188010500Y-47911120D01*
X188010500Y-47648880D01*
X187976270Y-47388884D01*
X187908398Y-47135581D01*
X187810204Y-46898520D01*
X187808046Y-46893309D01*
X187808041Y-46893299D01*
X187676924Y-46666196D01*
X187517281Y-46458148D01*
X187517274Y-46458140D01*
X187331860Y-46272726D01*
X187331851Y-46272718D01*
X187123803Y-46113075D01*
X186896700Y-45981958D01*
X186896690Y-45981953D01*
X186654428Y-45881605D01*
X186654421Y-45881603D01*
X186654419Y-45881602D01*
X186401116Y-45813730D01*
X186343339Y-45806123D01*
X186141127Y-45779500D01*
X186141120Y-45779500D01*
X185878880Y-45779500D01*
X185878872Y-45779500D01*
X185647772Y-45809926D01*
X185618884Y-45813730D01*
X185365581Y-45881602D01*
X185365571Y-45881605D01*
X185123309Y-45981953D01*
X185123299Y-45981958D01*
X184896196Y-46113075D01*
X184688148Y-46272718D01*
X184502718Y-46458148D01*
X184343075Y-46666196D01*
X184211958Y-46893299D01*
X184211953Y-46893309D01*
X184111605Y-47135571D01*
X184111602Y-47135581D01*
X184043730Y-47388885D01*
X184009500Y-47648872D01*
X159010499Y-47648872D01*
X158976270Y-47388884D01*
X158908398Y-47135581D01*
X158810204Y-46898520D01*
X158808046Y-46893309D01*
X158808041Y-46893299D01*
X158676924Y-46666196D01*
X158517281Y-46458148D01*
X158517274Y-46458140D01*
X158331860Y-46272726D01*
X158331851Y-46272718D01*
X158123803Y-46113075D01*
X157896700Y-45981958D01*
X157896690Y-45981953D01*
X157654428Y-45881605D01*
X157654421Y-45881603D01*
X157654419Y-45881602D01*
X157401116Y-45813730D01*
X157343339Y-45806123D01*
X157141127Y-45779500D01*
X157141120Y-45779500D01*
X156878880Y-45779500D01*
X156878872Y-45779500D01*
X156647772Y-45809926D01*
X156618884Y-45813730D01*
X156365581Y-45881602D01*
X156365571Y-45881605D01*
X156123309Y-45981953D01*
X156123299Y-45981958D01*
X155896196Y-46113075D01*
X155688148Y-46272718D01*
X155502718Y-46458148D01*
X155343075Y-46666196D01*
X155211958Y-46893299D01*
X155211953Y-46893309D01*
X155111605Y-47135571D01*
X155111602Y-47135581D01*
X155043730Y-47388885D01*
X155009500Y-47648872D01*
X155009500Y-47911127D01*
X155030436Y-48070140D01*
X155043730Y-48171116D01*
X155065178Y-48251161D01*
X155111602Y-48424418D01*
X155111605Y-48424428D01*
X155211953Y-48666690D01*
X155211958Y-48666700D01*
X155343075Y-48893803D01*
X155502718Y-49101851D01*
X155502726Y-49101860D01*
X155688140Y-49287274D01*
X155688148Y-49287281D01*
X155762488Y-49344325D01*
X155803690Y-49400753D01*
X155807845Y-49470499D01*
X155773632Y-49531419D01*
X155711915Y-49564171D01*
X155687001Y-49566700D01*
X136899566Y-49566700D01*
X136832527Y-49547015D01*
X136830675Y-49545802D01*
X136698985Y-49457809D01*
X136698972Y-49457802D01*
X136553301Y-49397464D01*
X136553289Y-49397461D01*
X136398645Y-49366700D01*
X136398642Y-49366700D01*
X136240958Y-49366700D01*
X136240955Y-49366700D01*
X136086310Y-49397461D01*
X136086298Y-49397464D01*
X135940627Y-49457802D01*
X135940614Y-49457809D01*
X135809511Y-49545410D01*
X135809507Y-49545413D01*
X135698013Y-49656907D01*
X135698010Y-49656911D01*
X135610409Y-49788014D01*
X135610402Y-49788027D01*
X135550064Y-49933698D01*
X135550061Y-49933710D01*
X135519300Y-50088353D01*
X133500500Y-50088353D01*
X133500500Y-45504066D01*
X133500765Y-45495956D01*
X133504819Y-45434108D01*
X133517075Y-45247102D01*
X133519190Y-45231048D01*
X133567045Y-44990462D01*
X133571243Y-44974797D01*
X133594337Y-44906762D01*
X133650093Y-44742512D01*
X133656291Y-44727547D01*
X133764790Y-44507533D01*
X133772893Y-44493498D01*
X133909182Y-44289527D01*
X133919039Y-44276681D01*
X134080786Y-44092244D01*
X134092244Y-44080786D01*
X134276681Y-43919039D01*
X134289527Y-43909182D01*
X134493498Y-43772893D01*
X134507533Y-43764790D01*
X134727547Y-43656291D01*
X134742512Y-43650093D01*
X134906762Y-43594337D01*
X134974797Y-43571243D01*
X134990464Y-43567045D01*
X135231048Y-43519190D01*
X135247102Y-43517075D01*
X135495957Y-43500765D01*
X135504067Y-43500500D01*
X135565892Y-43500500D01*
X187934108Y-43500500D01*
X187995933Y-43500500D01*
X188004043Y-43500765D01*
G37*
%TD.AperFunction*%
%TD*%
M02*
