%TF.GenerationSoftware,KiCad,Pcbnew,9.0.0*%
%TF.CreationDate,2025-03-24T13:57:02-05:00*%
%TF.ProjectId,DIIN-proyecto,4449494e-2d70-4726-9f79-6563746f2e6b,rev?*%
%TF.SameCoordinates,Original*%
%TF.FileFunction,Copper,L1,Top*%
%TF.FilePolarity,Positive*%
%FSLAX46Y46*%
G04 Gerber Fmt 4.6, Leading zero omitted, Abs format (unit mm)*
G04 Created by KiCad (PCBNEW 9.0.0) date 2025-03-24 13:57:02*
%MOMM*%
%LPD*%
G01*
G04 APERTURE LIST*
G04 Aperture macros list*
%AMRoundRect*
0 Rectangle with rounded corners*
0 $1 Rounding radius*
0 $2 $3 $4 $5 $6 $7 $8 $9 X,Y pos of 4 corners*
0 Add a 4 corners polygon primitive as box body*
4,1,4,$2,$3,$4,$5,$6,$7,$8,$9,$2,$3,0*
0 Add four circle primitives for the rounded corners*
1,1,$1+$1,$2,$3*
1,1,$1+$1,$4,$5*
1,1,$1+$1,$6,$7*
1,1,$1+$1,$8,$9*
0 Add four rect primitives between the rounded corners*
20,1,$1+$1,$2,$3,$4,$5,0*
20,1,$1+$1,$4,$5,$6,$7,0*
20,1,$1+$1,$6,$7,$8,$9,0*
20,1,$1+$1,$8,$9,$2,$3,0*%
G04 Aperture macros list end*
%TA.AperFunction,ComponentPad*%
%ADD10C,3.000000*%
%TD*%
%TA.AperFunction,ComponentPad*%
%ADD11C,1.400000*%
%TD*%
%TA.AperFunction,ComponentPad*%
%ADD12RoundRect,0.250000X-1.050000X1.050000X-1.050000X-1.050000X1.050000X-1.050000X1.050000X1.050000X0*%
%TD*%
%TA.AperFunction,ComponentPad*%
%ADD13C,2.600000*%
%TD*%
%TA.AperFunction,Conductor*%
%ADD14C,2.000000*%
%TD*%
G04 APERTURE END LIST*
D10*
%TO.P,U2,1,L*%
%TO.N,L*%
X117220000Y-59000000D03*
%TO.P,U2,2,N*%
%TO.N,N*%
X117220000Y-65000000D03*
%TO.P,U2,3,GND*%
%TO.N,GND*%
X150820000Y-53000000D03*
%TO.P,U2,4,+5v*%
%TO.N,COM*%
X150820000Y-71000000D03*
%TD*%
D11*
%TO.P,PS1,1,VAC_IN_(L)*%
%TO.N,N*%
X120590000Y-96890000D03*
%TO.P,PS1,2,-VOUT*%
%TO.N,GND*%
X143450000Y-94350000D03*
%TO.P,PS1,3,+VOUT*%
%TO.N,+3.3V*%
X143450000Y-79110000D03*
%TO.P,PS1,4,VAC_IN_(N)*%
%TO.N,L*%
X120590000Y-79110000D03*
%TD*%
D12*
%TO.P,J4,1,Pin_1*%
%TO.N,L*%
X105327500Y-61500000D03*
D13*
%TO.P,J4,2,Pin_2*%
%TO.N,N*%
X105327500Y-66500000D03*
%TD*%
D12*
%TO.P,J2,1,Pin_1*%
%TO.N,+12V*%
X105327500Y-86000000D03*
D13*
%TO.P,J2,2,Pin_2*%
%TO.N,GND*%
X105327500Y-91000000D03*
%TD*%
D14*
%TO.N,L*%
X114720000Y-61500000D02*
X117220000Y-59000000D01*
X105327500Y-61500000D02*
X114720000Y-61500000D01*
%TO.N,N*%
X115720000Y-66500000D02*
X117220000Y-65000000D01*
X105327500Y-66500000D02*
X115720000Y-66500000D01*
%TD*%
%TA.AperFunction,Conductor*%
%TO.N,GND*%
G36*
X151504043Y-49000765D02*
G01*
X151752895Y-49017075D01*
X151768953Y-49019190D01*
X151976105Y-49060395D01*
X152009535Y-49067045D01*
X152025202Y-49071243D01*
X152194947Y-49128863D01*
X152257481Y-49150091D01*
X152272458Y-49156294D01*
X152481799Y-49259529D01*
X152492460Y-49264787D01*
X152506508Y-49272897D01*
X152710464Y-49409177D01*
X152723328Y-49419048D01*
X152907749Y-49580781D01*
X152919218Y-49592250D01*
X153080951Y-49776671D01*
X153090825Y-49789539D01*
X153227102Y-49993492D01*
X153235212Y-50007539D01*
X153343702Y-50227534D01*
X153349909Y-50242520D01*
X153428756Y-50474797D01*
X153432954Y-50490464D01*
X153480807Y-50731035D01*
X153482925Y-50747116D01*
X153499235Y-50995956D01*
X153499500Y-51004066D01*
X153499500Y-100495933D01*
X153499235Y-100504043D01*
X153482925Y-100752883D01*
X153480807Y-100768964D01*
X153432954Y-101009535D01*
X153428756Y-101025202D01*
X153349909Y-101257479D01*
X153343702Y-101272465D01*
X153235212Y-101492460D01*
X153227102Y-101506507D01*
X153090825Y-101710460D01*
X153080951Y-101723328D01*
X152919218Y-101907749D01*
X152907749Y-101919218D01*
X152723328Y-102080951D01*
X152710460Y-102090825D01*
X152506507Y-102227102D01*
X152492460Y-102235212D01*
X152272465Y-102343702D01*
X152257479Y-102349909D01*
X152025202Y-102428756D01*
X152009535Y-102432954D01*
X151768964Y-102480807D01*
X151752883Y-102482925D01*
X151504043Y-102499235D01*
X151495933Y-102499500D01*
X99004067Y-102499500D01*
X98995957Y-102499235D01*
X98747116Y-102482925D01*
X98731035Y-102480807D01*
X98490464Y-102432954D01*
X98474797Y-102428756D01*
X98242520Y-102349909D01*
X98227534Y-102343702D01*
X98007539Y-102235212D01*
X97993492Y-102227102D01*
X97789539Y-102090825D01*
X97776671Y-102080951D01*
X97592250Y-101919218D01*
X97580781Y-101907749D01*
X97419048Y-101723328D01*
X97409174Y-101710460D01*
X97272897Y-101506507D01*
X97264787Y-101492460D01*
X97158855Y-101277652D01*
X97156294Y-101272458D01*
X97150090Y-101257479D01*
X97071243Y-101025202D01*
X97067045Y-101009535D01*
X97059186Y-100970026D01*
X97019190Y-100768953D01*
X97017075Y-100752895D01*
X97000765Y-100504043D01*
X97000500Y-100495933D01*
X97000500Y-96795513D01*
X119389500Y-96795513D01*
X119389500Y-96984486D01*
X119419059Y-97171118D01*
X119477454Y-97350836D01*
X119563240Y-97519199D01*
X119674310Y-97672073D01*
X119807927Y-97805690D01*
X119960801Y-97916760D01*
X120040347Y-97957290D01*
X120129163Y-98002545D01*
X120129165Y-98002545D01*
X120129168Y-98002547D01*
X120225497Y-98033846D01*
X120308881Y-98060940D01*
X120495514Y-98090500D01*
X120495519Y-98090500D01*
X120684486Y-98090500D01*
X120871118Y-98060940D01*
X121050832Y-98002547D01*
X121219199Y-97916760D01*
X121372073Y-97805690D01*
X121505690Y-97672073D01*
X121616760Y-97519199D01*
X121702547Y-97350832D01*
X121760940Y-97171118D01*
X121790500Y-96984486D01*
X121790500Y-96795513D01*
X121760940Y-96608881D01*
X121702545Y-96429163D01*
X121616759Y-96260800D01*
X121505690Y-96107927D01*
X121372073Y-95974310D01*
X121219199Y-95863240D01*
X121050836Y-95777454D01*
X120871118Y-95719059D01*
X120684486Y-95689500D01*
X120684481Y-95689500D01*
X120495519Y-95689500D01*
X120495514Y-95689500D01*
X120308881Y-95719059D01*
X120129163Y-95777454D01*
X119960800Y-95863240D01*
X119873579Y-95926610D01*
X119807927Y-95974310D01*
X119807925Y-95974312D01*
X119807924Y-95974312D01*
X119674312Y-96107924D01*
X119674312Y-96107925D01*
X119674310Y-96107927D01*
X119626610Y-96173579D01*
X119563240Y-96260800D01*
X119477454Y-96429163D01*
X119419059Y-96608881D01*
X119389500Y-96795513D01*
X97000500Y-96795513D01*
X97000500Y-94255552D01*
X142250000Y-94255552D01*
X142250000Y-94444447D01*
X142279548Y-94631002D01*
X142337914Y-94810637D01*
X142423666Y-94978933D01*
X142442116Y-95004328D01*
X143007861Y-94438584D01*
X143030667Y-94523694D01*
X143089910Y-94626306D01*
X143173694Y-94710090D01*
X143276306Y-94769333D01*
X143361415Y-94792138D01*
X142795669Y-95357882D01*
X142795670Y-95357883D01*
X142821059Y-95376329D01*
X142989362Y-95462085D01*
X143168997Y-95520451D01*
X143355553Y-95550000D01*
X143544447Y-95550000D01*
X143731002Y-95520451D01*
X143910637Y-95462085D01*
X144078937Y-95376331D01*
X144104328Y-95357883D01*
X144104328Y-95357882D01*
X143538584Y-94792138D01*
X143623694Y-94769333D01*
X143726306Y-94710090D01*
X143810090Y-94626306D01*
X143869333Y-94523694D01*
X143892138Y-94438584D01*
X144457882Y-95004328D01*
X144457883Y-95004328D01*
X144476331Y-94978937D01*
X144562085Y-94810637D01*
X144620451Y-94631002D01*
X144650000Y-94444447D01*
X144650000Y-94255552D01*
X144620451Y-94068997D01*
X144562085Y-93889362D01*
X144476329Y-93721059D01*
X144457883Y-93695670D01*
X144457882Y-93695669D01*
X143892137Y-94261414D01*
X143869333Y-94176306D01*
X143810090Y-94073694D01*
X143726306Y-93989910D01*
X143623694Y-93930667D01*
X143538584Y-93907861D01*
X144104328Y-93342116D01*
X144078933Y-93323666D01*
X143910637Y-93237914D01*
X143731002Y-93179548D01*
X143544447Y-93150000D01*
X143355553Y-93150000D01*
X143168997Y-93179548D01*
X142989362Y-93237914D01*
X142821060Y-93323669D01*
X142795670Y-93342116D01*
X142795669Y-93342116D01*
X143361415Y-93907861D01*
X143276306Y-93930667D01*
X143173694Y-93989910D01*
X143089910Y-94073694D01*
X143030667Y-94176306D01*
X143007861Y-94261414D01*
X142442116Y-93695669D01*
X142442116Y-93695670D01*
X142423669Y-93721060D01*
X142337914Y-93889362D01*
X142279548Y-94068997D01*
X142250000Y-94255552D01*
X97000500Y-94255552D01*
X97000500Y-90882014D01*
X103527500Y-90882014D01*
X103527500Y-91117985D01*
X103558299Y-91351914D01*
X103619370Y-91579837D01*
X103709660Y-91797819D01*
X103709665Y-91797828D01*
X103827644Y-92002171D01*
X103827645Y-92002172D01*
X103890221Y-92083723D01*
X104726458Y-91247487D01*
X104751478Y-91307890D01*
X104822612Y-91414351D01*
X104913149Y-91504888D01*
X105019610Y-91576022D01*
X105080011Y-91601041D01*
X104243775Y-92437277D01*
X104325327Y-92499854D01*
X104325328Y-92499855D01*
X104529671Y-92617834D01*
X104529680Y-92617839D01*
X104747663Y-92708129D01*
X104747661Y-92708129D01*
X104975585Y-92769200D01*
X105209514Y-92799999D01*
X105209529Y-92800000D01*
X105445471Y-92800000D01*
X105445485Y-92799999D01*
X105679414Y-92769200D01*
X105907337Y-92708129D01*
X106125319Y-92617839D01*
X106125328Y-92617834D01*
X106329681Y-92499850D01*
X106411223Y-92437279D01*
X106411223Y-92437276D01*
X105574987Y-91601041D01*
X105635390Y-91576022D01*
X105741851Y-91504888D01*
X105832388Y-91414351D01*
X105903522Y-91307890D01*
X105928541Y-91247488D01*
X106764776Y-92083723D01*
X106764779Y-92083723D01*
X106827350Y-92002181D01*
X106945334Y-91797828D01*
X106945339Y-91797819D01*
X107035629Y-91579837D01*
X107096700Y-91351914D01*
X107127499Y-91117985D01*
X107127500Y-91117971D01*
X107127500Y-90882028D01*
X107127499Y-90882014D01*
X107096700Y-90648085D01*
X107035629Y-90420162D01*
X106945339Y-90202180D01*
X106945334Y-90202171D01*
X106827355Y-89997828D01*
X106827354Y-89997827D01*
X106764777Y-89916275D01*
X105928541Y-90752511D01*
X105903522Y-90692110D01*
X105832388Y-90585649D01*
X105741851Y-90495112D01*
X105635390Y-90423978D01*
X105574988Y-90398958D01*
X106411223Y-89562721D01*
X106329672Y-89500145D01*
X106329671Y-89500144D01*
X106125328Y-89382165D01*
X106125319Y-89382160D01*
X105907336Y-89291870D01*
X105907338Y-89291870D01*
X105679414Y-89230799D01*
X105445485Y-89200000D01*
X105209514Y-89200000D01*
X104975585Y-89230799D01*
X104747662Y-89291870D01*
X104529680Y-89382160D01*
X104529671Y-89382165D01*
X104325328Y-89500144D01*
X104325318Y-89500150D01*
X104243775Y-89562720D01*
X104243775Y-89562721D01*
X105080012Y-90398958D01*
X105019610Y-90423978D01*
X104913149Y-90495112D01*
X104822612Y-90585649D01*
X104751478Y-90692110D01*
X104726458Y-90752511D01*
X103890221Y-89916275D01*
X103890220Y-89916275D01*
X103827650Y-89997818D01*
X103827644Y-89997828D01*
X103709665Y-90202171D01*
X103709660Y-90202180D01*
X103619370Y-90420162D01*
X103558299Y-90648085D01*
X103527500Y-90882014D01*
X97000500Y-90882014D01*
X97000500Y-84899983D01*
X103527000Y-84899983D01*
X103527000Y-87100001D01*
X103527001Y-87100018D01*
X103537500Y-87202796D01*
X103537501Y-87202799D01*
X103592685Y-87369331D01*
X103592686Y-87369334D01*
X103684788Y-87518656D01*
X103808844Y-87642712D01*
X103958166Y-87734814D01*
X104124703Y-87789999D01*
X104227491Y-87800500D01*
X106427508Y-87800499D01*
X106530297Y-87789999D01*
X106696834Y-87734814D01*
X106846156Y-87642712D01*
X106970212Y-87518656D01*
X107062314Y-87369334D01*
X107117499Y-87202797D01*
X107128000Y-87100009D01*
X107127999Y-84899992D01*
X107117499Y-84797203D01*
X107062314Y-84630666D01*
X106970212Y-84481344D01*
X106846156Y-84357288D01*
X106696834Y-84265186D01*
X106530297Y-84210001D01*
X106530295Y-84210000D01*
X106427510Y-84199500D01*
X104227498Y-84199500D01*
X104227481Y-84199501D01*
X104124703Y-84210000D01*
X104124700Y-84210001D01*
X103958168Y-84265185D01*
X103958163Y-84265187D01*
X103808842Y-84357289D01*
X103684789Y-84481342D01*
X103592687Y-84630663D01*
X103592686Y-84630666D01*
X103537501Y-84797203D01*
X103537501Y-84797204D01*
X103537500Y-84797204D01*
X103527000Y-84899983D01*
X97000500Y-84899983D01*
X97000500Y-79015513D01*
X119389500Y-79015513D01*
X119389500Y-79204486D01*
X119419059Y-79391118D01*
X119477454Y-79570836D01*
X119563240Y-79739199D01*
X119674310Y-79892073D01*
X119807927Y-80025690D01*
X119960801Y-80136760D01*
X120040347Y-80177290D01*
X120129163Y-80222545D01*
X120129165Y-80222545D01*
X120129168Y-80222547D01*
X120225497Y-80253846D01*
X120308881Y-80280940D01*
X120495514Y-80310500D01*
X120495519Y-80310500D01*
X120684486Y-80310500D01*
X120871118Y-80280940D01*
X121050832Y-80222547D01*
X121219199Y-80136760D01*
X121372073Y-80025690D01*
X121505690Y-79892073D01*
X121616760Y-79739199D01*
X121702547Y-79570832D01*
X121760940Y-79391118D01*
X121790500Y-79204486D01*
X121790500Y-79015513D01*
X142249500Y-79015513D01*
X142249500Y-79204486D01*
X142279059Y-79391118D01*
X142337454Y-79570836D01*
X142423240Y-79739199D01*
X142534310Y-79892073D01*
X142667927Y-80025690D01*
X142820801Y-80136760D01*
X142900347Y-80177290D01*
X142989163Y-80222545D01*
X142989165Y-80222545D01*
X142989168Y-80222547D01*
X143085497Y-80253846D01*
X143168881Y-80280940D01*
X143355514Y-80310500D01*
X143355519Y-80310500D01*
X143544486Y-80310500D01*
X143731118Y-80280940D01*
X143910832Y-80222547D01*
X144079199Y-80136760D01*
X144232073Y-80025690D01*
X144365690Y-79892073D01*
X144476760Y-79739199D01*
X144562547Y-79570832D01*
X144620940Y-79391118D01*
X144650500Y-79204486D01*
X144650500Y-79015513D01*
X144620940Y-78828881D01*
X144562545Y-78649163D01*
X144476759Y-78480800D01*
X144365690Y-78327927D01*
X144232073Y-78194310D01*
X144079199Y-78083240D01*
X143910836Y-77997454D01*
X143731118Y-77939059D01*
X143544486Y-77909500D01*
X143544481Y-77909500D01*
X143355519Y-77909500D01*
X143355514Y-77909500D01*
X143168881Y-77939059D01*
X142989163Y-77997454D01*
X142820800Y-78083240D01*
X142733579Y-78146610D01*
X142667927Y-78194310D01*
X142667925Y-78194312D01*
X142667924Y-78194312D01*
X142534312Y-78327924D01*
X142534312Y-78327925D01*
X142534310Y-78327927D01*
X142486610Y-78393579D01*
X142423240Y-78480800D01*
X142337454Y-78649163D01*
X142279059Y-78828881D01*
X142249500Y-79015513D01*
X121790500Y-79015513D01*
X121760940Y-78828881D01*
X121702545Y-78649163D01*
X121616759Y-78480800D01*
X121505690Y-78327927D01*
X121372073Y-78194310D01*
X121219199Y-78083240D01*
X121050836Y-77997454D01*
X120871118Y-77939059D01*
X120684486Y-77909500D01*
X120684481Y-77909500D01*
X120495519Y-77909500D01*
X120495514Y-77909500D01*
X120308881Y-77939059D01*
X120129163Y-77997454D01*
X119960800Y-78083240D01*
X119873579Y-78146610D01*
X119807927Y-78194310D01*
X119807925Y-78194312D01*
X119807924Y-78194312D01*
X119674312Y-78327924D01*
X119674312Y-78327925D01*
X119674310Y-78327927D01*
X119626610Y-78393579D01*
X119563240Y-78480800D01*
X119477454Y-78649163D01*
X119419059Y-78828881D01*
X119389500Y-79015513D01*
X97000500Y-79015513D01*
X97000500Y-70868872D01*
X148819500Y-70868872D01*
X148819500Y-71131127D01*
X148846123Y-71333339D01*
X148853730Y-71391116D01*
X148921602Y-71644418D01*
X148921605Y-71644428D01*
X149021953Y-71886690D01*
X149021958Y-71886700D01*
X149153075Y-72113803D01*
X149312718Y-72321851D01*
X149312726Y-72321860D01*
X149498140Y-72507274D01*
X149498148Y-72507281D01*
X149706196Y-72666924D01*
X149933299Y-72798041D01*
X149933309Y-72798046D01*
X150175571Y-72898394D01*
X150175581Y-72898398D01*
X150428884Y-72966270D01*
X150688880Y-73000500D01*
X150688887Y-73000500D01*
X150951113Y-73000500D01*
X150951120Y-73000500D01*
X151211116Y-72966270D01*
X151464419Y-72898398D01*
X151706697Y-72798043D01*
X151933803Y-72666924D01*
X152141851Y-72507282D01*
X152141855Y-72507277D01*
X152141860Y-72507274D01*
X152327274Y-72321860D01*
X152327277Y-72321855D01*
X152327282Y-72321851D01*
X152486924Y-72113803D01*
X152618043Y-71886697D01*
X152718398Y-71644419D01*
X152786270Y-71391116D01*
X152820500Y-71131120D01*
X152820500Y-70868880D01*
X152786270Y-70608884D01*
X152718398Y-70355581D01*
X152718394Y-70355571D01*
X152618046Y-70113309D01*
X152618041Y-70113299D01*
X152486924Y-69886196D01*
X152327281Y-69678148D01*
X152327274Y-69678140D01*
X152141860Y-69492726D01*
X152141851Y-69492718D01*
X151933803Y-69333075D01*
X151706700Y-69201958D01*
X151706690Y-69201953D01*
X151464428Y-69101605D01*
X151464421Y-69101603D01*
X151464419Y-69101602D01*
X151211116Y-69033730D01*
X151153339Y-69026123D01*
X150951127Y-68999500D01*
X150951120Y-68999500D01*
X150688880Y-68999500D01*
X150688872Y-68999500D01*
X150457772Y-69029926D01*
X150428884Y-69033730D01*
X150175581Y-69101602D01*
X150175571Y-69101605D01*
X149933309Y-69201953D01*
X149933299Y-69201958D01*
X149706196Y-69333075D01*
X149498148Y-69492718D01*
X149312718Y-69678148D01*
X149153075Y-69886196D01*
X149021958Y-70113299D01*
X149021953Y-70113309D01*
X148921605Y-70355571D01*
X148921602Y-70355581D01*
X148853730Y-70608885D01*
X148819500Y-70868872D01*
X97000500Y-70868872D01*
X97000500Y-66381995D01*
X103527000Y-66381995D01*
X103527000Y-66618004D01*
X103527001Y-66618020D01*
X103557806Y-66852010D01*
X103618894Y-67079993D01*
X103709214Y-67298045D01*
X103709219Y-67298056D01*
X103780177Y-67420957D01*
X103827227Y-67502450D01*
X103827229Y-67502453D01*
X103827230Y-67502454D01*
X103970906Y-67689697D01*
X103970912Y-67689704D01*
X104137795Y-67856587D01*
X104137801Y-67856592D01*
X104325050Y-68000273D01*
X104456418Y-68076118D01*
X104529443Y-68118280D01*
X104529448Y-68118282D01*
X104529451Y-68118284D01*
X104747507Y-68208606D01*
X104975486Y-68269693D01*
X105209489Y-68300500D01*
X105209496Y-68300500D01*
X105445504Y-68300500D01*
X105445511Y-68300500D01*
X105679514Y-68269693D01*
X105907493Y-68208606D01*
X106125549Y-68118284D01*
X106125556Y-68118280D01*
X106300783Y-68017113D01*
X106362783Y-68000500D01*
X115838097Y-68000500D01*
X116071368Y-67963553D01*
X116295992Y-67890568D01*
X116506434Y-67783343D01*
X116697510Y-67644517D01*
X117310310Y-67031716D01*
X117371631Y-66998233D01*
X117381793Y-66996461D01*
X117611116Y-66966270D01*
X117864419Y-66898398D01*
X118106697Y-66798043D01*
X118333803Y-66666924D01*
X118541851Y-66507282D01*
X118541855Y-66507277D01*
X118541860Y-66507274D01*
X118727274Y-66321860D01*
X118727277Y-66321855D01*
X118727282Y-66321851D01*
X118886924Y-66113803D01*
X119018043Y-65886697D01*
X119118398Y-65644419D01*
X119186270Y-65391116D01*
X119220500Y-65131120D01*
X119220500Y-64868880D01*
X119186270Y-64608884D01*
X119118398Y-64355581D01*
X119118394Y-64355571D01*
X119018046Y-64113309D01*
X119018041Y-64113299D01*
X118886924Y-63886196D01*
X118727281Y-63678148D01*
X118727274Y-63678140D01*
X118541860Y-63492726D01*
X118541851Y-63492718D01*
X118333803Y-63333075D01*
X118106700Y-63201958D01*
X118106690Y-63201953D01*
X117864428Y-63101605D01*
X117864421Y-63101603D01*
X117864419Y-63101602D01*
X117611116Y-63033730D01*
X117553339Y-63026123D01*
X117351127Y-62999500D01*
X117351120Y-62999500D01*
X117088880Y-62999500D01*
X117088872Y-62999500D01*
X116857772Y-63029926D01*
X116828884Y-63033730D01*
X116575581Y-63101602D01*
X116575571Y-63101605D01*
X116333309Y-63201953D01*
X116333299Y-63201958D01*
X116106196Y-63333075D01*
X115898148Y-63492718D01*
X115712718Y-63678148D01*
X115553075Y-63886196D01*
X115421958Y-64113299D01*
X115421953Y-64113309D01*
X115321605Y-64355571D01*
X115321602Y-64355581D01*
X115253730Y-64608885D01*
X115223539Y-64838196D01*
X115214291Y-64859099D01*
X115209433Y-64881436D01*
X115197154Y-64897838D01*
X115195272Y-64902093D01*
X115188282Y-64909690D01*
X115134793Y-64963180D01*
X115073470Y-64996666D01*
X115047111Y-64999500D01*
X106362783Y-64999500D01*
X106300783Y-64982887D01*
X106125556Y-64881719D01*
X106125545Y-64881714D01*
X105907493Y-64791394D01*
X105679510Y-64730306D01*
X105445520Y-64699501D01*
X105445517Y-64699500D01*
X105445511Y-64699500D01*
X105209489Y-64699500D01*
X105209483Y-64699500D01*
X105209479Y-64699501D01*
X104975489Y-64730306D01*
X104747506Y-64791394D01*
X104529454Y-64881714D01*
X104529443Y-64881719D01*
X104325045Y-64999730D01*
X104137802Y-65143406D01*
X104137795Y-65143412D01*
X103970912Y-65310295D01*
X103970906Y-65310302D01*
X103827230Y-65497545D01*
X103709219Y-65701943D01*
X103709214Y-65701954D01*
X103618894Y-65920006D01*
X103557806Y-66147989D01*
X103527001Y-66381979D01*
X103527000Y-66381995D01*
X97000500Y-66381995D01*
X97000500Y-60399983D01*
X103527000Y-60399983D01*
X103527000Y-62600001D01*
X103527001Y-62600018D01*
X103537500Y-62702796D01*
X103537501Y-62702799D01*
X103564191Y-62783342D01*
X103592686Y-62869334D01*
X103684788Y-63018656D01*
X103808844Y-63142712D01*
X103958166Y-63234814D01*
X104124703Y-63289999D01*
X104227491Y-63300500D01*
X106427508Y-63300499D01*
X106530297Y-63289999D01*
X106696834Y-63234814D01*
X106846156Y-63142712D01*
X106952050Y-63036818D01*
X107013373Y-63003334D01*
X107039731Y-63000500D01*
X114838097Y-63000500D01*
X115071368Y-62963553D01*
X115295992Y-62890568D01*
X115506434Y-62783343D01*
X115697510Y-62644517D01*
X117310310Y-61031716D01*
X117371631Y-60998233D01*
X117381793Y-60996461D01*
X117611116Y-60966270D01*
X117864419Y-60898398D01*
X118106697Y-60798043D01*
X118333803Y-60666924D01*
X118541851Y-60507282D01*
X118541855Y-60507277D01*
X118541860Y-60507274D01*
X118727274Y-60321860D01*
X118727277Y-60321855D01*
X118727282Y-60321851D01*
X118886924Y-60113803D01*
X119018043Y-59886697D01*
X119118398Y-59644419D01*
X119186270Y-59391116D01*
X119220500Y-59131120D01*
X119220500Y-58868880D01*
X119186270Y-58608884D01*
X119118398Y-58355581D01*
X119118394Y-58355571D01*
X119018046Y-58113309D01*
X119018041Y-58113299D01*
X118886924Y-57886196D01*
X118727281Y-57678148D01*
X118727274Y-57678140D01*
X118541860Y-57492726D01*
X118541851Y-57492718D01*
X118333803Y-57333075D01*
X118106700Y-57201958D01*
X118106690Y-57201953D01*
X117864428Y-57101605D01*
X117864421Y-57101603D01*
X117864419Y-57101602D01*
X117611116Y-57033730D01*
X117553339Y-57026123D01*
X117351127Y-56999500D01*
X117351120Y-56999500D01*
X117088880Y-56999500D01*
X117088872Y-56999500D01*
X116857772Y-57029926D01*
X116828884Y-57033730D01*
X116575581Y-57101602D01*
X116575571Y-57101605D01*
X116333309Y-57201953D01*
X116333299Y-57201958D01*
X116106196Y-57333075D01*
X115898148Y-57492718D01*
X115712718Y-57678148D01*
X115553075Y-57886196D01*
X115421958Y-58113299D01*
X115421953Y-58113309D01*
X115321605Y-58355571D01*
X115321602Y-58355581D01*
X115253730Y-58608885D01*
X115223539Y-58838196D01*
X115195272Y-58902093D01*
X115188281Y-58909691D01*
X114134792Y-59963181D01*
X114073469Y-59996666D01*
X114047111Y-59999500D01*
X107039731Y-59999500D01*
X106972692Y-59979815D01*
X106952050Y-59963182D01*
X106952049Y-59963181D01*
X106846156Y-59857288D01*
X106696834Y-59765186D01*
X106530297Y-59710001D01*
X106530295Y-59710000D01*
X106427510Y-59699500D01*
X104227498Y-59699500D01*
X104227481Y-59699501D01*
X104124703Y-59710000D01*
X104124700Y-59710001D01*
X103958168Y-59765185D01*
X103958163Y-59765187D01*
X103808842Y-59857289D01*
X103684789Y-59981342D01*
X103592687Y-60130663D01*
X103592686Y-60130666D01*
X103537501Y-60297203D01*
X103537501Y-60297204D01*
X103537500Y-60297204D01*
X103527000Y-60399983D01*
X97000500Y-60399983D01*
X97000500Y-52868905D01*
X148820000Y-52868905D01*
X148820000Y-53131094D01*
X148854220Y-53391009D01*
X148854222Y-53391020D01*
X148922075Y-53644255D01*
X149022404Y-53886471D01*
X149022409Y-53886482D01*
X149153488Y-54113516D01*
X149153494Y-54113524D01*
X149240080Y-54226365D01*
X150255387Y-53211058D01*
X150260889Y-53231591D01*
X150339881Y-53368408D01*
X150451592Y-53480119D01*
X150588409Y-53559111D01*
X150608940Y-53564612D01*
X149593633Y-54579917D01*
X149593633Y-54579918D01*
X149706475Y-54666505D01*
X149706483Y-54666511D01*
X149933517Y-54797590D01*
X149933528Y-54797595D01*
X150175744Y-54897924D01*
X150428979Y-54965777D01*
X150428990Y-54965779D01*
X150688905Y-54999999D01*
X150688920Y-55000000D01*
X150951080Y-55000000D01*
X150951094Y-54999999D01*
X151211009Y-54965779D01*
X151211020Y-54965777D01*
X151464255Y-54897924D01*
X151706471Y-54797595D01*
X151706482Y-54797590D01*
X151933516Y-54666511D01*
X151933534Y-54666499D01*
X152046365Y-54579919D01*
X152046365Y-54579917D01*
X151031059Y-53564612D01*
X151051591Y-53559111D01*
X151188408Y-53480119D01*
X151300119Y-53368408D01*
X151379111Y-53231591D01*
X151384612Y-53211060D01*
X152399917Y-54226365D01*
X152399919Y-54226365D01*
X152486499Y-54113534D01*
X152486511Y-54113516D01*
X152617590Y-53886482D01*
X152617595Y-53886471D01*
X152717924Y-53644255D01*
X152785777Y-53391020D01*
X152785779Y-53391009D01*
X152819999Y-53131094D01*
X152820000Y-53131080D01*
X152820000Y-52868919D01*
X152819999Y-52868905D01*
X152785779Y-52608990D01*
X152785777Y-52608979D01*
X152717924Y-52355744D01*
X152617595Y-52113528D01*
X152617590Y-52113517D01*
X152486511Y-51886483D01*
X152486505Y-51886475D01*
X152399918Y-51773633D01*
X152399917Y-51773633D01*
X151384612Y-52788939D01*
X151379111Y-52768409D01*
X151300119Y-52631592D01*
X151188408Y-52519881D01*
X151051591Y-52440889D01*
X151031057Y-52435387D01*
X152046365Y-51420080D01*
X151933524Y-51333494D01*
X151933516Y-51333488D01*
X151706482Y-51202409D01*
X151706471Y-51202404D01*
X151464255Y-51102075D01*
X151211020Y-51034222D01*
X151211009Y-51034220D01*
X150951094Y-51000000D01*
X150688905Y-51000000D01*
X150428990Y-51034220D01*
X150428979Y-51034222D01*
X150175744Y-51102075D01*
X149933528Y-51202404D01*
X149933517Y-51202409D01*
X149706471Y-51333496D01*
X149593633Y-51420079D01*
X149593633Y-51420080D01*
X150608940Y-52435387D01*
X150588409Y-52440889D01*
X150451592Y-52519881D01*
X150339881Y-52631592D01*
X150260889Y-52768409D01*
X150255387Y-52788940D01*
X149240080Y-51773633D01*
X149240079Y-51773633D01*
X149153496Y-51886471D01*
X149022409Y-52113517D01*
X149022404Y-52113528D01*
X148922075Y-52355744D01*
X148854222Y-52608979D01*
X148854220Y-52608990D01*
X148820000Y-52868905D01*
X97000500Y-52868905D01*
X97000500Y-51004066D01*
X97000765Y-50995956D01*
X97004819Y-50934108D01*
X97017075Y-50747102D01*
X97019190Y-50731048D01*
X97067045Y-50490462D01*
X97071243Y-50474797D01*
X97094337Y-50406762D01*
X97150093Y-50242512D01*
X97156291Y-50227547D01*
X97264790Y-50007533D01*
X97272893Y-49993498D01*
X97409182Y-49789527D01*
X97419039Y-49776681D01*
X97580786Y-49592244D01*
X97592244Y-49580786D01*
X97776681Y-49419039D01*
X97789527Y-49409182D01*
X97993498Y-49272893D01*
X98007533Y-49264790D01*
X98227547Y-49156291D01*
X98242512Y-49150093D01*
X98406762Y-49094337D01*
X98474797Y-49071243D01*
X98490464Y-49067045D01*
X98731048Y-49019190D01*
X98747102Y-49017075D01*
X98995957Y-49000765D01*
X99004067Y-49000500D01*
X99065892Y-49000500D01*
X151434108Y-49000500D01*
X151495933Y-49000500D01*
X151504043Y-49000765D01*
G37*
%TD.AperFunction*%
%TD*%
M02*
