%TF.GenerationSoftware,KiCad,Pcbnew,9.0.0*%
%TF.CreationDate,2025-03-24T15:48:26-05:00*%
%TF.ProjectId,DIIN-proyecto,4449494e-2d70-4726-9f79-6563746f2e6b,rev?*%
%TF.SameCoordinates,Original*%
%TF.FileFunction,Soldermask,Bot*%
%TF.FilePolarity,Negative*%
%FSLAX46Y46*%
G04 Gerber Fmt 4.6, Leading zero omitted, Abs format (unit mm)*
G04 Created by KiCad (PCBNEW 9.0.0) date 2025-03-24 15:48:26*
%MOMM*%
%LPD*%
G01*
G04 APERTURE LIST*
G04 Aperture macros list*
%AMRoundRect*
0 Rectangle with rounded corners*
0 $1 Rounding radius*
0 $2 $3 $4 $5 $6 $7 $8 $9 X,Y pos of 4 corners*
0 Add a 4 corners polygon primitive as box body*
4,1,4,$2,$3,$4,$5,$6,$7,$8,$9,$2,$3,0*
0 Add four circle primitives for the rounded corners*
1,1,$1+$1,$2,$3*
1,1,$1+$1,$4,$5*
1,1,$1+$1,$6,$7*
1,1,$1+$1,$8,$9*
0 Add four rect primitives between the rounded corners*
20,1,$1+$1,$2,$3,$4,$5,0*
20,1,$1+$1,$4,$5,$6,$7,0*
20,1,$1+$1,$6,$7,$8,$9,0*
20,1,$1+$1,$8,$9,$2,$3,0*%
G04 Aperture macros list end*
%ADD10C,2.200000*%
%ADD11C,1.400000*%
%ADD12C,1.600000*%
%ADD13O,1.600000X1.600000*%
%ADD14R,1.905000X2.000000*%
%ADD15O,1.905000X2.000000*%
%ADD16RoundRect,0.250000X1.050000X-1.050000X1.050000X1.050000X-1.050000X1.050000X-1.050000X-1.050000X0*%
%ADD17C,2.600000*%
%ADD18C,3.000000*%
%ADD19R,2.000000X2.000000*%
%ADD20C,2.000000*%
%ADD21R,2.200000X2.200000*%
%ADD22O,2.200000X2.200000*%
%ADD23R,1.700000X1.700000*%
%ADD24O,1.700000X1.700000*%
%ADD25C,2.400000*%
%ADD26RoundRect,0.250000X1.050000X1.050000X-1.050000X1.050000X-1.050000X-1.050000X1.050000X-1.050000X0*%
%ADD27RoundRect,0.250000X0.550000X-0.550000X0.550000X0.550000X-0.550000X0.550000X-0.550000X-0.550000X0*%
G04 APERTURE END LIST*
D10*
%TO.C,U9*%
X196840000Y-74190000D03*
X196840000Y-76730000D03*
X199380000Y-74190000D03*
X199380000Y-76730000D03*
X201920000Y-74190000D03*
X201920000Y-76730000D03*
X204460000Y-74190000D03*
X204460000Y-76730000D03*
X207000000Y-74190000D03*
X207000000Y-76730000D03*
X209540000Y-74190000D03*
X209540000Y-76730000D03*
X212080000Y-74190000D03*
X212080000Y-76730000D03*
X214620000Y-74190000D03*
X214620000Y-76730000D03*
X217160000Y-74190000D03*
X217160000Y-76730000D03*
%TD*%
D11*
%TO.C,PS1*%
X45636650Y-101700000D03*
X68496650Y-99160000D03*
X68496650Y-83920000D03*
X45636650Y-83920000D03*
%TD*%
D12*
%TO.C,R4*%
X148420000Y-121500000D03*
D13*
X158580000Y-121500000D03*
%TD*%
D12*
%TO.C,R3*%
X148420000Y-117450000D03*
D13*
X158580000Y-117450000D03*
%TD*%
D14*
%TO.C,Q1*%
X150420000Y-129500000D03*
D15*
X152960000Y-129500000D03*
X155500000Y-129500000D03*
%TD*%
D16*
%TO.C,J15*%
X167500000Y-134000000D03*
D17*
X167500000Y-129000000D03*
%TD*%
D18*
%TO.C,U2*%
X41491650Y-115310000D03*
X41491650Y-121310000D03*
X75091650Y-109310000D03*
X75091650Y-127310000D03*
%TD*%
D16*
%TO.C,J10*%
X167481650Y-91840000D03*
D17*
X167481650Y-86840000D03*
X167481650Y-81840000D03*
X167481650Y-76840000D03*
%TD*%
D10*
%TO.C,U7*%
X70496650Y-67200000D03*
X70496650Y-64660000D03*
X70496650Y-69740000D03*
%TD*%
D12*
%TO.C,C2*%
X98496650Y-115160000D03*
X98496650Y-110160000D03*
%TD*%
%TO.C,C6*%
X154996650Y-106660000D03*
X154996650Y-101660000D03*
%TD*%
D19*
%TO.C,C7*%
X82378950Y-128660000D03*
D20*
X89878950Y-128660000D03*
%TD*%
D21*
%TO.C,D2*%
X109956650Y-113080000D03*
D22*
X109956650Y-123240000D03*
%TD*%
D21*
%TO.C,D5*%
X138456650Y-113000000D03*
D22*
X138456650Y-123160000D03*
%TD*%
D23*
%TO.C,J1*%
X168496650Y-44080000D03*
D24*
X171036650Y-44080000D03*
X168496650Y-46620000D03*
X171036650Y-46620000D03*
X168496650Y-49160000D03*
X171036650Y-49160000D03*
X168496650Y-51700000D03*
X171036650Y-51700000D03*
X168496650Y-54240000D03*
X171036650Y-54240000D03*
X168496650Y-56780000D03*
X171036650Y-56780000D03*
X168496650Y-59320000D03*
X171036650Y-59320000D03*
X168496650Y-61860000D03*
X171036650Y-61860000D03*
X168496650Y-64400000D03*
X171036650Y-64400000D03*
%TD*%
D18*
%TO.C,U8*%
X109276650Y-92635000D03*
X109276650Y-45685000D03*
X84766650Y-92635000D03*
X84766650Y-45685000D03*
D19*
X109696650Y-84675000D03*
D20*
X109696650Y-82135000D03*
X109696650Y-79595000D03*
X109696650Y-77055000D03*
X109696650Y-74515000D03*
X109696650Y-71975000D03*
X109696650Y-69435000D03*
X109696650Y-66895000D03*
X109696650Y-64355000D03*
X109696650Y-61815000D03*
X109696650Y-59275000D03*
X109696650Y-56735000D03*
X109696650Y-54195000D03*
X109696650Y-51655000D03*
X109696650Y-49115000D03*
X84296650Y-49115000D03*
X84296650Y-51655000D03*
X84296650Y-54195000D03*
X84296650Y-56735000D03*
X84296650Y-59275000D03*
X84296650Y-61815000D03*
X84296650Y-64355000D03*
X84296650Y-66895000D03*
X84296650Y-69435000D03*
X84296650Y-71975000D03*
X84296650Y-74515000D03*
X84296650Y-77055000D03*
X84296650Y-79595000D03*
X84296650Y-82135000D03*
X84296650Y-84675000D03*
%TD*%
D19*
%TO.C,C5*%
X145496650Y-107777700D03*
D20*
X145496650Y-100277700D03*
%TD*%
D21*
%TO.C,D4*%
X104956650Y-126080000D03*
D22*
X104956650Y-136240000D03*
%TD*%
D21*
%TO.C,D6*%
X138456650Y-126080000D03*
D22*
X138456650Y-136240000D03*
%TD*%
D12*
%TO.C,R2*%
X161386650Y-57085000D03*
D13*
X161386650Y-46925000D03*
%TD*%
D21*
%TO.C,D1*%
X109956650Y-126000000D03*
D22*
X109956650Y-136160000D03*
%TD*%
D19*
%TO.C,C1*%
X87996650Y-117777700D03*
D20*
X87996650Y-110277700D03*
%TD*%
D25*
%TO.C,U3*%
X55996650Y-63660000D03*
X55996650Y-66200000D03*
X55996650Y-68740000D03*
X48376650Y-63660000D03*
X48376650Y-66200000D03*
X48376650Y-68740000D03*
%TD*%
D26*
%TO.C,J2*%
X49496650Y-48660000D03*
D17*
X44496650Y-48660000D03*
%TD*%
D16*
%TO.C,J3*%
X167481650Y-120000000D03*
D17*
X167481650Y-115000000D03*
%TD*%
D12*
%TO.C,C8*%
X96496650Y-126160000D03*
X96496650Y-131160000D03*
%TD*%
%TO.C,C4*%
X89996650Y-103160000D03*
X89996650Y-98160000D03*
%TD*%
D21*
%TO.C,D8*%
X143456650Y-126080000D03*
D22*
X143456650Y-136240000D03*
%TD*%
D26*
%TO.C,J4*%
X66996650Y-48660000D03*
D17*
X61996650Y-48660000D03*
%TD*%
D27*
%TO.C,U5*%
X114716650Y-129660000D03*
D12*
X117256650Y-129660000D03*
X119796650Y-129660000D03*
X122336650Y-129660000D03*
X124876650Y-129660000D03*
X127416650Y-129660000D03*
X129956650Y-129660000D03*
X132496650Y-129660000D03*
X132496650Y-122040000D03*
X129956650Y-122040000D03*
X127416650Y-122040000D03*
X124876650Y-122040000D03*
X122336650Y-122040000D03*
X119796650Y-122040000D03*
X117256650Y-122040000D03*
X114716650Y-122040000D03*
%TD*%
D27*
%TO.C,U1*%
X106606650Y-107965000D03*
D12*
X109146650Y-107965000D03*
X111686650Y-107965000D03*
X114226650Y-107965000D03*
X116766650Y-107965000D03*
X119306650Y-107965000D03*
X121846650Y-107965000D03*
X124386650Y-107965000D03*
X124386650Y-100345000D03*
X121846650Y-100345000D03*
X119306650Y-100345000D03*
X116766650Y-100345000D03*
X114226650Y-100345000D03*
X111686650Y-100345000D03*
X109146650Y-100345000D03*
X106606650Y-100345000D03*
%TD*%
D19*
%TO.C,C3*%
X80496650Y-104277700D03*
D20*
X80496650Y-96777700D03*
%TD*%
D16*
%TO.C,J6*%
X167672500Y-106000000D03*
D17*
X167672500Y-101000000D03*
%TD*%
D18*
%TO.C,U6*%
X146276650Y-92635000D03*
X146276650Y-45685000D03*
X121766650Y-92635000D03*
X121766650Y-45685000D03*
D19*
X146696650Y-84675000D03*
D20*
X146696650Y-82135000D03*
X146696650Y-79595000D03*
X146696650Y-77055000D03*
X146696650Y-74515000D03*
X146696650Y-71975000D03*
X146696650Y-69435000D03*
X146696650Y-66895000D03*
X146696650Y-64355000D03*
X146696650Y-61815000D03*
X146696650Y-59275000D03*
X146696650Y-56735000D03*
X146696650Y-54195000D03*
X146696650Y-51655000D03*
X146696650Y-49115000D03*
X121296650Y-49115000D03*
X121296650Y-51655000D03*
X121296650Y-54195000D03*
X121296650Y-56735000D03*
X121296650Y-59275000D03*
X121296650Y-61815000D03*
X121296650Y-64355000D03*
X121296650Y-66895000D03*
X121296650Y-69435000D03*
X121296650Y-71975000D03*
X121296650Y-74515000D03*
X121296650Y-77055000D03*
X121296650Y-79595000D03*
X121296650Y-82135000D03*
X121296650Y-84675000D03*
%TD*%
D12*
%TO.C,R1*%
X157336650Y-57085000D03*
D13*
X157336650Y-46925000D03*
%TD*%
D21*
%TO.C,D7*%
X143456650Y-113080000D03*
D22*
X143456650Y-123240000D03*
%TD*%
D21*
%TO.C,D3*%
X104956650Y-113080000D03*
D22*
X104956650Y-123240000D03*
%TD*%
M02*
