%TF.GenerationSoftware,KiCad,Pcbnew,9.0.0*%
%TF.CreationDate,2025-03-24T16:00:58-05:00*%
%TF.ProjectId,DIIN-proyecto,4449494e-2d70-4726-9f79-6563746f2e6b,rev?*%
%TF.SameCoordinates,Original*%
%TF.FileFunction,Legend,Top*%
%TF.FilePolarity,Positive*%
%FSLAX46Y46*%
G04 Gerber Fmt 4.6, Leading zero omitted, Abs format (unit mm)*
G04 Created by KiCad (PCBNEW 9.0.0) date 2025-03-24 16:00:58*
%MOMM*%
%LPD*%
G01*
G04 APERTURE LIST*
%ADD10C,0.100000*%
%ADD11C,0.150000*%
%ADD12C,0.120000*%
G04 APERTURE END LIST*
D10*
X106827693Y-97920038D02*
X106732455Y-97872419D01*
X106732455Y-97872419D02*
X106589598Y-97872419D01*
X106589598Y-97872419D02*
X106446741Y-97920038D01*
X106446741Y-97920038D02*
X106351503Y-98015276D01*
X106351503Y-98015276D02*
X106303884Y-98110514D01*
X106303884Y-98110514D02*
X106256265Y-98300990D01*
X106256265Y-98300990D02*
X106256265Y-98443847D01*
X106256265Y-98443847D02*
X106303884Y-98634323D01*
X106303884Y-98634323D02*
X106351503Y-98729561D01*
X106351503Y-98729561D02*
X106446741Y-98824800D01*
X106446741Y-98824800D02*
X106589598Y-98872419D01*
X106589598Y-98872419D02*
X106684836Y-98872419D01*
X106684836Y-98872419D02*
X106827693Y-98824800D01*
X106827693Y-98824800D02*
X106875312Y-98777180D01*
X106875312Y-98777180D02*
X106875312Y-98443847D01*
X106875312Y-98443847D02*
X106684836Y-98443847D01*
X107303884Y-98872419D02*
X107303884Y-97872419D01*
X107303884Y-97872419D02*
X107875312Y-98872419D01*
X107875312Y-98872419D02*
X107875312Y-97872419D01*
X108351503Y-98872419D02*
X108351503Y-97872419D01*
X108351503Y-97872419D02*
X108589598Y-97872419D01*
X108589598Y-97872419D02*
X108732455Y-97920038D01*
X108732455Y-97920038D02*
X108827693Y-98015276D01*
X108827693Y-98015276D02*
X108875312Y-98110514D01*
X108875312Y-98110514D02*
X108922931Y-98300990D01*
X108922931Y-98300990D02*
X108922931Y-98443847D01*
X108922931Y-98443847D02*
X108875312Y-98634323D01*
X108875312Y-98634323D02*
X108827693Y-98729561D01*
X108827693Y-98729561D02*
X108732455Y-98824800D01*
X108732455Y-98824800D02*
X108589598Y-98872419D01*
X108589598Y-98872419D02*
X108351503Y-98872419D01*
X99803884Y-98491466D02*
X100565789Y-98491466D01*
X100184836Y-98872419D02*
X100184836Y-98110514D01*
X100946741Y-97872419D02*
X101565788Y-97872419D01*
X101565788Y-97872419D02*
X101232455Y-98253371D01*
X101232455Y-98253371D02*
X101375312Y-98253371D01*
X101375312Y-98253371D02*
X101470550Y-98300990D01*
X101470550Y-98300990D02*
X101518169Y-98348609D01*
X101518169Y-98348609D02*
X101565788Y-98443847D01*
X101565788Y-98443847D02*
X101565788Y-98681942D01*
X101565788Y-98681942D02*
X101518169Y-98777180D01*
X101518169Y-98777180D02*
X101470550Y-98824800D01*
X101470550Y-98824800D02*
X101375312Y-98872419D01*
X101375312Y-98872419D02*
X101089598Y-98872419D01*
X101089598Y-98872419D02*
X100994360Y-98824800D01*
X100994360Y-98824800D02*
X100946741Y-98777180D01*
X101994360Y-98777180D02*
X102041979Y-98824800D01*
X102041979Y-98824800D02*
X101994360Y-98872419D01*
X101994360Y-98872419D02*
X101946741Y-98824800D01*
X101946741Y-98824800D02*
X101994360Y-98777180D01*
X101994360Y-98777180D02*
X101994360Y-98872419D01*
X102375312Y-97872419D02*
X102994359Y-97872419D01*
X102994359Y-97872419D02*
X102661026Y-98253371D01*
X102661026Y-98253371D02*
X102803883Y-98253371D01*
X102803883Y-98253371D02*
X102899121Y-98300990D01*
X102899121Y-98300990D02*
X102946740Y-98348609D01*
X102946740Y-98348609D02*
X102994359Y-98443847D01*
X102994359Y-98443847D02*
X102994359Y-98681942D01*
X102994359Y-98681942D02*
X102946740Y-98777180D01*
X102946740Y-98777180D02*
X102899121Y-98824800D01*
X102899121Y-98824800D02*
X102803883Y-98872419D01*
X102803883Y-98872419D02*
X102518169Y-98872419D01*
X102518169Y-98872419D02*
X102422931Y-98824800D01*
X102422931Y-98824800D02*
X102375312Y-98777180D01*
X103280074Y-97872419D02*
X103613407Y-98872419D01*
X103613407Y-98872419D02*
X103946740Y-97872419D01*
X102696115Y-51627580D02*
X102696115Y-52627580D01*
X102696115Y-52627580D02*
X102362782Y-51913295D01*
X102362782Y-51913295D02*
X102029449Y-52627580D01*
X102029449Y-52627580D02*
X102029449Y-51627580D01*
X101219925Y-52151390D02*
X101077068Y-52103771D01*
X101077068Y-52103771D02*
X101029449Y-52056152D01*
X101029449Y-52056152D02*
X100981830Y-51960914D01*
X100981830Y-51960914D02*
X100981830Y-51818057D01*
X100981830Y-51818057D02*
X101029449Y-51722819D01*
X101029449Y-51722819D02*
X101077068Y-51675200D01*
X101077068Y-51675200D02*
X101172306Y-51627580D01*
X101172306Y-51627580D02*
X101553258Y-51627580D01*
X101553258Y-51627580D02*
X101553258Y-52627580D01*
X101553258Y-52627580D02*
X101219925Y-52627580D01*
X101219925Y-52627580D02*
X101124687Y-52579961D01*
X101124687Y-52579961D02*
X101077068Y-52532342D01*
X101077068Y-52532342D02*
X101029449Y-52437104D01*
X101029449Y-52437104D02*
X101029449Y-52341866D01*
X101029449Y-52341866D02*
X101077068Y-52246628D01*
X101077068Y-52246628D02*
X101124687Y-52199009D01*
X101124687Y-52199009D02*
X101219925Y-52151390D01*
X101219925Y-52151390D02*
X101553258Y-52151390D01*
X100553258Y-52008533D02*
X99791354Y-52008533D01*
X108116115Y-51627580D02*
X108116115Y-52627580D01*
X108116115Y-52627580D02*
X107782782Y-51913295D01*
X107782782Y-51913295D02*
X107449449Y-52627580D01*
X107449449Y-52627580D02*
X107449449Y-51627580D01*
X106639925Y-52151390D02*
X106497068Y-52103771D01*
X106497068Y-52103771D02*
X106449449Y-52056152D01*
X106449449Y-52056152D02*
X106401830Y-51960914D01*
X106401830Y-51960914D02*
X106401830Y-51818057D01*
X106401830Y-51818057D02*
X106449449Y-51722819D01*
X106449449Y-51722819D02*
X106497068Y-51675200D01*
X106497068Y-51675200D02*
X106592306Y-51627580D01*
X106592306Y-51627580D02*
X106973258Y-51627580D01*
X106973258Y-51627580D02*
X106973258Y-52627580D01*
X106973258Y-52627580D02*
X106639925Y-52627580D01*
X106639925Y-52627580D02*
X106544687Y-52579961D01*
X106544687Y-52579961D02*
X106497068Y-52532342D01*
X106497068Y-52532342D02*
X106449449Y-52437104D01*
X106449449Y-52437104D02*
X106449449Y-52341866D01*
X106449449Y-52341866D02*
X106497068Y-52246628D01*
X106497068Y-52246628D02*
X106544687Y-52199009D01*
X106544687Y-52199009D02*
X106639925Y-52151390D01*
X106639925Y-52151390D02*
X106973258Y-52151390D01*
X105973258Y-52008533D02*
X105211354Y-52008533D01*
X105592306Y-51627580D02*
X105592306Y-52389485D01*
D11*
X104293333Y-85324819D02*
X103960000Y-84848628D01*
X103721905Y-85324819D02*
X103721905Y-84324819D01*
X103721905Y-84324819D02*
X104102857Y-84324819D01*
X104102857Y-84324819D02*
X104198095Y-84372438D01*
X104198095Y-84372438D02*
X104245714Y-84420057D01*
X104245714Y-84420057D02*
X104293333Y-84515295D01*
X104293333Y-84515295D02*
X104293333Y-84658152D01*
X104293333Y-84658152D02*
X104245714Y-84753390D01*
X104245714Y-84753390D02*
X104198095Y-84801009D01*
X104198095Y-84801009D02*
X104102857Y-84848628D01*
X104102857Y-84848628D02*
X103721905Y-84848628D01*
X105150476Y-84658152D02*
X105150476Y-85324819D01*
X104912381Y-84277200D02*
X104674286Y-84991485D01*
X104674286Y-84991485D02*
X105293333Y-84991485D01*
X104293333Y-80324819D02*
X103960000Y-79848628D01*
X103721905Y-80324819D02*
X103721905Y-79324819D01*
X103721905Y-79324819D02*
X104102857Y-79324819D01*
X104102857Y-79324819D02*
X104198095Y-79372438D01*
X104198095Y-79372438D02*
X104245714Y-79420057D01*
X104245714Y-79420057D02*
X104293333Y-79515295D01*
X104293333Y-79515295D02*
X104293333Y-79658152D01*
X104293333Y-79658152D02*
X104245714Y-79753390D01*
X104245714Y-79753390D02*
X104198095Y-79801009D01*
X104198095Y-79801009D02*
X104102857Y-79848628D01*
X104102857Y-79848628D02*
X103721905Y-79848628D01*
X104626667Y-79324819D02*
X105245714Y-79324819D01*
X105245714Y-79324819D02*
X104912381Y-79705771D01*
X104912381Y-79705771D02*
X105055238Y-79705771D01*
X105055238Y-79705771D02*
X105150476Y-79753390D01*
X105150476Y-79753390D02*
X105198095Y-79801009D01*
X105198095Y-79801009D02*
X105245714Y-79896247D01*
X105245714Y-79896247D02*
X105245714Y-80134342D01*
X105245714Y-80134342D02*
X105198095Y-80229580D01*
X105198095Y-80229580D02*
X105150476Y-80277200D01*
X105150476Y-80277200D02*
X105055238Y-80324819D01*
X105055238Y-80324819D02*
X104769524Y-80324819D01*
X104769524Y-80324819D02*
X104674286Y-80277200D01*
X104674286Y-80277200D02*
X104626667Y-80229580D01*
X104364761Y-65952557D02*
X104269523Y-65904938D01*
X104269523Y-65904938D02*
X104174285Y-65809700D01*
X104174285Y-65809700D02*
X104031428Y-65666842D01*
X104031428Y-65666842D02*
X103936190Y-65619223D01*
X103936190Y-65619223D02*
X103840952Y-65619223D01*
X103888571Y-65857319D02*
X103793333Y-65809700D01*
X103793333Y-65809700D02*
X103698095Y-65714461D01*
X103698095Y-65714461D02*
X103650476Y-65523985D01*
X103650476Y-65523985D02*
X103650476Y-65190652D01*
X103650476Y-65190652D02*
X103698095Y-65000176D01*
X103698095Y-65000176D02*
X103793333Y-64904938D01*
X103793333Y-64904938D02*
X103888571Y-64857319D01*
X103888571Y-64857319D02*
X104079047Y-64857319D01*
X104079047Y-64857319D02*
X104174285Y-64904938D01*
X104174285Y-64904938D02*
X104269523Y-65000176D01*
X104269523Y-65000176D02*
X104317142Y-65190652D01*
X104317142Y-65190652D02*
X104317142Y-65523985D01*
X104317142Y-65523985D02*
X104269523Y-65714461D01*
X104269523Y-65714461D02*
X104174285Y-65809700D01*
X104174285Y-65809700D02*
X104079047Y-65857319D01*
X104079047Y-65857319D02*
X103888571Y-65857319D01*
X105269523Y-65857319D02*
X104698095Y-65857319D01*
X104983809Y-65857319D02*
X104983809Y-64857319D01*
X104983809Y-64857319D02*
X104888571Y-65000176D01*
X104888571Y-65000176D02*
X104793333Y-65095414D01*
X104793333Y-65095414D02*
X104698095Y-65143033D01*
X103650476Y-63274819D02*
X103650476Y-63989104D01*
X103650476Y-63989104D02*
X103602857Y-64131961D01*
X103602857Y-64131961D02*
X103507619Y-64227200D01*
X103507619Y-64227200D02*
X103364762Y-64274819D01*
X103364762Y-64274819D02*
X103269524Y-64274819D01*
X104650476Y-64274819D02*
X104079048Y-64274819D01*
X104364762Y-64274819D02*
X104364762Y-63274819D01*
X104364762Y-63274819D02*
X104269524Y-63417676D01*
X104269524Y-63417676D02*
X104174286Y-63512914D01*
X104174286Y-63512914D02*
X104079048Y-63560533D01*
X105555238Y-63274819D02*
X105079048Y-63274819D01*
X105079048Y-63274819D02*
X105031429Y-63751009D01*
X105031429Y-63751009D02*
X105079048Y-63703390D01*
X105079048Y-63703390D02*
X105174286Y-63655771D01*
X105174286Y-63655771D02*
X105412381Y-63655771D01*
X105412381Y-63655771D02*
X105507619Y-63703390D01*
X105507619Y-63703390D02*
X105555238Y-63751009D01*
X105555238Y-63751009D02*
X105602857Y-63846247D01*
X105602857Y-63846247D02*
X105602857Y-64084342D01*
X105602857Y-64084342D02*
X105555238Y-64179580D01*
X105555238Y-64179580D02*
X105507619Y-64227200D01*
X105507619Y-64227200D02*
X105412381Y-64274819D01*
X105412381Y-64274819D02*
X105174286Y-64274819D01*
X105174286Y-64274819D02*
X105079048Y-64227200D01*
X105079048Y-64227200D02*
X105031429Y-64179580D01*
X104126666Y-85807319D02*
X104126666Y-86521604D01*
X104126666Y-86521604D02*
X104079047Y-86664461D01*
X104079047Y-86664461D02*
X103983809Y-86759700D01*
X103983809Y-86759700D02*
X103840952Y-86807319D01*
X103840952Y-86807319D02*
X103745714Y-86807319D01*
X104507619Y-85807319D02*
X105174285Y-85807319D01*
X105174285Y-85807319D02*
X104745714Y-86807319D01*
D12*
%TO.C,R4*%
X108500000Y-82500000D02*
X107730000Y-82500000D01*
X107730000Y-83870000D02*
X107730000Y-81130000D01*
X107730000Y-81130000D02*
X101190000Y-81130000D01*
X101190000Y-83870000D02*
X107730000Y-83870000D01*
X101190000Y-81130000D02*
X101190000Y-83870000D01*
X100420000Y-82500000D02*
X101190000Y-82500000D01*
%TO.C,R3*%
X108500000Y-77500000D02*
X107730000Y-77500000D01*
X107730000Y-78870000D02*
X107730000Y-76130000D01*
X107730000Y-76130000D02*
X101190000Y-76130000D01*
X101190000Y-78870000D02*
X107730000Y-78870000D01*
X101190000Y-76130000D02*
X101190000Y-78870000D01*
X100420000Y-77500000D02*
X101190000Y-77500000D01*
%TO.C,Q1*%
X99340000Y-66402500D02*
X99340000Y-71043500D01*
X99340000Y-66402500D02*
X109580000Y-66402500D01*
X99340000Y-67912500D02*
X109580000Y-67912500D01*
X99340000Y-71043500D02*
X109580000Y-71043500D01*
X102610000Y-66402500D02*
X102610000Y-67912500D01*
X106311000Y-66402500D02*
X106311000Y-67912500D01*
X109580000Y-66402500D02*
X109580000Y-71043500D01*
%TO.C,J15*%
X109580000Y-62820000D02*
X109580000Y-52780000D01*
X109580000Y-62820000D02*
X99340000Y-62820000D01*
X109580000Y-59800000D02*
X99340000Y-59800000D01*
X109580000Y-54900000D02*
X99340000Y-54900000D01*
X109580000Y-53400000D02*
X99340000Y-53400000D01*
X109580000Y-52780000D02*
X107260000Y-52780000D01*
X106660000Y-52780000D02*
X99340000Y-52780000D01*
X103327000Y-56360000D02*
X103371000Y-56317000D01*
X103100000Y-56133000D02*
X103144000Y-56090000D01*
X100776000Y-58911000D02*
X100820000Y-58867000D01*
X100549000Y-58684000D02*
X100593000Y-58640000D01*
X99340000Y-62820000D02*
X99340000Y-52780000D01*
X108740000Y-56960000D02*
G75*
G02*
X108740206Y-58039321I-1780000J-540000D01*
G01*
X107500000Y-59280000D02*
G75*
G02*
X106420679Y-59280206I-540000J1780000D01*
G01*
X106420000Y-55720000D02*
G75*
G02*
X107499321Y-55719794I540000J-1780013D01*
G01*
X105180000Y-58040000D02*
G75*
G02*
X105179794Y-56960679I1780013J540000D01*
G01*
X103820000Y-57500000D02*
G75*
G02*
X100100000Y-57500000I-1860000J0D01*
G01*
X100100000Y-57500000D02*
G75*
G02*
X103820000Y-57500000I1860000J0D01*
G01*
X106960000Y-52780000D02*
X106520000Y-52170000D01*
X107400000Y-52170000D01*
X106960000Y-52780000D01*
G36*
X106960000Y-52780000D02*
G01*
X106520000Y-52170000D01*
X107400000Y-52170000D01*
X106960000Y-52780000D01*
G37*
%TO.C,J7*%
X99340000Y-87352500D02*
X99340000Y-97392500D01*
X99340000Y-87352500D02*
X109580000Y-87352500D01*
X99340000Y-90372500D02*
X109580000Y-90372500D01*
X99340000Y-95272500D02*
X109580000Y-95272500D01*
X99340000Y-96772500D02*
X109580000Y-96772500D01*
X99340000Y-97392500D02*
X101660000Y-97392500D01*
X102260000Y-97392500D02*
X109580000Y-97392500D01*
X105593000Y-93812500D02*
X105549000Y-93855500D01*
X105820000Y-94039500D02*
X105776000Y-94082500D01*
X108144000Y-91261500D02*
X108100000Y-91305500D01*
X108371000Y-91488500D02*
X108327000Y-91532500D01*
X109580000Y-87352500D02*
X109580000Y-97392500D01*
X100180000Y-93212500D02*
G75*
G02*
X100179794Y-92133179I1780000J540000D01*
G01*
X101420000Y-90892500D02*
G75*
G02*
X102499321Y-90892294I540000J-1780000D01*
G01*
X102500000Y-94452500D02*
G75*
G02*
X101420679Y-94452706I-540000J1780013D01*
G01*
X103740000Y-92132500D02*
G75*
G02*
X103740206Y-93211821I-1780013J-540000D01*
G01*
X108820000Y-92672500D02*
G75*
G02*
X105100000Y-92672500I-1860000J0D01*
G01*
X105100000Y-92672500D02*
G75*
G02*
X108820000Y-92672500I1860000J0D01*
G01*
X102400000Y-98002500D02*
X101520000Y-98002500D01*
X101960000Y-97392500D01*
X102400000Y-98002500D01*
G36*
X102400000Y-98002500D02*
G01*
X101520000Y-98002500D01*
X101960000Y-97392500D01*
X102400000Y-98002500D01*
G37*
%TD*%
M02*
