%TF.GenerationSoftware,KiCad,Pcbnew,9.0.0*%
%TF.CreationDate,2025-03-24T16:00:58-05:00*%
%TF.ProjectId,DIIN-proyecto,4449494e-2d70-4726-9f79-6563746f2e6b,rev?*%
%TF.SameCoordinates,Original*%
%TF.FileFunction,Copper,L1,Top*%
%TF.FilePolarity,Positive*%
%FSLAX46Y46*%
G04 Gerber Fmt 4.6, Leading zero omitted, Abs format (unit mm)*
G04 Created by KiCad (PCBNEW 9.0.0) date 2025-03-24 16:00:58*
%MOMM*%
%LPD*%
G01*
G04 APERTURE LIST*
G04 Aperture macros list*
%AMRoundRect*
0 Rectangle with rounded corners*
0 $1 Rounding radius*
0 $2 $3 $4 $5 $6 $7 $8 $9 X,Y pos of 4 corners*
0 Add a 4 corners polygon primitive as box body*
4,1,4,$2,$3,$4,$5,$6,$7,$8,$9,$2,$3,0*
0 Add four circle primitives for the rounded corners*
1,1,$1+$1,$2,$3*
1,1,$1+$1,$4,$5*
1,1,$1+$1,$6,$7*
1,1,$1+$1,$8,$9*
0 Add four rect primitives between the rounded corners*
20,1,$1+$1,$2,$3,$4,$5,0*
20,1,$1+$1,$4,$5,$6,$7,0*
20,1,$1+$1,$6,$7,$8,$9,0*
20,1,$1+$1,$8,$9,$2,$3,0*%
G04 Aperture macros list end*
%TA.AperFunction,ComponentPad*%
%ADD10C,1.600000*%
%TD*%
%TA.AperFunction,ComponentPad*%
%ADD11O,1.600000X1.600000*%
%TD*%
%TA.AperFunction,ComponentPad*%
%ADD12R,1.905000X2.000000*%
%TD*%
%TA.AperFunction,ComponentPad*%
%ADD13O,1.905000X2.000000*%
%TD*%
%TA.AperFunction,ComponentPad*%
%ADD14RoundRect,0.250000X1.050000X1.050000X-1.050000X1.050000X-1.050000X-1.050000X1.050000X-1.050000X0*%
%TD*%
%TA.AperFunction,ComponentPad*%
%ADD15C,2.600000*%
%TD*%
%TA.AperFunction,ComponentPad*%
%ADD16RoundRect,0.250000X-1.050000X-1.050000X1.050000X-1.050000X1.050000X1.050000X-1.050000X1.050000X0*%
%TD*%
%TA.AperFunction,Conductor*%
%ADD17C,0.200000*%
%TD*%
G04 APERTURE END LIST*
D10*
%TO.P,R4,1*%
%TO.N,MBE*%
X109540000Y-82500000D03*
D11*
%TO.P,R4,2*%
%TO.N,GND*%
X99380000Y-82500000D03*
%TD*%
D10*
%TO.P,R3,1*%
%TO.N,MBE*%
X109540000Y-77500000D03*
D11*
%TO.P,R3,2*%
%TO.N,Net-(Q1-G)*%
X99380000Y-77500000D03*
%TD*%
D12*
%TO.P,Q1,1,G*%
%TO.N,Net-(Q1-G)*%
X101920000Y-69672500D03*
D13*
%TO.P,Q1,2,D*%
%TO.N,MB-*%
X104460000Y-69672500D03*
%TO.P,Q1,3,S*%
%TO.N,GND*%
X107000000Y-69672500D03*
%TD*%
D14*
%TO.P,J15,1,Pin_1*%
%TO.N,+3.3V*%
X106960000Y-57500000D03*
D15*
%TO.P,J15,2,Pin_2*%
%TO.N,MB-*%
X101960000Y-57500000D03*
%TD*%
D16*
%TO.P,J7,1,Pin_1*%
%TO.N,+3.3V*%
X101960000Y-92672500D03*
D15*
%TO.P,J7,2,Pin_2*%
%TO.N,GND*%
X106960000Y-92672500D03*
%TD*%
D17*
%TO.N,+3.3V*%
X98000000Y-88712500D02*
X101960000Y-92672500D01*
X100000000Y-55000000D02*
X98000000Y-57000000D01*
X106000000Y-55000000D02*
X100000000Y-55000000D01*
X106960000Y-55960000D02*
X106000000Y-55000000D01*
X98000000Y-57000000D02*
X98000000Y-88712500D01*
X106960000Y-57500000D02*
X106960000Y-55960000D01*
%TO.N,MBE*%
X109540000Y-77500000D02*
X109540000Y-82500000D01*
%TO.N,Net-(Q1-G)*%
X100665800Y-75112500D02*
X99380000Y-76398300D01*
X100665800Y-69672500D02*
X100665800Y-75112500D01*
X101920000Y-69672500D02*
X100665800Y-69672500D01*
X99380000Y-77500000D02*
X99380000Y-76398300D01*
%TO.N,MB-*%
X103205800Y-58745800D02*
X103205800Y-69672500D01*
X101960000Y-57500000D02*
X103205800Y-58745800D01*
X104460000Y-69672500D02*
X103205800Y-69672500D01*
%TD*%
%TA.AperFunction,Conductor*%
%TO.N,GND*%
G36*
X109504043Y-51500765D02*
G01*
X109752895Y-51517075D01*
X109768953Y-51519190D01*
X109976105Y-51560395D01*
X110009535Y-51567045D01*
X110025202Y-51571243D01*
X110194947Y-51628863D01*
X110257481Y-51650091D01*
X110272458Y-51656294D01*
X110481799Y-51759529D01*
X110492460Y-51764787D01*
X110506508Y-51772897D01*
X110710464Y-51909177D01*
X110723328Y-51919048D01*
X110907749Y-52080781D01*
X110919218Y-52092250D01*
X111080951Y-52276671D01*
X111090825Y-52289539D01*
X111227102Y-52493492D01*
X111235212Y-52507539D01*
X111343702Y-52727534D01*
X111349909Y-52742520D01*
X111428756Y-52974797D01*
X111432954Y-52990464D01*
X111480807Y-53231035D01*
X111482925Y-53247116D01*
X111499235Y-53495956D01*
X111499500Y-53504066D01*
X111499500Y-96995933D01*
X111499235Y-97004043D01*
X111482925Y-97252883D01*
X111480807Y-97268964D01*
X111432954Y-97509535D01*
X111428756Y-97525202D01*
X111349909Y-97757479D01*
X111343702Y-97772465D01*
X111235212Y-97992460D01*
X111227102Y-98006507D01*
X111090825Y-98210460D01*
X111080951Y-98223328D01*
X110919218Y-98407749D01*
X110907749Y-98419218D01*
X110723328Y-98580951D01*
X110710460Y-98590825D01*
X110506507Y-98727102D01*
X110492460Y-98735212D01*
X110272465Y-98843702D01*
X110257479Y-98849909D01*
X110025202Y-98928756D01*
X110009535Y-98932954D01*
X109768964Y-98980807D01*
X109752883Y-98982925D01*
X109504043Y-98999235D01*
X109495933Y-98999500D01*
X99504067Y-98999500D01*
X99495957Y-98999235D01*
X99247116Y-98982925D01*
X99231035Y-98980807D01*
X98990464Y-98932954D01*
X98974797Y-98928756D01*
X98742520Y-98849909D01*
X98727534Y-98843702D01*
X98507539Y-98735212D01*
X98493492Y-98727102D01*
X98289539Y-98590825D01*
X98276671Y-98580951D01*
X98092250Y-98419218D01*
X98080781Y-98407749D01*
X97919048Y-98223328D01*
X97909174Y-98210460D01*
X97772897Y-98006507D01*
X97764787Y-97992460D01*
X97658855Y-97777652D01*
X97656294Y-97772458D01*
X97650090Y-97757479D01*
X97571243Y-97525202D01*
X97567045Y-97509535D01*
X97559186Y-97470026D01*
X97519190Y-97268953D01*
X97517075Y-97252895D01*
X97500765Y-97004043D01*
X97500500Y-96995933D01*
X97500500Y-89361597D01*
X97520185Y-89294558D01*
X97572989Y-89248803D01*
X97642147Y-89238859D01*
X97705703Y-89267884D01*
X97712181Y-89273916D01*
X100123181Y-91684916D01*
X100156666Y-91746239D01*
X100159500Y-91772597D01*
X100159500Y-93772501D01*
X100159501Y-93772518D01*
X100170000Y-93875296D01*
X100170001Y-93875299D01*
X100218885Y-94022819D01*
X100225186Y-94041834D01*
X100317288Y-94191156D01*
X100441344Y-94315212D01*
X100590666Y-94407314D01*
X100757203Y-94462499D01*
X100859991Y-94473000D01*
X103060008Y-94472999D01*
X103162797Y-94462499D01*
X103329334Y-94407314D01*
X103478656Y-94315212D01*
X103602712Y-94191156D01*
X103694814Y-94041834D01*
X103749999Y-93875297D01*
X103760500Y-93772509D01*
X103760499Y-92554514D01*
X105160000Y-92554514D01*
X105160000Y-92790485D01*
X105190799Y-93024414D01*
X105251870Y-93252337D01*
X105342160Y-93470319D01*
X105342165Y-93470328D01*
X105460144Y-93674671D01*
X105460145Y-93674672D01*
X105522721Y-93756223D01*
X106358958Y-92919987D01*
X106383978Y-92980390D01*
X106455112Y-93086851D01*
X106545649Y-93177388D01*
X106652110Y-93248522D01*
X106712511Y-93273541D01*
X105876275Y-94109777D01*
X105957827Y-94172354D01*
X105957828Y-94172355D01*
X106162171Y-94290334D01*
X106162180Y-94290339D01*
X106380163Y-94380629D01*
X106380161Y-94380629D01*
X106608085Y-94441700D01*
X106842014Y-94472499D01*
X106842029Y-94472500D01*
X107077971Y-94472500D01*
X107077985Y-94472499D01*
X107311914Y-94441700D01*
X107539837Y-94380629D01*
X107757819Y-94290339D01*
X107757828Y-94290334D01*
X107962181Y-94172350D01*
X108043723Y-94109779D01*
X108043723Y-94109776D01*
X107207487Y-93273541D01*
X107267890Y-93248522D01*
X107374351Y-93177388D01*
X107464888Y-93086851D01*
X107536022Y-92980390D01*
X107561041Y-92919987D01*
X108397276Y-93756223D01*
X108397279Y-93756223D01*
X108459850Y-93674681D01*
X108577834Y-93470328D01*
X108577839Y-93470319D01*
X108668129Y-93252337D01*
X108729200Y-93024414D01*
X108759999Y-92790485D01*
X108760000Y-92790471D01*
X108760000Y-92554528D01*
X108759999Y-92554514D01*
X108729200Y-92320585D01*
X108668129Y-92092662D01*
X108577839Y-91874680D01*
X108577834Y-91874671D01*
X108459855Y-91670328D01*
X108459854Y-91670327D01*
X108397277Y-91588775D01*
X107561041Y-92425011D01*
X107536022Y-92364610D01*
X107464888Y-92258149D01*
X107374351Y-92167612D01*
X107267890Y-92096478D01*
X107207488Y-92071458D01*
X108043723Y-91235221D01*
X107962172Y-91172645D01*
X107962171Y-91172644D01*
X107757828Y-91054665D01*
X107757819Y-91054660D01*
X107539836Y-90964370D01*
X107539838Y-90964370D01*
X107311914Y-90903299D01*
X107077985Y-90872500D01*
X106842014Y-90872500D01*
X106608085Y-90903299D01*
X106380162Y-90964370D01*
X106162180Y-91054660D01*
X106162171Y-91054665D01*
X105957828Y-91172644D01*
X105957818Y-91172650D01*
X105876275Y-91235220D01*
X105876275Y-91235221D01*
X106712512Y-92071458D01*
X106652110Y-92096478D01*
X106545649Y-92167612D01*
X106455112Y-92258149D01*
X106383978Y-92364610D01*
X106358958Y-92425012D01*
X105522721Y-91588775D01*
X105522720Y-91588775D01*
X105460150Y-91670318D01*
X105460144Y-91670328D01*
X105342165Y-91874671D01*
X105342160Y-91874680D01*
X105251870Y-92092662D01*
X105190799Y-92320585D01*
X105160000Y-92554514D01*
X103760499Y-92554514D01*
X103760499Y-91572492D01*
X103749999Y-91469703D01*
X103694814Y-91303166D01*
X103602712Y-91153844D01*
X103478656Y-91029788D01*
X103329334Y-90937686D01*
X103162797Y-90882501D01*
X103162795Y-90882500D01*
X103060016Y-90872000D01*
X103060009Y-90872000D01*
X101060098Y-90872000D01*
X100993059Y-90852315D01*
X100972417Y-90835681D01*
X98636819Y-88500083D01*
X98603334Y-88438760D01*
X98600500Y-88412402D01*
X98600500Y-83764199D01*
X98620185Y-83697160D01*
X98672989Y-83651405D01*
X98742147Y-83641461D01*
X98780795Y-83653714D01*
X98880968Y-83704755D01*
X99075578Y-83767988D01*
X99130000Y-83776607D01*
X99130000Y-82815686D01*
X99134394Y-82820080D01*
X99225606Y-82872741D01*
X99327339Y-82900000D01*
X99432661Y-82900000D01*
X99534394Y-82872741D01*
X99625606Y-82820080D01*
X99630000Y-82815686D01*
X99630000Y-83776606D01*
X99684421Y-83767988D01*
X99879031Y-83704754D01*
X100061349Y-83611859D01*
X100226894Y-83491582D01*
X100226895Y-83491582D01*
X100371582Y-83346895D01*
X100371582Y-83346894D01*
X100491859Y-83181349D01*
X100584755Y-82999029D01*
X100647990Y-82804413D01*
X100656609Y-82750000D01*
X99695686Y-82750000D01*
X99700080Y-82745606D01*
X99752741Y-82654394D01*
X99780000Y-82552661D01*
X99780000Y-82447339D01*
X99752741Y-82345606D01*
X99700080Y-82254394D01*
X99695686Y-82250000D01*
X100656609Y-82250000D01*
X100647990Y-82195586D01*
X100584755Y-82000970D01*
X100491859Y-81818650D01*
X100371582Y-81653105D01*
X100371582Y-81653104D01*
X100226895Y-81508417D01*
X100061349Y-81388140D01*
X99879029Y-81295244D01*
X99684413Y-81232009D01*
X99630000Y-81223390D01*
X99630000Y-82184314D01*
X99625606Y-82179920D01*
X99534394Y-82127259D01*
X99432661Y-82100000D01*
X99327339Y-82100000D01*
X99225606Y-82127259D01*
X99134394Y-82179920D01*
X99130000Y-82184314D01*
X99130000Y-81223390D01*
X99075586Y-81232009D01*
X98880967Y-81295245D01*
X98780794Y-81346285D01*
X98712125Y-81359181D01*
X98647384Y-81332904D01*
X98607128Y-81275797D01*
X98600500Y-81235800D01*
X98600500Y-78764759D01*
X98620185Y-78697720D01*
X98672989Y-78651965D01*
X98742147Y-78642021D01*
X98780795Y-78654275D01*
X98880771Y-78705216D01*
X98880776Y-78705217D01*
X98880781Y-78705220D01*
X99016658Y-78749369D01*
X99075465Y-78768477D01*
X99176557Y-78784488D01*
X99277648Y-78800500D01*
X99277649Y-78800500D01*
X99482351Y-78800500D01*
X99482352Y-78800500D01*
X99684534Y-78768477D01*
X99879219Y-78705220D01*
X100061610Y-78612287D01*
X100154590Y-78544732D01*
X100227213Y-78491971D01*
X100227215Y-78491968D01*
X100227219Y-78491966D01*
X100371966Y-78347219D01*
X100371968Y-78347215D01*
X100371971Y-78347213D01*
X100424732Y-78274590D01*
X100492287Y-78181610D01*
X100585220Y-77999219D01*
X100648477Y-77804534D01*
X100680500Y-77602352D01*
X100680500Y-77397648D01*
X108239500Y-77397648D01*
X108239500Y-77602351D01*
X108271522Y-77804534D01*
X108334781Y-77999223D01*
X108427715Y-78181613D01*
X108548028Y-78347213D01*
X108548034Y-78347219D01*
X108692781Y-78491966D01*
X108858390Y-78612287D01*
X108871793Y-78619116D01*
X108922589Y-78667088D01*
X108939500Y-78729601D01*
X108939500Y-81270397D01*
X108919815Y-81337436D01*
X108871800Y-81380879D01*
X108858389Y-81387712D01*
X108692786Y-81508028D01*
X108548028Y-81652786D01*
X108427715Y-81818386D01*
X108334781Y-82000776D01*
X108271522Y-82195465D01*
X108239500Y-82397648D01*
X108239500Y-82602351D01*
X108271522Y-82804534D01*
X108334781Y-82999223D01*
X108427715Y-83181613D01*
X108548028Y-83347213D01*
X108692786Y-83491971D01*
X108847749Y-83604556D01*
X108858390Y-83612287D01*
X108974607Y-83671503D01*
X109040776Y-83705218D01*
X109040778Y-83705218D01*
X109040781Y-83705220D01*
X109145137Y-83739127D01*
X109235465Y-83768477D01*
X109336557Y-83784488D01*
X109437648Y-83800500D01*
X109437649Y-83800500D01*
X109642351Y-83800500D01*
X109642352Y-83800500D01*
X109844534Y-83768477D01*
X110039219Y-83705220D01*
X110221610Y-83612287D01*
X110314590Y-83544732D01*
X110387213Y-83491971D01*
X110387215Y-83491968D01*
X110387219Y-83491966D01*
X110531966Y-83347219D01*
X110531968Y-83347215D01*
X110531971Y-83347213D01*
X110584732Y-83274590D01*
X110652287Y-83181610D01*
X110745220Y-82999219D01*
X110808477Y-82804534D01*
X110840500Y-82602352D01*
X110840500Y-82397648D01*
X110832257Y-82345606D01*
X110808477Y-82195465D01*
X110745218Y-82000776D01*
X110652419Y-81818650D01*
X110652287Y-81818390D01*
X110644556Y-81807749D01*
X110531971Y-81652786D01*
X110387213Y-81508028D01*
X110221610Y-81387712D01*
X110208200Y-81380879D01*
X110157406Y-81332903D01*
X110140500Y-81270397D01*
X110140500Y-78729601D01*
X110160185Y-78662562D01*
X110208206Y-78619116D01*
X110221610Y-78612287D01*
X110387219Y-78491966D01*
X110531966Y-78347219D01*
X110531968Y-78347215D01*
X110531971Y-78347213D01*
X110584732Y-78274590D01*
X110652287Y-78181610D01*
X110745220Y-77999219D01*
X110808477Y-77804534D01*
X110840500Y-77602352D01*
X110840500Y-77397648D01*
X110808477Y-77195466D01*
X110745220Y-77000781D01*
X110745218Y-77000778D01*
X110745218Y-77000776D01*
X110711503Y-76934607D01*
X110652287Y-76818390D01*
X110644556Y-76807749D01*
X110531971Y-76652786D01*
X110387213Y-76508028D01*
X110221613Y-76387715D01*
X110221612Y-76387714D01*
X110221610Y-76387713D01*
X110164653Y-76358691D01*
X110039223Y-76294781D01*
X109844534Y-76231522D01*
X109669995Y-76203878D01*
X109642352Y-76199500D01*
X109437648Y-76199500D01*
X109413329Y-76203351D01*
X109235465Y-76231522D01*
X109040776Y-76294781D01*
X108858386Y-76387715D01*
X108692786Y-76508028D01*
X108548028Y-76652786D01*
X108427715Y-76818386D01*
X108334781Y-77000776D01*
X108271522Y-77195465D01*
X108239500Y-77397648D01*
X100680500Y-77397648D01*
X100648477Y-77195466D01*
X100585220Y-77000781D01*
X100585218Y-77000778D01*
X100585218Y-77000776D01*
X100551503Y-76934607D01*
X100492287Y-76818390D01*
X100484556Y-76807749D01*
X100371971Y-76652786D01*
X100261040Y-76541855D01*
X100227555Y-76480532D01*
X100232539Y-76410840D01*
X100261037Y-76366496D01*
X101146320Y-75481216D01*
X101225377Y-75344285D01*
X101266301Y-75191557D01*
X101266301Y-75033442D01*
X101266301Y-75025847D01*
X101266300Y-75025829D01*
X101266300Y-71296999D01*
X101285985Y-71229960D01*
X101338789Y-71184205D01*
X101390300Y-71172999D01*
X102920371Y-71172999D01*
X102920372Y-71172999D01*
X102979983Y-71166591D01*
X103114831Y-71116296D01*
X103230046Y-71030046D01*
X103316296Y-70914831D01*
X103326690Y-70886960D01*
X103368560Y-70831027D01*
X103434023Y-70806608D01*
X103502297Y-70821458D01*
X103515746Y-70829965D01*
X103698462Y-70962717D01*
X103830599Y-71030044D01*
X103902244Y-71066549D01*
X104119751Y-71137221D01*
X104119752Y-71137221D01*
X104119755Y-71137222D01*
X104345646Y-71173000D01*
X104345647Y-71173000D01*
X104574353Y-71173000D01*
X104574354Y-71173000D01*
X104800245Y-71137222D01*
X104800248Y-71137221D01*
X104800249Y-71137221D01*
X105017755Y-71066549D01*
X105017755Y-71066548D01*
X105017758Y-71066548D01*
X105221538Y-70962717D01*
X105406566Y-70828286D01*
X105568286Y-70666566D01*
X105629992Y-70581634D01*
X105685319Y-70538970D01*
X105754932Y-70532991D01*
X105816727Y-70565596D01*
X105830626Y-70581635D01*
X105892097Y-70666241D01*
X105892097Y-70666242D01*
X106053757Y-70827902D01*
X106238723Y-70962288D01*
X106442429Y-71066082D01*
X106659871Y-71136734D01*
X106750000Y-71151009D01*
X106750000Y-70163247D01*
X106787708Y-70185018D01*
X106927591Y-70222500D01*
X107072409Y-70222500D01*
X107212292Y-70185018D01*
X107250000Y-70163247D01*
X107250000Y-71151008D01*
X107340128Y-71136734D01*
X107557570Y-71066082D01*
X107761276Y-70962288D01*
X107946242Y-70827902D01*
X108107902Y-70666242D01*
X108242288Y-70481276D01*
X108346082Y-70277570D01*
X108416734Y-70060128D01*
X108438532Y-69922500D01*
X107490748Y-69922500D01*
X107512518Y-69884792D01*
X107550000Y-69744909D01*
X107550000Y-69600091D01*
X107512518Y-69460208D01*
X107490748Y-69422500D01*
X108438532Y-69422500D01*
X108416734Y-69284871D01*
X108346082Y-69067429D01*
X108242288Y-68863723D01*
X108107902Y-68678757D01*
X107946242Y-68517097D01*
X107761276Y-68382711D01*
X107557568Y-68278917D01*
X107340124Y-68208265D01*
X107250000Y-68193990D01*
X107250000Y-69181752D01*
X107212292Y-69159982D01*
X107072409Y-69122500D01*
X106927591Y-69122500D01*
X106787708Y-69159982D01*
X106750000Y-69181752D01*
X106750000Y-68193990D01*
X106749999Y-68193990D01*
X106659875Y-68208265D01*
X106442431Y-68278917D01*
X106238723Y-68382711D01*
X106053757Y-68517097D01*
X105892097Y-68678757D01*
X105830627Y-68763364D01*
X105775297Y-68806029D01*
X105705684Y-68812008D01*
X105643889Y-68779402D01*
X105629991Y-68763364D01*
X105568286Y-68678434D01*
X105406566Y-68516714D01*
X105221538Y-68382283D01*
X105017755Y-68278450D01*
X104800248Y-68207778D01*
X104614812Y-68178408D01*
X104574354Y-68172000D01*
X104345646Y-68172000D01*
X104305188Y-68178408D01*
X104119753Y-68207778D01*
X104119750Y-68207778D01*
X103968618Y-68256884D01*
X103898776Y-68258879D01*
X103838944Y-68222798D01*
X103808116Y-68160097D01*
X103806300Y-68138953D01*
X103806300Y-58666746D01*
X103806300Y-58666743D01*
X103788419Y-58600008D01*
X103765377Y-58514015D01*
X103736439Y-58463895D01*
X103686320Y-58377084D01*
X103638329Y-58329093D01*
X103632508Y-58321030D01*
X103624046Y-58297088D01*
X103611879Y-58274805D01*
X103612601Y-58264703D01*
X103609226Y-58255153D01*
X103615051Y-58230438D01*
X103616863Y-58205113D01*
X103618449Y-58201081D01*
X103668606Y-58079993D01*
X103729693Y-57852014D01*
X103760500Y-57618011D01*
X103760500Y-57381989D01*
X103729693Y-57147986D01*
X103668606Y-56920007D01*
X103578284Y-56701951D01*
X103578282Y-56701948D01*
X103578280Y-56701943D01*
X103536118Y-56628918D01*
X103460273Y-56497550D01*
X103316592Y-56310301D01*
X103316587Y-56310295D01*
X103149704Y-56143412D01*
X103149697Y-56143406D01*
X102962454Y-55999730D01*
X102962453Y-55999729D01*
X102962450Y-55999727D01*
X102880957Y-55952677D01*
X102758056Y-55881719D01*
X102758045Y-55881714D01*
X102655071Y-55839061D01*
X102600668Y-55795220D01*
X102578603Y-55728926D01*
X102595882Y-55661227D01*
X102647019Y-55613616D01*
X102702524Y-55600500D01*
X105420426Y-55600500D01*
X105487465Y-55620185D01*
X105533220Y-55672989D01*
X105543164Y-55742147D01*
X105514139Y-55805703D01*
X105485522Y-55830039D01*
X105441344Y-55857287D01*
X105317289Y-55981342D01*
X105225187Y-56130663D01*
X105225185Y-56130668D01*
X105220962Y-56143412D01*
X105170001Y-56297203D01*
X105170001Y-56297204D01*
X105170000Y-56297204D01*
X105159500Y-56399983D01*
X105159500Y-58600001D01*
X105159501Y-58600007D01*
X105170000Y-58702796D01*
X105170001Y-58702799D01*
X105220962Y-58856587D01*
X105225186Y-58869334D01*
X105317288Y-59018656D01*
X105441344Y-59142712D01*
X105590666Y-59234814D01*
X105757203Y-59289999D01*
X105859991Y-59300500D01*
X108060008Y-59300499D01*
X108162797Y-59289999D01*
X108329334Y-59234814D01*
X108478656Y-59142712D01*
X108602712Y-59018656D01*
X108694814Y-58869334D01*
X108749999Y-58702797D01*
X108760500Y-58600009D01*
X108760499Y-56399992D01*
X108749999Y-56297203D01*
X108694814Y-56130666D01*
X108602712Y-55981344D01*
X108478656Y-55857288D01*
X108329334Y-55765186D01*
X108162797Y-55710001D01*
X108162795Y-55710000D01*
X108060016Y-55699500D01*
X108060009Y-55699500D01*
X107574589Y-55699500D01*
X107507550Y-55679815D01*
X107480776Y-55656587D01*
X107473083Y-55647687D01*
X107440520Y-55591284D01*
X107328716Y-55479480D01*
X107328713Y-55479478D01*
X106487590Y-54638355D01*
X106487588Y-54638352D01*
X106368717Y-54519481D01*
X106368716Y-54519480D01*
X106281904Y-54469360D01*
X106281904Y-54469359D01*
X106281900Y-54469358D01*
X106231785Y-54440423D01*
X106079057Y-54399499D01*
X105920943Y-54399499D01*
X105913347Y-54399499D01*
X105913331Y-54399500D01*
X100079057Y-54399500D01*
X99920943Y-54399500D01*
X99768215Y-54440423D01*
X99768214Y-54440423D01*
X99768212Y-54440424D01*
X99768209Y-54440425D01*
X99718096Y-54469359D01*
X99718095Y-54469360D01*
X99674689Y-54494420D01*
X99631285Y-54519479D01*
X99631282Y-54519481D01*
X97712181Y-56438583D01*
X97650858Y-56472068D01*
X97581166Y-56467084D01*
X97525233Y-56425212D01*
X97500816Y-56359748D01*
X97500500Y-56350902D01*
X97500500Y-53504066D01*
X97500765Y-53495956D01*
X97504819Y-53434108D01*
X97517075Y-53247102D01*
X97519190Y-53231048D01*
X97567045Y-52990462D01*
X97571243Y-52974797D01*
X97594337Y-52906762D01*
X97650093Y-52742512D01*
X97656291Y-52727547D01*
X97764790Y-52507533D01*
X97772893Y-52493498D01*
X97909182Y-52289527D01*
X97919039Y-52276681D01*
X98080786Y-52092244D01*
X98092244Y-52080786D01*
X98276681Y-51919039D01*
X98289527Y-51909182D01*
X98493498Y-51772893D01*
X98507533Y-51764790D01*
X98727547Y-51656291D01*
X98742512Y-51650093D01*
X98906762Y-51594337D01*
X98974797Y-51571243D01*
X98990464Y-51567045D01*
X99231048Y-51519190D01*
X99247102Y-51517075D01*
X99495957Y-51500765D01*
X99504067Y-51500500D01*
X99565892Y-51500500D01*
X109434108Y-51500500D01*
X109495933Y-51500500D01*
X109504043Y-51500765D01*
G37*
%TD.AperFunction*%
%TD*%
M02*
