%TF.GenerationSoftware,KiCad,Pcbnew,9.0.0*%
%TF.CreationDate,2025-03-24T12:51:38-05:00*%
%TF.ProjectId,DIIN-proyecto,4449494e-2d70-4726-9f79-6563746f2e6b,rev?*%
%TF.SameCoordinates,Original*%
%TF.FileFunction,Legend,Top*%
%TF.FilePolarity,Positive*%
%FSLAX46Y46*%
G04 Gerber Fmt 4.6, Leading zero omitted, Abs format (unit mm)*
G04 Created by KiCad (PCBNEW 9.0.0) date 2025-03-24 12:51:38*
%MOMM*%
%LPD*%
G01*
G04 APERTURE LIST*
%ADD10C,0.100000*%
%ADD11C,0.150000*%
%ADD12C,0.120000*%
%ADD13C,0.127000*%
%ADD14C,0.200000*%
G04 APERTURE END LIST*
D10*
X100508990Y-82203517D02*
X100508990Y-81870184D01*
X99985180Y-81870184D02*
X100985180Y-81870184D01*
X100985180Y-81870184D02*
X100985180Y-82346374D01*
X99985180Y-82727327D02*
X100985180Y-82727327D01*
X100985180Y-82727327D02*
X100270895Y-83060660D01*
X100270895Y-83060660D02*
X100985180Y-83393993D01*
X100985180Y-83393993D02*
X99985180Y-83393993D01*
X100651847Y-84298755D02*
X99985180Y-84298755D01*
X101032800Y-84060660D02*
X100318514Y-83822565D01*
X100318514Y-83822565D02*
X100318514Y-84441612D01*
X100508990Y-77203517D02*
X100508990Y-76870184D01*
X99985180Y-76870184D02*
X100985180Y-76870184D01*
X100985180Y-76870184D02*
X100985180Y-77346374D01*
X99985180Y-77727327D02*
X100985180Y-77727327D01*
X100985180Y-77727327D02*
X100270895Y-78060660D01*
X100270895Y-78060660D02*
X100985180Y-78393993D01*
X100985180Y-78393993D02*
X99985180Y-78393993D01*
X100985180Y-78774946D02*
X100985180Y-79393993D01*
X100985180Y-79393993D02*
X100604228Y-79060660D01*
X100604228Y-79060660D02*
X100604228Y-79203517D01*
X100604228Y-79203517D02*
X100556609Y-79298755D01*
X100556609Y-79298755D02*
X100508990Y-79346374D01*
X100508990Y-79346374D02*
X100413752Y-79393993D01*
X100413752Y-79393993D02*
X100175657Y-79393993D01*
X100175657Y-79393993D02*
X100080419Y-79346374D01*
X100080419Y-79346374D02*
X100032800Y-79298755D01*
X100032800Y-79298755D02*
X99985180Y-79203517D01*
X99985180Y-79203517D02*
X99985180Y-78917803D01*
X99985180Y-78917803D02*
X100032800Y-78822565D01*
X100032800Y-78822565D02*
X100080419Y-78774946D01*
X100508990Y-72703517D02*
X100508990Y-72370184D01*
X99985180Y-72370184D02*
X100985180Y-72370184D01*
X100985180Y-72370184D02*
X100985180Y-72846374D01*
X99985180Y-73227327D02*
X100985180Y-73227327D01*
X100985180Y-73227327D02*
X100270895Y-73560660D01*
X100270895Y-73560660D02*
X100985180Y-73893993D01*
X100985180Y-73893993D02*
X99985180Y-73893993D01*
X100889942Y-74322565D02*
X100937561Y-74370184D01*
X100937561Y-74370184D02*
X100985180Y-74465422D01*
X100985180Y-74465422D02*
X100985180Y-74703517D01*
X100985180Y-74703517D02*
X100937561Y-74798755D01*
X100937561Y-74798755D02*
X100889942Y-74846374D01*
X100889942Y-74846374D02*
X100794704Y-74893993D01*
X100794704Y-74893993D02*
X100699466Y-74893993D01*
X100699466Y-74893993D02*
X100556609Y-74846374D01*
X100556609Y-74846374D02*
X99985180Y-74274946D01*
X99985180Y-74274946D02*
X99985180Y-74893993D01*
X100508990Y-68203517D02*
X100508990Y-67870184D01*
X99985180Y-67870184D02*
X100985180Y-67870184D01*
X100985180Y-67870184D02*
X100985180Y-68346374D01*
X99985180Y-68727327D02*
X100985180Y-68727327D01*
X100985180Y-68727327D02*
X100270895Y-69060660D01*
X100270895Y-69060660D02*
X100985180Y-69393993D01*
X100985180Y-69393993D02*
X99985180Y-69393993D01*
X99985180Y-70393993D02*
X99985180Y-69822565D01*
X99985180Y-70108279D02*
X100985180Y-70108279D01*
X100985180Y-70108279D02*
X100842323Y-70013041D01*
X100842323Y-70013041D02*
X100747085Y-69917803D01*
X100747085Y-69917803D02*
X100699466Y-69822565D01*
X100032800Y-117322565D02*
X99985180Y-117465422D01*
X99985180Y-117465422D02*
X99985180Y-117703517D01*
X99985180Y-117703517D02*
X100032800Y-117798755D01*
X100032800Y-117798755D02*
X100080419Y-117846374D01*
X100080419Y-117846374D02*
X100175657Y-117893993D01*
X100175657Y-117893993D02*
X100270895Y-117893993D01*
X100270895Y-117893993D02*
X100366133Y-117846374D01*
X100366133Y-117846374D02*
X100413752Y-117798755D01*
X100413752Y-117798755D02*
X100461371Y-117703517D01*
X100461371Y-117703517D02*
X100508990Y-117513041D01*
X100508990Y-117513041D02*
X100556609Y-117417803D01*
X100556609Y-117417803D02*
X100604228Y-117370184D01*
X100604228Y-117370184D02*
X100699466Y-117322565D01*
X100699466Y-117322565D02*
X100794704Y-117322565D01*
X100794704Y-117322565D02*
X100889942Y-117370184D01*
X100889942Y-117370184D02*
X100937561Y-117417803D01*
X100937561Y-117417803D02*
X100985180Y-117513041D01*
X100985180Y-117513041D02*
X100985180Y-117751136D01*
X100985180Y-117751136D02*
X100937561Y-117893993D01*
X99985180Y-118322565D02*
X100985180Y-118322565D01*
X100985180Y-118322565D02*
X100985180Y-118560660D01*
X100985180Y-118560660D02*
X100937561Y-118703517D01*
X100937561Y-118703517D02*
X100842323Y-118798755D01*
X100842323Y-118798755D02*
X100747085Y-118846374D01*
X100747085Y-118846374D02*
X100556609Y-118893993D01*
X100556609Y-118893993D02*
X100413752Y-118893993D01*
X100413752Y-118893993D02*
X100223276Y-118846374D01*
X100223276Y-118846374D02*
X100128038Y-118798755D01*
X100128038Y-118798755D02*
X100032800Y-118703517D01*
X100032800Y-118703517D02*
X99985180Y-118560660D01*
X99985180Y-118560660D02*
X99985180Y-118322565D01*
X100985180Y-111774946D02*
X99985180Y-112013041D01*
X99985180Y-112013041D02*
X100699466Y-112203517D01*
X100699466Y-112203517D02*
X99985180Y-112393993D01*
X99985180Y-112393993D02*
X100985180Y-112632089D01*
X100032800Y-112965422D02*
X99985180Y-113108279D01*
X99985180Y-113108279D02*
X99985180Y-113346374D01*
X99985180Y-113346374D02*
X100032800Y-113441612D01*
X100032800Y-113441612D02*
X100080419Y-113489231D01*
X100080419Y-113489231D02*
X100175657Y-113536850D01*
X100175657Y-113536850D02*
X100270895Y-113536850D01*
X100270895Y-113536850D02*
X100366133Y-113489231D01*
X100366133Y-113489231D02*
X100413752Y-113441612D01*
X100413752Y-113441612D02*
X100461371Y-113346374D01*
X100461371Y-113346374D02*
X100508990Y-113155898D01*
X100508990Y-113155898D02*
X100556609Y-113060660D01*
X100556609Y-113060660D02*
X100604228Y-113013041D01*
X100604228Y-113013041D02*
X100699466Y-112965422D01*
X100699466Y-112965422D02*
X100794704Y-112965422D01*
X100794704Y-112965422D02*
X100889942Y-113013041D01*
X100889942Y-113013041D02*
X100937561Y-113060660D01*
X100937561Y-113060660D02*
X100985180Y-113155898D01*
X100985180Y-113155898D02*
X100985180Y-113393993D01*
X100985180Y-113393993D02*
X100937561Y-113536850D01*
X100032800Y-106822565D02*
X99985180Y-106965422D01*
X99985180Y-106965422D02*
X99985180Y-107203517D01*
X99985180Y-107203517D02*
X100032800Y-107298755D01*
X100032800Y-107298755D02*
X100080419Y-107346374D01*
X100080419Y-107346374D02*
X100175657Y-107393993D01*
X100175657Y-107393993D02*
X100270895Y-107393993D01*
X100270895Y-107393993D02*
X100366133Y-107346374D01*
X100366133Y-107346374D02*
X100413752Y-107298755D01*
X100413752Y-107298755D02*
X100461371Y-107203517D01*
X100461371Y-107203517D02*
X100508990Y-107013041D01*
X100508990Y-107013041D02*
X100556609Y-106917803D01*
X100556609Y-106917803D02*
X100604228Y-106870184D01*
X100604228Y-106870184D02*
X100699466Y-106822565D01*
X100699466Y-106822565D02*
X100794704Y-106822565D01*
X100794704Y-106822565D02*
X100889942Y-106870184D01*
X100889942Y-106870184D02*
X100937561Y-106917803D01*
X100937561Y-106917803D02*
X100985180Y-107013041D01*
X100985180Y-107013041D02*
X100985180Y-107251136D01*
X100985180Y-107251136D02*
X100937561Y-107393993D01*
X100080419Y-108393993D02*
X100032800Y-108346374D01*
X100032800Y-108346374D02*
X99985180Y-108203517D01*
X99985180Y-108203517D02*
X99985180Y-108108279D01*
X99985180Y-108108279D02*
X100032800Y-107965422D01*
X100032800Y-107965422D02*
X100128038Y-107870184D01*
X100128038Y-107870184D02*
X100223276Y-107822565D01*
X100223276Y-107822565D02*
X100413752Y-107774946D01*
X100413752Y-107774946D02*
X100556609Y-107774946D01*
X100556609Y-107774946D02*
X100747085Y-107822565D01*
X100747085Y-107822565D02*
X100842323Y-107870184D01*
X100842323Y-107870184D02*
X100937561Y-107965422D01*
X100937561Y-107965422D02*
X100985180Y-108108279D01*
X100985180Y-108108279D02*
X100985180Y-108203517D01*
X100985180Y-108203517D02*
X100937561Y-108346374D01*
X100937561Y-108346374D02*
X100889942Y-108393993D01*
X99985180Y-108822565D02*
X100985180Y-108822565D01*
X99985180Y-109393993D02*
X100556609Y-108965422D01*
X100985180Y-109393993D02*
X100413752Y-108822565D01*
X123685293Y-139486338D02*
X123590055Y-139438719D01*
X123590055Y-139438719D02*
X123447198Y-139438719D01*
X123447198Y-139438719D02*
X123304341Y-139486338D01*
X123304341Y-139486338D02*
X123209103Y-139581576D01*
X123209103Y-139581576D02*
X123161484Y-139676814D01*
X123161484Y-139676814D02*
X123113865Y-139867290D01*
X123113865Y-139867290D02*
X123113865Y-140010147D01*
X123113865Y-140010147D02*
X123161484Y-140200623D01*
X123161484Y-140200623D02*
X123209103Y-140295861D01*
X123209103Y-140295861D02*
X123304341Y-140391100D01*
X123304341Y-140391100D02*
X123447198Y-140438719D01*
X123447198Y-140438719D02*
X123542436Y-140438719D01*
X123542436Y-140438719D02*
X123685293Y-140391100D01*
X123685293Y-140391100D02*
X123732912Y-140343480D01*
X123732912Y-140343480D02*
X123732912Y-140010147D01*
X123732912Y-140010147D02*
X123542436Y-140010147D01*
X124161484Y-140438719D02*
X124161484Y-139438719D01*
X124161484Y-139438719D02*
X124732912Y-140438719D01*
X124732912Y-140438719D02*
X124732912Y-139438719D01*
X125209103Y-140438719D02*
X125209103Y-139438719D01*
X125209103Y-139438719D02*
X125447198Y-139438719D01*
X125447198Y-139438719D02*
X125590055Y-139486338D01*
X125590055Y-139486338D02*
X125685293Y-139581576D01*
X125685293Y-139581576D02*
X125732912Y-139676814D01*
X125732912Y-139676814D02*
X125780531Y-139867290D01*
X125780531Y-139867290D02*
X125780531Y-140010147D01*
X125780531Y-140010147D02*
X125732912Y-140200623D01*
X125732912Y-140200623D02*
X125685293Y-140295861D01*
X125685293Y-140295861D02*
X125590055Y-140391100D01*
X125590055Y-140391100D02*
X125447198Y-140438719D01*
X125447198Y-140438719D02*
X125209103Y-140438719D01*
X118161484Y-140438719D02*
X118161484Y-139438719D01*
X118161484Y-139438719D02*
X118399579Y-139438719D01*
X118399579Y-139438719D02*
X118542436Y-139486338D01*
X118542436Y-139486338D02*
X118637674Y-139581576D01*
X118637674Y-139581576D02*
X118685293Y-139676814D01*
X118685293Y-139676814D02*
X118732912Y-139867290D01*
X118732912Y-139867290D02*
X118732912Y-140010147D01*
X118732912Y-140010147D02*
X118685293Y-140200623D01*
X118685293Y-140200623D02*
X118637674Y-140295861D01*
X118637674Y-140295861D02*
X118542436Y-140391100D01*
X118542436Y-140391100D02*
X118399579Y-140438719D01*
X118399579Y-140438719D02*
X118161484Y-140438719D01*
X119161484Y-140438719D02*
X119161484Y-139438719D01*
X119161484Y-139914909D02*
X119732912Y-139914909D01*
X119732912Y-140438719D02*
X119732912Y-139438719D01*
X120066246Y-139438719D02*
X120637674Y-139438719D01*
X120351960Y-140438719D02*
X120351960Y-139438719D01*
X112161484Y-140057766D02*
X112923389Y-140057766D01*
X112542436Y-140438719D02*
X112542436Y-139676814D01*
X113304341Y-139438719D02*
X113923388Y-139438719D01*
X113923388Y-139438719D02*
X113590055Y-139819671D01*
X113590055Y-139819671D02*
X113732912Y-139819671D01*
X113732912Y-139819671D02*
X113828150Y-139867290D01*
X113828150Y-139867290D02*
X113875769Y-139914909D01*
X113875769Y-139914909D02*
X113923388Y-140010147D01*
X113923388Y-140010147D02*
X113923388Y-140248242D01*
X113923388Y-140248242D02*
X113875769Y-140343480D01*
X113875769Y-140343480D02*
X113828150Y-140391100D01*
X113828150Y-140391100D02*
X113732912Y-140438719D01*
X113732912Y-140438719D02*
X113447198Y-140438719D01*
X113447198Y-140438719D02*
X113351960Y-140391100D01*
X113351960Y-140391100D02*
X113304341Y-140343480D01*
X114351960Y-140343480D02*
X114399579Y-140391100D01*
X114399579Y-140391100D02*
X114351960Y-140438719D01*
X114351960Y-140438719D02*
X114304341Y-140391100D01*
X114304341Y-140391100D02*
X114351960Y-140343480D01*
X114351960Y-140343480D02*
X114351960Y-140438719D01*
X114732912Y-139438719D02*
X115351959Y-139438719D01*
X115351959Y-139438719D02*
X115018626Y-139819671D01*
X115018626Y-139819671D02*
X115161483Y-139819671D01*
X115161483Y-139819671D02*
X115256721Y-139867290D01*
X115256721Y-139867290D02*
X115304340Y-139914909D01*
X115304340Y-139914909D02*
X115351959Y-140010147D01*
X115351959Y-140010147D02*
X115351959Y-140248242D01*
X115351959Y-140248242D02*
X115304340Y-140343480D01*
X115304340Y-140343480D02*
X115256721Y-140391100D01*
X115256721Y-140391100D02*
X115161483Y-140438719D01*
X115161483Y-140438719D02*
X114875769Y-140438719D01*
X114875769Y-140438719D02*
X114780531Y-140391100D01*
X114780531Y-140391100D02*
X114732912Y-140343480D01*
X115637674Y-139438719D02*
X115971007Y-140438719D01*
X115971007Y-140438719D02*
X116304340Y-139438719D01*
X151661484Y-140438719D02*
X151661484Y-139438719D01*
X151661484Y-139438719D02*
X152042436Y-139438719D01*
X152042436Y-139438719D02*
X152137674Y-139486338D01*
X152137674Y-139486338D02*
X152185293Y-139533957D01*
X152185293Y-139533957D02*
X152232912Y-139629195D01*
X152232912Y-139629195D02*
X152232912Y-139772052D01*
X152232912Y-139772052D02*
X152185293Y-139867290D01*
X152185293Y-139867290D02*
X152137674Y-139914909D01*
X152137674Y-139914909D02*
X152042436Y-139962528D01*
X152042436Y-139962528D02*
X151661484Y-139962528D01*
X152566246Y-139438719D02*
X152804341Y-140438719D01*
X152804341Y-140438719D02*
X152994817Y-139724433D01*
X152994817Y-139724433D02*
X153185293Y-140438719D01*
X153185293Y-140438719D02*
X153423389Y-139438719D01*
X153804341Y-140438719D02*
X153804341Y-139438719D01*
X153804341Y-139438719D02*
X154137674Y-140153004D01*
X154137674Y-140153004D02*
X154471007Y-139438719D01*
X154471007Y-139438719D02*
X154471007Y-140438719D01*
X154899579Y-139533957D02*
X154947198Y-139486338D01*
X154947198Y-139486338D02*
X155042436Y-139438719D01*
X155042436Y-139438719D02*
X155280531Y-139438719D01*
X155280531Y-139438719D02*
X155375769Y-139486338D01*
X155375769Y-139486338D02*
X155423388Y-139533957D01*
X155423388Y-139533957D02*
X155471007Y-139629195D01*
X155471007Y-139629195D02*
X155471007Y-139724433D01*
X155471007Y-139724433D02*
X155423388Y-139867290D01*
X155423388Y-139867290D02*
X154851960Y-140438719D01*
X154851960Y-140438719D02*
X155471007Y-140438719D01*
X146661484Y-140438719D02*
X146661484Y-139438719D01*
X147137674Y-140438719D02*
X147137674Y-139438719D01*
X147137674Y-139438719D02*
X147709102Y-140438719D01*
X147709102Y-140438719D02*
X147709102Y-139438719D01*
X148137674Y-139533957D02*
X148185293Y-139486338D01*
X148185293Y-139486338D02*
X148280531Y-139438719D01*
X148280531Y-139438719D02*
X148518626Y-139438719D01*
X148518626Y-139438719D02*
X148613864Y-139486338D01*
X148613864Y-139486338D02*
X148661483Y-139533957D01*
X148661483Y-139533957D02*
X148709102Y-139629195D01*
X148709102Y-139629195D02*
X148709102Y-139724433D01*
X148709102Y-139724433D02*
X148661483Y-139867290D01*
X148661483Y-139867290D02*
X148090055Y-140438719D01*
X148090055Y-140438719D02*
X148709102Y-140438719D01*
X148899579Y-140533957D02*
X149661483Y-140533957D01*
X149899579Y-140438719D02*
X149899579Y-139438719D01*
X149899579Y-139438719D02*
X150471007Y-140438719D01*
X150471007Y-140438719D02*
X150471007Y-139438719D01*
X142661484Y-140438719D02*
X142661484Y-139438719D01*
X143137674Y-140438719D02*
X143137674Y-139438719D01*
X143137674Y-139438719D02*
X143709102Y-140438719D01*
X143709102Y-140438719D02*
X143709102Y-139438719D01*
X144137674Y-139533957D02*
X144185293Y-139486338D01*
X144185293Y-139486338D02*
X144280531Y-139438719D01*
X144280531Y-139438719D02*
X144518626Y-139438719D01*
X144518626Y-139438719D02*
X144613864Y-139486338D01*
X144613864Y-139486338D02*
X144661483Y-139533957D01*
X144661483Y-139533957D02*
X144709102Y-139629195D01*
X144709102Y-139629195D02*
X144709102Y-139724433D01*
X144709102Y-139724433D02*
X144661483Y-139867290D01*
X144661483Y-139867290D02*
X144090055Y-140438719D01*
X144090055Y-140438719D02*
X144709102Y-140438719D01*
X180661484Y-140438719D02*
X180661484Y-139438719D01*
X180661484Y-139438719D02*
X181042436Y-139438719D01*
X181042436Y-139438719D02*
X181137674Y-139486338D01*
X181137674Y-139486338D02*
X181185293Y-139533957D01*
X181185293Y-139533957D02*
X181232912Y-139629195D01*
X181232912Y-139629195D02*
X181232912Y-139772052D01*
X181232912Y-139772052D02*
X181185293Y-139867290D01*
X181185293Y-139867290D02*
X181137674Y-139914909D01*
X181137674Y-139914909D02*
X181042436Y-139962528D01*
X181042436Y-139962528D02*
X180661484Y-139962528D01*
X181566246Y-139438719D02*
X181804341Y-140438719D01*
X181804341Y-140438719D02*
X181994817Y-139724433D01*
X181994817Y-139724433D02*
X182185293Y-140438719D01*
X182185293Y-140438719D02*
X182423389Y-139438719D01*
X182804341Y-140438719D02*
X182804341Y-139438719D01*
X182804341Y-139438719D02*
X183137674Y-140153004D01*
X183137674Y-140153004D02*
X183471007Y-139438719D01*
X183471007Y-139438719D02*
X183471007Y-140438719D01*
X184471007Y-140438719D02*
X183899579Y-140438719D01*
X184185293Y-140438719D02*
X184185293Y-139438719D01*
X184185293Y-139438719D02*
X184090055Y-139581576D01*
X184090055Y-139581576D02*
X183994817Y-139676814D01*
X183994817Y-139676814D02*
X183899579Y-139724433D01*
X175661484Y-140438719D02*
X175661484Y-139438719D01*
X176137674Y-140438719D02*
X176137674Y-139438719D01*
X176137674Y-139438719D02*
X176709102Y-140438719D01*
X176709102Y-140438719D02*
X176709102Y-139438719D01*
X177709102Y-140438719D02*
X177137674Y-140438719D01*
X177423388Y-140438719D02*
X177423388Y-139438719D01*
X177423388Y-139438719D02*
X177328150Y-139581576D01*
X177328150Y-139581576D02*
X177232912Y-139676814D01*
X177232912Y-139676814D02*
X177137674Y-139724433D01*
X177899579Y-140533957D02*
X178661483Y-140533957D01*
X178899579Y-140438719D02*
X178899579Y-139438719D01*
X178899579Y-139438719D02*
X179471007Y-140438719D01*
X179471007Y-140438719D02*
X179471007Y-139438719D01*
X171661484Y-140438719D02*
X171661484Y-139438719D01*
X172137674Y-140438719D02*
X172137674Y-139438719D01*
X172137674Y-139438719D02*
X172709102Y-140438719D01*
X172709102Y-140438719D02*
X172709102Y-139438719D01*
X173709102Y-140438719D02*
X173137674Y-140438719D01*
X173423388Y-140438719D02*
X173423388Y-139438719D01*
X173423388Y-139438719D02*
X173328150Y-139581576D01*
X173328150Y-139581576D02*
X173232912Y-139676814D01*
X173232912Y-139676814D02*
X173137674Y-139724433D01*
X192730019Y-104762415D02*
X191730019Y-104762415D01*
X191730019Y-104762415D02*
X191730019Y-104381463D01*
X191730019Y-104381463D02*
X191777638Y-104286225D01*
X191777638Y-104286225D02*
X191825257Y-104238606D01*
X191825257Y-104238606D02*
X191920495Y-104190987D01*
X191920495Y-104190987D02*
X192063352Y-104190987D01*
X192063352Y-104190987D02*
X192158590Y-104238606D01*
X192158590Y-104238606D02*
X192206209Y-104286225D01*
X192206209Y-104286225D02*
X192253828Y-104381463D01*
X192253828Y-104381463D02*
X192253828Y-104762415D01*
X192730019Y-103762415D02*
X191730019Y-103762415D01*
X192730019Y-103286225D02*
X191730019Y-103286225D01*
X191730019Y-103286225D02*
X192730019Y-102714797D01*
X192730019Y-102714797D02*
X191730019Y-102714797D01*
X192206209Y-102238606D02*
X192206209Y-101905273D01*
X192730019Y-101762416D02*
X192730019Y-102238606D01*
X192730019Y-102238606D02*
X191730019Y-102238606D01*
X191730019Y-102238606D02*
X191730019Y-101762416D01*
X192682400Y-101381463D02*
X192730019Y-101238606D01*
X192730019Y-101238606D02*
X192730019Y-101000511D01*
X192730019Y-101000511D02*
X192682400Y-100905273D01*
X192682400Y-100905273D02*
X192634780Y-100857654D01*
X192634780Y-100857654D02*
X192539542Y-100810035D01*
X192539542Y-100810035D02*
X192444304Y-100810035D01*
X192444304Y-100810035D02*
X192349066Y-100857654D01*
X192349066Y-100857654D02*
X192301447Y-100905273D01*
X192301447Y-100905273D02*
X192253828Y-101000511D01*
X192253828Y-101000511D02*
X192206209Y-101190987D01*
X192206209Y-101190987D02*
X192158590Y-101286225D01*
X192158590Y-101286225D02*
X192110971Y-101333844D01*
X192110971Y-101333844D02*
X192015733Y-101381463D01*
X192015733Y-101381463D02*
X191920495Y-101381463D01*
X191920495Y-101381463D02*
X191825257Y-101333844D01*
X191825257Y-101333844D02*
X191777638Y-101286225D01*
X191777638Y-101286225D02*
X191730019Y-101190987D01*
X191730019Y-101190987D02*
X191730019Y-100952892D01*
X191730019Y-100952892D02*
X191777638Y-100810035D01*
X192730019Y-99619558D02*
X191730019Y-99619558D01*
X191730019Y-99619558D02*
X191730019Y-99381463D01*
X191730019Y-99381463D02*
X191777638Y-99238606D01*
X191777638Y-99238606D02*
X191872876Y-99143368D01*
X191872876Y-99143368D02*
X191968114Y-99095749D01*
X191968114Y-99095749D02*
X192158590Y-99048130D01*
X192158590Y-99048130D02*
X192301447Y-99048130D01*
X192301447Y-99048130D02*
X192491923Y-99095749D01*
X192491923Y-99095749D02*
X192587161Y-99143368D01*
X192587161Y-99143368D02*
X192682400Y-99238606D01*
X192682400Y-99238606D02*
X192730019Y-99381463D01*
X192730019Y-99381463D02*
X192730019Y-99619558D01*
X192206209Y-98619558D02*
X192206209Y-98286225D01*
X192730019Y-98143368D02*
X192730019Y-98619558D01*
X192730019Y-98619558D02*
X191730019Y-98619558D01*
X191730019Y-98619558D02*
X191730019Y-98143368D01*
X192634780Y-96381463D02*
X192682400Y-96429082D01*
X192682400Y-96429082D02*
X192730019Y-96571939D01*
X192730019Y-96571939D02*
X192730019Y-96667177D01*
X192730019Y-96667177D02*
X192682400Y-96810034D01*
X192682400Y-96810034D02*
X192587161Y-96905272D01*
X192587161Y-96905272D02*
X192491923Y-96952891D01*
X192491923Y-96952891D02*
X192301447Y-97000510D01*
X192301447Y-97000510D02*
X192158590Y-97000510D01*
X192158590Y-97000510D02*
X191968114Y-96952891D01*
X191968114Y-96952891D02*
X191872876Y-96905272D01*
X191872876Y-96905272D02*
X191777638Y-96810034D01*
X191777638Y-96810034D02*
X191730019Y-96667177D01*
X191730019Y-96667177D02*
X191730019Y-96571939D01*
X191730019Y-96571939D02*
X191777638Y-96429082D01*
X191777638Y-96429082D02*
X191825257Y-96381463D01*
X192444304Y-96000510D02*
X192444304Y-95524320D01*
X192730019Y-96095748D02*
X191730019Y-95762415D01*
X191730019Y-95762415D02*
X192730019Y-95429082D01*
X192730019Y-95095748D02*
X191730019Y-95095748D01*
X191730019Y-95095748D02*
X192444304Y-94762415D01*
X192444304Y-94762415D02*
X191730019Y-94429082D01*
X191730019Y-94429082D02*
X192730019Y-94429082D01*
X192444304Y-94000510D02*
X192444304Y-93524320D01*
X192730019Y-94095748D02*
X191730019Y-93762415D01*
X191730019Y-93762415D02*
X192730019Y-93429082D01*
X192730019Y-92524320D02*
X192253828Y-92857653D01*
X192730019Y-93095748D02*
X191730019Y-93095748D01*
X191730019Y-93095748D02*
X191730019Y-92714796D01*
X191730019Y-92714796D02*
X191777638Y-92619558D01*
X191777638Y-92619558D02*
X191825257Y-92571939D01*
X191825257Y-92571939D02*
X191920495Y-92524320D01*
X191920495Y-92524320D02*
X192063352Y-92524320D01*
X192063352Y-92524320D02*
X192158590Y-92571939D01*
X192158590Y-92571939D02*
X192206209Y-92619558D01*
X192206209Y-92619558D02*
X192253828Y-92714796D01*
X192253828Y-92714796D02*
X192253828Y-93095748D01*
X192444304Y-92143367D02*
X192444304Y-91667177D01*
X192730019Y-92238605D02*
X191730019Y-91905272D01*
X191730019Y-91905272D02*
X192730019Y-91571939D01*
X148529906Y-52646261D02*
X148625144Y-52693880D01*
X148625144Y-52693880D02*
X148768001Y-52693880D01*
X148768001Y-52693880D02*
X148910858Y-52646261D01*
X148910858Y-52646261D02*
X149006096Y-52551023D01*
X149006096Y-52551023D02*
X149053715Y-52455785D01*
X149053715Y-52455785D02*
X149101334Y-52265309D01*
X149101334Y-52265309D02*
X149101334Y-52122452D01*
X149101334Y-52122452D02*
X149053715Y-51931976D01*
X149053715Y-51931976D02*
X149006096Y-51836738D01*
X149006096Y-51836738D02*
X148910858Y-51741500D01*
X148910858Y-51741500D02*
X148768001Y-51693880D01*
X148768001Y-51693880D02*
X148672763Y-51693880D01*
X148672763Y-51693880D02*
X148529906Y-51741500D01*
X148529906Y-51741500D02*
X148482287Y-51789119D01*
X148482287Y-51789119D02*
X148482287Y-52122452D01*
X148482287Y-52122452D02*
X148672763Y-52122452D01*
X148053715Y-51693880D02*
X148053715Y-52693880D01*
X148053715Y-52693880D02*
X147482287Y-51693880D01*
X147482287Y-51693880D02*
X147482287Y-52693880D01*
X147006096Y-51693880D02*
X147006096Y-52693880D01*
X147006096Y-52693880D02*
X146768001Y-52693880D01*
X146768001Y-52693880D02*
X146625144Y-52646261D01*
X146625144Y-52646261D02*
X146529906Y-52551023D01*
X146529906Y-52551023D02*
X146482287Y-52455785D01*
X146482287Y-52455785D02*
X146434668Y-52265309D01*
X146434668Y-52265309D02*
X146434668Y-52122452D01*
X146434668Y-52122452D02*
X146482287Y-51931976D01*
X146482287Y-51931976D02*
X146529906Y-51836738D01*
X146529906Y-51836738D02*
X146625144Y-51741500D01*
X146625144Y-51741500D02*
X146768001Y-51693880D01*
X146768001Y-51693880D02*
X147006096Y-51693880D01*
X155553715Y-52074833D02*
X154791811Y-52074833D01*
X155172763Y-51693880D02*
X155172763Y-52455785D01*
X154410858Y-52693880D02*
X153791811Y-52693880D01*
X153791811Y-52693880D02*
X154125144Y-52312928D01*
X154125144Y-52312928D02*
X153982287Y-52312928D01*
X153982287Y-52312928D02*
X153887049Y-52265309D01*
X153887049Y-52265309D02*
X153839430Y-52217690D01*
X153839430Y-52217690D02*
X153791811Y-52122452D01*
X153791811Y-52122452D02*
X153791811Y-51884357D01*
X153791811Y-51884357D02*
X153839430Y-51789119D01*
X153839430Y-51789119D02*
X153887049Y-51741500D01*
X153887049Y-51741500D02*
X153982287Y-51693880D01*
X153982287Y-51693880D02*
X154268001Y-51693880D01*
X154268001Y-51693880D02*
X154363239Y-51741500D01*
X154363239Y-51741500D02*
X154410858Y-51789119D01*
X153363239Y-51789119D02*
X153315620Y-51741500D01*
X153315620Y-51741500D02*
X153363239Y-51693880D01*
X153363239Y-51693880D02*
X153410858Y-51741500D01*
X153410858Y-51741500D02*
X153363239Y-51789119D01*
X153363239Y-51789119D02*
X153363239Y-51693880D01*
X152982287Y-52693880D02*
X152363240Y-52693880D01*
X152363240Y-52693880D02*
X152696573Y-52312928D01*
X152696573Y-52312928D02*
X152553716Y-52312928D01*
X152553716Y-52312928D02*
X152458478Y-52265309D01*
X152458478Y-52265309D02*
X152410859Y-52217690D01*
X152410859Y-52217690D02*
X152363240Y-52122452D01*
X152363240Y-52122452D02*
X152363240Y-51884357D01*
X152363240Y-51884357D02*
X152410859Y-51789119D01*
X152410859Y-51789119D02*
X152458478Y-51741500D01*
X152458478Y-51741500D02*
X152553716Y-51693880D01*
X152553716Y-51693880D02*
X152839430Y-51693880D01*
X152839430Y-51693880D02*
X152934668Y-51741500D01*
X152934668Y-51741500D02*
X152982287Y-51789119D01*
X152077525Y-52693880D02*
X151744192Y-51693880D01*
X151744192Y-51693880D02*
X151410859Y-52693880D01*
D11*
X186986466Y-86298919D02*
X186986466Y-87013204D01*
X186986466Y-87013204D02*
X186938847Y-87156061D01*
X186938847Y-87156061D02*
X186843609Y-87251300D01*
X186843609Y-87251300D02*
X186700752Y-87298919D01*
X186700752Y-87298919D02*
X186605514Y-87298919D01*
X187986466Y-87298919D02*
X187415038Y-87298919D01*
X187700752Y-87298919D02*
X187700752Y-86298919D01*
X187700752Y-86298919D02*
X187605514Y-86441776D01*
X187605514Y-86441776D02*
X187510276Y-86537014D01*
X187510276Y-86537014D02*
X187415038Y-86584633D01*
X154999380Y-68800766D02*
X155047000Y-68848385D01*
X155047000Y-68848385D02*
X155094619Y-68991242D01*
X155094619Y-68991242D02*
X155094619Y-69086480D01*
X155094619Y-69086480D02*
X155047000Y-69229337D01*
X155047000Y-69229337D02*
X154951761Y-69324575D01*
X154951761Y-69324575D02*
X154856523Y-69372194D01*
X154856523Y-69372194D02*
X154666047Y-69419813D01*
X154666047Y-69419813D02*
X154523190Y-69419813D01*
X154523190Y-69419813D02*
X154332714Y-69372194D01*
X154332714Y-69372194D02*
X154237476Y-69324575D01*
X154237476Y-69324575D02*
X154142238Y-69229337D01*
X154142238Y-69229337D02*
X154094619Y-69086480D01*
X154094619Y-69086480D02*
X154094619Y-68991242D01*
X154094619Y-68991242D02*
X154142238Y-68848385D01*
X154142238Y-68848385D02*
X154189857Y-68800766D01*
X154094619Y-67943623D02*
X154094619Y-68134099D01*
X154094619Y-68134099D02*
X154142238Y-68229337D01*
X154142238Y-68229337D02*
X154189857Y-68276956D01*
X154189857Y-68276956D02*
X154332714Y-68372194D01*
X154332714Y-68372194D02*
X154523190Y-68419813D01*
X154523190Y-68419813D02*
X154904142Y-68419813D01*
X154904142Y-68419813D02*
X154999380Y-68372194D01*
X154999380Y-68372194D02*
X155047000Y-68324575D01*
X155047000Y-68324575D02*
X155094619Y-68229337D01*
X155094619Y-68229337D02*
X155094619Y-68038861D01*
X155094619Y-68038861D02*
X155047000Y-67943623D01*
X155047000Y-67943623D02*
X154999380Y-67896004D01*
X154999380Y-67896004D02*
X154904142Y-67848385D01*
X154904142Y-67848385D02*
X154666047Y-67848385D01*
X154666047Y-67848385D02*
X154570809Y-67896004D01*
X154570809Y-67896004D02*
X154523190Y-67943623D01*
X154523190Y-67943623D02*
X154475571Y-68038861D01*
X154475571Y-68038861D02*
X154475571Y-68229337D01*
X154475571Y-68229337D02*
X154523190Y-68324575D01*
X154523190Y-68324575D02*
X154570809Y-68372194D01*
X154570809Y-68372194D02*
X154666047Y-68419813D01*
X140749380Y-68000766D02*
X140797000Y-68048385D01*
X140797000Y-68048385D02*
X140844619Y-68191242D01*
X140844619Y-68191242D02*
X140844619Y-68286480D01*
X140844619Y-68286480D02*
X140797000Y-68429337D01*
X140797000Y-68429337D02*
X140701761Y-68524575D01*
X140701761Y-68524575D02*
X140606523Y-68572194D01*
X140606523Y-68572194D02*
X140416047Y-68619813D01*
X140416047Y-68619813D02*
X140273190Y-68619813D01*
X140273190Y-68619813D02*
X140082714Y-68572194D01*
X140082714Y-68572194D02*
X139987476Y-68524575D01*
X139987476Y-68524575D02*
X139892238Y-68429337D01*
X139892238Y-68429337D02*
X139844619Y-68286480D01*
X139844619Y-68286480D02*
X139844619Y-68191242D01*
X139844619Y-68191242D02*
X139892238Y-68048385D01*
X139892238Y-68048385D02*
X139939857Y-68000766D01*
X140177952Y-67143623D02*
X140844619Y-67143623D01*
X139797000Y-67381718D02*
X140511285Y-67619813D01*
X140511285Y-67619813D02*
X140511285Y-67000766D01*
X122661880Y-67868366D02*
X122709500Y-67915985D01*
X122709500Y-67915985D02*
X122757119Y-68058842D01*
X122757119Y-68058842D02*
X122757119Y-68154080D01*
X122757119Y-68154080D02*
X122709500Y-68296937D01*
X122709500Y-68296937D02*
X122614261Y-68392175D01*
X122614261Y-68392175D02*
X122519023Y-68439794D01*
X122519023Y-68439794D02*
X122328547Y-68487413D01*
X122328547Y-68487413D02*
X122185690Y-68487413D01*
X122185690Y-68487413D02*
X121995214Y-68439794D01*
X121995214Y-68439794D02*
X121899976Y-68392175D01*
X121899976Y-68392175D02*
X121804738Y-68296937D01*
X121804738Y-68296937D02*
X121757119Y-68154080D01*
X121757119Y-68154080D02*
X121757119Y-68058842D01*
X121757119Y-68058842D02*
X121804738Y-67915985D01*
X121804738Y-67915985D02*
X121852357Y-67868366D01*
X121757119Y-67535032D02*
X121757119Y-66915985D01*
X121757119Y-66915985D02*
X122138071Y-67249318D01*
X122138071Y-67249318D02*
X122138071Y-67106461D01*
X122138071Y-67106461D02*
X122185690Y-67011223D01*
X122185690Y-67011223D02*
X122233309Y-66963604D01*
X122233309Y-66963604D02*
X122328547Y-66915985D01*
X122328547Y-66915985D02*
X122566642Y-66915985D01*
X122566642Y-66915985D02*
X122661880Y-66963604D01*
X122661880Y-66963604D02*
X122709500Y-67011223D01*
X122709500Y-67011223D02*
X122757119Y-67106461D01*
X122757119Y-67106461D02*
X122757119Y-67392175D01*
X122757119Y-67392175D02*
X122709500Y-67487413D01*
X122709500Y-67487413D02*
X122661880Y-67535032D01*
X164799380Y-68668366D02*
X164847000Y-68715985D01*
X164847000Y-68715985D02*
X164894619Y-68858842D01*
X164894619Y-68858842D02*
X164894619Y-68954080D01*
X164894619Y-68954080D02*
X164847000Y-69096937D01*
X164847000Y-69096937D02*
X164751761Y-69192175D01*
X164751761Y-69192175D02*
X164656523Y-69239794D01*
X164656523Y-69239794D02*
X164466047Y-69287413D01*
X164466047Y-69287413D02*
X164323190Y-69287413D01*
X164323190Y-69287413D02*
X164132714Y-69239794D01*
X164132714Y-69239794D02*
X164037476Y-69192175D01*
X164037476Y-69192175D02*
X163942238Y-69096937D01*
X163942238Y-69096937D02*
X163894619Y-68954080D01*
X163894619Y-68954080D02*
X163894619Y-68858842D01*
X163894619Y-68858842D02*
X163942238Y-68715985D01*
X163942238Y-68715985D02*
X163989857Y-68668366D01*
X163894619Y-67763604D02*
X163894619Y-68239794D01*
X163894619Y-68239794D02*
X164370809Y-68287413D01*
X164370809Y-68287413D02*
X164323190Y-68239794D01*
X164323190Y-68239794D02*
X164275571Y-68144556D01*
X164275571Y-68144556D02*
X164275571Y-67906461D01*
X164275571Y-67906461D02*
X164323190Y-67811223D01*
X164323190Y-67811223D02*
X164370809Y-67763604D01*
X164370809Y-67763604D02*
X164466047Y-67715985D01*
X164466047Y-67715985D02*
X164704142Y-67715985D01*
X164704142Y-67715985D02*
X164799380Y-67763604D01*
X164799380Y-67763604D02*
X164847000Y-67811223D01*
X164847000Y-67811223D02*
X164894619Y-67906461D01*
X164894619Y-67906461D02*
X164894619Y-68144556D01*
X164894619Y-68144556D02*
X164847000Y-68239794D01*
X164847000Y-68239794D02*
X164799380Y-68287413D01*
X174510395Y-126348919D02*
X174510395Y-127158442D01*
X174510395Y-127158442D02*
X174558014Y-127253680D01*
X174558014Y-127253680D02*
X174605633Y-127301300D01*
X174605633Y-127301300D02*
X174700871Y-127348919D01*
X174700871Y-127348919D02*
X174891347Y-127348919D01*
X174891347Y-127348919D02*
X174986585Y-127301300D01*
X174986585Y-127301300D02*
X175034204Y-127253680D01*
X175034204Y-127253680D02*
X175081823Y-127158442D01*
X175081823Y-127158442D02*
X175081823Y-126348919D01*
X175986585Y-126348919D02*
X175796109Y-126348919D01*
X175796109Y-126348919D02*
X175700871Y-126396538D01*
X175700871Y-126396538D02*
X175653252Y-126444157D01*
X175653252Y-126444157D02*
X175558014Y-126587014D01*
X175558014Y-126587014D02*
X175510395Y-126777490D01*
X175510395Y-126777490D02*
X175510395Y-127158442D01*
X175510395Y-127158442D02*
X175558014Y-127253680D01*
X175558014Y-127253680D02*
X175605633Y-127301300D01*
X175605633Y-127301300D02*
X175700871Y-127348919D01*
X175700871Y-127348919D02*
X175891347Y-127348919D01*
X175891347Y-127348919D02*
X175986585Y-127301300D01*
X175986585Y-127301300D02*
X176034204Y-127253680D01*
X176034204Y-127253680D02*
X176081823Y-127158442D01*
X176081823Y-127158442D02*
X176081823Y-126920347D01*
X176081823Y-126920347D02*
X176034204Y-126825109D01*
X176034204Y-126825109D02*
X175986585Y-126777490D01*
X175986585Y-126777490D02*
X175891347Y-126729871D01*
X175891347Y-126729871D02*
X175700871Y-126729871D01*
X175700871Y-126729871D02*
X175605633Y-126777490D01*
X175605633Y-126777490D02*
X175558014Y-126825109D01*
X175558014Y-126825109D02*
X175510395Y-126920347D01*
X143955395Y-126348919D02*
X143955395Y-127158442D01*
X143955395Y-127158442D02*
X144003014Y-127253680D01*
X144003014Y-127253680D02*
X144050633Y-127301300D01*
X144050633Y-127301300D02*
X144145871Y-127348919D01*
X144145871Y-127348919D02*
X144336347Y-127348919D01*
X144336347Y-127348919D02*
X144431585Y-127301300D01*
X144431585Y-127301300D02*
X144479204Y-127253680D01*
X144479204Y-127253680D02*
X144526823Y-127158442D01*
X144526823Y-127158442D02*
X144526823Y-126348919D01*
X145145871Y-126777490D02*
X145050633Y-126729871D01*
X145050633Y-126729871D02*
X145003014Y-126682252D01*
X145003014Y-126682252D02*
X144955395Y-126587014D01*
X144955395Y-126587014D02*
X144955395Y-126539395D01*
X144955395Y-126539395D02*
X145003014Y-126444157D01*
X145003014Y-126444157D02*
X145050633Y-126396538D01*
X145050633Y-126396538D02*
X145145871Y-126348919D01*
X145145871Y-126348919D02*
X145336347Y-126348919D01*
X145336347Y-126348919D02*
X145431585Y-126396538D01*
X145431585Y-126396538D02*
X145479204Y-126444157D01*
X145479204Y-126444157D02*
X145526823Y-126539395D01*
X145526823Y-126539395D02*
X145526823Y-126587014D01*
X145526823Y-126587014D02*
X145479204Y-126682252D01*
X145479204Y-126682252D02*
X145431585Y-126729871D01*
X145431585Y-126729871D02*
X145336347Y-126777490D01*
X145336347Y-126777490D02*
X145145871Y-126777490D01*
X145145871Y-126777490D02*
X145050633Y-126825109D01*
X145050633Y-126825109D02*
X145003014Y-126872728D01*
X145003014Y-126872728D02*
X144955395Y-126967966D01*
X144955395Y-126967966D02*
X144955395Y-127158442D01*
X144955395Y-127158442D02*
X145003014Y-127253680D01*
X145003014Y-127253680D02*
X145050633Y-127301300D01*
X145050633Y-127301300D02*
X145145871Y-127348919D01*
X145145871Y-127348919D02*
X145336347Y-127348919D01*
X145336347Y-127348919D02*
X145431585Y-127301300D01*
X145431585Y-127301300D02*
X145479204Y-127253680D01*
X145479204Y-127253680D02*
X145526823Y-127158442D01*
X145526823Y-127158442D02*
X145526823Y-126967966D01*
X145526823Y-126967966D02*
X145479204Y-126872728D01*
X145479204Y-126872728D02*
X145431585Y-126825109D01*
X145431585Y-126825109D02*
X145336347Y-126777490D01*
X112564619Y-113843623D02*
X113278904Y-113843623D01*
X113278904Y-113843623D02*
X113421761Y-113891242D01*
X113421761Y-113891242D02*
X113517000Y-113986480D01*
X113517000Y-113986480D02*
X113564619Y-114129337D01*
X113564619Y-114129337D02*
X113564619Y-114224575D01*
X113564619Y-112843623D02*
X113564619Y-113415051D01*
X113564619Y-113129337D02*
X112564619Y-113129337D01*
X112564619Y-113129337D02*
X112707476Y-113224575D01*
X112707476Y-113224575D02*
X112802714Y-113319813D01*
X112802714Y-113319813D02*
X112850333Y-113415051D01*
X112897952Y-111986480D02*
X113564619Y-111986480D01*
X112517000Y-112224575D02*
X113231285Y-112462670D01*
X113231285Y-112462670D02*
X113231285Y-111843623D01*
X150256466Y-64668619D02*
X150256466Y-65382904D01*
X150256466Y-65382904D02*
X150208847Y-65525761D01*
X150208847Y-65525761D02*
X150113609Y-65621000D01*
X150113609Y-65621000D02*
X149970752Y-65668619D01*
X149970752Y-65668619D02*
X149875514Y-65668619D01*
X150637419Y-64668619D02*
X151304085Y-64668619D01*
X151304085Y-64668619D02*
X150875514Y-65668619D01*
X118580276Y-126268919D02*
X118580276Y-126983204D01*
X118580276Y-126983204D02*
X118532657Y-127126061D01*
X118532657Y-127126061D02*
X118437419Y-127221300D01*
X118437419Y-127221300D02*
X118294562Y-127268919D01*
X118294562Y-127268919D02*
X118199324Y-127268919D01*
X119580276Y-127268919D02*
X119008848Y-127268919D01*
X119294562Y-127268919D02*
X119294562Y-126268919D01*
X119294562Y-126268919D02*
X119199324Y-126411776D01*
X119199324Y-126411776D02*
X119104086Y-126507014D01*
X119104086Y-126507014D02*
X119008848Y-126554633D01*
X120532657Y-127268919D02*
X119961229Y-127268919D01*
X120246943Y-127268919D02*
X120246943Y-126268919D01*
X120246943Y-126268919D02*
X120151705Y-126411776D01*
X120151705Y-126411776D02*
X120056467Y-126507014D01*
X120056467Y-126507014D02*
X119961229Y-126554633D01*
X112564619Y-76367433D02*
X113278904Y-76367433D01*
X113278904Y-76367433D02*
X113421761Y-76415052D01*
X113421761Y-76415052D02*
X113517000Y-76510290D01*
X113517000Y-76510290D02*
X113564619Y-76653147D01*
X113564619Y-76653147D02*
X113564619Y-76748385D01*
X113564619Y-75843623D02*
X113564619Y-75653147D01*
X113564619Y-75653147D02*
X113517000Y-75557909D01*
X113517000Y-75557909D02*
X113469380Y-75510290D01*
X113469380Y-75510290D02*
X113326523Y-75415052D01*
X113326523Y-75415052D02*
X113136047Y-75367433D01*
X113136047Y-75367433D02*
X112755095Y-75367433D01*
X112755095Y-75367433D02*
X112659857Y-75415052D01*
X112659857Y-75415052D02*
X112612238Y-75462671D01*
X112612238Y-75462671D02*
X112564619Y-75557909D01*
X112564619Y-75557909D02*
X112564619Y-75748385D01*
X112564619Y-75748385D02*
X112612238Y-75843623D01*
X112612238Y-75843623D02*
X112659857Y-75891242D01*
X112659857Y-75891242D02*
X112755095Y-75938861D01*
X112755095Y-75938861D02*
X112993190Y-75938861D01*
X112993190Y-75938861D02*
X113088428Y-75891242D01*
X113088428Y-75891242D02*
X113136047Y-75843623D01*
X113136047Y-75843623D02*
X113183666Y-75748385D01*
X113183666Y-75748385D02*
X113183666Y-75557909D01*
X113183666Y-75557909D02*
X113136047Y-75462671D01*
X113136047Y-75462671D02*
X113088428Y-75415052D01*
X113088428Y-75415052D02*
X112993190Y-75367433D01*
X147580276Y-126268919D02*
X147580276Y-126983204D01*
X147580276Y-126983204D02*
X147532657Y-127126061D01*
X147532657Y-127126061D02*
X147437419Y-127221300D01*
X147437419Y-127221300D02*
X147294562Y-127268919D01*
X147294562Y-127268919D02*
X147199324Y-127268919D01*
X148580276Y-127268919D02*
X148008848Y-127268919D01*
X148294562Y-127268919D02*
X148294562Y-126268919D01*
X148294562Y-126268919D02*
X148199324Y-126411776D01*
X148199324Y-126411776D02*
X148104086Y-126507014D01*
X148104086Y-126507014D02*
X148008848Y-126554633D01*
X148913610Y-126268919D02*
X149532657Y-126268919D01*
X149532657Y-126268919D02*
X149199324Y-126649871D01*
X149199324Y-126649871D02*
X149342181Y-126649871D01*
X149342181Y-126649871D02*
X149437419Y-126697490D01*
X149437419Y-126697490D02*
X149485038Y-126745109D01*
X149485038Y-126745109D02*
X149532657Y-126840347D01*
X149532657Y-126840347D02*
X149532657Y-127078442D01*
X149532657Y-127078442D02*
X149485038Y-127173680D01*
X149485038Y-127173680D02*
X149437419Y-127221300D01*
X149437419Y-127221300D02*
X149342181Y-127268919D01*
X149342181Y-127268919D02*
X149056467Y-127268919D01*
X149056467Y-127268919D02*
X148961229Y-127221300D01*
X148961229Y-127221300D02*
X148913610Y-127173680D01*
X176580276Y-126268919D02*
X176580276Y-126983204D01*
X176580276Y-126983204D02*
X176532657Y-127126061D01*
X176532657Y-127126061D02*
X176437419Y-127221300D01*
X176437419Y-127221300D02*
X176294562Y-127268919D01*
X176294562Y-127268919D02*
X176199324Y-127268919D01*
X177580276Y-127268919D02*
X177008848Y-127268919D01*
X177294562Y-127268919D02*
X177294562Y-126268919D01*
X177294562Y-126268919D02*
X177199324Y-126411776D01*
X177199324Y-126411776D02*
X177104086Y-126507014D01*
X177104086Y-126507014D02*
X177008848Y-126554633D01*
X177961229Y-126364157D02*
X178008848Y-126316538D01*
X178008848Y-126316538D02*
X178104086Y-126268919D01*
X178104086Y-126268919D02*
X178342181Y-126268919D01*
X178342181Y-126268919D02*
X178437419Y-126316538D01*
X178437419Y-126316538D02*
X178485038Y-126364157D01*
X178485038Y-126364157D02*
X178532657Y-126459395D01*
X178532657Y-126459395D02*
X178532657Y-126554633D01*
X178532657Y-126554633D02*
X178485038Y-126697490D01*
X178485038Y-126697490D02*
X177913610Y-127268919D01*
X177913610Y-127268919D02*
X178532657Y-127268919D01*
D12*
%TO.C,J1*%
X184719800Y-87844100D02*
X186049800Y-87844100D01*
X184719800Y-89174100D02*
X184719800Y-87844100D01*
X184719800Y-90444100D02*
X184719800Y-110824100D01*
X184719800Y-90444100D02*
X187319800Y-90444100D01*
X184719800Y-110824100D02*
X189919800Y-110824100D01*
X187319800Y-87844100D02*
X189919800Y-87844100D01*
X187319800Y-90444100D02*
X187319800Y-87844100D01*
X189919800Y-87844100D02*
X189919800Y-110824100D01*
%TO.C,C6*%
X155768800Y-65514100D02*
X157164800Y-65514100D01*
X155768800Y-71754100D02*
X155768800Y-65514100D01*
X155768800Y-71754100D02*
X157164800Y-71754100D01*
X159014800Y-65514100D02*
X160410800Y-65514100D01*
X159014800Y-71754100D02*
X160410800Y-71754100D01*
X160410800Y-71754100D02*
X160410800Y-65514100D01*
%TO.C,C4*%
X138068800Y-64714100D02*
X139464800Y-64714100D01*
X138068800Y-70954100D02*
X138068800Y-64714100D01*
X138068800Y-70954100D02*
X139464800Y-70954100D01*
X141314800Y-64714100D02*
X142710800Y-64714100D01*
X141314800Y-70954100D02*
X142710800Y-70954100D01*
X142710800Y-70954100D02*
X142710800Y-64714100D01*
%TO.C,C3*%
X123472300Y-67621700D02*
X133632300Y-67621700D01*
X123472300Y-67661700D02*
X133632300Y-67661700D01*
X123472300Y-67701700D02*
X133632300Y-67701700D01*
X123473300Y-67581700D02*
X133631300Y-67581700D01*
X123474300Y-67541700D02*
X133630300Y-67541700D01*
X123475300Y-67501700D02*
X133629300Y-67501700D01*
X123477300Y-67461700D02*
X133627300Y-67461700D01*
X123479300Y-67421700D02*
X133625300Y-67421700D01*
X123482300Y-67381700D02*
X133622300Y-67381700D01*
X123484300Y-67341700D02*
X133620300Y-67341700D01*
X123487300Y-67301700D02*
X133617300Y-67301700D01*
X123490300Y-67261700D02*
X133614300Y-67261700D01*
X123494300Y-67221700D02*
X133610300Y-67221700D01*
X123498300Y-67181700D02*
X133606300Y-67181700D01*
X123502300Y-67141700D02*
X133602300Y-67141700D01*
X123507300Y-67101700D02*
X133597300Y-67101700D01*
X123512300Y-67061700D02*
X133592300Y-67061700D01*
X123517300Y-67021700D02*
X133587300Y-67021700D01*
X123522300Y-66980700D02*
X133582300Y-66980700D01*
X123528300Y-66940700D02*
X133576300Y-66940700D01*
X123534300Y-66900700D02*
X133570300Y-66900700D01*
X123541300Y-66860700D02*
X133563300Y-66860700D01*
X123548300Y-66820700D02*
X133556300Y-66820700D01*
X123555300Y-66780700D02*
X133549300Y-66780700D01*
X123562300Y-66740700D02*
X133542300Y-66740700D01*
X123570300Y-66700700D02*
X133534300Y-66700700D01*
X123578300Y-66660700D02*
X133526300Y-66660700D01*
X123587300Y-66620700D02*
X133517300Y-66620700D01*
X123596300Y-66580700D02*
X133508300Y-66580700D01*
X123605300Y-66540700D02*
X133499300Y-66540700D01*
X123614300Y-66500700D02*
X133490300Y-66500700D01*
X123624300Y-66460700D02*
X133480300Y-66460700D01*
X123634300Y-66420700D02*
X133470300Y-66420700D01*
X123645300Y-66380700D02*
X133459300Y-66380700D01*
X123655300Y-66340700D02*
X133449300Y-66340700D01*
X123667300Y-66300700D02*
X133437300Y-66300700D01*
X123678300Y-66260700D02*
X133426300Y-66260700D01*
X123690300Y-66220700D02*
X133414300Y-66220700D01*
X123702300Y-66180700D02*
X133402300Y-66180700D01*
X123715300Y-66140700D02*
X133389300Y-66140700D01*
X123728300Y-66100700D02*
X133376300Y-66100700D01*
X123741300Y-66060700D02*
X133363300Y-66060700D01*
X123755300Y-66020700D02*
X133349300Y-66020700D01*
X123769300Y-65980700D02*
X133335300Y-65980700D01*
X123784300Y-65940700D02*
X133320300Y-65940700D01*
X123798300Y-65900700D02*
X133306300Y-65900700D01*
X123814300Y-65860700D02*
X133290300Y-65860700D01*
X123829300Y-65820700D02*
X133275300Y-65820700D01*
X123845300Y-65780700D02*
X133259300Y-65780700D01*
X123862300Y-65740700D02*
X133242300Y-65740700D01*
X123878300Y-65700700D02*
X133226300Y-65700700D01*
X123895300Y-65660700D02*
X133209300Y-65660700D01*
X123913300Y-65620700D02*
X133191300Y-65620700D01*
X123931300Y-65580700D02*
X133173300Y-65580700D01*
X123949300Y-65540700D02*
X133155300Y-65540700D01*
X123968300Y-65500700D02*
X133136300Y-65500700D01*
X123988300Y-65460700D02*
X133116300Y-65460700D01*
X124007300Y-65420700D02*
X133097300Y-65420700D01*
X124027300Y-65380700D02*
X133077300Y-65380700D01*
X124048300Y-65340700D02*
X133056300Y-65340700D01*
X124069300Y-65300700D02*
X133035300Y-65300700D01*
X124090300Y-65260700D02*
X133014300Y-65260700D01*
X124112300Y-65220700D02*
X132992300Y-65220700D01*
X124135300Y-65180700D02*
X127311300Y-65180700D01*
X124157300Y-65140700D02*
X127311300Y-65140700D01*
X124181300Y-65100700D02*
X127311300Y-65100700D01*
X124205300Y-65060700D02*
X127311300Y-65060700D01*
X124229300Y-65020700D02*
X127311300Y-65020700D01*
X124254300Y-64980700D02*
X127311300Y-64980700D01*
X124279300Y-64940700D02*
X127311300Y-64940700D01*
X124305300Y-64900700D02*
X127311300Y-64900700D01*
X124331300Y-64860700D02*
X127311300Y-64860700D01*
X124358300Y-64820700D02*
X127311300Y-64820700D01*
X124386300Y-64780700D02*
X127311300Y-64780700D01*
X124414300Y-64740700D02*
X127311300Y-64740700D01*
X124442300Y-64700700D02*
X127311300Y-64700700D01*
X124472300Y-64660700D02*
X127311300Y-64660700D01*
X124502300Y-64620700D02*
X127311300Y-64620700D01*
X124532300Y-64580700D02*
X127311300Y-64580700D01*
X124563300Y-64540700D02*
X127311300Y-64540700D01*
X124595300Y-64500700D02*
X127311300Y-64500700D01*
X124627300Y-64460700D02*
X127311300Y-64460700D01*
X124660300Y-64420700D02*
X127311300Y-64420700D01*
X124694300Y-64380700D02*
X127311300Y-64380700D01*
X124728300Y-64340700D02*
X127311300Y-64340700D01*
X124763300Y-64300700D02*
X127311300Y-64300700D01*
X124799300Y-64260700D02*
X127311300Y-64260700D01*
X124836300Y-64220700D02*
X127311300Y-64220700D01*
X124873300Y-64180700D02*
X127311300Y-64180700D01*
X124912300Y-64140700D02*
X127311300Y-64140700D01*
X124951300Y-64100700D02*
X127311300Y-64100700D01*
X124991300Y-64060700D02*
X127311300Y-64060700D01*
X125032300Y-64020700D02*
X127311300Y-64020700D01*
X125074300Y-63980700D02*
X127311300Y-63980700D01*
X125116300Y-63940700D02*
X127311300Y-63940700D01*
X125160300Y-63900700D02*
X127311300Y-63900700D01*
X125177300Y-72681346D02*
X126177300Y-72681346D01*
X125205300Y-63860700D02*
X127311300Y-63860700D01*
X125251300Y-63820700D02*
X127311300Y-63820700D01*
X125298300Y-63780700D02*
X127311300Y-63780700D01*
X125346300Y-63740700D02*
X127311300Y-63740700D01*
X125396300Y-63700700D02*
X127311300Y-63700700D01*
X125446300Y-63660700D02*
X127311300Y-63660700D01*
X125498300Y-63620700D02*
X127311300Y-63620700D01*
X125552300Y-63580700D02*
X127311300Y-63580700D01*
X125607300Y-63540700D02*
X127311300Y-63540700D01*
X125663300Y-63500700D02*
X127311300Y-63500700D01*
X125677300Y-73181346D02*
X125677300Y-72181346D01*
X125722300Y-63460700D02*
X127311300Y-63460700D01*
X125782300Y-63420700D02*
X127311300Y-63420700D01*
X125843300Y-63380700D02*
X127311300Y-63380700D01*
X125907300Y-63340700D02*
X127311300Y-63340700D01*
X125973300Y-63300700D02*
X127311300Y-63300700D01*
X126042300Y-63260700D02*
X127311300Y-63260700D01*
X126113300Y-63220700D02*
X127311300Y-63220700D01*
X126187300Y-63180700D02*
X127311300Y-63180700D01*
X126263300Y-63140700D02*
X127311300Y-63140700D01*
X126343300Y-63100700D02*
X127311300Y-63100700D01*
X126427300Y-63060700D02*
X127311300Y-63060700D01*
X126515300Y-63020700D02*
X127311300Y-63020700D01*
X126608300Y-62980700D02*
X127311300Y-62980700D01*
X126706300Y-62940700D02*
X127311300Y-62940700D01*
X126810300Y-62900700D02*
X127311300Y-62900700D01*
X126922300Y-62860700D02*
X127311300Y-62860700D01*
X127042300Y-62820700D02*
X127311300Y-62820700D01*
X127174300Y-62780700D02*
X127311300Y-62780700D01*
X127490300Y-62700700D02*
X129614300Y-62700700D01*
X127690300Y-62660700D02*
X129414300Y-62660700D01*
X127953300Y-62620700D02*
X129151300Y-62620700D01*
X129793300Y-62780700D02*
X129930300Y-62780700D01*
X129793300Y-62820700D02*
X130062300Y-62820700D01*
X129793300Y-62860700D02*
X130182300Y-62860700D01*
X129793300Y-62900700D02*
X130294300Y-62900700D01*
X129793300Y-62940700D02*
X130398300Y-62940700D01*
X129793300Y-62980700D02*
X130496300Y-62980700D01*
X129793300Y-63020700D02*
X130589300Y-63020700D01*
X129793300Y-63060700D02*
X130677300Y-63060700D01*
X129793300Y-63100700D02*
X130761300Y-63100700D01*
X129793300Y-63140700D02*
X130841300Y-63140700D01*
X129793300Y-63180700D02*
X130917300Y-63180700D01*
X129793300Y-63220700D02*
X130991300Y-63220700D01*
X129793300Y-63260700D02*
X131062300Y-63260700D01*
X129793300Y-63300700D02*
X131131300Y-63300700D01*
X129793300Y-63340700D02*
X131197300Y-63340700D01*
X129793300Y-63380700D02*
X131261300Y-63380700D01*
X129793300Y-63420700D02*
X131322300Y-63420700D01*
X129793300Y-63460700D02*
X131382300Y-63460700D01*
X129793300Y-63500700D02*
X131441300Y-63500700D01*
X129793300Y-63540700D02*
X131497300Y-63540700D01*
X129793300Y-63580700D02*
X131552300Y-63580700D01*
X129793300Y-63620700D02*
X131606300Y-63620700D01*
X129793300Y-63660700D02*
X131658300Y-63660700D01*
X129793300Y-63700700D02*
X131708300Y-63700700D01*
X129793300Y-63740700D02*
X131758300Y-63740700D01*
X129793300Y-63780700D02*
X131806300Y-63780700D01*
X129793300Y-63820700D02*
X131853300Y-63820700D01*
X129793300Y-63860700D02*
X131899300Y-63860700D01*
X129793300Y-63900700D02*
X131944300Y-63900700D01*
X129793300Y-63940700D02*
X131988300Y-63940700D01*
X129793300Y-63980700D02*
X132030300Y-63980700D01*
X129793300Y-64020700D02*
X132072300Y-64020700D01*
X129793300Y-64060700D02*
X132113300Y-64060700D01*
X129793300Y-64100700D02*
X132153300Y-64100700D01*
X129793300Y-64140700D02*
X132192300Y-64140700D01*
X129793300Y-64180700D02*
X132231300Y-64180700D01*
X129793300Y-64220700D02*
X132268300Y-64220700D01*
X129793300Y-64260700D02*
X132305300Y-64260700D01*
X129793300Y-64300700D02*
X132341300Y-64300700D01*
X129793300Y-64340700D02*
X132376300Y-64340700D01*
X129793300Y-64380700D02*
X132410300Y-64380700D01*
X129793300Y-64420700D02*
X132444300Y-64420700D01*
X129793300Y-64460700D02*
X132477300Y-64460700D01*
X129793300Y-64500700D02*
X132509300Y-64500700D01*
X129793300Y-64540700D02*
X132541300Y-64540700D01*
X129793300Y-64580700D02*
X132572300Y-64580700D01*
X129793300Y-64620700D02*
X132602300Y-64620700D01*
X129793300Y-64660700D02*
X132632300Y-64660700D01*
X129793300Y-64700700D02*
X132662300Y-64700700D01*
X129793300Y-64740700D02*
X132690300Y-64740700D01*
X129793300Y-64780700D02*
X132718300Y-64780700D01*
X129793300Y-64820700D02*
X132746300Y-64820700D01*
X129793300Y-64860700D02*
X132773300Y-64860700D01*
X129793300Y-64900700D02*
X132799300Y-64900700D01*
X129793300Y-64940700D02*
X132825300Y-64940700D01*
X129793300Y-64980700D02*
X132850300Y-64980700D01*
X129793300Y-65020700D02*
X132875300Y-65020700D01*
X129793300Y-65060700D02*
X132899300Y-65060700D01*
X129793300Y-65100700D02*
X132923300Y-65100700D01*
X129793300Y-65140700D02*
X132947300Y-65140700D01*
X129793300Y-65180700D02*
X132969300Y-65180700D01*
X127292300Y-72664240D02*
G75*
G02*
X129812300Y-72664240I1260000J4962540D01*
G01*
%TO.C,C5*%
X165609800Y-68421700D02*
X175769800Y-68421700D01*
X165609800Y-68461700D02*
X175769800Y-68461700D01*
X165609800Y-68501700D02*
X175769800Y-68501700D01*
X165610800Y-68381700D02*
X175768800Y-68381700D01*
X165611800Y-68341700D02*
X175767800Y-68341700D01*
X165612800Y-68301700D02*
X175766800Y-68301700D01*
X165614800Y-68261700D02*
X175764800Y-68261700D01*
X165616800Y-68221700D02*
X175762800Y-68221700D01*
X165619800Y-68181700D02*
X175759800Y-68181700D01*
X165621800Y-68141700D02*
X175757800Y-68141700D01*
X165624800Y-68101700D02*
X175754800Y-68101700D01*
X165627800Y-68061700D02*
X175751800Y-68061700D01*
X165631800Y-68021700D02*
X175747800Y-68021700D01*
X165635800Y-67981700D02*
X175743800Y-67981700D01*
X165639800Y-67941700D02*
X175739800Y-67941700D01*
X165644800Y-67901700D02*
X175734800Y-67901700D01*
X165649800Y-67861700D02*
X175729800Y-67861700D01*
X165654800Y-67821700D02*
X175724800Y-67821700D01*
X165659800Y-67780700D02*
X175719800Y-67780700D01*
X165665800Y-67740700D02*
X175713800Y-67740700D01*
X165671800Y-67700700D02*
X175707800Y-67700700D01*
X165678800Y-67660700D02*
X175700800Y-67660700D01*
X165685800Y-67620700D02*
X175693800Y-67620700D01*
X165692800Y-67580700D02*
X175686800Y-67580700D01*
X165699800Y-67540700D02*
X175679800Y-67540700D01*
X165707800Y-67500700D02*
X175671800Y-67500700D01*
X165715800Y-67460700D02*
X175663800Y-67460700D01*
X165724800Y-67420700D02*
X175654800Y-67420700D01*
X165733800Y-67380700D02*
X175645800Y-67380700D01*
X165742800Y-67340700D02*
X175636800Y-67340700D01*
X165751800Y-67300700D02*
X175627800Y-67300700D01*
X165761800Y-67260700D02*
X175617800Y-67260700D01*
X165771800Y-67220700D02*
X175607800Y-67220700D01*
X165782800Y-67180700D02*
X175596800Y-67180700D01*
X165792800Y-67140700D02*
X175586800Y-67140700D01*
X165804800Y-67100700D02*
X175574800Y-67100700D01*
X165815800Y-67060700D02*
X175563800Y-67060700D01*
X165827800Y-67020700D02*
X175551800Y-67020700D01*
X165839800Y-66980700D02*
X175539800Y-66980700D01*
X165852800Y-66940700D02*
X175526800Y-66940700D01*
X165865800Y-66900700D02*
X175513800Y-66900700D01*
X165878800Y-66860700D02*
X175500800Y-66860700D01*
X165892800Y-66820700D02*
X175486800Y-66820700D01*
X165906800Y-66780700D02*
X175472800Y-66780700D01*
X165921800Y-66740700D02*
X175457800Y-66740700D01*
X165935800Y-66700700D02*
X175443800Y-66700700D01*
X165951800Y-66660700D02*
X175427800Y-66660700D01*
X165966800Y-66620700D02*
X175412800Y-66620700D01*
X165982800Y-66580700D02*
X175396800Y-66580700D01*
X165999800Y-66540700D02*
X175379800Y-66540700D01*
X166015800Y-66500700D02*
X175363800Y-66500700D01*
X166032800Y-66460700D02*
X175346800Y-66460700D01*
X166050800Y-66420700D02*
X175328800Y-66420700D01*
X166068800Y-66380700D02*
X175310800Y-66380700D01*
X166086800Y-66340700D02*
X175292800Y-66340700D01*
X166105800Y-66300700D02*
X175273800Y-66300700D01*
X166125800Y-66260700D02*
X175253800Y-66260700D01*
X166144800Y-66220700D02*
X175234800Y-66220700D01*
X166164800Y-66180700D02*
X175214800Y-66180700D01*
X166185800Y-66140700D02*
X175193800Y-66140700D01*
X166206800Y-66100700D02*
X175172800Y-66100700D01*
X166227800Y-66060700D02*
X175151800Y-66060700D01*
X166249800Y-66020700D02*
X175129800Y-66020700D01*
X166272800Y-65980700D02*
X169448800Y-65980700D01*
X166294800Y-65940700D02*
X169448800Y-65940700D01*
X166318800Y-65900700D02*
X169448800Y-65900700D01*
X166342800Y-65860700D02*
X169448800Y-65860700D01*
X166366800Y-65820700D02*
X169448800Y-65820700D01*
X166391800Y-65780700D02*
X169448800Y-65780700D01*
X166416800Y-65740700D02*
X169448800Y-65740700D01*
X166442800Y-65700700D02*
X169448800Y-65700700D01*
X166468800Y-65660700D02*
X169448800Y-65660700D01*
X166495800Y-65620700D02*
X169448800Y-65620700D01*
X166523800Y-65580700D02*
X169448800Y-65580700D01*
X166551800Y-65540700D02*
X169448800Y-65540700D01*
X166579800Y-65500700D02*
X169448800Y-65500700D01*
X166609800Y-65460700D02*
X169448800Y-65460700D01*
X166639800Y-65420700D02*
X169448800Y-65420700D01*
X166669800Y-65380700D02*
X169448800Y-65380700D01*
X166700800Y-65340700D02*
X169448800Y-65340700D01*
X166732800Y-65300700D02*
X169448800Y-65300700D01*
X166764800Y-65260700D02*
X169448800Y-65260700D01*
X166797800Y-65220700D02*
X169448800Y-65220700D01*
X166831800Y-65180700D02*
X169448800Y-65180700D01*
X166865800Y-65140700D02*
X169448800Y-65140700D01*
X166900800Y-65100700D02*
X169448800Y-65100700D01*
X166936800Y-65060700D02*
X169448800Y-65060700D01*
X166973800Y-65020700D02*
X169448800Y-65020700D01*
X167010800Y-64980700D02*
X169448800Y-64980700D01*
X167049800Y-64940700D02*
X169448800Y-64940700D01*
X167088800Y-64900700D02*
X169448800Y-64900700D01*
X167128800Y-64860700D02*
X169448800Y-64860700D01*
X167169800Y-64820700D02*
X169448800Y-64820700D01*
X167211800Y-64780700D02*
X169448800Y-64780700D01*
X167253800Y-64740700D02*
X169448800Y-64740700D01*
X167297800Y-64700700D02*
X169448800Y-64700700D01*
X167314800Y-73481346D02*
X168314800Y-73481346D01*
X167342800Y-64660700D02*
X169448800Y-64660700D01*
X167388800Y-64620700D02*
X169448800Y-64620700D01*
X167435800Y-64580700D02*
X169448800Y-64580700D01*
X167483800Y-64540700D02*
X169448800Y-64540700D01*
X167533800Y-64500700D02*
X169448800Y-64500700D01*
X167583800Y-64460700D02*
X169448800Y-64460700D01*
X167635800Y-64420700D02*
X169448800Y-64420700D01*
X167689800Y-64380700D02*
X169448800Y-64380700D01*
X167744800Y-64340700D02*
X169448800Y-64340700D01*
X167800800Y-64300700D02*
X169448800Y-64300700D01*
X167814800Y-73981346D02*
X167814800Y-72981346D01*
X167859800Y-64260700D02*
X169448800Y-64260700D01*
X167919800Y-64220700D02*
X169448800Y-64220700D01*
X167980800Y-64180700D02*
X169448800Y-64180700D01*
X168044800Y-64140700D02*
X169448800Y-64140700D01*
X168110800Y-64100700D02*
X169448800Y-64100700D01*
X168179800Y-64060700D02*
X169448800Y-64060700D01*
X168250800Y-64020700D02*
X169448800Y-64020700D01*
X168324800Y-63980700D02*
X169448800Y-63980700D01*
X168400800Y-63940700D02*
X169448800Y-63940700D01*
X168480800Y-63900700D02*
X169448800Y-63900700D01*
X168564800Y-63860700D02*
X169448800Y-63860700D01*
X168652800Y-63820700D02*
X169448800Y-63820700D01*
X168745800Y-63780700D02*
X169448800Y-63780700D01*
X168843800Y-63740700D02*
X169448800Y-63740700D01*
X168947800Y-63700700D02*
X169448800Y-63700700D01*
X169059800Y-63660700D02*
X169448800Y-63660700D01*
X169179800Y-63620700D02*
X169448800Y-63620700D01*
X169311800Y-63580700D02*
X169448800Y-63580700D01*
X169627800Y-63500700D02*
X171751800Y-63500700D01*
X169827800Y-63460700D02*
X171551800Y-63460700D01*
X170090800Y-63420700D02*
X171288800Y-63420700D01*
X171930800Y-63580700D02*
X172067800Y-63580700D01*
X171930800Y-63620700D02*
X172199800Y-63620700D01*
X171930800Y-63660700D02*
X172319800Y-63660700D01*
X171930800Y-63700700D02*
X172431800Y-63700700D01*
X171930800Y-63740700D02*
X172535800Y-63740700D01*
X171930800Y-63780700D02*
X172633800Y-63780700D01*
X171930800Y-63820700D02*
X172726800Y-63820700D01*
X171930800Y-63860700D02*
X172814800Y-63860700D01*
X171930800Y-63900700D02*
X172898800Y-63900700D01*
X171930800Y-63940700D02*
X172978800Y-63940700D01*
X171930800Y-63980700D02*
X173054800Y-63980700D01*
X171930800Y-64020700D02*
X173128800Y-64020700D01*
X171930800Y-64060700D02*
X173199800Y-64060700D01*
X171930800Y-64100700D02*
X173268800Y-64100700D01*
X171930800Y-64140700D02*
X173334800Y-64140700D01*
X171930800Y-64180700D02*
X173398800Y-64180700D01*
X171930800Y-64220700D02*
X173459800Y-64220700D01*
X171930800Y-64260700D02*
X173519800Y-64260700D01*
X171930800Y-64300700D02*
X173578800Y-64300700D01*
X171930800Y-64340700D02*
X173634800Y-64340700D01*
X171930800Y-64380700D02*
X173689800Y-64380700D01*
X171930800Y-64420700D02*
X173743800Y-64420700D01*
X171930800Y-64460700D02*
X173795800Y-64460700D01*
X171930800Y-64500700D02*
X173845800Y-64500700D01*
X171930800Y-64540700D02*
X173895800Y-64540700D01*
X171930800Y-64580700D02*
X173943800Y-64580700D01*
X171930800Y-64620700D02*
X173990800Y-64620700D01*
X171930800Y-64660700D02*
X174036800Y-64660700D01*
X171930800Y-64700700D02*
X174081800Y-64700700D01*
X171930800Y-64740700D02*
X174125800Y-64740700D01*
X171930800Y-64780700D02*
X174167800Y-64780700D01*
X171930800Y-64820700D02*
X174209800Y-64820700D01*
X171930800Y-64860700D02*
X174250800Y-64860700D01*
X171930800Y-64900700D02*
X174290800Y-64900700D01*
X171930800Y-64940700D02*
X174329800Y-64940700D01*
X171930800Y-64980700D02*
X174368800Y-64980700D01*
X171930800Y-65020700D02*
X174405800Y-65020700D01*
X171930800Y-65060700D02*
X174442800Y-65060700D01*
X171930800Y-65100700D02*
X174478800Y-65100700D01*
X171930800Y-65140700D02*
X174513800Y-65140700D01*
X171930800Y-65180700D02*
X174547800Y-65180700D01*
X171930800Y-65220700D02*
X174581800Y-65220700D01*
X171930800Y-65260700D02*
X174614800Y-65260700D01*
X171930800Y-65300700D02*
X174646800Y-65300700D01*
X171930800Y-65340700D02*
X174678800Y-65340700D01*
X171930800Y-65380700D02*
X174709800Y-65380700D01*
X171930800Y-65420700D02*
X174739800Y-65420700D01*
X171930800Y-65460700D02*
X174769800Y-65460700D01*
X171930800Y-65500700D02*
X174799800Y-65500700D01*
X171930800Y-65540700D02*
X174827800Y-65540700D01*
X171930800Y-65580700D02*
X174855800Y-65580700D01*
X171930800Y-65620700D02*
X174883800Y-65620700D01*
X171930800Y-65660700D02*
X174910800Y-65660700D01*
X171930800Y-65700700D02*
X174936800Y-65700700D01*
X171930800Y-65740700D02*
X174962800Y-65740700D01*
X171930800Y-65780700D02*
X174987800Y-65780700D01*
X171930800Y-65820700D02*
X175012800Y-65820700D01*
X171930800Y-65860700D02*
X175036800Y-65860700D01*
X171930800Y-65900700D02*
X175060800Y-65900700D01*
X171930800Y-65940700D02*
X175084800Y-65940700D01*
X171930800Y-65980700D02*
X175106800Y-65980700D01*
X169429800Y-73464240D02*
G75*
G02*
X171949800Y-73464240I1260000J4962540D01*
G01*
D13*
%TO.C,U6*%
X149687300Y-74059100D02*
X178197300Y-74059100D01*
X149687300Y-125009100D02*
X149687300Y-74059100D01*
X149687300Y-125009100D02*
X149687300Y-74059100D01*
X155137300Y-74059100D02*
X149687300Y-74059100D01*
X160417300Y-125009100D02*
X149687300Y-125009100D01*
X167128300Y-125009100D02*
X160417300Y-125009100D01*
X172827300Y-74059100D02*
X155137300Y-74059100D01*
X178197300Y-74059100D02*
X172827300Y-74059100D01*
X178197300Y-74059100D02*
X178197300Y-125009100D01*
X178197300Y-74059100D02*
X178197300Y-125009100D01*
X178197300Y-125009100D02*
X149687300Y-125009100D01*
X178197300Y-125009100D02*
X167128300Y-125009100D01*
D14*
X178867300Y-115049100D02*
G75*
G02*
X178667300Y-115049100I-100000J0D01*
G01*
X178667300Y-115049100D02*
G75*
G02*
X178867300Y-115049100I100000J0D01*
G01*
D13*
%TO.C,U8*%
X119132300Y-74059100D02*
X147642300Y-74059100D01*
X119132300Y-125009100D02*
X119132300Y-74059100D01*
X119132300Y-125009100D02*
X119132300Y-74059100D01*
X124582300Y-74059100D02*
X119132300Y-74059100D01*
X129862300Y-125009100D02*
X119132300Y-125009100D01*
X136573300Y-125009100D02*
X129862300Y-125009100D01*
X142272300Y-74059100D02*
X124582300Y-74059100D01*
X147642300Y-74059100D02*
X142272300Y-74059100D01*
X147642300Y-74059100D02*
X147642300Y-125009100D01*
X147642300Y-74059100D02*
X147642300Y-125009100D01*
X147642300Y-125009100D02*
X119132300Y-125009100D01*
X147642300Y-125009100D02*
X136573300Y-125009100D01*
D14*
X148312300Y-115049100D02*
G75*
G02*
X148112300Y-115049100I-100000J0D01*
G01*
X148112300Y-115049100D02*
G75*
G02*
X148312300Y-115049100I100000J0D01*
G01*
D12*
%TO.C,J14*%
X102069800Y-105414100D02*
X102069800Y-107734100D01*
X102069800Y-108334100D02*
X102069800Y-120654100D01*
X102689800Y-105414100D02*
X102689800Y-120654100D01*
X104189800Y-105414100D02*
X104189800Y-120654100D01*
X105422800Y-111894100D02*
X105379800Y-111850100D01*
X105422800Y-116894100D02*
X105379800Y-116850100D01*
X105649800Y-111667100D02*
X105606800Y-111623100D01*
X105649800Y-116667100D02*
X105606800Y-116623100D01*
X107973800Y-114445100D02*
X107929800Y-114401100D01*
X107973800Y-119445100D02*
X107929800Y-119401100D01*
X108200800Y-114218100D02*
X108156800Y-114174100D01*
X108200800Y-119218100D02*
X108156800Y-119174100D01*
X109089800Y-105414100D02*
X109089800Y-120654100D01*
X112109800Y-105414100D02*
X102069800Y-105414100D01*
X112109800Y-105414100D02*
X112109800Y-120654100D01*
X112109800Y-120654100D02*
X102069800Y-120654100D01*
X105009800Y-108574100D02*
G75*
G02*
X105009594Y-107494779I1780013J540000D01*
G01*
X106249800Y-106254100D02*
G75*
G02*
X107329121Y-106253894I540000J-1780000D01*
G01*
X107329800Y-109814100D02*
G75*
G02*
X106250479Y-109814306I-540000J1780013D01*
G01*
X108569800Y-107494100D02*
G75*
G02*
X108570006Y-108573421I-1780000J-540000D01*
G01*
X108649800Y-113034100D02*
G75*
G02*
X104929800Y-113034100I-1860000J0D01*
G01*
X104929800Y-113034100D02*
G75*
G02*
X108649800Y-113034100I1860000J0D01*
G01*
X108649800Y-118034100D02*
G75*
G02*
X104929800Y-118034100I-1860000J0D01*
G01*
X104929800Y-118034100D02*
G75*
G02*
X108649800Y-118034100I1860000J0D01*
G01*
X102069800Y-108034100D02*
X101459800Y-108474100D01*
X101459800Y-107594100D01*
X102069800Y-108034100D01*
G36*
X102069800Y-108034100D02*
G01*
X101459800Y-108474100D01*
X101459800Y-107594100D01*
X102069800Y-108034100D01*
G37*
%TO.C,J7*%
X145469800Y-64213800D02*
X145469800Y-54173800D01*
X146678800Y-60077800D02*
X146722800Y-60033800D01*
X146905800Y-60304800D02*
X146949800Y-60260800D01*
X149229800Y-57526800D02*
X149273800Y-57483800D01*
X149456800Y-57753800D02*
X149500800Y-57710800D01*
X152789800Y-54173800D02*
X145469800Y-54173800D01*
X155709800Y-54173800D02*
X153389800Y-54173800D01*
X155709800Y-54793800D02*
X145469800Y-54793800D01*
X155709800Y-56293800D02*
X145469800Y-56293800D01*
X155709800Y-61193800D02*
X145469800Y-61193800D01*
X155709800Y-64213800D02*
X145469800Y-64213800D01*
X155709800Y-64213800D02*
X155709800Y-54173800D01*
X151309800Y-59433800D02*
G75*
G02*
X151309594Y-58354479I1780013J540000D01*
G01*
X152549800Y-57113800D02*
G75*
G02*
X153629121Y-57113594I540000J-1780013D01*
G01*
X153629800Y-60673800D02*
G75*
G02*
X152550479Y-60674006I-540000J1780000D01*
G01*
X154869800Y-58353800D02*
G75*
G02*
X154870006Y-59433121I-1780000J-540000D01*
G01*
X149949800Y-58893800D02*
G75*
G02*
X146229800Y-58893800I-1860000J0D01*
G01*
X146229800Y-58893800D02*
G75*
G02*
X149949800Y-58893800I1860000J0D01*
G01*
X153089800Y-54173800D02*
X152649800Y-53563800D01*
X153529800Y-53563800D01*
X153089800Y-54173800D01*
G36*
X153089800Y-54173800D02*
G01*
X152649800Y-53563800D01*
X153529800Y-53563800D01*
X153089800Y-54173800D01*
G37*
%TO.C,J11*%
X111769800Y-127814100D02*
X111769800Y-137854100D01*
X111769800Y-127814100D02*
X127009800Y-127814100D01*
X111769800Y-130834100D02*
X127009800Y-130834100D01*
X111769800Y-135734100D02*
X127009800Y-135734100D01*
X111769800Y-137234100D02*
X127009800Y-137234100D01*
X111769800Y-137854100D02*
X114089800Y-137854100D01*
X114689800Y-137854100D02*
X127009800Y-137854100D01*
X118022800Y-134274100D02*
X117978800Y-134317100D01*
X118249800Y-134501100D02*
X118205800Y-134544100D01*
X120573800Y-131723100D02*
X120529800Y-131767100D01*
X120800800Y-131950100D02*
X120756800Y-131994100D01*
X123022800Y-134274100D02*
X122978800Y-134317100D01*
X123249800Y-134501100D02*
X123205800Y-134544100D01*
X125573800Y-131723100D02*
X125529800Y-131767100D01*
X125800800Y-131950100D02*
X125756800Y-131994100D01*
X127009800Y-127814100D02*
X127009800Y-137854100D01*
X112609800Y-133674100D02*
G75*
G02*
X112609594Y-132594779I1780000J540000D01*
G01*
X113849800Y-131354100D02*
G75*
G02*
X114929121Y-131353894I540000J-1780000D01*
G01*
X114929800Y-134914100D02*
G75*
G02*
X113850479Y-134914306I-540000J1780013D01*
G01*
X116169800Y-132594100D02*
G75*
G02*
X116170006Y-133673421I-1780013J-540000D01*
G01*
X121249800Y-133134100D02*
G75*
G02*
X117529800Y-133134100I-1860000J0D01*
G01*
X117529800Y-133134100D02*
G75*
G02*
X121249800Y-133134100I1860000J0D01*
G01*
X126249800Y-133134100D02*
G75*
G02*
X122529800Y-133134100I-1860000J0D01*
G01*
X122529800Y-133134100D02*
G75*
G02*
X126249800Y-133134100I1860000J0D01*
G01*
X114829800Y-138464100D02*
X113949800Y-138464100D01*
X114389800Y-137854100D01*
X114829800Y-138464100D01*
G36*
X114829800Y-138464100D02*
G01*
X113949800Y-138464100D01*
X114389800Y-137854100D01*
X114829800Y-138464100D01*
G37*
%TO.C,J9*%
X102069800Y-65914100D02*
X102069800Y-68234100D01*
X102069800Y-68834100D02*
X102069800Y-86154100D01*
X102689800Y-65914100D02*
X102689800Y-86154100D01*
X104189800Y-65914100D02*
X104189800Y-86154100D01*
X105422800Y-72394100D02*
X105379800Y-72350100D01*
X105422800Y-77394100D02*
X105379800Y-77350100D01*
X105422800Y-82394100D02*
X105379800Y-82350100D01*
X105649800Y-72167100D02*
X105606800Y-72123100D01*
X105649800Y-77167100D02*
X105606800Y-77123100D01*
X105649800Y-82167100D02*
X105606800Y-82123100D01*
X107973800Y-74945100D02*
X107929800Y-74901100D01*
X107973800Y-79945100D02*
X107929800Y-79901100D01*
X107973800Y-84945100D02*
X107929800Y-84901100D01*
X108200800Y-74718100D02*
X108156800Y-74674100D01*
X108200800Y-79718100D02*
X108156800Y-79674100D01*
X108200800Y-84718100D02*
X108156800Y-84674100D01*
X109089800Y-65914100D02*
X109089800Y-86154100D01*
X112109800Y-65914100D02*
X102069800Y-65914100D01*
X112109800Y-65914100D02*
X112109800Y-86154100D01*
X112109800Y-86154100D02*
X102069800Y-86154100D01*
X105009800Y-69074100D02*
G75*
G02*
X105009594Y-67994779I1780013J540000D01*
G01*
X106249800Y-66754100D02*
G75*
G02*
X107329121Y-66753894I540000J-1780000D01*
G01*
X107329800Y-70314100D02*
G75*
G02*
X106250479Y-70314306I-540000J1780013D01*
G01*
X108569800Y-67994100D02*
G75*
G02*
X108570006Y-69073421I-1780000J-540000D01*
G01*
X108649800Y-73534100D02*
G75*
G02*
X104929800Y-73534100I-1860000J0D01*
G01*
X104929800Y-73534100D02*
G75*
G02*
X108649800Y-73534100I1860000J0D01*
G01*
X108649800Y-78534100D02*
G75*
G02*
X104929800Y-78534100I-1860000J0D01*
G01*
X104929800Y-78534100D02*
G75*
G02*
X108649800Y-78534100I1860000J0D01*
G01*
X108649800Y-83534100D02*
G75*
G02*
X104929800Y-83534100I-1860000J0D01*
G01*
X104929800Y-83534100D02*
G75*
G02*
X108649800Y-83534100I1860000J0D01*
G01*
X102069800Y-68534100D02*
X101459800Y-68974100D01*
X101459800Y-68094100D01*
X102069800Y-68534100D01*
G36*
X102069800Y-68534100D02*
G01*
X101459800Y-68974100D01*
X101459800Y-68094100D01*
X102069800Y-68534100D01*
G37*
%TO.C,J13*%
X140769800Y-127814100D02*
X140769800Y-137854100D01*
X140769800Y-127814100D02*
X156009800Y-127814100D01*
X140769800Y-130834100D02*
X156009800Y-130834100D01*
X140769800Y-135734100D02*
X156009800Y-135734100D01*
X140769800Y-137234100D02*
X156009800Y-137234100D01*
X140769800Y-137854100D02*
X143089800Y-137854100D01*
X143689800Y-137854100D02*
X156009800Y-137854100D01*
X147022800Y-134274100D02*
X146978800Y-134317100D01*
X147249800Y-134501100D02*
X147205800Y-134544100D01*
X149573800Y-131723100D02*
X149529800Y-131767100D01*
X149800800Y-131950100D02*
X149756800Y-131994100D01*
X152022800Y-134274100D02*
X151978800Y-134317100D01*
X152249800Y-134501100D02*
X152205800Y-134544100D01*
X154573800Y-131723100D02*
X154529800Y-131767100D01*
X154800800Y-131950100D02*
X154756800Y-131994100D01*
X156009800Y-127814100D02*
X156009800Y-137854100D01*
X141609800Y-133674100D02*
G75*
G02*
X141609594Y-132594779I1780000J540000D01*
G01*
X142849800Y-131354100D02*
G75*
G02*
X143929121Y-131353894I540000J-1780000D01*
G01*
X143929800Y-134914100D02*
G75*
G02*
X142850479Y-134914306I-540000J1780013D01*
G01*
X145169800Y-132594100D02*
G75*
G02*
X145170006Y-133673421I-1780013J-540000D01*
G01*
X150249800Y-133134100D02*
G75*
G02*
X146529800Y-133134100I-1860000J0D01*
G01*
X146529800Y-133134100D02*
G75*
G02*
X150249800Y-133134100I1860000J0D01*
G01*
X155249800Y-133134100D02*
G75*
G02*
X151529800Y-133134100I-1860000J0D01*
G01*
X151529800Y-133134100D02*
G75*
G02*
X155249800Y-133134100I1860000J0D01*
G01*
X143829800Y-138464100D02*
X142949800Y-138464100D01*
X143389800Y-137854100D01*
X143829800Y-138464100D01*
G36*
X143829800Y-138464100D02*
G01*
X142949800Y-138464100D01*
X143389800Y-137854100D01*
X143829800Y-138464100D01*
G37*
%TO.C,J12*%
X169769800Y-127814100D02*
X169769800Y-137854100D01*
X169769800Y-127814100D02*
X185009800Y-127814100D01*
X169769800Y-130834100D02*
X185009800Y-130834100D01*
X169769800Y-135734100D02*
X185009800Y-135734100D01*
X169769800Y-137234100D02*
X185009800Y-137234100D01*
X169769800Y-137854100D02*
X172089800Y-137854100D01*
X172689800Y-137854100D02*
X185009800Y-137854100D01*
X176022800Y-134274100D02*
X175978800Y-134317100D01*
X176249800Y-134501100D02*
X176205800Y-134544100D01*
X178573800Y-131723100D02*
X178529800Y-131767100D01*
X178800800Y-131950100D02*
X178756800Y-131994100D01*
X181022800Y-134274100D02*
X180978800Y-134317100D01*
X181249800Y-134501100D02*
X181205800Y-134544100D01*
X183573800Y-131723100D02*
X183529800Y-131767100D01*
X183800800Y-131950100D02*
X183756800Y-131994100D01*
X185009800Y-127814100D02*
X185009800Y-137854100D01*
X170609800Y-133674100D02*
G75*
G02*
X170609594Y-132594779I1780000J540000D01*
G01*
X171849800Y-131354100D02*
G75*
G02*
X172929121Y-131353894I540000J-1780000D01*
G01*
X172929800Y-134914100D02*
G75*
G02*
X171850479Y-134914306I-540000J1780013D01*
G01*
X174169800Y-132594100D02*
G75*
G02*
X174170006Y-133673421I-1780013J-540000D01*
G01*
X179249800Y-133134100D02*
G75*
G02*
X175529800Y-133134100I-1860000J0D01*
G01*
X175529800Y-133134100D02*
G75*
G02*
X179249800Y-133134100I1860000J0D01*
G01*
X184249800Y-133134100D02*
G75*
G02*
X180529800Y-133134100I-1860000J0D01*
G01*
X180529800Y-133134100D02*
G75*
G02*
X184249800Y-133134100I1860000J0D01*
G01*
X172829800Y-138464100D02*
X171949800Y-138464100D01*
X172389800Y-137854100D01*
X172829800Y-138464100D01*
G36*
X172829800Y-138464100D02*
G01*
X171949800Y-138464100D01*
X172389800Y-137854100D01*
X172829800Y-138464100D01*
G37*
%TD*%
M02*
