%TF.GenerationSoftware,KiCad,Pcbnew,9.0.0*%
%TF.CreationDate,2025-03-24T12:51:37-05:00*%
%TF.ProjectId,DIIN-proyecto,4449494e-2d70-4726-9f79-6563746f2e6b,rev?*%
%TF.SameCoordinates,Original*%
%TF.FileFunction,Copper,L1,Top*%
%TF.FilePolarity,Positive*%
%FSLAX46Y46*%
G04 Gerber Fmt 4.6, Leading zero omitted, Abs format (unit mm)*
G04 Created by KiCad (PCBNEW 9.0.0) date 2025-03-24 12:51:37*
%MOMM*%
%LPD*%
G01*
G04 APERTURE LIST*
G04 Aperture macros list*
%AMRoundRect*
0 Rectangle with rounded corners*
0 $1 Rounding radius*
0 $2 $3 $4 $5 $6 $7 $8 $9 X,Y pos of 4 corners*
0 Add a 4 corners polygon primitive as box body*
4,1,4,$2,$3,$4,$5,$6,$7,$8,$9,$2,$3,0*
0 Add four circle primitives for the rounded corners*
1,1,$1+$1,$2,$3*
1,1,$1+$1,$4,$5*
1,1,$1+$1,$6,$7*
1,1,$1+$1,$8,$9*
0 Add four rect primitives between the rounded corners*
20,1,$1+$1,$2,$3,$4,$5,0*
20,1,$1+$1,$4,$5,$6,$7,0*
20,1,$1+$1,$6,$7,$8,$9,0*
20,1,$1+$1,$8,$9,$2,$3,0*%
G04 Aperture macros list end*
%TA.AperFunction,ComponentPad*%
%ADD10R,1.700000X1.700000*%
%TD*%
%TA.AperFunction,ComponentPad*%
%ADD11O,1.700000X1.700000*%
%TD*%
%TA.AperFunction,ComponentPad*%
%ADD12C,1.600000*%
%TD*%
%TA.AperFunction,ComponentPad*%
%ADD13R,2.000000X2.000000*%
%TD*%
%TA.AperFunction,ComponentPad*%
%ADD14C,2.000000*%
%TD*%
%TA.AperFunction,ComponentPad*%
%ADD15RoundRect,0.250000X-1.050000X1.050000X-1.050000X-1.050000X1.050000X-1.050000X1.050000X1.050000X0*%
%TD*%
%TA.AperFunction,ComponentPad*%
%ADD16C,2.600000*%
%TD*%
%TA.AperFunction,ComponentPad*%
%ADD17RoundRect,0.250000X1.050000X1.050000X-1.050000X1.050000X-1.050000X-1.050000X1.050000X-1.050000X0*%
%TD*%
%TA.AperFunction,ComponentPad*%
%ADD18RoundRect,0.250000X-1.050000X-1.050000X1.050000X-1.050000X1.050000X1.050000X-1.050000X1.050000X0*%
%TD*%
%TA.AperFunction,ViaPad*%
%ADD19C,0.600000*%
%TD*%
%TA.AperFunction,Conductor*%
%ADD20C,0.200000*%
%TD*%
%TA.AperFunction,Conductor*%
%ADD21C,1.000000*%
%TD*%
G04 APERTURE END LIST*
D10*
%TO.P,J1,1,Pin_1*%
%TO.N,+3.3V*%
X186049800Y-89174100D03*
D11*
%TO.P,J1,2,Pin_2*%
%TO.N,GND*%
X188589800Y-89174100D03*
%TO.P,J1,3,Pin_3*%
%TO.N,SOIC*%
X186049800Y-91714100D03*
%TO.P,J1,4,Pin_4*%
%TO.N,SOID*%
X188589800Y-91714100D03*
%TO.P,J1,5,Pin_5*%
%TO.N,VSYNC*%
X186049800Y-94254100D03*
%TO.P,J1,6,Pin_6*%
%TO.N,HREF*%
X188589800Y-94254100D03*
%TO.P,J1,7,Pin_7*%
%TO.N,PCLK*%
X186049800Y-96794100D03*
%TO.P,J1,8,Pin_8*%
%TO.N,XCLK*%
X188589800Y-96794100D03*
%TO.P,J1,9,Pin_9*%
%TO.N,D7*%
X186049800Y-99334100D03*
%TO.P,J1,10,Pin_10*%
%TO.N,D6*%
X188589800Y-99334100D03*
%TO.P,J1,11,Pin_11*%
%TO.N,D5*%
X186049800Y-101874100D03*
%TO.P,J1,12,Pin_12*%
%TO.N,D4*%
X188589800Y-101874100D03*
%TO.P,J1,13,Pin_13*%
%TO.N,D3*%
X186049800Y-104414100D03*
%TO.P,J1,14,Pin_14*%
%TO.N,D2*%
X188589800Y-104414100D03*
%TO.P,J1,15,Pin_15*%
%TO.N,D1*%
X186049800Y-106954100D03*
%TO.P,J1,16,Pin_16*%
%TO.N,D0*%
X188589800Y-106954100D03*
%TO.P,J1,17,Pin_17*%
%TO.N,RESET*%
X186049800Y-109494100D03*
%TO.P,J1,18,Pin_18*%
%TO.N,PWDN*%
X188589800Y-109494100D03*
%TD*%
D12*
%TO.P,C6,1*%
%TO.N,+3.3V*%
X158089800Y-71134100D03*
%TO.P,C6,2*%
%TO.N,GND*%
X158089800Y-66134100D03*
%TD*%
%TO.P,C4,1*%
%TO.N,+3.3V*%
X140389800Y-70334100D03*
%TO.P,C4,2*%
%TO.N,GND*%
X140389800Y-65334100D03*
%TD*%
D13*
%TO.P,C3,1*%
%TO.N,+3.3V*%
X128552300Y-71451700D03*
D14*
%TO.P,C3,2*%
%TO.N,GND*%
X128552300Y-63951700D03*
%TD*%
D13*
%TO.P,C5,1*%
%TO.N,+3.3V*%
X170689800Y-72251700D03*
D14*
%TO.P,C5,2*%
%TO.N,GND*%
X170689800Y-64751700D03*
%TD*%
D13*
%TO.P,U6,1,3V3*%
%TO.N,+3.3V*%
X176617300Y-115049100D03*
D14*
%TO.P,U6,2,GND*%
%TO.N,GND*%
X176617300Y-112509100D03*
%TO.P,U6,3,D15*%
%TO.N,D7*%
X176617300Y-109969100D03*
%TO.P,U6,4,D2*%
%TO.N,D5*%
X176617300Y-107429100D03*
%TO.P,U6,5,D4*%
%TO.N,D6*%
X176617300Y-104889100D03*
%TO.P,U6,6,RX2*%
%TO.N,RX*%
X176617300Y-102349100D03*
%TO.P,U6,7,TX2*%
%TO.N,TX*%
X176617300Y-99809100D03*
%TO.P,U6,8,D5*%
%TO.N,D4*%
X176617300Y-97269100D03*
%TO.P,U6,9,D18*%
%TO.N,unconnected-(U6-D18-Pad9)*%
X176617300Y-94729100D03*
%TO.P,U6,10,D19*%
%TO.N,D3*%
X176617300Y-92189100D03*
%TO.P,U6,11,D21*%
%TO.N,SOID*%
X176617300Y-89649100D03*
%TO.P,U6,12,RX0*%
%TO.N,unconnected-(U6-RX0-Pad12)*%
X176617300Y-87109100D03*
%TO.P,U6,13,TX0*%
%TO.N,unconnected-(U6-TX0-Pad13)*%
X176617300Y-84569100D03*
%TO.P,U6,14,D22*%
%TO.N,SOIC*%
X176617300Y-82029100D03*
%TO.P,U6,15,D23*%
%TO.N,D2*%
X176617300Y-79489100D03*
%TO.P,U6,16,EN*%
%TO.N,unconnected-(U6-EN-Pad16)*%
X151217300Y-79489100D03*
%TO.P,U6,17,VP*%
%TO.N,unconnected-(U6-VP-Pad17)*%
X151217300Y-82029100D03*
%TO.P,U6,18,VN*%
%TO.N,unconnected-(U6-VN-Pad18)*%
X151217300Y-84569100D03*
%TO.P,U6,19,D34*%
%TO.N,unconnected-(U6-D34-Pad19)*%
X151217300Y-87109100D03*
%TO.P,U6,20,D35*%
%TO.N,unconnected-(U6-D35-Pad20)*%
X151217300Y-89649100D03*
%TO.P,U6,21,D32*%
%TO.N,VSYNC*%
X151217300Y-92189100D03*
%TO.P,U6,22,D33*%
%TO.N,HREF*%
X151217300Y-94729100D03*
%TO.P,U6,23,D25*%
%TO.N,D0*%
X151217300Y-97269100D03*
%TO.P,U6,24,D26*%
%TO.N,XCLK*%
X151217300Y-99809100D03*
%TO.P,U6,25,D27*%
%TO.N,PCLK*%
X151217300Y-102349100D03*
%TO.P,U6,26,D14*%
%TO.N,unconnected-(U6-D14-Pad26)*%
X151217300Y-104889100D03*
%TO.P,U6,27,D12*%
%TO.N,unconnected-(U6-D12-Pad27)*%
X151217300Y-107429100D03*
%TO.P,U6,28,D13*%
%TO.N,D1*%
X151217300Y-109969100D03*
%TO.P,U6,29,GND*%
%TO.N,GND*%
X151217300Y-112509100D03*
%TO.P,U6,30,VIN*%
%TO.N,unconnected-(U6-VIN-Pad30)*%
X151217300Y-115049100D03*
%TD*%
D13*
%TO.P,U8,1,3V3*%
%TO.N,+3.3V*%
X146062300Y-115049100D03*
D14*
%TO.P,U8,2,GND*%
%TO.N,GND*%
X146062300Y-112509100D03*
%TO.P,U8,3,D15*%
%TO.N,FM1*%
X146062300Y-109969100D03*
%TO.P,U8,4,D2*%
%TO.N,FM2*%
X146062300Y-107429100D03*
%TO.P,U8,5,D4*%
%TO.N,FM3*%
X146062300Y-104889100D03*
%TO.P,U8,6,RX2*%
%TO.N,TX*%
X146062300Y-102349100D03*
%TO.P,U8,7,TX2*%
%TO.N,RX*%
X146062300Y-99809100D03*
%TO.P,U8,8,D5*%
%TO.N,FM4*%
X146062300Y-97269100D03*
%TO.P,U8,9,D18*%
%TO.N,IN1*%
X146062300Y-94729100D03*
%TO.P,U8,10,D19*%
%TO.N,IN1_N*%
X146062300Y-92189100D03*
%TO.P,U8,11,D21*%
%TO.N,PWM1*%
X146062300Y-89649100D03*
%TO.P,U8,12,RX0*%
%TO.N,unconnected-(U8-RX0-Pad12)*%
X146062300Y-87109100D03*
%TO.P,U8,13,TX0*%
%TO.N,unconnected-(U8-TX0-Pad13)*%
X146062300Y-84569100D03*
%TO.P,U8,14,D22*%
%TO.N,IN2*%
X146062300Y-82029100D03*
%TO.P,U8,15,D23*%
%TO.N,IN2_N*%
X146062300Y-79489100D03*
%TO.P,U8,16,EN*%
%TO.N,unconnected-(U8-EN-Pad16)*%
X120662300Y-79489100D03*
%TO.P,U8,17,VP*%
%TO.N,unconnected-(U8-VP-Pad17)*%
X120662300Y-82029100D03*
%TO.P,U8,18,VN*%
%TO.N,unconnected-(U8-VN-Pad18)*%
X120662300Y-84569100D03*
%TO.P,U8,19,D34*%
%TO.N,unconnected-(U8-D34-Pad19)*%
X120662300Y-87109100D03*
%TO.P,U8,20,D35*%
%TO.N,unconnected-(U8-D35-Pad20)*%
X120662300Y-89649100D03*
%TO.P,U8,21,D32*%
%TO.N,unconnected-(U8-D32-Pad21)*%
X120662300Y-92189100D03*
%TO.P,U8,22,D33*%
%TO.N,unconnected-(U8-D33-Pad22)*%
X120662300Y-94729100D03*
%TO.P,U8,23,D25*%
%TO.N,unconnected-(U8-D25-Pad23)*%
X120662300Y-97269100D03*
%TO.P,U8,24,D26*%
%TO.N,SCK*%
X120662300Y-99809100D03*
%TO.P,U8,25,D27*%
%TO.N,SD*%
X120662300Y-102349100D03*
%TO.P,U8,26,D14*%
%TO.N,DHT*%
X120662300Y-104889100D03*
%TO.P,U8,27,D12*%
%TO.N,PWM2*%
X120662300Y-107429100D03*
%TO.P,U8,28,D13*%
%TO.N,WS*%
X120662300Y-109969100D03*
%TO.P,U8,29,GND*%
%TO.N,GND*%
X120662300Y-112509100D03*
%TO.P,U8,30,VIN*%
%TO.N,unconnected-(U8-VIN-Pad30)*%
X120662300Y-115049100D03*
%TD*%
D15*
%TO.P,J14,1,Pin_1*%
%TO.N,SCK*%
X106789800Y-108034100D03*
D16*
%TO.P,J14,2,Pin_2*%
%TO.N,WS*%
X106789800Y-113034100D03*
%TO.P,J14,3,Pin_3*%
%TO.N,SD*%
X106789800Y-118034100D03*
%TD*%
D17*
%TO.P,J7,1,Pin_1*%
%TO.N,+3.3V*%
X153089800Y-58893800D03*
D16*
%TO.P,J7,2,Pin_2*%
%TO.N,GND*%
X148089800Y-58893800D03*
%TD*%
D18*
%TO.P,J11,1,Pin_1*%
%TO.N,+3.3V*%
X114389800Y-133134100D03*
D16*
%TO.P,J11,2,Pin_2*%
%TO.N,DHT*%
X119389800Y-133134100D03*
%TO.P,J11,3,Pin_3*%
%TO.N,GND*%
X124389800Y-133134100D03*
%TD*%
D15*
%TO.P,J9,1,Pin_1*%
%TO.N,FM1*%
X106789800Y-68534100D03*
D16*
%TO.P,J9,2,Pin_2*%
%TO.N,FM2*%
X106789800Y-73534100D03*
%TO.P,J9,3,Pin_3*%
%TO.N,FM3*%
X106789800Y-78534100D03*
%TO.P,J9,4,Pin_4*%
%TO.N,FM4*%
X106789800Y-83534100D03*
%TD*%
D18*
%TO.P,J13,1,Pin_1*%
%TO.N,IN2*%
X143389800Y-133134100D03*
D16*
%TO.P,J13,2,Pin_2*%
%TO.N,IN2_N*%
X148389800Y-133134100D03*
%TO.P,J13,3,Pin_3*%
%TO.N,PWM2*%
X153389800Y-133134100D03*
%TD*%
D18*
%TO.P,J12,1,Pin_1*%
%TO.N,IN1*%
X172389800Y-133134100D03*
D16*
%TO.P,J12,2,Pin_2*%
%TO.N,IN1_N*%
X177389800Y-133134100D03*
%TO.P,J12,3,Pin_3*%
%TO.N,PWM1*%
X182389800Y-133134100D03*
%TD*%
D19*
%TO.N,TX*%
X146983132Y-119564681D03*
X156803600Y-115765500D03*
X156803600Y-99809100D03*
%TO.N,RX*%
X153298000Y-109398300D03*
X149212300Y-101653300D03*
%TO.N,SD*%
X113191100Y-118034100D03*
%TO.N,PWM2*%
X124858200Y-130564800D03*
%TO.N,IN2_N*%
X150810200Y-133134100D03*
%TO.N,IN1*%
X172389800Y-126271900D03*
X147179300Y-121333600D03*
%TO.N,IN1_N*%
X148202100Y-129861000D03*
%TO.N,PWM1*%
X150181000Y-130575100D03*
%TO.N,FM3*%
X119252200Y-77492300D03*
X123147800Y-104889100D03*
%TO.N,FM1*%
X124170700Y-72267800D03*
X124170700Y-109969100D03*
%TO.N,FM2*%
X123193300Y-77212800D03*
X123556000Y-107472700D03*
%TO.N,FM4*%
X144668800Y-83715500D03*
%TO.N,VSYNC*%
X174709416Y-91795584D03*
%TO.N,D0*%
X156411400Y-116564700D03*
%TO.N,D3*%
X181491900Y-104134700D03*
%TO.N,XCLK*%
X156857300Y-117283600D03*
X189805800Y-117283600D03*
%TO.N,HREF*%
X189743200Y-81285400D03*
%TO.N,SOIC*%
X183721700Y-82029100D03*
%TO.N,PCLK*%
X154464600Y-119111500D03*
X190818600Y-119111500D03*
X190818600Y-95601500D03*
%TO.N,D2*%
X182201300Y-103115300D03*
%TO.N,D1*%
X170751800Y-110000000D03*
%TD*%
D20*
%TO.N,VSYNC*%
X151217300Y-92189100D02*
X174315900Y-92189100D01*
X174315900Y-92189100D02*
X174709416Y-91795584D01*
D21*
%TO.N,+3.3V*%
X152179054Y-117360531D02*
X145790131Y-117360531D01*
X154490485Y-115049100D02*
X152179054Y-117360531D01*
X145790131Y-117360531D02*
X144760600Y-116331000D01*
X176617300Y-115049100D02*
X154490485Y-115049100D01*
D20*
%TO.N,TX*%
X152844806Y-119117694D02*
X156197000Y-115765500D01*
X156197000Y-115765500D02*
X156803600Y-115765500D01*
X147430119Y-119117694D02*
X152844806Y-119117694D01*
X146983132Y-119564681D02*
X147430119Y-119117694D01*
X176617300Y-99809100D02*
X156803600Y-99809100D01*
%TO.N,RX*%
X169568100Y-109398300D02*
X153298000Y-109398300D01*
X176617300Y-102349100D02*
X169568100Y-109398300D01*
X147368100Y-99809100D02*
X146062300Y-99809100D01*
X149212300Y-101653300D02*
X147368100Y-99809100D01*
%TO.N,SCK*%
X112437300Y-108034100D02*
X120662300Y-99809100D01*
X106789800Y-108034100D02*
X112437300Y-108034100D01*
%TO.N,SD*%
X106789800Y-118034100D02*
X113191100Y-118034100D01*
%TO.N,WS*%
X109854800Y-109969100D02*
X120662300Y-109969100D01*
X106789800Y-113034100D02*
X109854800Y-109969100D01*
%TO.N,PWM2*%
X148611700Y-130564800D02*
X124858200Y-130564800D01*
X149580800Y-131533900D02*
X148611700Y-130564800D01*
X151789600Y-131533900D02*
X149580800Y-131533900D01*
X153389800Y-133134100D02*
X151789600Y-131533900D01*
%TO.N,IN2_N*%
X148389800Y-133134100D02*
X150810200Y-133134100D01*
%TO.N,IN1*%
X152008500Y-126271900D02*
X172389800Y-126271900D01*
X147179300Y-121442700D02*
X152008500Y-126271900D01*
X147179300Y-121333600D02*
X147179300Y-121442700D01*
%TO.N,IN1_N*%
X174116700Y-129861000D02*
X148202100Y-129861000D01*
X177389800Y-133134100D02*
X174116700Y-129861000D01*
%TO.N,PWM1*%
X153096000Y-130575100D02*
X150181000Y-130575100D01*
X157282600Y-134761700D02*
X153096000Y-130575100D01*
X180762200Y-134761700D02*
X157282600Y-134761700D01*
X182389800Y-133134100D02*
X180762200Y-134761700D01*
%TO.N,FM3*%
X146062300Y-104889100D02*
X123147800Y-104889100D01*
X107831600Y-77492300D02*
X119252200Y-77492300D01*
X106789800Y-78534100D02*
X107831600Y-77492300D01*
%TO.N,FM1*%
X146062300Y-109969100D02*
X124170700Y-109969100D01*
X110523500Y-72267800D02*
X124170700Y-72267800D01*
X106789800Y-68534100D02*
X110523500Y-72267800D01*
%TO.N,FM2*%
X123193300Y-75173000D02*
X123193300Y-77212800D01*
X121554400Y-73534100D02*
X123193300Y-75173000D01*
X106789800Y-73534100D02*
X121554400Y-73534100D01*
X146018700Y-107472700D02*
X146062300Y-107429100D01*
X123556000Y-107472700D02*
X146018700Y-107472700D01*
%TO.N,FM4*%
X127245500Y-83715500D02*
X144668800Y-83715500D01*
X121693700Y-78163700D02*
X127245500Y-83715500D01*
X112160200Y-78163700D02*
X121693700Y-78163700D01*
X106789800Y-83534100D02*
X112160200Y-78163700D01*
%TO.N,D0*%
X188589800Y-106954100D02*
X188589800Y-108105800D01*
X180608100Y-116564700D02*
X156411400Y-116564700D01*
X187319800Y-109853000D02*
X180608100Y-116564700D01*
X187319800Y-109107300D02*
X187319800Y-109853000D01*
X188321300Y-108105800D02*
X187319800Y-109107300D01*
X188589800Y-108105800D02*
X188321300Y-108105800D01*
%TO.N,D3*%
X181771300Y-104414100D02*
X186049800Y-104414100D01*
X181491900Y-104134700D02*
X181771300Y-104414100D01*
%TO.N,XCLK*%
X189805800Y-117283600D02*
X156857300Y-117283600D01*
%TO.N,SOID*%
X188589800Y-91714100D02*
X187438100Y-91714100D01*
X177366900Y-90398700D02*
X176617300Y-89649100D01*
X186391200Y-90398700D02*
X177366900Y-90398700D01*
X187438100Y-91445600D02*
X186391200Y-90398700D01*
X187438100Y-91714100D02*
X187438100Y-91445600D01*
%TO.N,HREF*%
X186645200Y-78187400D02*
X189743200Y-81285400D01*
X176078100Y-78187400D02*
X186645200Y-78187400D01*
X175315600Y-78949900D02*
X176078100Y-78187400D01*
X175315600Y-92091100D02*
X175315600Y-78949900D01*
X172677600Y-94729100D02*
X175315600Y-92091100D01*
X151217300Y-94729100D02*
X172677600Y-94729100D01*
%TO.N,D6*%
X181020600Y-100485800D02*
X176617300Y-104889100D01*
X186574400Y-100485800D02*
X181020600Y-100485800D01*
X187438100Y-99622100D02*
X186574400Y-100485800D01*
X187438100Y-99334100D02*
X187438100Y-99622100D01*
X188589800Y-99334100D02*
X187438100Y-99334100D01*
%TO.N,SOIC*%
X179026200Y-82029100D02*
X183721700Y-82029100D01*
X179026200Y-82029200D02*
X179026200Y-82029100D01*
X177943900Y-83111500D02*
X179026200Y-82029200D01*
X177611300Y-83111500D02*
X177943900Y-83111500D01*
X176617300Y-82117500D02*
X177611300Y-83111500D01*
X176617300Y-82029100D02*
X176617300Y-82117500D01*
%TO.N,PCLK*%
X186049800Y-96794100D02*
X187201500Y-96794100D01*
X188125600Y-95601500D02*
X190818600Y-95601500D01*
X187201500Y-96525600D02*
X188125600Y-95601500D01*
X187201500Y-96794100D02*
X187201500Y-96525600D01*
X190818600Y-119111500D02*
X154464600Y-119111500D01*
%TO.N,D5*%
X182172300Y-101874100D02*
X176617300Y-107429100D01*
X186049800Y-101874100D02*
X182172300Y-101874100D01*
%TO.N,D4*%
X188858300Y-100722400D02*
X188589800Y-100722400D01*
X189742000Y-99838700D02*
X188858300Y-100722400D01*
X189742000Y-98823700D02*
X189742000Y-99838700D01*
X188982400Y-98064100D02*
X189742000Y-98823700D01*
X177412300Y-98064100D02*
X188982400Y-98064100D01*
X176617300Y-97269100D02*
X177412300Y-98064100D01*
X188589800Y-101874100D02*
X188589800Y-100722400D01*
%TO.N,D2*%
X188589800Y-104414100D02*
X187438100Y-104414100D01*
X186407800Y-103115300D02*
X182201300Y-103115300D01*
X187438100Y-104145600D02*
X186407800Y-103115300D01*
X187438100Y-104414100D02*
X187438100Y-104145600D01*
%TO.N,D1*%
X151248200Y-110000000D02*
X170751800Y-110000000D01*
X151217300Y-109969100D02*
X151248200Y-110000000D01*
D21*
%TO.N,+3.3V*%
X146062300Y-115049100D02*
X144760600Y-115049100D01*
X144760600Y-115049100D02*
X144760600Y-116331000D01*
X131192900Y-116331000D02*
X114389800Y-133134100D01*
X144760600Y-116331000D02*
X131192900Y-116331000D01*
X159207400Y-72251700D02*
X158089800Y-71134100D01*
X170689800Y-72251700D02*
X159207400Y-72251700D01*
X140389800Y-70892900D02*
X140389800Y-70334100D01*
X157848600Y-70892900D02*
X158089800Y-71134100D01*
X140389800Y-70892900D02*
X157848600Y-70892900D01*
X139831000Y-71451700D02*
X128552300Y-71451700D01*
X140389800Y-70892900D02*
X139831000Y-71451700D01*
%TD*%
%TA.AperFunction,Conductor*%
%TO.N,GND*%
G36*
X147430063Y-100720316D02*
G01*
X147431326Y-100721561D01*
X148377725Y-101667960D01*
X148411210Y-101729283D01*
X148411661Y-101731449D01*
X148442561Y-101886791D01*
X148442564Y-101886801D01*
X148502902Y-102032472D01*
X148502909Y-102032485D01*
X148590510Y-102163588D01*
X148590513Y-102163592D01*
X148702007Y-102275086D01*
X148702011Y-102275089D01*
X148833114Y-102362690D01*
X148833127Y-102362697D01*
X148905113Y-102392514D01*
X148978803Y-102423037D01*
X149133453Y-102453799D01*
X149133456Y-102453800D01*
X149133458Y-102453800D01*
X149291144Y-102453800D01*
X149291145Y-102453799D01*
X149445797Y-102423037D01*
X149548233Y-102380606D01*
X149617700Y-102373138D01*
X149680180Y-102404413D01*
X149715832Y-102464502D01*
X149718157Y-102475770D01*
X149753746Y-102700468D01*
X149826733Y-102925096D01*
X149906472Y-103081591D01*
X149933957Y-103135533D01*
X150072783Y-103326610D01*
X150239790Y-103493617D01*
X150274427Y-103518783D01*
X150317092Y-103574113D01*
X150323071Y-103643726D01*
X150290465Y-103705521D01*
X150274430Y-103719415D01*
X150256665Y-103732322D01*
X150239788Y-103744584D01*
X150072785Y-103911587D01*
X150072785Y-103911588D01*
X150072783Y-103911590D01*
X150013162Y-103993650D01*
X149933957Y-104102666D01*
X149826733Y-104313103D01*
X149753746Y-104537731D01*
X149716800Y-104771002D01*
X149716800Y-105007197D01*
X149753746Y-105240468D01*
X149826733Y-105465096D01*
X149906472Y-105621591D01*
X149933957Y-105675533D01*
X150072783Y-105866610D01*
X150239790Y-106033617D01*
X150274427Y-106058783D01*
X150317092Y-106114113D01*
X150323071Y-106183726D01*
X150290465Y-106245521D01*
X150274430Y-106259415D01*
X150256665Y-106272322D01*
X150239788Y-106284584D01*
X150072785Y-106451587D01*
X150072785Y-106451588D01*
X150072783Y-106451590D01*
X150043097Y-106492449D01*
X149933957Y-106642666D01*
X149826733Y-106853103D01*
X149753746Y-107077731D01*
X149716800Y-107311002D01*
X149716800Y-107547197D01*
X149753746Y-107780468D01*
X149826733Y-108005096D01*
X149918327Y-108184857D01*
X149933957Y-108215533D01*
X150072783Y-108406610D01*
X150239790Y-108573617D01*
X150274427Y-108598783D01*
X150317092Y-108654113D01*
X150323071Y-108723726D01*
X150290465Y-108785521D01*
X150274430Y-108799415D01*
X150256665Y-108812322D01*
X150239788Y-108824584D01*
X150072785Y-108991587D01*
X150072785Y-108991588D01*
X150072783Y-108991590D01*
X150013660Y-109072965D01*
X149933957Y-109182666D01*
X149826733Y-109393103D01*
X149753746Y-109617731D01*
X149716800Y-109851002D01*
X149716800Y-110087197D01*
X149753746Y-110320468D01*
X149826733Y-110545096D01*
X149921890Y-110731851D01*
X149933957Y-110755533D01*
X150072783Y-110946610D01*
X150239790Y-111113617D01*
X150299016Y-111156647D01*
X150341681Y-111211975D01*
X150349748Y-111266693D01*
X150348193Y-111286440D01*
X151079725Y-112017971D01*
X151020447Y-112033855D01*
X150904153Y-112100998D01*
X150809198Y-112195953D01*
X150742055Y-112312247D01*
X150726171Y-112371525D01*
X149994640Y-111639994D01*
X149934384Y-111722930D01*
X149827197Y-111933297D01*
X149754234Y-112157852D01*
X149717300Y-112391047D01*
X149717300Y-112627152D01*
X149754234Y-112860347D01*
X149827197Y-113084902D01*
X149934387Y-113295274D01*
X149994638Y-113378204D01*
X149994640Y-113378205D01*
X150726171Y-112646674D01*
X150742055Y-112705953D01*
X150809198Y-112822247D01*
X150904153Y-112917202D01*
X151020447Y-112984345D01*
X151079725Y-113000228D01*
X150348193Y-113731758D01*
X150349748Y-113751505D01*
X150335384Y-113819883D01*
X150299017Y-113861551D01*
X150239790Y-113904582D01*
X150072785Y-114071587D01*
X150072785Y-114071588D01*
X150072783Y-114071590D01*
X150013162Y-114153650D01*
X149933957Y-114262666D01*
X149826733Y-114473103D01*
X149753746Y-114697731D01*
X149716800Y-114931002D01*
X149716800Y-115167197D01*
X149753746Y-115400468D01*
X149826733Y-115625096D01*
X149861445Y-115693221D01*
X149933957Y-115835533D01*
X150072783Y-116026610D01*
X150072785Y-116026612D01*
X150194523Y-116148350D01*
X150228008Y-116209673D01*
X150223024Y-116279365D01*
X150181152Y-116335298D01*
X150115688Y-116359715D01*
X150106842Y-116360031D01*
X147659103Y-116360031D01*
X147592064Y-116340346D01*
X147546309Y-116287542D01*
X147536365Y-116218384D01*
X147542921Y-116192697D01*
X147556391Y-116156583D01*
X147562800Y-116096973D01*
X147562799Y-114001228D01*
X147556391Y-113941617D01*
X147542578Y-113904583D01*
X147506097Y-113806771D01*
X147506093Y-113806764D01*
X147419847Y-113691555D01*
X147419844Y-113691552D01*
X147304635Y-113605306D01*
X147296846Y-113601053D01*
X147298567Y-113597899D01*
X147256325Y-113566286D01*
X147231899Y-113500825D01*
X147246742Y-113432550D01*
X147255264Y-113419077D01*
X147345214Y-113295271D01*
X147452402Y-113084902D01*
X147525365Y-112860347D01*
X147562300Y-112627152D01*
X147562300Y-112391047D01*
X147525365Y-112157852D01*
X147452402Y-111933297D01*
X147345214Y-111722928D01*
X147284958Y-111639994D01*
X147284958Y-111639993D01*
X146553427Y-112371523D01*
X146537545Y-112312247D01*
X146470402Y-112195953D01*
X146375447Y-112100998D01*
X146259153Y-112033855D01*
X146199874Y-112017971D01*
X146931405Y-111286440D01*
X146929851Y-111266694D01*
X146944215Y-111198316D01*
X146980584Y-111156647D01*
X147039810Y-111113617D01*
X147206817Y-110946610D01*
X147345643Y-110755533D01*
X147452868Y-110545092D01*
X147525853Y-110320468D01*
X147539629Y-110233489D01*
X147562800Y-110087197D01*
X147562800Y-109851002D01*
X147525853Y-109617731D01*
X147474215Y-109458807D01*
X147452868Y-109393108D01*
X147452866Y-109393105D01*
X147452866Y-109393103D01*
X147384894Y-109259702D01*
X147345643Y-109182667D01*
X147206817Y-108991590D01*
X147039810Y-108824583D01*
X147005172Y-108799417D01*
X146962507Y-108744089D01*
X146956528Y-108674475D01*
X146989133Y-108612680D01*
X147005173Y-108598782D01*
X147006525Y-108597800D01*
X147039810Y-108573617D01*
X147206817Y-108406610D01*
X147345643Y-108215533D01*
X147452868Y-108005092D01*
X147525853Y-107780468D01*
X147537616Y-107706201D01*
X147562800Y-107547197D01*
X147562800Y-107311002D01*
X147525853Y-107077731D01*
X147488383Y-106962411D01*
X147452868Y-106853108D01*
X147452866Y-106853105D01*
X147452866Y-106853103D01*
X147376364Y-106702961D01*
X147345643Y-106642667D01*
X147206817Y-106451590D01*
X147039810Y-106284583D01*
X147005172Y-106259417D01*
X146962507Y-106204089D01*
X146956528Y-106134475D01*
X146989133Y-106072680D01*
X147005173Y-106058782D01*
X147039810Y-106033617D01*
X147206817Y-105866610D01*
X147345643Y-105675533D01*
X147452868Y-105465092D01*
X147525853Y-105240468D01*
X147544630Y-105121914D01*
X147562800Y-105007197D01*
X147562800Y-104771002D01*
X147525853Y-104537731D01*
X147473010Y-104375100D01*
X147452868Y-104313108D01*
X147452866Y-104313105D01*
X147452866Y-104313103D01*
X147384894Y-104179702D01*
X147345643Y-104102667D01*
X147206817Y-103911590D01*
X147039810Y-103744583D01*
X147005172Y-103719417D01*
X146962507Y-103664089D01*
X146956528Y-103594475D01*
X146989133Y-103532680D01*
X147005173Y-103518782D01*
X147039810Y-103493617D01*
X147206817Y-103326610D01*
X147345643Y-103135533D01*
X147452868Y-102925092D01*
X147525853Y-102700468D01*
X147544630Y-102581916D01*
X147562800Y-102467197D01*
X147562800Y-102231002D01*
X147525853Y-101997731D01*
X147452866Y-101773103D01*
X147345642Y-101562666D01*
X147342148Y-101557857D01*
X147206817Y-101371590D01*
X147039810Y-101204583D01*
X147005172Y-101179417D01*
X146962507Y-101124089D01*
X146956528Y-101054475D01*
X146989133Y-100992680D01*
X147005173Y-100978782D01*
X147039810Y-100953617D01*
X147206817Y-100786610D01*
X147243328Y-100736356D01*
X147298654Y-100693692D01*
X147368267Y-100687711D01*
X147430063Y-100720316D01*
G37*
%TD.AperFunction*%
%TA.AperFunction,Conductor*%
G36*
X180664920Y-104333228D02*
G01*
X180720853Y-104375100D01*
X180736147Y-104401958D01*
X180782502Y-104513872D01*
X180782509Y-104513885D01*
X180870110Y-104644988D01*
X180870113Y-104644992D01*
X180981607Y-104756486D01*
X180981611Y-104756489D01*
X181112714Y-104844090D01*
X181112727Y-104844097D01*
X181238478Y-104896184D01*
X181258403Y-104904437D01*
X181399545Y-104932512D01*
X181413053Y-104935199D01*
X181413056Y-104935200D01*
X181413058Y-104935200D01*
X181439647Y-104935200D01*
X181501648Y-104951813D01*
X181539515Y-104973677D01*
X181692242Y-105014600D01*
X181692243Y-105014600D01*
X184764081Y-105014600D01*
X184831120Y-105034285D01*
X184874565Y-105082305D01*
X184894747Y-105121914D01*
X184894748Y-105121915D01*
X185019690Y-105293886D01*
X185170013Y-105444209D01*
X185341982Y-105569150D01*
X185350746Y-105573616D01*
X185401542Y-105621591D01*
X185418336Y-105689412D01*
X185395798Y-105755547D01*
X185350746Y-105794584D01*
X185341982Y-105799049D01*
X185170013Y-105923990D01*
X185019690Y-106074313D01*
X184894751Y-106246279D01*
X184798244Y-106435685D01*
X184732553Y-106637860D01*
X184701915Y-106831300D01*
X184699300Y-106847813D01*
X184699300Y-107060387D01*
X184732554Y-107270343D01*
X184762046Y-107361111D01*
X184798244Y-107472514D01*
X184894751Y-107661920D01*
X185019690Y-107833886D01*
X185170013Y-107984209D01*
X185341982Y-108109150D01*
X185350746Y-108113616D01*
X185401542Y-108161591D01*
X185418336Y-108229412D01*
X185395798Y-108295547D01*
X185350746Y-108334584D01*
X185341982Y-108339049D01*
X185170013Y-108463990D01*
X185019690Y-108614313D01*
X184894751Y-108786279D01*
X184798244Y-108975685D01*
X184732553Y-109177860D01*
X184699300Y-109387813D01*
X184699300Y-109600387D01*
X184709334Y-109663744D01*
X184725609Y-109766498D01*
X184732554Y-109810343D01*
X184758518Y-109890253D01*
X184798244Y-110012514D01*
X184894751Y-110201920D01*
X185019690Y-110373886D01*
X185170013Y-110524209D01*
X185302115Y-110620185D01*
X185341984Y-110649151D01*
X185379380Y-110668205D01*
X185410135Y-110683876D01*
X185460931Y-110731851D01*
X185477726Y-110799672D01*
X185455188Y-110865807D01*
X185441521Y-110882042D01*
X180395684Y-115927881D01*
X180334361Y-115961366D01*
X180308003Y-115964200D01*
X178241800Y-115964200D01*
X178174761Y-115944515D01*
X178129006Y-115891711D01*
X178117800Y-115840200D01*
X178117799Y-114001229D01*
X178117798Y-114001223D01*
X178115455Y-113979428D01*
X178111391Y-113941617D01*
X178097578Y-113904583D01*
X178061097Y-113806771D01*
X178061093Y-113806764D01*
X177974847Y-113691555D01*
X177974844Y-113691552D01*
X177859635Y-113605306D01*
X177851846Y-113601053D01*
X177853567Y-113597899D01*
X177811325Y-113566286D01*
X177786899Y-113500825D01*
X177801742Y-113432550D01*
X177810264Y-113419077D01*
X177900214Y-113295271D01*
X178007402Y-113084902D01*
X178080365Y-112860347D01*
X178117300Y-112627152D01*
X178117300Y-112391047D01*
X178080365Y-112157852D01*
X178007402Y-111933297D01*
X177900214Y-111722928D01*
X177839958Y-111639994D01*
X177839958Y-111639993D01*
X177108427Y-112371523D01*
X177092545Y-112312247D01*
X177025402Y-112195953D01*
X176930447Y-112100998D01*
X176814153Y-112033855D01*
X176754874Y-112017971D01*
X177486405Y-111286440D01*
X177484851Y-111266694D01*
X177499215Y-111198316D01*
X177535584Y-111156647D01*
X177594810Y-111113617D01*
X177761817Y-110946610D01*
X177900643Y-110755533D01*
X178007868Y-110545092D01*
X178080853Y-110320468D01*
X178094629Y-110233489D01*
X178117800Y-110087197D01*
X178117800Y-109851002D01*
X178080853Y-109617731D01*
X178029215Y-109458807D01*
X178007868Y-109393108D01*
X178007866Y-109393105D01*
X178007866Y-109393103D01*
X177939894Y-109259702D01*
X177900643Y-109182667D01*
X177761817Y-108991590D01*
X177594810Y-108824583D01*
X177560172Y-108799417D01*
X177517507Y-108744089D01*
X177511528Y-108674475D01*
X177544133Y-108612680D01*
X177560173Y-108598782D01*
X177561525Y-108597800D01*
X177594810Y-108573617D01*
X177761817Y-108406610D01*
X177900643Y-108215533D01*
X178007868Y-108005092D01*
X178080853Y-107780468D01*
X178092616Y-107706201D01*
X178117800Y-107547197D01*
X178117800Y-107311002D01*
X178093168Y-107155490D01*
X178080853Y-107077732D01*
X178039847Y-106951533D01*
X178037853Y-106881693D01*
X178070096Y-106825537D01*
X180533907Y-104361727D01*
X180595228Y-104328244D01*
X180664920Y-104333228D01*
G37*
%TD.AperFunction*%
%TA.AperFunction,Conductor*%
G36*
X175036134Y-104882014D02*
G01*
X175092067Y-104923886D01*
X175116484Y-104989350D01*
X175116800Y-104998196D01*
X175116800Y-105007197D01*
X175153746Y-105240468D01*
X175226733Y-105465096D01*
X175306472Y-105621591D01*
X175333957Y-105675533D01*
X175472783Y-105866610D01*
X175639790Y-106033617D01*
X175674427Y-106058783D01*
X175717092Y-106114113D01*
X175723071Y-106183726D01*
X175690465Y-106245521D01*
X175674430Y-106259415D01*
X175656665Y-106272322D01*
X175639788Y-106284584D01*
X175472785Y-106451587D01*
X175472785Y-106451588D01*
X175472783Y-106451590D01*
X175443097Y-106492449D01*
X175333957Y-106642666D01*
X175226733Y-106853103D01*
X175153746Y-107077731D01*
X175116800Y-107311002D01*
X175116800Y-107547197D01*
X175153746Y-107780468D01*
X175226733Y-108005096D01*
X175318327Y-108184857D01*
X175333957Y-108215533D01*
X175472783Y-108406610D01*
X175639790Y-108573617D01*
X175674427Y-108598783D01*
X175717092Y-108654113D01*
X175723071Y-108723726D01*
X175690465Y-108785521D01*
X175674430Y-108799415D01*
X175656665Y-108812322D01*
X175639788Y-108824584D01*
X175472785Y-108991587D01*
X175472785Y-108991588D01*
X175472783Y-108991590D01*
X175413660Y-109072965D01*
X175333957Y-109182666D01*
X175226733Y-109393103D01*
X175153746Y-109617731D01*
X175116800Y-109851002D01*
X175116800Y-110087197D01*
X175153746Y-110320468D01*
X175226733Y-110545096D01*
X175321890Y-110731851D01*
X175333957Y-110755533D01*
X175472783Y-110946610D01*
X175639790Y-111113617D01*
X175699016Y-111156647D01*
X175741681Y-111211975D01*
X175749748Y-111266693D01*
X175748193Y-111286440D01*
X176479725Y-112017971D01*
X176420447Y-112033855D01*
X176304153Y-112100998D01*
X176209198Y-112195953D01*
X176142055Y-112312247D01*
X176126171Y-112371525D01*
X175394640Y-111639994D01*
X175334384Y-111722930D01*
X175227197Y-111933297D01*
X175154234Y-112157852D01*
X175117300Y-112391047D01*
X175117300Y-112627152D01*
X175154234Y-112860347D01*
X175227197Y-113084902D01*
X175334387Y-113295274D01*
X175424335Y-113419078D01*
X175447815Y-113484884D01*
X175431989Y-113552938D01*
X175382659Y-113600879D01*
X175382754Y-113601053D01*
X175382130Y-113601393D01*
X175381884Y-113601633D01*
X175380811Y-113602113D01*
X175374964Y-113605306D01*
X175259755Y-113691552D01*
X175259752Y-113691555D01*
X175173506Y-113806764D01*
X175173502Y-113806771D01*
X175123208Y-113941617D01*
X175121426Y-113949162D01*
X175119153Y-113948625D01*
X175096871Y-114002412D01*
X175039477Y-114042257D01*
X175000324Y-114048600D01*
X154391940Y-114048600D01*
X154298851Y-114067116D01*
X154298833Y-114067120D01*
X154295297Y-114067824D01*
X154198649Y-114087049D01*
X154166632Y-114100311D01*
X154158712Y-114103591D01*
X154158706Y-114103593D01*
X154016577Y-114162464D01*
X154016564Y-114162471D01*
X153852704Y-114271959D01*
X153783025Y-114341638D01*
X153713346Y-114411318D01*
X152929481Y-115195183D01*
X152868158Y-115228668D01*
X152798466Y-115223684D01*
X152742533Y-115181812D01*
X152718116Y-115116348D01*
X152717800Y-115107502D01*
X152717800Y-114931002D01*
X152680853Y-114697731D01*
X152607866Y-114473103D01*
X152551302Y-114362091D01*
X152500643Y-114262667D01*
X152361817Y-114071590D01*
X152194810Y-113904583D01*
X152135582Y-113861551D01*
X152092917Y-113806222D01*
X152084850Y-113751504D01*
X152086404Y-113731757D01*
X151354874Y-113000228D01*
X151414153Y-112984345D01*
X151530447Y-112917202D01*
X151625402Y-112822247D01*
X151692545Y-112705953D01*
X151708428Y-112646675D01*
X152439958Y-113378205D01*
X152439958Y-113378204D01*
X152500214Y-113295269D01*
X152500218Y-113295263D01*
X152607402Y-113084902D01*
X152680365Y-112860347D01*
X152717300Y-112627152D01*
X152717300Y-112391047D01*
X152680365Y-112157852D01*
X152607402Y-111933297D01*
X152500214Y-111722928D01*
X152439958Y-111639994D01*
X152439958Y-111639993D01*
X151708428Y-112371524D01*
X151692545Y-112312247D01*
X151625402Y-112195953D01*
X151530447Y-112100998D01*
X151414153Y-112033855D01*
X151354874Y-112017971D01*
X152086405Y-111286440D01*
X152084851Y-111266694D01*
X152099215Y-111198316D01*
X152135584Y-111156647D01*
X152194810Y-111113617D01*
X152361817Y-110946610D01*
X152500643Y-110755533D01*
X152545139Y-110668205D01*
X152593114Y-110617409D01*
X152655624Y-110600500D01*
X170172034Y-110600500D01*
X170239073Y-110620185D01*
X170240925Y-110621398D01*
X170372614Y-110709390D01*
X170372627Y-110709397D01*
X170517970Y-110769599D01*
X170518303Y-110769737D01*
X170668795Y-110799672D01*
X170672953Y-110800499D01*
X170672956Y-110800500D01*
X170672958Y-110800500D01*
X170830644Y-110800500D01*
X170830645Y-110800499D01*
X170985297Y-110769737D01*
X171130979Y-110709394D01*
X171262089Y-110621789D01*
X171373589Y-110510289D01*
X171461194Y-110379179D01*
X171463387Y-110373886D01*
X171521535Y-110233501D01*
X171521537Y-110233497D01*
X171552300Y-110078842D01*
X171552300Y-109921158D01*
X171552300Y-109921155D01*
X171552299Y-109921153D01*
X171521537Y-109766503D01*
X171484386Y-109676812D01*
X171461197Y-109620827D01*
X171461190Y-109620814D01*
X171373589Y-109489711D01*
X171373586Y-109489707D01*
X171262092Y-109378213D01*
X171262088Y-109378210D01*
X171130985Y-109290609D01*
X171130972Y-109290602D01*
X170985301Y-109230264D01*
X170985291Y-109230261D01*
X170879252Y-109209168D01*
X170817341Y-109176783D01*
X170782767Y-109116067D01*
X170786508Y-109046297D01*
X170815761Y-108999872D01*
X174905119Y-104910515D01*
X174966442Y-104877030D01*
X175036134Y-104882014D01*
G37*
%TD.AperFunction*%
%TA.AperFunction,Conductor*%
G36*
X192593883Y-51334832D02*
G01*
X192842702Y-51351144D01*
X192858780Y-51353260D01*
X193099364Y-51401118D01*
X193115026Y-51405315D01*
X193226697Y-51443223D01*
X193347300Y-51484163D01*
X193362285Y-51490370D01*
X193582286Y-51598864D01*
X193596330Y-51606972D01*
X193800288Y-51743253D01*
X193813148Y-51753121D01*
X193923634Y-51850015D01*
X193997572Y-51914858D01*
X194009041Y-51926327D01*
X194170775Y-52110747D01*
X194180649Y-52123615D01*
X194316925Y-52327566D01*
X194325035Y-52341613D01*
X194433529Y-52561614D01*
X194439736Y-52576599D01*
X194518583Y-52808870D01*
X194522781Y-52824537D01*
X194570638Y-53065118D01*
X194572755Y-53081198D01*
X194589067Y-53330015D01*
X194589333Y-53338127D01*
X194589333Y-138268178D01*
X194589332Y-138268182D01*
X194589332Y-138298285D01*
X194589332Y-138330007D01*
X194589332Y-138330010D01*
X194589067Y-138338118D01*
X194572761Y-138586954D01*
X194570644Y-138603035D01*
X194522792Y-138843621D01*
X194518594Y-138859289D01*
X194439749Y-139091569D01*
X194433542Y-139106554D01*
X194325055Y-139326552D01*
X194316945Y-139340600D01*
X194180666Y-139544561D01*
X194170792Y-139557429D01*
X194009059Y-139741855D01*
X193997590Y-139753324D01*
X193813169Y-139915062D01*
X193800307Y-139924931D01*
X193664834Y-140015454D01*
X193596347Y-140061217D01*
X193582301Y-140069326D01*
X193362304Y-140177821D01*
X193347318Y-140184029D01*
X193115037Y-140262881D01*
X193099370Y-140267079D01*
X192858786Y-140314937D01*
X192842705Y-140317054D01*
X192594890Y-140333301D01*
X192586778Y-140333567D01*
X101663326Y-140333567D01*
X101655721Y-140333566D01*
X101655718Y-140333566D01*
X101625613Y-140333566D01*
X101593888Y-140333566D01*
X101593887Y-140333565D01*
X101585782Y-140333301D01*
X101336949Y-140316995D01*
X101320867Y-140314878D01*
X101080286Y-140267026D01*
X101064619Y-140262828D01*
X100832347Y-140183985D01*
X100817361Y-140177777D01*
X100597357Y-140069284D01*
X100583310Y-140061174D01*
X100379366Y-139924904D01*
X100366497Y-139915030D01*
X100182073Y-139753295D01*
X100170604Y-139741826D01*
X100008869Y-139557402D01*
X99998995Y-139544533D01*
X99862725Y-139340589D01*
X99854615Y-139326542D01*
X99746122Y-139106538D01*
X99739917Y-139091560D01*
X99661068Y-138859270D01*
X99656875Y-138843621D01*
X99609020Y-138603025D01*
X99606904Y-138586950D01*
X99590598Y-138338117D01*
X99590333Y-138330007D01*
X99590334Y-138268182D01*
X99590333Y-138268178D01*
X99590333Y-117916095D01*
X104989300Y-117916095D01*
X104989300Y-118152104D01*
X104989301Y-118152120D01*
X105016804Y-118361031D01*
X105020107Y-118386114D01*
X105047866Y-118489710D01*
X105081194Y-118614093D01*
X105171514Y-118832145D01*
X105171519Y-118832156D01*
X105235455Y-118942894D01*
X105289527Y-119036550D01*
X105289529Y-119036553D01*
X105289530Y-119036554D01*
X105433206Y-119223797D01*
X105433212Y-119223804D01*
X105600095Y-119390687D01*
X105600101Y-119390692D01*
X105787350Y-119534373D01*
X105897926Y-119598214D01*
X105991743Y-119652380D01*
X105991748Y-119652382D01*
X105991751Y-119652384D01*
X106209807Y-119742706D01*
X106437786Y-119803793D01*
X106671789Y-119834600D01*
X106671796Y-119834600D01*
X106907804Y-119834600D01*
X106907811Y-119834600D01*
X107141814Y-119803793D01*
X107369793Y-119742706D01*
X107587849Y-119652384D01*
X107792250Y-119534373D01*
X107979499Y-119390692D01*
X108146392Y-119223799D01*
X108290073Y-119036550D01*
X108406669Y-118834600D01*
X108408080Y-118832156D01*
X108408080Y-118832155D01*
X108408084Y-118832149D01*
X108458205Y-118711147D01*
X108502046Y-118656744D01*
X108568340Y-118634679D01*
X108572766Y-118634600D01*
X112611334Y-118634600D01*
X112678373Y-118654285D01*
X112680225Y-118655498D01*
X112811914Y-118743490D01*
X112811927Y-118743497D01*
X112957598Y-118803835D01*
X112957603Y-118803837D01*
X113099916Y-118832145D01*
X113112253Y-118834599D01*
X113112256Y-118834600D01*
X113112258Y-118834600D01*
X113269944Y-118834600D01*
X113269945Y-118834599D01*
X113424597Y-118803837D01*
X113570279Y-118743494D01*
X113701389Y-118655889D01*
X113812889Y-118544389D01*
X113900494Y-118413279D01*
X113960837Y-118267597D01*
X113991600Y-118112942D01*
X113991600Y-117955258D01*
X113991600Y-117955255D01*
X113991599Y-117955253D01*
X113981680Y-117905386D01*
X113960837Y-117800603D01*
X113958056Y-117793888D01*
X113900497Y-117654927D01*
X113900490Y-117654914D01*
X113812889Y-117523811D01*
X113812886Y-117523807D01*
X113701392Y-117412313D01*
X113701388Y-117412310D01*
X113570285Y-117324709D01*
X113570272Y-117324702D01*
X113424601Y-117264364D01*
X113424589Y-117264361D01*
X113269945Y-117233600D01*
X113269942Y-117233600D01*
X113112258Y-117233600D01*
X113112255Y-117233600D01*
X112957610Y-117264361D01*
X112957598Y-117264364D01*
X112811927Y-117324702D01*
X112811914Y-117324709D01*
X112680225Y-117412702D01*
X112613547Y-117433580D01*
X112611334Y-117433600D01*
X108572766Y-117433600D01*
X108505727Y-117413915D01*
X108459972Y-117361111D01*
X108458205Y-117357053D01*
X108448794Y-117334334D01*
X108408084Y-117236051D01*
X108408082Y-117236048D01*
X108408080Y-117236043D01*
X108349359Y-117134336D01*
X108290073Y-117031650D01*
X108146392Y-116844401D01*
X108146387Y-116844395D01*
X107979504Y-116677512D01*
X107979497Y-116677506D01*
X107792254Y-116533830D01*
X107792253Y-116533829D01*
X107792250Y-116533827D01*
X107704388Y-116483100D01*
X107587856Y-116415819D01*
X107587845Y-116415814D01*
X107369793Y-116325494D01*
X107141814Y-116264407D01*
X107141813Y-116264406D01*
X107141810Y-116264406D01*
X106907820Y-116233601D01*
X106907817Y-116233600D01*
X106907811Y-116233600D01*
X106671789Y-116233600D01*
X106671783Y-116233600D01*
X106671779Y-116233601D01*
X106437789Y-116264406D01*
X106209806Y-116325494D01*
X105991754Y-116415814D01*
X105991743Y-116415819D01*
X105787345Y-116533830D01*
X105600102Y-116677506D01*
X105600095Y-116677512D01*
X105433212Y-116844395D01*
X105433206Y-116844402D01*
X105289530Y-117031645D01*
X105171519Y-117236043D01*
X105171514Y-117236054D01*
X105081194Y-117454106D01*
X105020106Y-117682089D01*
X104989301Y-117916079D01*
X104989300Y-117916095D01*
X99590333Y-117916095D01*
X99590333Y-67434083D01*
X104989300Y-67434083D01*
X104989300Y-69634101D01*
X104989301Y-69634118D01*
X104999800Y-69736896D01*
X104999801Y-69736899D01*
X105044807Y-69872715D01*
X105054986Y-69903434D01*
X105147088Y-70052756D01*
X105271144Y-70176812D01*
X105420466Y-70268914D01*
X105587003Y-70324099D01*
X105689791Y-70334600D01*
X107689702Y-70334599D01*
X107756741Y-70354284D01*
X107777383Y-70370918D01*
X110042978Y-72636513D01*
X110042980Y-72636516D01*
X110128384Y-72721920D01*
X110161868Y-72783241D01*
X110161867Y-72783242D01*
X110161868Y-72783243D01*
X110156884Y-72852934D01*
X110115012Y-72908868D01*
X110085115Y-72920018D01*
X110049549Y-72933284D01*
X110040702Y-72933600D01*
X108572766Y-72933600D01*
X108505727Y-72913915D01*
X108459972Y-72861111D01*
X108458205Y-72857053D01*
X108438403Y-72809247D01*
X108408084Y-72736051D01*
X108408082Y-72736048D01*
X108408080Y-72736043D01*
X108350617Y-72636516D01*
X108290073Y-72531650D01*
X108146392Y-72344401D01*
X108146387Y-72344395D01*
X107979504Y-72177512D01*
X107979497Y-72177506D01*
X107792254Y-72033830D01*
X107792253Y-72033829D01*
X107792250Y-72033827D01*
X107701305Y-71981320D01*
X107587856Y-71915819D01*
X107587845Y-71915814D01*
X107369793Y-71825494D01*
X107141810Y-71764406D01*
X106907820Y-71733601D01*
X106907817Y-71733600D01*
X106907811Y-71733600D01*
X106671789Y-71733600D01*
X106671783Y-71733600D01*
X106671779Y-71733601D01*
X106437789Y-71764406D01*
X106209806Y-71825494D01*
X105991754Y-71915814D01*
X105991743Y-71915819D01*
X105787345Y-72033830D01*
X105600102Y-72177506D01*
X105600095Y-72177512D01*
X105433212Y-72344395D01*
X105433206Y-72344402D01*
X105289530Y-72531645D01*
X105171519Y-72736043D01*
X105171514Y-72736054D01*
X105081194Y-72954106D01*
X105020106Y-73182089D01*
X104989301Y-73416079D01*
X104989300Y-73416095D01*
X104989300Y-73652104D01*
X104989301Y-73652120D01*
X105020106Y-73886110D01*
X105081194Y-74114093D01*
X105171514Y-74332145D01*
X105171519Y-74332156D01*
X105242477Y-74455057D01*
X105289527Y-74536550D01*
X105289529Y-74536553D01*
X105289530Y-74536554D01*
X105433206Y-74723797D01*
X105433212Y-74723804D01*
X105600095Y-74890687D01*
X105600102Y-74890693D01*
X105615410Y-74902439D01*
X105787350Y-75034373D01*
X105890530Y-75093944D01*
X105991743Y-75152380D01*
X105991748Y-75152382D01*
X105991751Y-75152384D01*
X106209807Y-75242706D01*
X106437786Y-75303793D01*
X106671789Y-75334600D01*
X106671796Y-75334600D01*
X106907804Y-75334600D01*
X106907811Y-75334600D01*
X107141814Y-75303793D01*
X107369793Y-75242706D01*
X107587849Y-75152384D01*
X107792250Y-75034373D01*
X107979499Y-74890692D01*
X108146392Y-74723799D01*
X108290073Y-74536550D01*
X108408084Y-74332149D01*
X108458205Y-74211147D01*
X108502046Y-74156744D01*
X108568340Y-74134679D01*
X108572766Y-74134600D01*
X120609348Y-74134600D01*
X120676387Y-74154285D01*
X120722142Y-74207089D01*
X120732086Y-74276247D01*
X120703061Y-74339803D01*
X120644283Y-74377577D01*
X120641485Y-74378362D01*
X120591689Y-74391705D01*
X120568412Y-74397942D01*
X120356423Y-74485750D01*
X120356409Y-74485757D01*
X120157682Y-74600492D01*
X119975638Y-74740181D01*
X119813381Y-74902438D01*
X119673692Y-75084482D01*
X119558957Y-75283209D01*
X119558950Y-75283223D01*
X119471142Y-75495212D01*
X119411753Y-75716859D01*
X119411751Y-75716870D01*
X119381800Y-75944358D01*
X119381800Y-76173841D01*
X119406746Y-76363315D01*
X119411752Y-76401338D01*
X119411753Y-76401340D01*
X119447756Y-76535707D01*
X119446093Y-76605557D01*
X119406930Y-76663419D01*
X119342702Y-76690923D01*
X119327981Y-76691800D01*
X119173355Y-76691800D01*
X119018710Y-76722561D01*
X119018698Y-76722564D01*
X118873027Y-76782902D01*
X118873014Y-76782909D01*
X118741325Y-76870902D01*
X118674647Y-76891780D01*
X118672434Y-76891800D01*
X107918270Y-76891800D01*
X107918254Y-76891799D01*
X107910658Y-76891799D01*
X107752543Y-76891799D01*
X107657990Y-76917134D01*
X107588140Y-76915471D01*
X107578444Y-76911920D01*
X107369793Y-76825494D01*
X107141810Y-76764406D01*
X106907820Y-76733601D01*
X106907817Y-76733600D01*
X106907811Y-76733600D01*
X106671789Y-76733600D01*
X106671783Y-76733600D01*
X106671779Y-76733601D01*
X106437789Y-76764406D01*
X106209806Y-76825494D01*
X105991754Y-76915814D01*
X105991743Y-76915819D01*
X105787345Y-77033830D01*
X105600102Y-77177506D01*
X105600095Y-77177512D01*
X105433212Y-77344395D01*
X105433206Y-77344402D01*
X105289530Y-77531645D01*
X105171519Y-77736043D01*
X105171514Y-77736054D01*
X105081194Y-77954106D01*
X105020106Y-78182089D01*
X104989301Y-78416079D01*
X104989300Y-78416095D01*
X104989300Y-78652109D01*
X105019351Y-78880377D01*
X105020107Y-78886114D01*
X105027339Y-78913103D01*
X105081194Y-79114093D01*
X105171514Y-79332145D01*
X105171519Y-79332156D01*
X105193951Y-79371008D01*
X105289527Y-79536550D01*
X105289529Y-79536553D01*
X105289530Y-79536554D01*
X105433206Y-79723797D01*
X105433212Y-79723804D01*
X105600095Y-79890687D01*
X105600101Y-79890692D01*
X105787350Y-80034373D01*
X105918718Y-80110218D01*
X105991743Y-80152380D01*
X105991748Y-80152382D01*
X105991751Y-80152384D01*
X106209807Y-80242706D01*
X106437786Y-80303793D01*
X106671789Y-80334600D01*
X106671796Y-80334600D01*
X106907804Y-80334600D01*
X106907811Y-80334600D01*
X107141814Y-80303793D01*
X107369793Y-80242706D01*
X107587849Y-80152384D01*
X107792250Y-80034373D01*
X107979499Y-79890692D01*
X108146392Y-79723799D01*
X108290073Y-79536550D01*
X108408084Y-79332149D01*
X108498406Y-79114093D01*
X108559493Y-78886114D01*
X108590300Y-78652111D01*
X108590300Y-78416089D01*
X108566194Y-78232985D01*
X108576960Y-78163950D01*
X108623340Y-78111694D01*
X108689133Y-78092800D01*
X111082502Y-78092800D01*
X111149541Y-78112485D01*
X111195296Y-78165289D01*
X111205240Y-78234447D01*
X111176215Y-78298003D01*
X111170183Y-78304481D01*
X107625928Y-81848735D01*
X107564605Y-81882220D01*
X107494913Y-81877236D01*
X107490814Y-81875623D01*
X107369793Y-81825494D01*
X107141814Y-81764407D01*
X107141813Y-81764406D01*
X107141810Y-81764406D01*
X106907820Y-81733601D01*
X106907817Y-81733600D01*
X106907811Y-81733600D01*
X106671789Y-81733600D01*
X106671783Y-81733600D01*
X106671779Y-81733601D01*
X106437789Y-81764406D01*
X106209806Y-81825494D01*
X105991754Y-81915814D01*
X105991743Y-81915819D01*
X105787345Y-82033830D01*
X105600102Y-82177506D01*
X105600095Y-82177512D01*
X105433212Y-82344395D01*
X105433206Y-82344402D01*
X105289530Y-82531645D01*
X105289527Y-82531649D01*
X105289527Y-82531650D01*
X105285059Y-82539389D01*
X105171519Y-82736043D01*
X105171514Y-82736054D01*
X105081194Y-82954106D01*
X105020106Y-83182089D01*
X104989301Y-83416079D01*
X104989300Y-83416095D01*
X104989300Y-83652104D01*
X104989301Y-83652120D01*
X105020106Y-83886110D01*
X105081194Y-84114093D01*
X105171514Y-84332145D01*
X105171519Y-84332156D01*
X105225060Y-84424890D01*
X105289527Y-84536550D01*
X105289529Y-84536553D01*
X105289530Y-84536554D01*
X105433206Y-84723797D01*
X105433212Y-84723804D01*
X105600095Y-84890687D01*
X105600101Y-84890692D01*
X105787350Y-85034373D01*
X105918718Y-85110218D01*
X105991743Y-85152380D01*
X105991748Y-85152382D01*
X105991751Y-85152384D01*
X106209807Y-85242706D01*
X106437786Y-85303793D01*
X106671789Y-85334600D01*
X106671796Y-85334600D01*
X106907804Y-85334600D01*
X106907811Y-85334600D01*
X107141814Y-85303793D01*
X107369793Y-85242706D01*
X107587849Y-85152384D01*
X107792250Y-85034373D01*
X107979499Y-84890692D01*
X108146392Y-84723799D01*
X108290073Y-84536550D01*
X108405342Y-84336898D01*
X108408080Y-84332156D01*
X108408080Y-84332155D01*
X108408084Y-84332149D01*
X108498406Y-84114093D01*
X108559493Y-83886114D01*
X108590300Y-83652111D01*
X108590300Y-83416089D01*
X108559493Y-83182086D01*
X108498406Y-82954107D01*
X108448284Y-82833103D01*
X108440815Y-82763634D01*
X108472090Y-82701154D01*
X108475135Y-82697998D01*
X112372617Y-78800519D01*
X112433940Y-78767034D01*
X112460298Y-78764200D01*
X119149444Y-78764200D01*
X119216483Y-78783885D01*
X119262238Y-78836689D01*
X119272182Y-78905847D01*
X119267376Y-78926513D01*
X119259674Y-78950218D01*
X119198746Y-79137731D01*
X119161800Y-79371002D01*
X119161800Y-79607197D01*
X119198746Y-79840468D01*
X119271733Y-80065096D01*
X119362230Y-80242705D01*
X119378957Y-80275533D01*
X119517783Y-80466610D01*
X119684790Y-80633617D01*
X119719427Y-80658783D01*
X119762092Y-80714113D01*
X119768071Y-80783726D01*
X119735465Y-80845521D01*
X119719430Y-80859415D01*
X119701665Y-80872322D01*
X119684788Y-80884584D01*
X119517785Y-81051587D01*
X119517785Y-81051588D01*
X119517783Y-81051590D01*
X119517556Y-81051903D01*
X119378957Y-81242666D01*
X119271733Y-81453103D01*
X119198746Y-81677731D01*
X119161800Y-81911002D01*
X119161800Y-82147197D01*
X119198746Y-82380468D01*
X119271733Y-82605096D01*
X119339705Y-82738497D01*
X119378957Y-82815533D01*
X119517783Y-83006610D01*
X119684790Y-83173617D01*
X119719427Y-83198783D01*
X119762092Y-83254113D01*
X119768071Y-83323726D01*
X119735465Y-83385521D01*
X119719430Y-83399415D01*
X119701665Y-83412322D01*
X119684788Y-83424584D01*
X119517785Y-83591587D01*
X119517785Y-83591588D01*
X119517783Y-83591590D01*
X119473817Y-83652104D01*
X119378957Y-83782666D01*
X119271733Y-83993103D01*
X119198746Y-84217731D01*
X119161800Y-84451002D01*
X119161800Y-84687197D01*
X119198746Y-84920468D01*
X119271733Y-85145096D01*
X119352594Y-85303793D01*
X119378957Y-85355533D01*
X119517783Y-85546610D01*
X119684790Y-85713617D01*
X119719427Y-85738783D01*
X119762092Y-85794113D01*
X119768071Y-85863726D01*
X119735465Y-85925521D01*
X119719430Y-85939415D01*
X119701665Y-85952322D01*
X119684788Y-85964584D01*
X119517785Y-86131587D01*
X119517785Y-86131588D01*
X119517783Y-86131590D01*
X119458162Y-86213650D01*
X119378957Y-86322666D01*
X119271733Y-86533103D01*
X119198746Y-86757731D01*
X119161800Y-86991002D01*
X119161800Y-87227197D01*
X119198746Y-87460468D01*
X119271733Y-87685096D01*
X119345570Y-87830008D01*
X119378957Y-87895533D01*
X119517783Y-88086610D01*
X119684790Y-88253617D01*
X119719427Y-88278783D01*
X119762092Y-88334113D01*
X119768071Y-88403726D01*
X119735465Y-88465521D01*
X119719430Y-88479415D01*
X119701665Y-88492322D01*
X119684788Y-88504584D01*
X119517785Y-88671587D01*
X119517785Y-88671588D01*
X119517783Y-88671590D01*
X119458162Y-88753650D01*
X119378957Y-88862666D01*
X119271733Y-89073103D01*
X119198746Y-89297731D01*
X119161800Y-89531002D01*
X119161800Y-89767197D01*
X119198746Y-90000468D01*
X119271733Y-90225096D01*
X119324533Y-90328720D01*
X119378957Y-90435533D01*
X119517783Y-90626610D01*
X119684790Y-90793617D01*
X119719427Y-90818783D01*
X119762092Y-90874113D01*
X119768071Y-90943726D01*
X119735465Y-91005521D01*
X119719430Y-91019415D01*
X119701665Y-91032322D01*
X119684788Y-91044584D01*
X119517785Y-91211587D01*
X119517785Y-91211588D01*
X119517783Y-91211590D01*
X119464236Y-91285291D01*
X119378957Y-91402666D01*
X119271733Y-91613103D01*
X119198746Y-91837731D01*
X119161800Y-92071002D01*
X119161800Y-92307197D01*
X119198746Y-92540468D01*
X119271733Y-92765096D01*
X119373925Y-92965657D01*
X119378957Y-92975533D01*
X119517783Y-93166610D01*
X119684790Y-93333617D01*
X119719427Y-93358783D01*
X119762092Y-93414113D01*
X119768071Y-93483726D01*
X119735465Y-93545521D01*
X119719430Y-93559415D01*
X119701665Y-93572322D01*
X119684788Y-93584584D01*
X119517785Y-93751587D01*
X119517785Y-93751588D01*
X119517783Y-93751590D01*
X119488097Y-93792449D01*
X119378957Y-93942666D01*
X119271733Y-94153103D01*
X119198746Y-94377731D01*
X119161800Y-94611002D01*
X119161800Y-94847197D01*
X119198746Y-95080468D01*
X119271733Y-95305096D01*
X119351472Y-95461591D01*
X119378957Y-95515533D01*
X119517783Y-95706610D01*
X119684790Y-95873617D01*
X119719427Y-95898783D01*
X119762092Y-95954113D01*
X119768071Y-96023726D01*
X119735465Y-96085521D01*
X119719430Y-96099415D01*
X119702401Y-96111788D01*
X119684788Y-96124584D01*
X119517785Y-96291587D01*
X119517785Y-96291588D01*
X119517783Y-96291590D01*
X119503761Y-96310890D01*
X119378957Y-96482666D01*
X119271733Y-96693103D01*
X119198746Y-96917731D01*
X119161800Y-97151002D01*
X119161800Y-97387197D01*
X119198746Y-97620468D01*
X119271733Y-97845096D01*
X119378957Y-98055533D01*
X119517783Y-98246610D01*
X119684790Y-98413617D01*
X119719427Y-98438783D01*
X119762092Y-98494113D01*
X119768071Y-98563726D01*
X119735465Y-98625521D01*
X119719430Y-98639415D01*
X119701665Y-98652322D01*
X119684788Y-98664584D01*
X119517785Y-98831587D01*
X119517785Y-98831588D01*
X119517783Y-98831590D01*
X119466076Y-98902758D01*
X119378957Y-99022666D01*
X119271733Y-99233103D01*
X119198746Y-99457731D01*
X119161800Y-99691002D01*
X119161800Y-99927197D01*
X119198747Y-100160469D01*
X119198747Y-100160472D01*
X119239750Y-100286664D01*
X119241745Y-100356505D01*
X119209500Y-100412663D01*
X112224884Y-107397281D01*
X112163561Y-107430766D01*
X112137203Y-107433600D01*
X108714299Y-107433600D01*
X108647260Y-107413915D01*
X108601505Y-107361111D01*
X108590299Y-107309600D01*
X108590299Y-106934098D01*
X108590298Y-106934081D01*
X108579799Y-106831303D01*
X108579798Y-106831300D01*
X108557267Y-106763306D01*
X108524614Y-106664766D01*
X108432512Y-106515444D01*
X108308456Y-106391388D01*
X108169763Y-106305842D01*
X108159136Y-106299287D01*
X108159131Y-106299285D01*
X108114754Y-106284580D01*
X107992597Y-106244101D01*
X107992595Y-106244100D01*
X107889810Y-106233600D01*
X105689798Y-106233600D01*
X105689781Y-106233601D01*
X105587003Y-106244100D01*
X105587000Y-106244101D01*
X105420468Y-106299285D01*
X105420463Y-106299287D01*
X105271142Y-106391389D01*
X105147089Y-106515442D01*
X105054987Y-106664763D01*
X105054985Y-106664768D01*
X105042329Y-106702961D01*
X104999801Y-106831303D01*
X104999801Y-106831304D01*
X104999800Y-106831304D01*
X104989300Y-106934083D01*
X104989300Y-109134101D01*
X104989301Y-109134118D01*
X104999800Y-109236896D01*
X104999801Y-109236899D01*
X105054985Y-109403431D01*
X105054987Y-109403436D01*
X105089140Y-109458807D01*
X105147088Y-109552756D01*
X105271144Y-109676812D01*
X105420466Y-109768914D01*
X105587003Y-109824099D01*
X105689791Y-109834600D01*
X107889808Y-109834599D01*
X107992597Y-109824099D01*
X108159134Y-109768914D01*
X108308456Y-109676812D01*
X108432512Y-109552756D01*
X108524614Y-109403434D01*
X108579799Y-109236897D01*
X108590300Y-109134109D01*
X108590300Y-108758600D01*
X108609985Y-108691561D01*
X108662789Y-108645806D01*
X108714300Y-108634600D01*
X112350631Y-108634600D01*
X112350647Y-108634601D01*
X112358243Y-108634601D01*
X112516354Y-108634601D01*
X112516357Y-108634601D01*
X112669085Y-108593677D01*
X112748679Y-108547723D01*
X112806016Y-108514620D01*
X112917820Y-108402816D01*
X112917820Y-108402814D01*
X112928024Y-108392611D01*
X112928027Y-108392606D01*
X118950121Y-102370513D01*
X119011442Y-102337030D01*
X119081134Y-102342014D01*
X119137067Y-102383886D01*
X119161484Y-102449350D01*
X119161800Y-102458196D01*
X119161800Y-102467197D01*
X119198746Y-102700468D01*
X119271733Y-102925096D01*
X119351472Y-103081591D01*
X119378957Y-103135533D01*
X119517783Y-103326610D01*
X119684790Y-103493617D01*
X119719427Y-103518783D01*
X119762092Y-103574113D01*
X119768071Y-103643726D01*
X119735465Y-103705521D01*
X119719430Y-103719415D01*
X119701665Y-103732322D01*
X119684788Y-103744584D01*
X119517785Y-103911587D01*
X119517785Y-103911588D01*
X119517783Y-103911590D01*
X119458162Y-103993650D01*
X119378957Y-104102666D01*
X119271733Y-104313103D01*
X119198746Y-104537731D01*
X119161800Y-104771002D01*
X119161800Y-105007197D01*
X119198746Y-105240468D01*
X119271733Y-105465096D01*
X119351472Y-105621591D01*
X119378957Y-105675533D01*
X119517783Y-105866610D01*
X119684790Y-106033617D01*
X119719427Y-106058783D01*
X119762092Y-106114113D01*
X119768071Y-106183726D01*
X119735465Y-106245521D01*
X119719430Y-106259415D01*
X119701665Y-106272322D01*
X119684788Y-106284584D01*
X119517785Y-106451587D01*
X119517785Y-106451588D01*
X119517783Y-106451590D01*
X119488097Y-106492449D01*
X119378957Y-106642666D01*
X119271733Y-106853103D01*
X119198746Y-107077731D01*
X119161800Y-107311002D01*
X119161800Y-107547197D01*
X119198746Y-107780468D01*
X119271733Y-108005096D01*
X119363327Y-108184857D01*
X119378957Y-108215533D01*
X119517783Y-108406610D01*
X119684790Y-108573617D01*
X119719427Y-108598783D01*
X119762092Y-108654113D01*
X119768071Y-108723726D01*
X119735465Y-108785521D01*
X119719430Y-108799415D01*
X119701665Y-108812322D01*
X119684788Y-108824584D01*
X119517785Y-108991587D01*
X119517785Y-108991588D01*
X119517783Y-108991590D01*
X119458660Y-109072965D01*
X119378957Y-109182666D01*
X119318717Y-109300895D01*
X119270742Y-109351691D01*
X119208232Y-109368600D01*
X109941470Y-109368600D01*
X109941454Y-109368599D01*
X109933858Y-109368599D01*
X109775743Y-109368599D01*
X109704037Y-109387813D01*
X109623014Y-109409523D01*
X109623009Y-109409526D01*
X109486090Y-109488575D01*
X109486082Y-109488581D01*
X107625928Y-111348734D01*
X107564605Y-111382219D01*
X107494913Y-111377235D01*
X107490794Y-111375614D01*
X107369797Y-111325495D01*
X107141810Y-111264406D01*
X106907820Y-111233601D01*
X106907817Y-111233600D01*
X106907811Y-111233600D01*
X106671789Y-111233600D01*
X106671783Y-111233600D01*
X106671779Y-111233601D01*
X106437789Y-111264406D01*
X106209806Y-111325494D01*
X105991754Y-111415814D01*
X105991743Y-111415819D01*
X105787345Y-111533830D01*
X105600102Y-111677506D01*
X105600095Y-111677512D01*
X105433212Y-111844395D01*
X105433206Y-111844402D01*
X105289530Y-112031645D01*
X105171519Y-112236043D01*
X105171514Y-112236054D01*
X105081194Y-112454106D01*
X105020106Y-112682089D01*
X104989301Y-112916079D01*
X104989300Y-112916095D01*
X104989300Y-113152104D01*
X104989301Y-113152120D01*
X105019065Y-113378205D01*
X105020107Y-113386114D01*
X105028940Y-113419078D01*
X105081194Y-113614093D01*
X105171514Y-113832145D01*
X105171519Y-113832156D01*
X105242477Y-113955057D01*
X105289527Y-114036550D01*
X105289529Y-114036553D01*
X105289530Y-114036554D01*
X105433206Y-114223797D01*
X105433212Y-114223804D01*
X105600095Y-114390687D01*
X105600101Y-114390692D01*
X105787350Y-114534373D01*
X105858051Y-114575192D01*
X105991743Y-114652380D01*
X105991748Y-114652382D01*
X105991751Y-114652384D01*
X106209807Y-114742706D01*
X106437786Y-114803793D01*
X106671789Y-114834600D01*
X106671796Y-114834600D01*
X106907804Y-114834600D01*
X106907811Y-114834600D01*
X107141814Y-114803793D01*
X107369793Y-114742706D01*
X107587849Y-114652384D01*
X107792250Y-114534373D01*
X107979499Y-114390692D01*
X108146392Y-114223799D01*
X108290073Y-114036550D01*
X108408084Y-113832149D01*
X108498406Y-113614093D01*
X108559493Y-113386114D01*
X108590300Y-113152111D01*
X108590300Y-112916089D01*
X108559493Y-112682086D01*
X108498406Y-112454107D01*
X108448283Y-112333101D01*
X108440815Y-112263635D01*
X108472090Y-112201156D01*
X108475135Y-112197999D01*
X110067217Y-110605919D01*
X110128540Y-110572434D01*
X110154898Y-110569600D01*
X119208232Y-110569600D01*
X119275271Y-110589285D01*
X119318716Y-110637303D01*
X119378957Y-110755533D01*
X119517783Y-110946610D01*
X119684790Y-111113617D01*
X119744016Y-111156647D01*
X119786681Y-111211975D01*
X119794748Y-111266693D01*
X119793193Y-111286440D01*
X120524725Y-112017971D01*
X120465447Y-112033855D01*
X120349153Y-112100998D01*
X120254198Y-112195953D01*
X120187055Y-112312247D01*
X120171171Y-112371525D01*
X119439640Y-111639994D01*
X119379384Y-111722930D01*
X119272197Y-111933297D01*
X119199234Y-112157852D01*
X119162300Y-112391047D01*
X119162300Y-112627152D01*
X119199234Y-112860347D01*
X119272197Y-113084902D01*
X119379387Y-113295274D01*
X119439638Y-113378204D01*
X119439640Y-113378205D01*
X120171171Y-112646674D01*
X120187055Y-112705953D01*
X120254198Y-112822247D01*
X120349153Y-112917202D01*
X120465447Y-112984345D01*
X120524725Y-113000228D01*
X119793193Y-113731758D01*
X119794748Y-113751505D01*
X119780384Y-113819883D01*
X119744017Y-113861551D01*
X119684790Y-113904582D01*
X119517785Y-114071587D01*
X119517785Y-114071588D01*
X119517783Y-114071590D01*
X119458162Y-114153650D01*
X119378957Y-114262666D01*
X119271733Y-114473103D01*
X119198746Y-114697731D01*
X119161800Y-114931002D01*
X119161800Y-115167197D01*
X119198746Y-115400468D01*
X119271733Y-115625096D01*
X119306445Y-115693221D01*
X119378957Y-115835533D01*
X119517783Y-116026610D01*
X119684790Y-116193617D01*
X119875867Y-116332443D01*
X119930012Y-116360031D01*
X120086303Y-116439666D01*
X120086305Y-116439666D01*
X120086308Y-116439668D01*
X120184027Y-116471419D01*
X120310931Y-116512653D01*
X120544203Y-116549600D01*
X120544208Y-116549600D01*
X120780397Y-116549600D01*
X121013668Y-116512653D01*
X121104622Y-116483100D01*
X121238292Y-116439668D01*
X121448733Y-116332443D01*
X121639810Y-116193617D01*
X121806817Y-116026610D01*
X121945643Y-115835533D01*
X122052868Y-115625092D01*
X122125853Y-115400468D01*
X122138710Y-115319294D01*
X122162800Y-115167197D01*
X122162800Y-114931002D01*
X122125853Y-114697731D01*
X122052866Y-114473103D01*
X121996302Y-114362091D01*
X121945643Y-114262667D01*
X121806817Y-114071590D01*
X121639810Y-113904583D01*
X121580582Y-113861551D01*
X121537917Y-113806222D01*
X121529850Y-113751504D01*
X121531404Y-113731757D01*
X120799874Y-113000228D01*
X120859153Y-112984345D01*
X120975447Y-112917202D01*
X121070402Y-112822247D01*
X121137545Y-112705953D01*
X121153428Y-112646675D01*
X121884958Y-113378205D01*
X121884958Y-113378204D01*
X121945214Y-113295269D01*
X121945218Y-113295263D01*
X122052402Y-113084902D01*
X122125365Y-112860347D01*
X122162300Y-112627152D01*
X122162300Y-112391047D01*
X122125365Y-112157852D01*
X122052402Y-111933297D01*
X121945214Y-111722928D01*
X121884958Y-111639994D01*
X121884958Y-111639993D01*
X121153428Y-112371524D01*
X121137545Y-112312247D01*
X121070402Y-112195953D01*
X120975447Y-112100998D01*
X120859153Y-112033855D01*
X120799874Y-112017971D01*
X121531405Y-111286440D01*
X121529851Y-111266694D01*
X121544215Y-111198316D01*
X121580584Y-111156647D01*
X121639810Y-111113617D01*
X121806817Y-110946610D01*
X121945643Y-110755533D01*
X122052868Y-110545092D01*
X122125853Y-110320468D01*
X122139629Y-110233489D01*
X122162800Y-110087197D01*
X122162800Y-109851002D01*
X122125853Y-109617731D01*
X122074215Y-109458807D01*
X122052868Y-109393108D01*
X122052866Y-109393105D01*
X122052866Y-109393103D01*
X121984894Y-109259702D01*
X121945643Y-109182667D01*
X121806817Y-108991590D01*
X121639810Y-108824583D01*
X121605172Y-108799417D01*
X121562507Y-108744089D01*
X121556528Y-108674475D01*
X121589133Y-108612680D01*
X121605173Y-108598782D01*
X121606525Y-108597800D01*
X121639810Y-108573617D01*
X121806817Y-108406610D01*
X121945643Y-108215533D01*
X122052868Y-108005092D01*
X122125853Y-107780468D01*
X122137616Y-107706201D01*
X122162800Y-107547197D01*
X122162800Y-107311002D01*
X122125853Y-107077731D01*
X122088383Y-106962411D01*
X122052868Y-106853108D01*
X122052866Y-106853105D01*
X122052866Y-106853103D01*
X121976364Y-106702961D01*
X121945643Y-106642667D01*
X121806817Y-106451590D01*
X121639810Y-106284583D01*
X121605172Y-106259417D01*
X121562507Y-106204089D01*
X121556528Y-106134475D01*
X121589133Y-106072680D01*
X121605173Y-106058782D01*
X121639810Y-106033617D01*
X121806817Y-105866610D01*
X121945643Y-105675533D01*
X122052868Y-105465092D01*
X122125853Y-105240468D01*
X122140341Y-105148992D01*
X122170270Y-105085858D01*
X122229581Y-105048926D01*
X122299444Y-105049924D01*
X122357677Y-105088533D01*
X122377375Y-105120937D01*
X122438404Y-105268276D01*
X122438409Y-105268285D01*
X122526010Y-105399388D01*
X122526013Y-105399392D01*
X122637507Y-105510886D01*
X122637511Y-105510889D01*
X122768614Y-105598490D01*
X122768627Y-105598497D01*
X122914298Y-105658835D01*
X122914303Y-105658837D01*
X123041308Y-105684100D01*
X123068953Y-105689599D01*
X123068956Y-105689600D01*
X123068958Y-105689600D01*
X123226644Y-105689600D01*
X123226645Y-105689599D01*
X123381297Y-105658837D01*
X123526979Y-105598494D01*
X123570894Y-105569151D01*
X123658675Y-105510498D01*
X123725353Y-105489620D01*
X123727566Y-105489600D01*
X144608232Y-105489600D01*
X144675271Y-105509285D01*
X144718716Y-105557303D01*
X144778957Y-105675533D01*
X144917783Y-105866610D01*
X145084790Y-106033617D01*
X145119427Y-106058783D01*
X145162092Y-106114113D01*
X145168071Y-106183726D01*
X145135465Y-106245521D01*
X145119430Y-106259415D01*
X145101665Y-106272322D01*
X145084788Y-106284584D01*
X144917785Y-106451587D01*
X144917785Y-106451588D01*
X144917783Y-106451590D01*
X144888097Y-106492449D01*
X144778957Y-106642666D01*
X144767697Y-106664766D01*
X144717489Y-106763306D01*
X144696502Y-106804495D01*
X144648528Y-106855291D01*
X144586017Y-106872200D01*
X124135766Y-106872200D01*
X124068727Y-106852515D01*
X124066875Y-106851302D01*
X123935185Y-106763309D01*
X123935172Y-106763302D01*
X123789501Y-106702964D01*
X123789489Y-106702961D01*
X123634845Y-106672200D01*
X123634842Y-106672200D01*
X123477158Y-106672200D01*
X123477155Y-106672200D01*
X123322510Y-106702961D01*
X123322498Y-106702964D01*
X123176827Y-106763302D01*
X123176814Y-106763309D01*
X123045711Y-106850910D01*
X123045707Y-106850913D01*
X122934213Y-106962407D01*
X122934210Y-106962411D01*
X122846609Y-107093514D01*
X122846602Y-107093527D01*
X122786264Y-107239198D01*
X122786261Y-107239210D01*
X122755500Y-107393853D01*
X122755500Y-107551546D01*
X122786261Y-107706189D01*
X122786264Y-107706201D01*
X122846602Y-107851872D01*
X122846609Y-107851885D01*
X122934210Y-107982988D01*
X122934213Y-107982992D01*
X123045707Y-108094486D01*
X123045711Y-108094489D01*
X123176814Y-108182090D01*
X123176827Y-108182097D01*
X123322498Y-108242435D01*
X123322503Y-108242437D01*
X123473207Y-108272414D01*
X123477153Y-108273199D01*
X123477156Y-108273200D01*
X123477158Y-108273200D01*
X123634844Y-108273200D01*
X123634845Y-108273199D01*
X123789497Y-108242437D01*
X123902166Y-108195767D01*
X123935172Y-108182097D01*
X123935172Y-108182096D01*
X123935179Y-108182094D01*
X123935185Y-108182090D01*
X124066875Y-108094098D01*
X124133553Y-108073220D01*
X124135766Y-108073200D01*
X144630447Y-108073200D01*
X144697486Y-108092885D01*
X144740932Y-108140905D01*
X144763327Y-108184857D01*
X144778957Y-108215533D01*
X144917783Y-108406610D01*
X145084790Y-108573617D01*
X145119427Y-108598783D01*
X145162092Y-108654113D01*
X145168071Y-108723726D01*
X145135465Y-108785521D01*
X145119430Y-108799415D01*
X145101665Y-108812322D01*
X145084788Y-108824584D01*
X144917785Y-108991587D01*
X144917785Y-108991588D01*
X144917783Y-108991590D01*
X144858660Y-109072965D01*
X144778957Y-109182666D01*
X144718717Y-109300895D01*
X144670742Y-109351691D01*
X144608232Y-109368600D01*
X124750466Y-109368600D01*
X124683427Y-109348915D01*
X124681575Y-109347702D01*
X124549885Y-109259709D01*
X124549872Y-109259702D01*
X124404201Y-109199364D01*
X124404189Y-109199361D01*
X124249545Y-109168600D01*
X124249542Y-109168600D01*
X124091858Y-109168600D01*
X124091855Y-109168600D01*
X123937210Y-109199361D01*
X123937198Y-109199364D01*
X123791527Y-109259702D01*
X123791514Y-109259709D01*
X123660411Y-109347310D01*
X123660407Y-109347313D01*
X123548913Y-109458807D01*
X123548910Y-109458811D01*
X123461309Y-109589914D01*
X123461302Y-109589927D01*
X123400964Y-109735598D01*
X123400961Y-109735610D01*
X123370200Y-109890253D01*
X123370200Y-110047946D01*
X123400961Y-110202589D01*
X123400964Y-110202601D01*
X123461302Y-110348272D01*
X123461309Y-110348285D01*
X123548910Y-110479388D01*
X123548913Y-110479392D01*
X123660407Y-110590886D01*
X123660411Y-110590889D01*
X123791514Y-110678490D01*
X123791527Y-110678497D01*
X123920337Y-110731851D01*
X123937203Y-110738837D01*
X124091853Y-110769599D01*
X124091856Y-110769600D01*
X124091858Y-110769600D01*
X124249544Y-110769600D01*
X124249545Y-110769599D01*
X124404197Y-110738837D01*
X124549879Y-110678494D01*
X124593794Y-110649151D01*
X124681575Y-110590498D01*
X124748253Y-110569620D01*
X124750466Y-110569600D01*
X144608232Y-110569600D01*
X144675271Y-110589285D01*
X144718716Y-110637303D01*
X144778957Y-110755533D01*
X144917783Y-110946610D01*
X145084790Y-111113617D01*
X145144016Y-111156647D01*
X145186681Y-111211975D01*
X145194748Y-111266693D01*
X145193193Y-111286440D01*
X145924725Y-112017971D01*
X145865447Y-112033855D01*
X145749153Y-112100998D01*
X145654198Y-112195953D01*
X145587055Y-112312247D01*
X145571171Y-112371525D01*
X144839640Y-111639994D01*
X144779384Y-111722930D01*
X144672197Y-111933297D01*
X144599234Y-112157852D01*
X144562300Y-112391047D01*
X144562300Y-112627152D01*
X144599234Y-112860347D01*
X144672197Y-113084902D01*
X144779387Y-113295274D01*
X144869335Y-113419078D01*
X144892815Y-113484884D01*
X144876989Y-113552938D01*
X144827659Y-113600879D01*
X144827754Y-113601053D01*
X144827130Y-113601393D01*
X144826884Y-113601633D01*
X144825811Y-113602113D01*
X144819964Y-113605306D01*
X144704755Y-113691552D01*
X144704752Y-113691555D01*
X144618506Y-113806764D01*
X144618502Y-113806771D01*
X144568208Y-113941616D01*
X144564143Y-113979428D01*
X144537404Y-114043979D01*
X144480011Y-114083826D01*
X144474593Y-114085260D01*
X144474599Y-114085279D01*
X144468762Y-114087049D01*
X144286692Y-114162464D01*
X144286679Y-114162471D01*
X144122818Y-114271960D01*
X144122814Y-114271963D01*
X143983463Y-114411314D01*
X143983460Y-114411318D01*
X143873971Y-114575179D01*
X143873964Y-114575192D01*
X143798550Y-114757260D01*
X143798547Y-114757270D01*
X143760100Y-114950556D01*
X143760100Y-115206500D01*
X143740415Y-115273539D01*
X143687611Y-115319294D01*
X143636100Y-115330500D01*
X131094357Y-115330500D01*
X131030695Y-115343163D01*
X131030682Y-115343166D01*
X131027235Y-115343852D01*
X130901064Y-115368949D01*
X130859125Y-115386321D01*
X130851129Y-115389632D01*
X130851121Y-115389635D01*
X130718992Y-115444364D01*
X130718979Y-115444371D01*
X130555119Y-115553859D01*
X130485440Y-115623538D01*
X130415761Y-115693218D01*
X123094481Y-123014498D01*
X123033158Y-123047983D01*
X122963466Y-123042999D01*
X122907533Y-123001127D01*
X122883116Y-122935663D01*
X122882800Y-122926817D01*
X122882800Y-122894372D01*
X122882799Y-122894358D01*
X122871513Y-122808635D01*
X122852848Y-122666862D01*
X122793458Y-122445213D01*
X122705644Y-122233212D01*
X122590911Y-122034488D01*
X122590908Y-122034485D01*
X122590907Y-122034482D01*
X122451218Y-121852438D01*
X122451211Y-121852430D01*
X122288970Y-121690189D01*
X122288961Y-121690181D01*
X122106917Y-121550492D01*
X121908190Y-121435757D01*
X121908176Y-121435750D01*
X121696187Y-121347942D01*
X121594237Y-121320625D01*
X121474538Y-121288552D01*
X121436515Y-121283546D01*
X121247041Y-121258600D01*
X121247034Y-121258600D01*
X121017566Y-121258600D01*
X121017558Y-121258600D01*
X120801015Y-121287109D01*
X120790062Y-121288552D01*
X120696376Y-121313654D01*
X120568412Y-121347942D01*
X120356423Y-121435750D01*
X120356409Y-121435757D01*
X120157682Y-121550492D01*
X119975638Y-121690181D01*
X119813381Y-121852438D01*
X119673692Y-122034482D01*
X119558957Y-122233209D01*
X119558950Y-122233223D01*
X119471142Y-122445212D01*
X119411753Y-122666859D01*
X119411751Y-122666870D01*
X119381800Y-122894358D01*
X119381800Y-123123841D01*
X119387140Y-123164397D01*
X119411752Y-123351338D01*
X119471142Y-123572987D01*
X119558950Y-123784976D01*
X119558957Y-123784990D01*
X119673692Y-123983717D01*
X119813381Y-124165761D01*
X119813389Y-124165770D01*
X119975630Y-124328011D01*
X119975638Y-124328018D01*
X120157682Y-124467707D01*
X120157685Y-124467708D01*
X120157688Y-124467711D01*
X120356412Y-124582444D01*
X120356417Y-124582446D01*
X120356423Y-124582449D01*
X120447780Y-124620290D01*
X120568413Y-124670258D01*
X120790062Y-124729648D01*
X121017566Y-124759600D01*
X121017573Y-124759600D01*
X121050017Y-124759600D01*
X121117056Y-124779285D01*
X121162811Y-124832089D01*
X121172755Y-124901247D01*
X121143730Y-124964803D01*
X121137698Y-124971281D01*
X114811697Y-131297281D01*
X114750374Y-131330766D01*
X114724016Y-131333600D01*
X113289798Y-131333600D01*
X113289781Y-131333601D01*
X113187003Y-131344100D01*
X113187000Y-131344101D01*
X113020468Y-131399285D01*
X113020463Y-131399287D01*
X112871142Y-131491389D01*
X112747089Y-131615442D01*
X112654987Y-131764763D01*
X112654985Y-131764768D01*
X112650762Y-131777512D01*
X112599801Y-131931303D01*
X112599801Y-131931304D01*
X112599800Y-131931304D01*
X112589300Y-132034083D01*
X112589300Y-134234101D01*
X112589301Y-134234118D01*
X112599800Y-134336896D01*
X112599801Y-134336899D01*
X112650762Y-134490687D01*
X112654986Y-134503434D01*
X112747088Y-134652756D01*
X112871144Y-134776812D01*
X113020466Y-134868914D01*
X113187003Y-134924099D01*
X113289791Y-134934600D01*
X115489808Y-134934599D01*
X115592597Y-134924099D01*
X115759134Y-134868914D01*
X115908456Y-134776812D01*
X116032512Y-134652756D01*
X116124614Y-134503434D01*
X116179799Y-134336897D01*
X116190300Y-134234109D01*
X116190299Y-133016095D01*
X117589300Y-133016095D01*
X117589300Y-133252104D01*
X117589301Y-133252120D01*
X117620093Y-133486014D01*
X117620107Y-133486114D01*
X117661070Y-133638988D01*
X117681194Y-133714093D01*
X117771514Y-133932145D01*
X117771519Y-133932156D01*
X117832167Y-134037200D01*
X117889527Y-134136550D01*
X117889529Y-134136553D01*
X117889530Y-134136554D01*
X118033206Y-134323797D01*
X118033212Y-134323804D01*
X118200095Y-134490687D01*
X118200102Y-134490693D01*
X118310106Y-134575101D01*
X118387350Y-134634373D01*
X118518718Y-134710218D01*
X118591743Y-134752380D01*
X118591748Y-134752382D01*
X118591751Y-134752384D01*
X118809807Y-134842706D01*
X119037786Y-134903793D01*
X119271789Y-134934600D01*
X119271796Y-134934600D01*
X119507804Y-134934600D01*
X119507811Y-134934600D01*
X119741814Y-134903793D01*
X119969793Y-134842706D01*
X120187849Y-134752384D01*
X120392250Y-134634373D01*
X120579499Y-134490692D01*
X120579504Y-134490687D01*
X120634448Y-134435744D01*
X120746387Y-134323804D01*
X120746392Y-134323799D01*
X120890073Y-134136550D01*
X121006669Y-133934600D01*
X121008080Y-133932156D01*
X121008080Y-133932155D01*
X121008084Y-133932149D01*
X121098406Y-133714093D01*
X121159493Y-133486114D01*
X121190300Y-133252111D01*
X121190300Y-133016114D01*
X122589800Y-133016114D01*
X122589800Y-133252085D01*
X122620599Y-133486014D01*
X122681670Y-133713937D01*
X122771960Y-133931919D01*
X122771965Y-133931928D01*
X122889944Y-134136271D01*
X122889945Y-134136272D01*
X122952521Y-134217823D01*
X123788758Y-133381587D01*
X123813778Y-133441990D01*
X123884912Y-133548451D01*
X123975449Y-133638988D01*
X124081910Y-133710122D01*
X124142311Y-133735141D01*
X123306075Y-134571377D01*
X123387627Y-134633954D01*
X123387628Y-134633955D01*
X123591971Y-134751934D01*
X123591980Y-134751939D01*
X123809963Y-134842229D01*
X123809961Y-134842229D01*
X124037885Y-134903300D01*
X124271814Y-134934099D01*
X124271829Y-134934100D01*
X124507771Y-134934100D01*
X124507785Y-134934099D01*
X124741714Y-134903300D01*
X124969637Y-134842229D01*
X125187619Y-134751939D01*
X125187628Y-134751934D01*
X125391981Y-134633950D01*
X125473523Y-134571379D01*
X125473523Y-134571376D01*
X124637287Y-133735141D01*
X124697690Y-133710122D01*
X124804151Y-133638988D01*
X124894688Y-133548451D01*
X124965822Y-133441990D01*
X124990841Y-133381588D01*
X125827076Y-134217823D01*
X125827079Y-134217823D01*
X125889650Y-134136281D01*
X126007634Y-133931928D01*
X126007639Y-133931919D01*
X126097929Y-133713937D01*
X126159000Y-133486014D01*
X126189799Y-133252085D01*
X126189800Y-133252071D01*
X126189800Y-133016128D01*
X126189799Y-133016114D01*
X126159000Y-132782185D01*
X126097929Y-132554262D01*
X126007639Y-132336280D01*
X126007634Y-132336271D01*
X125889655Y-132131928D01*
X125889654Y-132131927D01*
X125827077Y-132050375D01*
X124990841Y-132886611D01*
X124965822Y-132826210D01*
X124894688Y-132719749D01*
X124804151Y-132629212D01*
X124697690Y-132558078D01*
X124637288Y-132533058D01*
X125473523Y-131696821D01*
X125391972Y-131634245D01*
X125391971Y-131634244D01*
X125184112Y-131514235D01*
X125184787Y-131513064D01*
X125137584Y-131469637D01*
X125119903Y-131402041D01*
X125141573Y-131335617D01*
X125180067Y-131299392D01*
X125187927Y-131294677D01*
X125237379Y-131274194D01*
X125368489Y-131186589D01*
X125369017Y-131186060D01*
X125374185Y-131182961D01*
X125405191Y-131174889D01*
X125435753Y-131165320D01*
X125437966Y-131165300D01*
X141962923Y-131165300D01*
X142029962Y-131184985D01*
X142075717Y-131237789D01*
X142085661Y-131306947D01*
X142056636Y-131370503D01*
X142025631Y-131393903D01*
X142026613Y-131395495D01*
X142020467Y-131399285D01*
X142020466Y-131399286D01*
X141977976Y-131425494D01*
X141871142Y-131491389D01*
X141747089Y-131615442D01*
X141654987Y-131764763D01*
X141654985Y-131764768D01*
X141650762Y-131777512D01*
X141599801Y-131931303D01*
X141599801Y-131931304D01*
X141599800Y-131931304D01*
X141589300Y-132034083D01*
X141589300Y-134234101D01*
X141589301Y-134234118D01*
X141599800Y-134336896D01*
X141599801Y-134336899D01*
X141650762Y-134490687D01*
X141654986Y-134503434D01*
X141747088Y-134652756D01*
X141871144Y-134776812D01*
X142020466Y-134868914D01*
X142187003Y-134924099D01*
X142289791Y-134934600D01*
X144489808Y-134934599D01*
X144592597Y-134924099D01*
X144759134Y-134868914D01*
X144908456Y-134776812D01*
X145032512Y-134652756D01*
X145124614Y-134503434D01*
X145179799Y-134336897D01*
X145190300Y-134234109D01*
X145190299Y-132034092D01*
X145179799Y-131931303D01*
X145124614Y-131764766D01*
X145032512Y-131615444D01*
X144908456Y-131491388D01*
X144759134Y-131399286D01*
X144759132Y-131399285D01*
X144752987Y-131395495D01*
X144754486Y-131393063D01*
X144711837Y-131355516D01*
X144692681Y-131288323D01*
X144712893Y-131221441D01*
X144766056Y-131176103D01*
X144816677Y-131165300D01*
X147838991Y-131165300D01*
X147906030Y-131184985D01*
X147951785Y-131237789D01*
X147961729Y-131306947D01*
X147932704Y-131370503D01*
X147873926Y-131408277D01*
X147871119Y-131409065D01*
X147832761Y-131419343D01*
X147809806Y-131425494D01*
X147591754Y-131515814D01*
X147591743Y-131515819D01*
X147387345Y-131633830D01*
X147200102Y-131777506D01*
X147200095Y-131777512D01*
X147033212Y-131944395D01*
X147033206Y-131944402D01*
X146889530Y-132131645D01*
X146889527Y-132131649D01*
X146889527Y-132131650D01*
X146887939Y-132134400D01*
X146771519Y-132336043D01*
X146771514Y-132336054D01*
X146681194Y-132554106D01*
X146620106Y-132782089D01*
X146589301Y-133016079D01*
X146589300Y-133016095D01*
X146589300Y-133252104D01*
X146589301Y-133252120D01*
X146620093Y-133486014D01*
X146620107Y-133486114D01*
X146661070Y-133638988D01*
X146681194Y-133714093D01*
X146771514Y-133932145D01*
X146771519Y-133932156D01*
X146832167Y-134037200D01*
X146889527Y-134136550D01*
X146889529Y-134136553D01*
X146889530Y-134136554D01*
X147033206Y-134323797D01*
X147033212Y-134323804D01*
X147200095Y-134490687D01*
X147200102Y-134490693D01*
X147310106Y-134575101D01*
X147387350Y-134634373D01*
X147518718Y-134710218D01*
X147591743Y-134752380D01*
X147591748Y-134752382D01*
X147591751Y-134752384D01*
X147809807Y-134842706D01*
X148037786Y-134903793D01*
X148271789Y-134934600D01*
X148271796Y-134934600D01*
X148507804Y-134934600D01*
X148507811Y-134934600D01*
X148741814Y-134903793D01*
X148969793Y-134842706D01*
X149187849Y-134752384D01*
X149392250Y-134634373D01*
X149579499Y-134490692D01*
X149746392Y-134323799D01*
X149890073Y-134136550D01*
X150006669Y-133934600D01*
X150008080Y-133932156D01*
X150008080Y-133932155D01*
X150008084Y-133932149D01*
X150058205Y-133811147D01*
X150070748Y-133795581D01*
X150079053Y-133777397D01*
X150092223Y-133768932D01*
X150102046Y-133756744D01*
X150121013Y-133750431D01*
X150137831Y-133739623D01*
X150165391Y-133735660D01*
X150168340Y-133734679D01*
X150172766Y-133734600D01*
X150230434Y-133734600D01*
X150297473Y-133754285D01*
X150299325Y-133755498D01*
X150431014Y-133843490D01*
X150431027Y-133843497D01*
X150540878Y-133888998D01*
X150576703Y-133903837D01*
X150717880Y-133931919D01*
X150731353Y-133934599D01*
X150731356Y-133934600D01*
X150731358Y-133934600D01*
X150889044Y-133934600D01*
X150889045Y-133934599D01*
X151043697Y-133903837D01*
X151189379Y-133843494D01*
X151320489Y-133755889D01*
X151431989Y-133644389D01*
X151444486Y-133625684D01*
X151498095Y-133580880D01*
X151567419Y-133572170D01*
X151630448Y-133602322D01*
X151667170Y-133661764D01*
X151667363Y-133662479D01*
X151681191Y-133714086D01*
X151681192Y-133714089D01*
X151771514Y-133932145D01*
X151771519Y-133932156D01*
X151832167Y-134037200D01*
X151889527Y-134136550D01*
X151889529Y-134136553D01*
X151889530Y-134136554D01*
X152033206Y-134323797D01*
X152033212Y-134323804D01*
X152200095Y-134490687D01*
X152200102Y-134490693D01*
X152310106Y-134575101D01*
X152387350Y-134634373D01*
X152518718Y-134710218D01*
X152591743Y-134752380D01*
X152591748Y-134752382D01*
X152591751Y-134752384D01*
X152809807Y-134842706D01*
X153037786Y-134903793D01*
X153271789Y-134934600D01*
X153271796Y-134934600D01*
X153507804Y-134934600D01*
X153507811Y-134934600D01*
X153741814Y-134903793D01*
X153969793Y-134842706D01*
X154187849Y-134752384D01*
X154392250Y-134634373D01*
X154579499Y-134490692D01*
X154746392Y-134323799D01*
X154890073Y-134136550D01*
X155006669Y-133934600D01*
X155008080Y-133932156D01*
X155008088Y-133932140D01*
X155048285Y-133835095D01*
X155098406Y-133714093D01*
X155103542Y-133694923D01*
X155139905Y-133635263D01*
X155202752Y-133604732D01*
X155272127Y-133613026D01*
X155310998Y-133639334D01*
X156913884Y-135242220D01*
X156913886Y-135242221D01*
X156913890Y-135242224D01*
X157050809Y-135321273D01*
X157050816Y-135321277D01*
X157203543Y-135362201D01*
X157203545Y-135362201D01*
X157369254Y-135362201D01*
X157369270Y-135362200D01*
X180675531Y-135362200D01*
X180675547Y-135362201D01*
X180683143Y-135362201D01*
X180841254Y-135362201D01*
X180841257Y-135362201D01*
X180993985Y-135321277D01*
X181044104Y-135292339D01*
X181130916Y-135242220D01*
X181242720Y-135130416D01*
X181242720Y-135130414D01*
X181252928Y-135120207D01*
X181252930Y-135120204D01*
X181553671Y-134819462D01*
X181614992Y-134785979D01*
X181684684Y-134790963D01*
X181688803Y-134792584D01*
X181809807Y-134842706D01*
X182037786Y-134903793D01*
X182271789Y-134934600D01*
X182271796Y-134934600D01*
X182507804Y-134934600D01*
X182507811Y-134934600D01*
X182741814Y-134903793D01*
X182969793Y-134842706D01*
X183187849Y-134752384D01*
X183392250Y-134634373D01*
X183579499Y-134490692D01*
X183746392Y-134323799D01*
X183890073Y-134136550D01*
X184006669Y-133934600D01*
X184008080Y-133932156D01*
X184008080Y-133932155D01*
X184008084Y-133932149D01*
X184098406Y-133714093D01*
X184159493Y-133486114D01*
X184190300Y-133252111D01*
X184190300Y-133016089D01*
X184159493Y-132782086D01*
X184098406Y-132554107D01*
X184008084Y-132336051D01*
X184008082Y-132336047D01*
X184008080Y-132336043D01*
X183926721Y-132195127D01*
X183890073Y-132131650D01*
X183746392Y-131944401D01*
X183746387Y-131944395D01*
X183579504Y-131777512D01*
X183579497Y-131777506D01*
X183392254Y-131633830D01*
X183392253Y-131633829D01*
X183392250Y-131633827D01*
X183310757Y-131586777D01*
X183187856Y-131515819D01*
X183187845Y-131515814D01*
X182969793Y-131425494D01*
X182908517Y-131409075D01*
X182741814Y-131364407D01*
X182741813Y-131364406D01*
X182741810Y-131364406D01*
X182507820Y-131333601D01*
X182507817Y-131333600D01*
X182507811Y-131333600D01*
X182271789Y-131333600D01*
X182271783Y-131333600D01*
X182271779Y-131333601D01*
X182037789Y-131364406D01*
X181809806Y-131425494D01*
X181591754Y-131515814D01*
X181591743Y-131515819D01*
X181387345Y-131633830D01*
X181200102Y-131777506D01*
X181200095Y-131777512D01*
X181033212Y-131944395D01*
X181033206Y-131944402D01*
X180889530Y-132131645D01*
X180889527Y-132131649D01*
X180889527Y-132131650D01*
X180887939Y-132134400D01*
X180771519Y-132336043D01*
X180771514Y-132336054D01*
X180681194Y-132554106D01*
X180620106Y-132782089D01*
X180589301Y-133016079D01*
X180589300Y-133016095D01*
X180589300Y-133252104D01*
X180589301Y-133252120D01*
X180620093Y-133486014D01*
X180620107Y-133486114D01*
X180661070Y-133638988D01*
X180681194Y-133714093D01*
X180731315Y-133835095D01*
X180733452Y-133854971D01*
X180740438Y-133873702D01*
X180737110Y-133888998D01*
X180738784Y-133904565D01*
X180729835Y-133922442D01*
X180725586Y-133941975D01*
X180708899Y-133964266D01*
X180707509Y-133967044D01*
X180704456Y-133970207D01*
X180549782Y-134124882D01*
X180488461Y-134158366D01*
X180462103Y-134161200D01*
X179090616Y-134161200D01*
X179023577Y-134141515D01*
X178977822Y-134088711D01*
X178967878Y-134019553D01*
X178983229Y-133975200D01*
X179008080Y-133932156D01*
X179008080Y-133932155D01*
X179008084Y-133932149D01*
X179098406Y-133714093D01*
X179159493Y-133486114D01*
X179190300Y-133252111D01*
X179190300Y-133016089D01*
X179159493Y-132782086D01*
X179098406Y-132554107D01*
X179008084Y-132336051D01*
X179008082Y-132336047D01*
X179008080Y-132336043D01*
X178926721Y-132195127D01*
X178890073Y-132131650D01*
X178746392Y-131944401D01*
X178746387Y-131944395D01*
X178579504Y-131777512D01*
X178579497Y-131777506D01*
X178392254Y-131633830D01*
X178392253Y-131633829D01*
X178392250Y-131633827D01*
X178310757Y-131586777D01*
X178187856Y-131515819D01*
X178187845Y-131515814D01*
X177969793Y-131425494D01*
X177908517Y-131409075D01*
X177741814Y-131364407D01*
X177741813Y-131364406D01*
X177741810Y-131364406D01*
X177507820Y-131333601D01*
X177507817Y-131333600D01*
X177507811Y-131333600D01*
X177271789Y-131333600D01*
X177271783Y-131333600D01*
X177271779Y-131333601D01*
X177037789Y-131364406D01*
X176809806Y-131425494D01*
X176688803Y-131475615D01*
X176619334Y-131483084D01*
X176556855Y-131451808D01*
X176553670Y-131448735D01*
X174604290Y-129499355D01*
X174604288Y-129499352D01*
X174485417Y-129380481D01*
X174485416Y-129380480D01*
X174398604Y-129330360D01*
X174398604Y-129330359D01*
X174398600Y-129330358D01*
X174348485Y-129301423D01*
X174195757Y-129260499D01*
X174037643Y-129260499D01*
X174030047Y-129260499D01*
X174030031Y-129260500D01*
X148781866Y-129260500D01*
X148714827Y-129240815D01*
X148712975Y-129239602D01*
X148581285Y-129151609D01*
X148581272Y-129151602D01*
X148435601Y-129091264D01*
X148435589Y-129091261D01*
X148280945Y-129060500D01*
X148280942Y-129060500D01*
X148123258Y-129060500D01*
X148123255Y-129060500D01*
X147968610Y-129091261D01*
X147968598Y-129091264D01*
X147822927Y-129151602D01*
X147822914Y-129151609D01*
X147691811Y-129239210D01*
X147691807Y-129239213D01*
X147580313Y-129350707D01*
X147580310Y-129350711D01*
X147492709Y-129481814D01*
X147492702Y-129481827D01*
X147432364Y-129627498D01*
X147432361Y-129627510D01*
X147401600Y-129782153D01*
X147401600Y-129840300D01*
X147381915Y-129907339D01*
X147329111Y-129953094D01*
X147277600Y-129964300D01*
X125437966Y-129964300D01*
X125370927Y-129944615D01*
X125369075Y-129943402D01*
X125237385Y-129855409D01*
X125237372Y-129855402D01*
X125091701Y-129795064D01*
X125091689Y-129795061D01*
X124937045Y-129764300D01*
X124937042Y-129764300D01*
X124779358Y-129764300D01*
X124779355Y-129764300D01*
X124624710Y-129795061D01*
X124624698Y-129795064D01*
X124479027Y-129855402D01*
X124479014Y-129855409D01*
X124347911Y-129943010D01*
X124347907Y-129943013D01*
X124236413Y-130054507D01*
X124236410Y-130054511D01*
X124148809Y-130185614D01*
X124148802Y-130185627D01*
X124088464Y-130331298D01*
X124088461Y-130331310D01*
X124057700Y-130485953D01*
X124057700Y-130643646D01*
X124088461Y-130798289D01*
X124088464Y-130798301D01*
X124148802Y-130943972D01*
X124148809Y-130943985D01*
X124236410Y-131075088D01*
X124236413Y-131075092D01*
X124291608Y-131130287D01*
X124325093Y-131191610D01*
X124320109Y-131261302D01*
X124278237Y-131317235D01*
X124220113Y-131340907D01*
X124037885Y-131364899D01*
X123809962Y-131425970D01*
X123591980Y-131516260D01*
X123591971Y-131516265D01*
X123387628Y-131634244D01*
X123387618Y-131634250D01*
X123306075Y-131696820D01*
X123306075Y-131696821D01*
X124142312Y-132533058D01*
X124081910Y-132558078D01*
X123975449Y-132629212D01*
X123884912Y-132719749D01*
X123813778Y-132826210D01*
X123788758Y-132886612D01*
X122952521Y-132050375D01*
X122952520Y-132050375D01*
X122889950Y-132131918D01*
X122889944Y-132131928D01*
X122771965Y-132336271D01*
X122771960Y-132336280D01*
X122681670Y-132554262D01*
X122620599Y-132782185D01*
X122589800Y-133016114D01*
X121190300Y-133016114D01*
X121190300Y-133016089D01*
X121159493Y-132782086D01*
X121098406Y-132554107D01*
X121008084Y-132336051D01*
X121008082Y-132336047D01*
X121008080Y-132336043D01*
X120926721Y-132195127D01*
X120890073Y-132131650D01*
X120746392Y-131944401D01*
X120746387Y-131944395D01*
X120579504Y-131777512D01*
X120579497Y-131777506D01*
X120392254Y-131633830D01*
X120392253Y-131633829D01*
X120392250Y-131633827D01*
X120310757Y-131586777D01*
X120187856Y-131515819D01*
X120187845Y-131515814D01*
X119969793Y-131425494D01*
X119908517Y-131409075D01*
X119741814Y-131364407D01*
X119741813Y-131364406D01*
X119741810Y-131364406D01*
X119507820Y-131333601D01*
X119507817Y-131333600D01*
X119507811Y-131333600D01*
X119271789Y-131333600D01*
X119271783Y-131333600D01*
X119271779Y-131333601D01*
X119037789Y-131364406D01*
X118809806Y-131425494D01*
X118591754Y-131515814D01*
X118591743Y-131515819D01*
X118387345Y-131633830D01*
X118200102Y-131777506D01*
X118200095Y-131777512D01*
X118033212Y-131944395D01*
X118033206Y-131944402D01*
X117889530Y-132131645D01*
X117889527Y-132131649D01*
X117889527Y-132131650D01*
X117887939Y-132134400D01*
X117771519Y-132336043D01*
X117771514Y-132336054D01*
X117681194Y-132554106D01*
X117620106Y-132782089D01*
X117589301Y-133016079D01*
X117589300Y-133016095D01*
X116190299Y-133016095D01*
X116190299Y-132799880D01*
X116209984Y-132732842D01*
X116226613Y-132712205D01*
X131571001Y-117367819D01*
X131632324Y-117334334D01*
X131658682Y-117331500D01*
X144294818Y-117331500D01*
X144361857Y-117351185D01*
X144382499Y-117367819D01*
X145152346Y-118137668D01*
X145152350Y-118137671D01*
X145316210Y-118247159D01*
X145316216Y-118247162D01*
X145316217Y-118247163D01*
X145498296Y-118322583D01*
X145659520Y-118354652D01*
X145691588Y-118361030D01*
X145691589Y-118361031D01*
X147076923Y-118361031D01*
X147143962Y-118380716D01*
X147189717Y-118433520D01*
X147199661Y-118502678D01*
X147170636Y-118566234D01*
X147138922Y-118592418D01*
X147061409Y-118637169D01*
X147061405Y-118637172D01*
X146968469Y-118730108D01*
X146907145Y-118763592D01*
X146904980Y-118764043D01*
X146749640Y-118794942D01*
X146749630Y-118794945D01*
X146603959Y-118855283D01*
X146603946Y-118855290D01*
X146472843Y-118942891D01*
X146472839Y-118942894D01*
X146361345Y-119054388D01*
X146361342Y-119054392D01*
X146273741Y-119185495D01*
X146273734Y-119185508D01*
X146213396Y-119331179D01*
X146213393Y-119331191D01*
X146182632Y-119485834D01*
X146182632Y-119643527D01*
X146213393Y-119798170D01*
X146213396Y-119798182D01*
X146273734Y-119943853D01*
X146273741Y-119943866D01*
X146361342Y-120074969D01*
X146361345Y-120074973D01*
X146472839Y-120186467D01*
X146472843Y-120186470D01*
X146603946Y-120274071D01*
X146603959Y-120274078D01*
X146749630Y-120334416D01*
X146749635Y-120334418D01*
X146804847Y-120345400D01*
X146855463Y-120355469D01*
X146917374Y-120387854D01*
X146951948Y-120448569D01*
X146948209Y-120518339D01*
X146907342Y-120575011D01*
X146878725Y-120591647D01*
X146800123Y-120624204D01*
X146800114Y-120624209D01*
X146669011Y-120711810D01*
X146669007Y-120711813D01*
X146557513Y-120823307D01*
X146557510Y-120823311D01*
X146469909Y-120954414D01*
X146469902Y-120954427D01*
X146409564Y-121100098D01*
X146409561Y-121100108D01*
X146378012Y-121258714D01*
X146345627Y-121320625D01*
X146284911Y-121355199D01*
X146215141Y-121351458D01*
X146208940Y-121349082D01*
X146206198Y-121347946D01*
X146206191Y-121347943D01*
X146206187Y-121347942D01*
X145984538Y-121288552D01*
X145946515Y-121283546D01*
X145757041Y-121258600D01*
X145757034Y-121258600D01*
X145527566Y-121258600D01*
X145527558Y-121258600D01*
X145311015Y-121287109D01*
X145300062Y-121288552D01*
X145206376Y-121313654D01*
X145078412Y-121347942D01*
X144866423Y-121435750D01*
X144866409Y-121435757D01*
X144667682Y-121550492D01*
X144485638Y-121690181D01*
X144323381Y-121852438D01*
X144183692Y-122034482D01*
X144068957Y-122233209D01*
X144068950Y-122233223D01*
X143981142Y-122445212D01*
X143921753Y-122666859D01*
X143921751Y-122666870D01*
X143891800Y-122894358D01*
X143891800Y-123123841D01*
X143897140Y-123164397D01*
X143921752Y-123351338D01*
X143981142Y-123572987D01*
X144068950Y-123784976D01*
X144068957Y-123784990D01*
X144183692Y-123983717D01*
X144323381Y-124165761D01*
X144323389Y-124165770D01*
X144485630Y-124328011D01*
X144485638Y-124328018D01*
X144667682Y-124467707D01*
X144667685Y-124467708D01*
X144667688Y-124467711D01*
X144866412Y-124582444D01*
X144866417Y-124582446D01*
X144866423Y-124582449D01*
X144957780Y-124620290D01*
X145078413Y-124670258D01*
X145300062Y-124729648D01*
X145527566Y-124759600D01*
X145527573Y-124759600D01*
X145757027Y-124759600D01*
X145757034Y-124759600D01*
X145984538Y-124729648D01*
X146206187Y-124670258D01*
X146418188Y-124582444D01*
X146616912Y-124467711D01*
X146798961Y-124328019D01*
X146798965Y-124328014D01*
X146798970Y-124328011D01*
X146961211Y-124165770D01*
X146961214Y-124165765D01*
X146961219Y-124165761D01*
X147100911Y-123983712D01*
X147215644Y-123784988D01*
X147303458Y-123572987D01*
X147362848Y-123351338D01*
X147392800Y-123123834D01*
X147392800Y-122894366D01*
X147381513Y-122808634D01*
X147392278Y-122739599D01*
X147438658Y-122687343D01*
X147505927Y-122668458D01*
X147572728Y-122688938D01*
X147592133Y-122704768D01*
X151523639Y-126636274D01*
X151523649Y-126636285D01*
X151527979Y-126640615D01*
X151527980Y-126640616D01*
X151639784Y-126752420D01*
X151691345Y-126782188D01*
X151726595Y-126802539D01*
X151726597Y-126802541D01*
X151764651Y-126824511D01*
X151776715Y-126831477D01*
X151929443Y-126872400D01*
X152087557Y-126872400D01*
X171810034Y-126872400D01*
X171877073Y-126892085D01*
X171878925Y-126893298D01*
X172010614Y-126981290D01*
X172010627Y-126981297D01*
X172156298Y-127041635D01*
X172156303Y-127041637D01*
X172310953Y-127072399D01*
X172310956Y-127072400D01*
X172310958Y-127072400D01*
X172468644Y-127072400D01*
X172468645Y-127072399D01*
X172623297Y-127041637D01*
X172768979Y-126981294D01*
X172900089Y-126893689D01*
X173011589Y-126782189D01*
X173099194Y-126651079D01*
X173159537Y-126505397D01*
X173190300Y-126350742D01*
X173190300Y-126193058D01*
X173190300Y-126193055D01*
X173190299Y-126193053D01*
X173159538Y-126038410D01*
X173159537Y-126038403D01*
X173159535Y-126038398D01*
X173099197Y-125892727D01*
X173099190Y-125892714D01*
X173011589Y-125761611D01*
X173011586Y-125761607D01*
X172900092Y-125650113D01*
X172900088Y-125650110D01*
X172768985Y-125562509D01*
X172768972Y-125562502D01*
X172623301Y-125502164D01*
X172623289Y-125502161D01*
X172468645Y-125471400D01*
X172468642Y-125471400D01*
X172310958Y-125471400D01*
X172310955Y-125471400D01*
X172156310Y-125502161D01*
X172156298Y-125502164D01*
X172010627Y-125562502D01*
X172010614Y-125562509D01*
X171878925Y-125650502D01*
X171812247Y-125671380D01*
X171810034Y-125671400D01*
X152308597Y-125671400D01*
X152241558Y-125651715D01*
X152220916Y-125635081D01*
X151557116Y-124971281D01*
X151523631Y-124909958D01*
X151528615Y-124840266D01*
X151570487Y-124784333D01*
X151635951Y-124759916D01*
X151644797Y-124759600D01*
X151802027Y-124759600D01*
X151802034Y-124759600D01*
X152029538Y-124729648D01*
X152251187Y-124670258D01*
X152463188Y-124582444D01*
X152661912Y-124467711D01*
X152843961Y-124328019D01*
X152843965Y-124328014D01*
X152843970Y-124328011D01*
X153006211Y-124165770D01*
X153006214Y-124165765D01*
X153006219Y-124165761D01*
X153145911Y-123983712D01*
X153260644Y-123784988D01*
X153348458Y-123572987D01*
X153407848Y-123351338D01*
X153437800Y-123123834D01*
X153437800Y-122894366D01*
X153437799Y-122894358D01*
X174446800Y-122894358D01*
X174446800Y-123123841D01*
X174452140Y-123164397D01*
X174476752Y-123351338D01*
X174536142Y-123572987D01*
X174623950Y-123784976D01*
X174623957Y-123784990D01*
X174738692Y-123983717D01*
X174878381Y-124165761D01*
X174878389Y-124165770D01*
X175040630Y-124328011D01*
X175040638Y-124328018D01*
X175222682Y-124467707D01*
X175222685Y-124467708D01*
X175222688Y-124467711D01*
X175421412Y-124582444D01*
X175421417Y-124582446D01*
X175421423Y-124582449D01*
X175512780Y-124620290D01*
X175633413Y-124670258D01*
X175855062Y-124729648D01*
X176082566Y-124759600D01*
X176082573Y-124759600D01*
X176312027Y-124759600D01*
X176312034Y-124759600D01*
X176539538Y-124729648D01*
X176761187Y-124670258D01*
X176973188Y-124582444D01*
X177171912Y-124467711D01*
X177353961Y-124328019D01*
X177353965Y-124328014D01*
X177353970Y-124328011D01*
X177516211Y-124165770D01*
X177516214Y-124165765D01*
X177516219Y-124165761D01*
X177655911Y-123983712D01*
X177770644Y-123784988D01*
X177858458Y-123572987D01*
X177917848Y-123351338D01*
X177947800Y-123123834D01*
X177947800Y-122894366D01*
X177917848Y-122666862D01*
X177858458Y-122445213D01*
X177770644Y-122233212D01*
X177655911Y-122034488D01*
X177655908Y-122034485D01*
X177655907Y-122034482D01*
X177516218Y-121852438D01*
X177516211Y-121852430D01*
X177353970Y-121690189D01*
X177353961Y-121690181D01*
X177171917Y-121550492D01*
X176973190Y-121435757D01*
X176973176Y-121435750D01*
X176761187Y-121347942D01*
X176659237Y-121320625D01*
X176539538Y-121288552D01*
X176501515Y-121283546D01*
X176312041Y-121258600D01*
X176312034Y-121258600D01*
X176082566Y-121258600D01*
X176082558Y-121258600D01*
X175866015Y-121287109D01*
X175855062Y-121288552D01*
X175761376Y-121313654D01*
X175633412Y-121347942D01*
X175421423Y-121435750D01*
X175421409Y-121435757D01*
X175222682Y-121550492D01*
X175040638Y-121690181D01*
X174878381Y-121852438D01*
X174738692Y-122034482D01*
X174623957Y-122233209D01*
X174623950Y-122233223D01*
X174536142Y-122445212D01*
X174476753Y-122666859D01*
X174476751Y-122666870D01*
X174446800Y-122894358D01*
X153437799Y-122894358D01*
X153407848Y-122666862D01*
X153348458Y-122445213D01*
X153260644Y-122233212D01*
X153145911Y-122034488D01*
X153145908Y-122034485D01*
X153145907Y-122034482D01*
X153006218Y-121852438D01*
X153006211Y-121852430D01*
X152843970Y-121690189D01*
X152843961Y-121690181D01*
X152661917Y-121550492D01*
X152463190Y-121435757D01*
X152463176Y-121435750D01*
X152251187Y-121347942D01*
X152149237Y-121320625D01*
X152029538Y-121288552D01*
X151991515Y-121283546D01*
X151802041Y-121258600D01*
X151802034Y-121258600D01*
X151572566Y-121258600D01*
X151572558Y-121258600D01*
X151356015Y-121287109D01*
X151345062Y-121288552D01*
X151251376Y-121313654D01*
X151123412Y-121347942D01*
X150911423Y-121435750D01*
X150911409Y-121435757D01*
X150712682Y-121550492D01*
X150530638Y-121690181D01*
X150368381Y-121852438D01*
X150228692Y-122034482D01*
X150113957Y-122233209D01*
X150113950Y-122233223D01*
X150026142Y-122445212D01*
X149966753Y-122666859D01*
X149966751Y-122666870D01*
X149936800Y-122894358D01*
X149936800Y-123051603D01*
X149917115Y-123118642D01*
X149864311Y-123164397D01*
X149795153Y-123174341D01*
X149731597Y-123145316D01*
X149725119Y-123139284D01*
X148016119Y-121430284D01*
X147982634Y-121368961D01*
X147979800Y-121342603D01*
X147979800Y-121254755D01*
X147979799Y-121254753D01*
X147949038Y-121100110D01*
X147949038Y-121100108D01*
X147949037Y-121100103D01*
X147949035Y-121100098D01*
X147888697Y-120954427D01*
X147888690Y-120954414D01*
X147801089Y-120823311D01*
X147801086Y-120823307D01*
X147689592Y-120711813D01*
X147689588Y-120711810D01*
X147558485Y-120624209D01*
X147558472Y-120624202D01*
X147412801Y-120563864D01*
X147412791Y-120563861D01*
X147306967Y-120542811D01*
X147245056Y-120510426D01*
X147210482Y-120449710D01*
X147214223Y-120379940D01*
X147255089Y-120323269D01*
X147283700Y-120306636D01*
X147362311Y-120274075D01*
X147493421Y-120186470D01*
X147604921Y-120074970D01*
X147692526Y-119943860D01*
X147752869Y-119798178D01*
X147752869Y-119798176D01*
X147754292Y-119794742D01*
X147798132Y-119740338D01*
X147864426Y-119718273D01*
X147868853Y-119718194D01*
X152758137Y-119718194D01*
X152758153Y-119718195D01*
X152765749Y-119718195D01*
X152923860Y-119718195D01*
X152923863Y-119718195D01*
X153076591Y-119677271D01*
X153135044Y-119643523D01*
X153213522Y-119598214D01*
X153325326Y-119486410D01*
X153325326Y-119486408D01*
X153335526Y-119476209D01*
X153335529Y-119476204D01*
X153496825Y-119314909D01*
X153558145Y-119281427D01*
X153627837Y-119286411D01*
X153683770Y-119328283D01*
X153699064Y-119355140D01*
X153755204Y-119490676D01*
X153755209Y-119490685D01*
X153842810Y-119621788D01*
X153842813Y-119621792D01*
X153954307Y-119733286D01*
X153954311Y-119733289D01*
X154085414Y-119820890D01*
X154085427Y-119820897D01*
X154231098Y-119881235D01*
X154231103Y-119881237D01*
X154385753Y-119911999D01*
X154385756Y-119912000D01*
X154385758Y-119912000D01*
X154543444Y-119912000D01*
X154543445Y-119911999D01*
X154698097Y-119881237D01*
X154843779Y-119820894D01*
X154843785Y-119820890D01*
X154975475Y-119732898D01*
X155042153Y-119712020D01*
X155044366Y-119712000D01*
X190238834Y-119712000D01*
X190305873Y-119731685D01*
X190307725Y-119732898D01*
X190439414Y-119820890D01*
X190439427Y-119820897D01*
X190585098Y-119881235D01*
X190585103Y-119881237D01*
X190739753Y-119911999D01*
X190739756Y-119912000D01*
X190739758Y-119912000D01*
X190897444Y-119912000D01*
X190897445Y-119911999D01*
X191052097Y-119881237D01*
X191197779Y-119820894D01*
X191328889Y-119733289D01*
X191440389Y-119621789D01*
X191527994Y-119490679D01*
X191588337Y-119344997D01*
X191619100Y-119190342D01*
X191619100Y-119032658D01*
X191619100Y-119032655D01*
X191619099Y-119032653D01*
X191588337Y-118878003D01*
X191553933Y-118794944D01*
X191527997Y-118732327D01*
X191527990Y-118732314D01*
X191440389Y-118601211D01*
X191440386Y-118601207D01*
X191328892Y-118489713D01*
X191328888Y-118489710D01*
X191197785Y-118402109D01*
X191197772Y-118402102D01*
X191052101Y-118341764D01*
X191052089Y-118341761D01*
X190897445Y-118311000D01*
X190897442Y-118311000D01*
X190739758Y-118311000D01*
X190739755Y-118311000D01*
X190585110Y-118341761D01*
X190585098Y-118341764D01*
X190439427Y-118402102D01*
X190439414Y-118402109D01*
X190307725Y-118490102D01*
X190241047Y-118510980D01*
X190238834Y-118511000D01*
X155044366Y-118511000D01*
X154977327Y-118491315D01*
X154975475Y-118490102D01*
X154843785Y-118402109D01*
X154843776Y-118402104D01*
X154708240Y-118345964D01*
X154653837Y-118302123D01*
X154631772Y-118235829D01*
X154649051Y-118168130D01*
X154668008Y-118143725D01*
X155675498Y-117136235D01*
X155676735Y-117135560D01*
X155677439Y-117134336D01*
X155707312Y-117118863D01*
X155736819Y-117102752D01*
X155738226Y-117102852D01*
X155739481Y-117102203D01*
X155772967Y-117105337D01*
X155806511Y-117107736D01*
X155808097Y-117108625D01*
X155809047Y-117108714D01*
X155813574Y-117111694D01*
X155839645Y-117126304D01*
X155845558Y-117130936D01*
X155901111Y-117186489D01*
X156005580Y-117256293D01*
X156009268Y-117259182D01*
X156026969Y-117283940D01*
X156046496Y-117307305D01*
X156047655Y-117312874D01*
X156049904Y-117316019D01*
X156050401Y-117326062D01*
X156056800Y-117356796D01*
X156056800Y-117362446D01*
X156087561Y-117517089D01*
X156087564Y-117517101D01*
X156147902Y-117662772D01*
X156147909Y-117662785D01*
X156235510Y-117793888D01*
X156235513Y-117793892D01*
X156347007Y-117905386D01*
X156347011Y-117905389D01*
X156478114Y-117992990D01*
X156478127Y-117992997D01*
X156623798Y-118053335D01*
X156623803Y-118053337D01*
X156778453Y-118084099D01*
X156778456Y-118084100D01*
X156778458Y-118084100D01*
X156936144Y-118084100D01*
X156936145Y-118084099D01*
X157090797Y-118053337D01*
X157223638Y-117998313D01*
X157236472Y-117992997D01*
X157236472Y-117992996D01*
X157236479Y-117992994D01*
X157292955Y-117955258D01*
X157368175Y-117904998D01*
X157434853Y-117884120D01*
X157437066Y-117884100D01*
X189226034Y-117884100D01*
X189293073Y-117903785D01*
X189294925Y-117904998D01*
X189426614Y-117992990D01*
X189426627Y-117992997D01*
X189572298Y-118053335D01*
X189572303Y-118053337D01*
X189726953Y-118084099D01*
X189726956Y-118084100D01*
X189726958Y-118084100D01*
X189884644Y-118084100D01*
X189884645Y-118084099D01*
X190039297Y-118053337D01*
X190172138Y-117998313D01*
X190184972Y-117992997D01*
X190184972Y-117992996D01*
X190184979Y-117992994D01*
X190316089Y-117905389D01*
X190427589Y-117793889D01*
X190515194Y-117662779D01*
X190575537Y-117517097D01*
X190606300Y-117362442D01*
X190606300Y-117204758D01*
X190606300Y-117204755D01*
X190606299Y-117204753D01*
X190592670Y-117136237D01*
X190575537Y-117050103D01*
X190567892Y-117031645D01*
X190515197Y-116904427D01*
X190515190Y-116904414D01*
X190427589Y-116773311D01*
X190427586Y-116773307D01*
X190316092Y-116661813D01*
X190316088Y-116661810D01*
X190184985Y-116574209D01*
X190184972Y-116574202D01*
X190039301Y-116513864D01*
X190039289Y-116513861D01*
X189884645Y-116483100D01*
X189884642Y-116483100D01*
X189726958Y-116483100D01*
X189726955Y-116483100D01*
X189572310Y-116513861D01*
X189572298Y-116513864D01*
X189426627Y-116574202D01*
X189426614Y-116574209D01*
X189294925Y-116662202D01*
X189228247Y-116683080D01*
X189226034Y-116683100D01*
X181638297Y-116683100D01*
X181571258Y-116663415D01*
X181525503Y-116610611D01*
X181515559Y-116541453D01*
X181544584Y-116477897D01*
X181550616Y-116471419D01*
X187516238Y-110505796D01*
X187577561Y-110472311D01*
X187647253Y-110477295D01*
X187691600Y-110505796D01*
X187710013Y-110524209D01*
X187881979Y-110649148D01*
X187881981Y-110649149D01*
X187881984Y-110649151D01*
X188071388Y-110745657D01*
X188273557Y-110811346D01*
X188483513Y-110844600D01*
X188483514Y-110844600D01*
X188696086Y-110844600D01*
X188696087Y-110844600D01*
X188906043Y-110811346D01*
X189108212Y-110745657D01*
X189297616Y-110649151D01*
X189337485Y-110620185D01*
X189469586Y-110524209D01*
X189469588Y-110524206D01*
X189469592Y-110524204D01*
X189619904Y-110373892D01*
X189619906Y-110373888D01*
X189619909Y-110373886D01*
X189744848Y-110201920D01*
X189744847Y-110201920D01*
X189744851Y-110201916D01*
X189841357Y-110012512D01*
X189907046Y-109810343D01*
X189940300Y-109600387D01*
X189940300Y-109387813D01*
X189907046Y-109177857D01*
X189841357Y-108975688D01*
X189744851Y-108786284D01*
X189744849Y-108786281D01*
X189744848Y-108786279D01*
X189619909Y-108614313D01*
X189469586Y-108463990D01*
X189297615Y-108339048D01*
X189297612Y-108339046D01*
X189288850Y-108334581D01*
X189238056Y-108286605D01*
X189221263Y-108218783D01*
X189243803Y-108152649D01*
X189288860Y-108113612D01*
X189297616Y-108109151D01*
X189318335Y-108094098D01*
X189469586Y-107984209D01*
X189469588Y-107984206D01*
X189469592Y-107984204D01*
X189619904Y-107833892D01*
X189619906Y-107833888D01*
X189619909Y-107833886D01*
X189744848Y-107661920D01*
X189744847Y-107661920D01*
X189744851Y-107661916D01*
X189841357Y-107472512D01*
X189907046Y-107270343D01*
X189940300Y-107060387D01*
X189940300Y-106847813D01*
X189907046Y-106637857D01*
X189841357Y-106435688D01*
X189744851Y-106246284D01*
X189744849Y-106246281D01*
X189744848Y-106246279D01*
X189619909Y-106074313D01*
X189469586Y-105923990D01*
X189297620Y-105799051D01*
X189296915Y-105798691D01*
X189288854Y-105794585D01*
X189238059Y-105746612D01*
X189221263Y-105678792D01*
X189243799Y-105612656D01*
X189288854Y-105573615D01*
X189297616Y-105569151D01*
X189319589Y-105553186D01*
X189469586Y-105444209D01*
X189469588Y-105444206D01*
X189469592Y-105444204D01*
X189619904Y-105293892D01*
X189619906Y-105293888D01*
X189619909Y-105293886D01*
X189744848Y-105121920D01*
X189744847Y-105121920D01*
X189744851Y-105121916D01*
X189841357Y-104932512D01*
X189907046Y-104730343D01*
X189940300Y-104520387D01*
X189940300Y-104307813D01*
X189907046Y-104097857D01*
X189841357Y-103895688D01*
X189744851Y-103706284D01*
X189744849Y-103706281D01*
X189744848Y-103706279D01*
X189619909Y-103534313D01*
X189469586Y-103383990D01*
X189297620Y-103259051D01*
X189296915Y-103258691D01*
X189288854Y-103254585D01*
X189238059Y-103206612D01*
X189221263Y-103138792D01*
X189243799Y-103072656D01*
X189288854Y-103033615D01*
X189297616Y-103029151D01*
X189319589Y-103013186D01*
X189469586Y-102904209D01*
X189469588Y-102904206D01*
X189469592Y-102904204D01*
X189619904Y-102753892D01*
X189619906Y-102753888D01*
X189619909Y-102753886D01*
X189744848Y-102581920D01*
X189744847Y-102581920D01*
X189744851Y-102581916D01*
X189841357Y-102392512D01*
X189907046Y-102190343D01*
X189940300Y-101980387D01*
X189940300Y-101767813D01*
X189907046Y-101557857D01*
X189841357Y-101355688D01*
X189744851Y-101166284D01*
X189744849Y-101166281D01*
X189744848Y-101166279D01*
X189619909Y-100994313D01*
X189615446Y-100989850D01*
X189581961Y-100928527D01*
X189586945Y-100858835D01*
X189615446Y-100814488D01*
X189693575Y-100736359D01*
X190222520Y-100207416D01*
X190301577Y-100070484D01*
X190342501Y-99917757D01*
X190342501Y-99759642D01*
X190342501Y-99752047D01*
X190342500Y-99752029D01*
X190342500Y-98912760D01*
X190342501Y-98912747D01*
X190342501Y-98744644D01*
X190337941Y-98727626D01*
X190301577Y-98591916D01*
X190245111Y-98494113D01*
X190222524Y-98454990D01*
X190222518Y-98454982D01*
X189618347Y-97850811D01*
X189584862Y-97789488D01*
X189589846Y-97719796D01*
X189616888Y-97677722D01*
X189616741Y-97677596D01*
X189617667Y-97676511D01*
X189618356Y-97675440D01*
X189618382Y-97675413D01*
X189619904Y-97673892D01*
X189619906Y-97673889D01*
X189619907Y-97673889D01*
X189744848Y-97501920D01*
X189744847Y-97501920D01*
X189744851Y-97501916D01*
X189841357Y-97312512D01*
X189907046Y-97110343D01*
X189940300Y-96900387D01*
X189940300Y-96687813D01*
X189907046Y-96477857D01*
X189870153Y-96364315D01*
X189868159Y-96294477D01*
X189904239Y-96234644D01*
X189966940Y-96203816D01*
X189988085Y-96202000D01*
X190238834Y-96202000D01*
X190305873Y-96221685D01*
X190307725Y-96222898D01*
X190439414Y-96310890D01*
X190439427Y-96310897D01*
X190568401Y-96364319D01*
X190585103Y-96371237D01*
X190739753Y-96401999D01*
X190739756Y-96402000D01*
X190739758Y-96402000D01*
X190897444Y-96402000D01*
X190897445Y-96401999D01*
X191052097Y-96371237D01*
X191197779Y-96310894D01*
X191328889Y-96223289D01*
X191440389Y-96111789D01*
X191527994Y-95980679D01*
X191588337Y-95834997D01*
X191619100Y-95680342D01*
X191619100Y-95522658D01*
X191619100Y-95522655D01*
X191619099Y-95522653D01*
X191606953Y-95461591D01*
X191588337Y-95368003D01*
X191579434Y-95346509D01*
X191527997Y-95222327D01*
X191527990Y-95222314D01*
X191440389Y-95091211D01*
X191440386Y-95091207D01*
X191328892Y-94979713D01*
X191328888Y-94979710D01*
X191197785Y-94892109D01*
X191197772Y-94892102D01*
X191052101Y-94831764D01*
X191052089Y-94831761D01*
X190897445Y-94801000D01*
X190897442Y-94801000D01*
X190739758Y-94801000D01*
X190739755Y-94801000D01*
X190585110Y-94831761D01*
X190585098Y-94831764D01*
X190439427Y-94892102D01*
X190439414Y-94892109D01*
X190307725Y-94980102D01*
X190241047Y-95000980D01*
X190238834Y-95001000D01*
X189927287Y-95001000D01*
X189860248Y-94981315D01*
X189814493Y-94928511D01*
X189804549Y-94859353D01*
X189816802Y-94820706D01*
X189841354Y-94772517D01*
X189841357Y-94772512D01*
X189907046Y-94570343D01*
X189940300Y-94360387D01*
X189940300Y-94147813D01*
X189907046Y-93937857D01*
X189841357Y-93735688D01*
X189744851Y-93546284D01*
X189744849Y-93546281D01*
X189744848Y-93546279D01*
X189619909Y-93374313D01*
X189469586Y-93223990D01*
X189297620Y-93099051D01*
X189296915Y-93098691D01*
X189288854Y-93094585D01*
X189238059Y-93046612D01*
X189221263Y-92978792D01*
X189243799Y-92912656D01*
X189288854Y-92873615D01*
X189297616Y-92869151D01*
X189383836Y-92806509D01*
X189469586Y-92744209D01*
X189469588Y-92744206D01*
X189469592Y-92744204D01*
X189619904Y-92593892D01*
X189619906Y-92593888D01*
X189619909Y-92593886D01*
X189744848Y-92421920D01*
X189744847Y-92421920D01*
X189744851Y-92421916D01*
X189841357Y-92232512D01*
X189907046Y-92030343D01*
X189940300Y-91820387D01*
X189940300Y-91607813D01*
X189907046Y-91397857D01*
X189841357Y-91195688D01*
X189744851Y-91006284D01*
X189744849Y-91006281D01*
X189744848Y-91006279D01*
X189619909Y-90834313D01*
X189469586Y-90683990D01*
X189297617Y-90559049D01*
X189288304Y-90554304D01*
X189237507Y-90506330D01*
X189220712Y-90438509D01*
X189243249Y-90372374D01*
X189288307Y-90333332D01*
X189297358Y-90328720D01*
X189469259Y-90203827D01*
X189469264Y-90203823D01*
X189619523Y-90053564D01*
X189619527Y-90053559D01*
X189744420Y-89881657D01*
X189840895Y-89692317D01*
X189906557Y-89490229D01*
X189906557Y-89490226D01*
X189917031Y-89424100D01*
X189022812Y-89424100D01*
X189055725Y-89367093D01*
X189089800Y-89239926D01*
X189089800Y-89108274D01*
X189055725Y-88981107D01*
X189022812Y-88924100D01*
X189917031Y-88924100D01*
X189906557Y-88857973D01*
X189906557Y-88857970D01*
X189840895Y-88655882D01*
X189744420Y-88466542D01*
X189619527Y-88294640D01*
X189619523Y-88294635D01*
X189469264Y-88144376D01*
X189469259Y-88144372D01*
X189297357Y-88019479D01*
X189108015Y-87923003D01*
X188905924Y-87857341D01*
X188839800Y-87846868D01*
X188839800Y-88741088D01*
X188782793Y-88708175D01*
X188655626Y-88674100D01*
X188523974Y-88674100D01*
X188396807Y-88708175D01*
X188339800Y-88741088D01*
X188339800Y-87846868D01*
X188339799Y-87846868D01*
X188273675Y-87857341D01*
X188071584Y-87923003D01*
X187882242Y-88019479D01*
X187710341Y-88144371D01*
X187596665Y-88258047D01*
X187535342Y-88291531D01*
X187465650Y-88286547D01*
X187409717Y-88244675D01*
X187392802Y-88213698D01*
X187343597Y-88081771D01*
X187343593Y-88081764D01*
X187257347Y-87966555D01*
X187257344Y-87966552D01*
X187142135Y-87880306D01*
X187142128Y-87880302D01*
X187007282Y-87830008D01*
X187007283Y-87830008D01*
X186947683Y-87823601D01*
X186947681Y-87823600D01*
X186947673Y-87823600D01*
X186947664Y-87823600D01*
X185151929Y-87823600D01*
X185151923Y-87823601D01*
X185092316Y-87830008D01*
X184957471Y-87880302D01*
X184957464Y-87880306D01*
X184842255Y-87966552D01*
X184842252Y-87966555D01*
X184756006Y-88081764D01*
X184756002Y-88081771D01*
X184705708Y-88216617D01*
X184699301Y-88276216D01*
X184699300Y-88276227D01*
X184699300Y-88981107D01*
X184699301Y-89674200D01*
X184679616Y-89741239D01*
X184626813Y-89786994D01*
X184575301Y-89798200D01*
X178241800Y-89798200D01*
X178174761Y-89778515D01*
X178129006Y-89725711D01*
X178117800Y-89674200D01*
X178117800Y-89531002D01*
X178080853Y-89297731D01*
X178007866Y-89073103D01*
X177951302Y-88962091D01*
X177900643Y-88862667D01*
X177761817Y-88671590D01*
X177594810Y-88504583D01*
X177560172Y-88479417D01*
X177517507Y-88424089D01*
X177511528Y-88354475D01*
X177544133Y-88292680D01*
X177560173Y-88278782D01*
X177563679Y-88276235D01*
X177594810Y-88253617D01*
X177761817Y-88086610D01*
X177900643Y-87895533D01*
X178007868Y-87685092D01*
X178080853Y-87460468D01*
X178117800Y-87227197D01*
X178117800Y-86991002D01*
X178080853Y-86757731D01*
X178007866Y-86533103D01*
X177900642Y-86322666D01*
X177761817Y-86131590D01*
X177594810Y-85964583D01*
X177560172Y-85939417D01*
X177517507Y-85884089D01*
X177511528Y-85814475D01*
X177544133Y-85752680D01*
X177560173Y-85738782D01*
X177594810Y-85713617D01*
X177761817Y-85546610D01*
X177900643Y-85355533D01*
X178007868Y-85145092D01*
X178080853Y-84920468D01*
X178085570Y-84890687D01*
X178117800Y-84687197D01*
X178117800Y-84451002D01*
X178080853Y-84217731D01*
X178007866Y-83993103D01*
X177953173Y-83885763D01*
X177950133Y-83869578D01*
X177942331Y-83855077D01*
X177943817Y-83835948D01*
X177940277Y-83817094D01*
X177946469Y-83801835D01*
X177947746Y-83785417D01*
X177959338Y-83770129D01*
X177966553Y-83752353D01*
X177980393Y-83742362D01*
X177989962Y-83729744D01*
X178013775Y-83718266D01*
X178021043Y-83713021D01*
X178026217Y-83711127D01*
X178175685Y-83671077D01*
X178235672Y-83636443D01*
X178312616Y-83592020D01*
X178424420Y-83480216D01*
X178424420Y-83480214D01*
X178434624Y-83470011D01*
X178434627Y-83470006D01*
X179238716Y-82665919D01*
X179300039Y-82632434D01*
X179326397Y-82629600D01*
X183141934Y-82629600D01*
X183208973Y-82649285D01*
X183210825Y-82650498D01*
X183342514Y-82738490D01*
X183342527Y-82738497D01*
X183488198Y-82798835D01*
X183488203Y-82798837D01*
X183642853Y-82829599D01*
X183642856Y-82829600D01*
X183642858Y-82829600D01*
X183800544Y-82829600D01*
X183800545Y-82829599D01*
X183955197Y-82798837D01*
X184100879Y-82738494D01*
X184231989Y-82650889D01*
X184343489Y-82539389D01*
X184431094Y-82408279D01*
X184491437Y-82262597D01*
X184522200Y-82107942D01*
X184522200Y-81950258D01*
X184522200Y-81950255D01*
X184522199Y-81950253D01*
X184507352Y-81875615D01*
X184491437Y-81795603D01*
X184442614Y-81677732D01*
X184431097Y-81649927D01*
X184431090Y-81649914D01*
X184343489Y-81518811D01*
X184343486Y-81518807D01*
X184231992Y-81407313D01*
X184231988Y-81407310D01*
X184100885Y-81319709D01*
X184100872Y-81319702D01*
X183955201Y-81259364D01*
X183955189Y-81259361D01*
X183800545Y-81228600D01*
X183800542Y-81228600D01*
X183642858Y-81228600D01*
X183642855Y-81228600D01*
X183488210Y-81259361D01*
X183488198Y-81259364D01*
X183342527Y-81319702D01*
X183342514Y-81319709D01*
X183210825Y-81407702D01*
X183144147Y-81428580D01*
X183141934Y-81428600D01*
X178947143Y-81428600D01*
X178794416Y-81469523D01*
X178794409Y-81469526D01*
X178657490Y-81548575D01*
X178657482Y-81548581D01*
X178540359Y-81665704D01*
X178539641Y-81666522D01*
X178314133Y-81892030D01*
X178252810Y-81925515D01*
X178183118Y-81920531D01*
X178127185Y-81878659D01*
X178103979Y-81823746D01*
X178089701Y-81733600D01*
X178080853Y-81677732D01*
X178076581Y-81664585D01*
X178038887Y-81548575D01*
X178007868Y-81453108D01*
X178007866Y-81453105D01*
X178007866Y-81453103D01*
X177929886Y-81300060D01*
X177900643Y-81242667D01*
X177761817Y-81051590D01*
X177594810Y-80884583D01*
X177560172Y-80859417D01*
X177517507Y-80804089D01*
X177511528Y-80734475D01*
X177544133Y-80672680D01*
X177560173Y-80658782D01*
X177594810Y-80633617D01*
X177761817Y-80466610D01*
X177900643Y-80275533D01*
X178007868Y-80065092D01*
X178080853Y-79840468D01*
X178117800Y-79607197D01*
X178117800Y-79371002D01*
X178096305Y-79235297D01*
X178080853Y-79137732D01*
X178080852Y-79137728D01*
X178080852Y-79137727D01*
X178019926Y-78950218D01*
X178017931Y-78880377D01*
X178054011Y-78820544D01*
X178116712Y-78789716D01*
X178137857Y-78787900D01*
X186345103Y-78787900D01*
X186412142Y-78807585D01*
X186432784Y-78824219D01*
X188908625Y-81300060D01*
X188942110Y-81361383D01*
X188942561Y-81363549D01*
X188973461Y-81518891D01*
X188973464Y-81518901D01*
X189033802Y-81664572D01*
X189033809Y-81664585D01*
X189121410Y-81795688D01*
X189121413Y-81795692D01*
X189232907Y-81907186D01*
X189232911Y-81907189D01*
X189364014Y-81994790D01*
X189364027Y-81994797D01*
X189509698Y-82055135D01*
X189509703Y-82055137D01*
X189664353Y-82085899D01*
X189664356Y-82085900D01*
X189664358Y-82085900D01*
X189822044Y-82085900D01*
X189822045Y-82085899D01*
X189976697Y-82055137D01*
X190122379Y-81994794D01*
X190253489Y-81907189D01*
X190364989Y-81795689D01*
X190452594Y-81664579D01*
X190458666Y-81649921D01*
X190466267Y-81631566D01*
X190512937Y-81518897D01*
X190543700Y-81364242D01*
X190543700Y-81206558D01*
X190543700Y-81206555D01*
X190543699Y-81206553D01*
X190512938Y-81051910D01*
X190512937Y-81051903D01*
X190512806Y-81051587D01*
X190452597Y-80906227D01*
X190452590Y-80906214D01*
X190364989Y-80775111D01*
X190364986Y-80775107D01*
X190253492Y-80663613D01*
X190253488Y-80663610D01*
X190122385Y-80576009D01*
X190122372Y-80576002D01*
X189976701Y-80515664D01*
X189976691Y-80515661D01*
X189821351Y-80484762D01*
X189759441Y-80452377D01*
X189757862Y-80450826D01*
X187132790Y-77825755D01*
X187132788Y-77825752D01*
X187013917Y-77706881D01*
X187013916Y-77706880D01*
X186926736Y-77656547D01*
X186926735Y-77656546D01*
X186876990Y-77627825D01*
X186876989Y-77627824D01*
X186864463Y-77624467D01*
X186724257Y-77586899D01*
X186566143Y-77586899D01*
X186558547Y-77586899D01*
X186558531Y-77586900D01*
X177444443Y-77586900D01*
X177377404Y-77567215D01*
X177331649Y-77514411D01*
X177321705Y-77445253D01*
X177350730Y-77381697D01*
X177356762Y-77375219D01*
X177516211Y-77215770D01*
X177516214Y-77215765D01*
X177516219Y-77215761D01*
X177655911Y-77033712D01*
X177770644Y-76834988D01*
X177858458Y-76622987D01*
X177917848Y-76401338D01*
X177947800Y-76173834D01*
X177947800Y-75944366D01*
X177917848Y-75716862D01*
X177858458Y-75495213D01*
X177770644Y-75283212D01*
X177655911Y-75084488D01*
X177655908Y-75084485D01*
X177655907Y-75084482D01*
X177516218Y-74902438D01*
X177516211Y-74902430D01*
X177353970Y-74740189D01*
X177353961Y-74740181D01*
X177171917Y-74600492D01*
X176973190Y-74485757D01*
X176973176Y-74485750D01*
X176761187Y-74397942D01*
X176688161Y-74378375D01*
X176539538Y-74338552D01*
X176501515Y-74333546D01*
X176312041Y-74308600D01*
X176312034Y-74308600D01*
X176082566Y-74308600D01*
X176082558Y-74308600D01*
X175866015Y-74337109D01*
X175855062Y-74338552D01*
X175807146Y-74351391D01*
X175633412Y-74397942D01*
X175421423Y-74485750D01*
X175421409Y-74485757D01*
X175222682Y-74600492D01*
X175040638Y-74740181D01*
X174878381Y-74902438D01*
X174738692Y-75084482D01*
X174623957Y-75283209D01*
X174623950Y-75283223D01*
X174536142Y-75495212D01*
X174476753Y-75716859D01*
X174476751Y-75716870D01*
X174446800Y-75944358D01*
X174446800Y-76173841D01*
X174471746Y-76363315D01*
X174476752Y-76401338D01*
X174476753Y-76401340D01*
X174536142Y-76622987D01*
X174623950Y-76834976D01*
X174623957Y-76834990D01*
X174738692Y-77033717D01*
X174878381Y-77215761D01*
X174878389Y-77215770D01*
X175040630Y-77378011D01*
X175040638Y-77378018D01*
X175040639Y-77378019D01*
X175055333Y-77389294D01*
X175222682Y-77517707D01*
X175222685Y-77517708D01*
X175222688Y-77517711D01*
X175421412Y-77632444D01*
X175421414Y-77632444D01*
X175421418Y-77632447D01*
X175506220Y-77667573D01*
X175560623Y-77711414D01*
X175582688Y-77777708D01*
X175565409Y-77845408D01*
X175546448Y-77869815D01*
X174946886Y-78469378D01*
X174835081Y-78581182D01*
X174835075Y-78581190D01*
X174794131Y-78652109D01*
X174794131Y-78652111D01*
X174756023Y-78718114D01*
X174756023Y-78718115D01*
X174715099Y-78870843D01*
X174715099Y-78870845D01*
X174715099Y-79038946D01*
X174715100Y-79038959D01*
X174715100Y-90876506D01*
X174695415Y-90943545D01*
X174642611Y-90989300D01*
X174615292Y-90998123D01*
X174475924Y-91025845D01*
X174475914Y-91025848D01*
X174330243Y-91086186D01*
X174330230Y-91086193D01*
X174199127Y-91173794D01*
X174199123Y-91173797D01*
X174087629Y-91285291D01*
X174087626Y-91285295D01*
X174000025Y-91416398D01*
X174000018Y-91416411D01*
X173960404Y-91512052D01*
X173916564Y-91566456D01*
X173850270Y-91588521D01*
X173845843Y-91588600D01*
X152671368Y-91588600D01*
X152604329Y-91568915D01*
X152560883Y-91520895D01*
X152500643Y-91402667D01*
X152361817Y-91211590D01*
X152194810Y-91044583D01*
X152160172Y-91019417D01*
X152117507Y-90964089D01*
X152111528Y-90894475D01*
X152144133Y-90832680D01*
X152160173Y-90818782D01*
X152194810Y-90793617D01*
X152361817Y-90626610D01*
X152500643Y-90435533D01*
X152607868Y-90225092D01*
X152680853Y-90000468D01*
X152699671Y-89881657D01*
X152717800Y-89767197D01*
X152717800Y-89531002D01*
X152680853Y-89297731D01*
X152607866Y-89073103D01*
X152551302Y-88962091D01*
X152500643Y-88862667D01*
X152361817Y-88671590D01*
X152194810Y-88504583D01*
X152160172Y-88479417D01*
X152117507Y-88424089D01*
X152111528Y-88354475D01*
X152144133Y-88292680D01*
X152160173Y-88278782D01*
X152163679Y-88276235D01*
X152194810Y-88253617D01*
X152361817Y-88086610D01*
X152500643Y-87895533D01*
X152607868Y-87685092D01*
X152680853Y-87460468D01*
X152717800Y-87227197D01*
X152717800Y-86991002D01*
X152680853Y-86757731D01*
X152607866Y-86533103D01*
X152500642Y-86322666D01*
X152361817Y-86131590D01*
X152194810Y-85964583D01*
X152160172Y-85939417D01*
X152117507Y-85884089D01*
X152111528Y-85814475D01*
X152144133Y-85752680D01*
X152160173Y-85738782D01*
X152194810Y-85713617D01*
X152361817Y-85546610D01*
X152500643Y-85355533D01*
X152607868Y-85145092D01*
X152680853Y-84920468D01*
X152685570Y-84890687D01*
X152717800Y-84687197D01*
X152717800Y-84451002D01*
X152680853Y-84217731D01*
X152607866Y-83993103D01*
X152518184Y-83817094D01*
X152500643Y-83782667D01*
X152361817Y-83591590D01*
X152194810Y-83424583D01*
X152160172Y-83399417D01*
X152117507Y-83344089D01*
X152111528Y-83274475D01*
X152144133Y-83212680D01*
X152160173Y-83198782D01*
X152194810Y-83173617D01*
X152361817Y-83006610D01*
X152500643Y-82815533D01*
X152607868Y-82605092D01*
X152680853Y-82380468D01*
X152686565Y-82344402D01*
X152717800Y-82147197D01*
X152717800Y-81911002D01*
X152680853Y-81677731D01*
X152638887Y-81548575D01*
X152607868Y-81453108D01*
X152607866Y-81453105D01*
X152607866Y-81453103D01*
X152529886Y-81300060D01*
X152500643Y-81242667D01*
X152361817Y-81051590D01*
X152194810Y-80884583D01*
X152160172Y-80859417D01*
X152117507Y-80804089D01*
X152111528Y-80734475D01*
X152144133Y-80672680D01*
X152160173Y-80658782D01*
X152194810Y-80633617D01*
X152279327Y-80549100D01*
X155137300Y-80549100D01*
X172827300Y-80549100D01*
X172827300Y-74059100D01*
X155137300Y-74059100D01*
X155137300Y-80549100D01*
X152279327Y-80549100D01*
X152361817Y-80466610D01*
X152500643Y-80275533D01*
X152607868Y-80065092D01*
X152680853Y-79840468D01*
X152717800Y-79607197D01*
X152717800Y-79371002D01*
X152680853Y-79137731D01*
X152619926Y-78950218D01*
X152607868Y-78913108D01*
X152607866Y-78913105D01*
X152607866Y-78913103D01*
X152542026Y-78783885D01*
X152500643Y-78702667D01*
X152361817Y-78511590D01*
X152194810Y-78344583D01*
X152003733Y-78205757D01*
X151957276Y-78182086D01*
X151793296Y-78098533D01*
X151648638Y-78051531D01*
X151590963Y-78012093D01*
X151563765Y-77947734D01*
X151575680Y-77878888D01*
X151622924Y-77827412D01*
X151686957Y-77809600D01*
X151802027Y-77809600D01*
X151802034Y-77809600D01*
X152029538Y-77779648D01*
X152251187Y-77720258D01*
X152463188Y-77632444D01*
X152661912Y-77517711D01*
X152843961Y-77378019D01*
X152843965Y-77378014D01*
X152843970Y-77378011D01*
X153006211Y-77215770D01*
X153006214Y-77215765D01*
X153006219Y-77215761D01*
X153145911Y-77033712D01*
X153260644Y-76834988D01*
X153348458Y-76622987D01*
X153407848Y-76401338D01*
X153437800Y-76173834D01*
X153437800Y-75944366D01*
X153407848Y-75716862D01*
X153348458Y-75495213D01*
X153260644Y-75283212D01*
X153145911Y-75084488D01*
X153145908Y-75084485D01*
X153145907Y-75084482D01*
X153006218Y-74902438D01*
X153006211Y-74902430D01*
X152843970Y-74740189D01*
X152843961Y-74740181D01*
X152661917Y-74600492D01*
X152463190Y-74485757D01*
X152463176Y-74485750D01*
X152251187Y-74397942D01*
X152178161Y-74378375D01*
X152029538Y-74338552D01*
X151991515Y-74333546D01*
X151802041Y-74308600D01*
X151802034Y-74308600D01*
X151572566Y-74308600D01*
X151572558Y-74308600D01*
X151356015Y-74337109D01*
X151345062Y-74338552D01*
X151297146Y-74351391D01*
X151123412Y-74397942D01*
X150911423Y-74485750D01*
X150911409Y-74485757D01*
X150712682Y-74600492D01*
X150530638Y-74740181D01*
X150368381Y-74902438D01*
X150228692Y-75084482D01*
X150113957Y-75283209D01*
X150113950Y-75283223D01*
X150026142Y-75495212D01*
X149966753Y-75716859D01*
X149966751Y-75716870D01*
X149936800Y-75944358D01*
X149936800Y-76173841D01*
X149961746Y-76363315D01*
X149966752Y-76401338D01*
X149966753Y-76401340D01*
X150026142Y-76622987D01*
X150113950Y-76834976D01*
X150113957Y-76834990D01*
X150228692Y-77033717D01*
X150368381Y-77215761D01*
X150368389Y-77215770D01*
X150530630Y-77378011D01*
X150530638Y-77378018D01*
X150530639Y-77378019D01*
X150545333Y-77389294D01*
X150712682Y-77517707D01*
X150712685Y-77517708D01*
X150712688Y-77517711D01*
X150911412Y-77632444D01*
X150911417Y-77632446D01*
X150911423Y-77632449D01*
X150969604Y-77656548D01*
X151123413Y-77720258D01*
X151215102Y-77744825D01*
X151274762Y-77781190D01*
X151305291Y-77844037D01*
X151296996Y-77913412D01*
X151252511Y-77967290D01*
X151185959Y-77988565D01*
X151183008Y-77988600D01*
X151099203Y-77988600D01*
X150865931Y-78025546D01*
X150641303Y-78098533D01*
X150430866Y-78205757D01*
X150321850Y-78284962D01*
X150239790Y-78344583D01*
X150239788Y-78344585D01*
X150239787Y-78344585D01*
X150072785Y-78511587D01*
X150072785Y-78511588D01*
X150072783Y-78511590D01*
X150013162Y-78593650D01*
X149933957Y-78702666D01*
X149826733Y-78913103D01*
X149753746Y-79137731D01*
X149716800Y-79371002D01*
X149716800Y-79607197D01*
X149753746Y-79840468D01*
X149826733Y-80065096D01*
X149917230Y-80242705D01*
X149933957Y-80275533D01*
X150072783Y-80466610D01*
X150239790Y-80633617D01*
X150274427Y-80658783D01*
X150317092Y-80714113D01*
X150323071Y-80783726D01*
X150290465Y-80845521D01*
X150274430Y-80859415D01*
X150256665Y-80872322D01*
X150239788Y-80884584D01*
X150072785Y-81051587D01*
X150072785Y-81051588D01*
X150072783Y-81051590D01*
X150072556Y-81051903D01*
X149933957Y-81242666D01*
X149826733Y-81453103D01*
X149753746Y-81677731D01*
X149716800Y-81911002D01*
X149716800Y-82147197D01*
X149753746Y-82380468D01*
X149826733Y-82605096D01*
X149894705Y-82738497D01*
X149933957Y-82815533D01*
X150072783Y-83006610D01*
X150239790Y-83173617D01*
X150274427Y-83198783D01*
X150317092Y-83254113D01*
X150323071Y-83323726D01*
X150290465Y-83385521D01*
X150274430Y-83399415D01*
X150256665Y-83412322D01*
X150239788Y-83424584D01*
X150072785Y-83591587D01*
X150072785Y-83591588D01*
X150072783Y-83591590D01*
X150028817Y-83652104D01*
X149933957Y-83782666D01*
X149826733Y-83993103D01*
X149753746Y-84217731D01*
X149716800Y-84451002D01*
X149716800Y-84687197D01*
X149753746Y-84920468D01*
X149826733Y-85145096D01*
X149907594Y-85303793D01*
X149933957Y-85355533D01*
X150072783Y-85546610D01*
X150239790Y-85713617D01*
X150274427Y-85738783D01*
X150317092Y-85794113D01*
X150323071Y-85863726D01*
X150290465Y-85925521D01*
X150274430Y-85939415D01*
X150256665Y-85952322D01*
X150239788Y-85964584D01*
X150072785Y-86131587D01*
X150072785Y-86131588D01*
X150072783Y-86131590D01*
X150013162Y-86213650D01*
X149933957Y-86322666D01*
X149826733Y-86533103D01*
X149753746Y-86757731D01*
X149716800Y-86991002D01*
X149716800Y-87227197D01*
X149753746Y-87460468D01*
X149826733Y-87685096D01*
X149900570Y-87830008D01*
X149933957Y-87895533D01*
X150072783Y-88086610D01*
X150239790Y-88253617D01*
X150274427Y-88278783D01*
X150317092Y-88334113D01*
X150323071Y-88403726D01*
X150290465Y-88465521D01*
X150274430Y-88479415D01*
X150256665Y-88492322D01*
X150239788Y-88504584D01*
X150072785Y-88671587D01*
X150072785Y-88671588D01*
X150072783Y-88671590D01*
X150013162Y-88753650D01*
X149933957Y-88862666D01*
X149826733Y-89073103D01*
X149753746Y-89297731D01*
X149716800Y-89531002D01*
X149716800Y-89767197D01*
X149753746Y-90000468D01*
X149826733Y-90225096D01*
X149879533Y-90328720D01*
X149933957Y-90435533D01*
X150072783Y-90626610D01*
X150239790Y-90793617D01*
X150274427Y-90818783D01*
X150317092Y-90874113D01*
X150323071Y-90943726D01*
X150290465Y-91005521D01*
X150274430Y-91019415D01*
X150256665Y-91032322D01*
X150239788Y-91044584D01*
X150072785Y-91211587D01*
X150072785Y-91211588D01*
X150072783Y-91211590D01*
X150019236Y-91285291D01*
X149933957Y-91402666D01*
X149826733Y-91613103D01*
X149753746Y-91837731D01*
X149716800Y-92071002D01*
X149716800Y-92307197D01*
X149753746Y-92540468D01*
X149826733Y-92765096D01*
X149928925Y-92965657D01*
X149933957Y-92975533D01*
X150072783Y-93166610D01*
X150239790Y-93333617D01*
X150274427Y-93358783D01*
X150317092Y-93414113D01*
X150323071Y-93483726D01*
X150290465Y-93545521D01*
X150274430Y-93559415D01*
X150256665Y-93572322D01*
X150239788Y-93584584D01*
X150072785Y-93751587D01*
X150072785Y-93751588D01*
X150072783Y-93751590D01*
X150043097Y-93792449D01*
X149933957Y-93942666D01*
X149826733Y-94153103D01*
X149753746Y-94377731D01*
X149716800Y-94611002D01*
X149716800Y-94847197D01*
X149753746Y-95080468D01*
X149826733Y-95305096D01*
X149906472Y-95461591D01*
X149933957Y-95515533D01*
X150072783Y-95706610D01*
X150239790Y-95873617D01*
X150274427Y-95898783D01*
X150317092Y-95954113D01*
X150323071Y-96023726D01*
X150290465Y-96085521D01*
X150274430Y-96099415D01*
X150257401Y-96111788D01*
X150239788Y-96124584D01*
X150072785Y-96291587D01*
X150072785Y-96291588D01*
X150072783Y-96291590D01*
X150058761Y-96310890D01*
X149933957Y-96482666D01*
X149826733Y-96693103D01*
X149753746Y-96917731D01*
X149716800Y-97151002D01*
X149716800Y-97387197D01*
X149753746Y-97620468D01*
X149826733Y-97845096D01*
X149933957Y-98055533D01*
X150072783Y-98246610D01*
X150239790Y-98413617D01*
X150274427Y-98438783D01*
X150317092Y-98494113D01*
X150323071Y-98563726D01*
X150290465Y-98625521D01*
X150274430Y-98639415D01*
X150256665Y-98652322D01*
X150239788Y-98664584D01*
X150072785Y-98831587D01*
X150072785Y-98831588D01*
X150072783Y-98831590D01*
X150021076Y-98902758D01*
X149933957Y-99022666D01*
X149826733Y-99233103D01*
X149753746Y-99457731D01*
X149716800Y-99691002D01*
X149716800Y-99927197D01*
X149753746Y-100160468D01*
X149826733Y-100385096D01*
X149894705Y-100518497D01*
X149933957Y-100595533D01*
X150072783Y-100786610D01*
X150239790Y-100953617D01*
X150274427Y-100978783D01*
X150287204Y-100995352D01*
X150303479Y-101008499D01*
X150308108Y-101022462D01*
X150317092Y-101034113D01*
X150318882Y-101054957D01*
X150325467Y-101074818D01*
X150321812Y-101089068D01*
X150323071Y-101103726D01*
X150313306Y-101122231D01*
X150308109Y-101142497D01*
X150295074Y-101156784D01*
X150290465Y-101165521D01*
X150285931Y-101169953D01*
X150280462Y-101175032D01*
X150239790Y-101204583D01*
X150124114Y-101320258D01*
X150122428Y-101321825D01*
X150093140Y-101336442D01*
X150064396Y-101352138D01*
X150062032Y-101351968D01*
X150059913Y-101353027D01*
X150027366Y-101349489D01*
X149994704Y-101347154D01*
X149992807Y-101345733D01*
X149990452Y-101345478D01*
X149964985Y-101324906D01*
X149938771Y-101305282D01*
X149937134Y-101302409D01*
X149936100Y-101301573D01*
X149935321Y-101299223D01*
X149923477Y-101278425D01*
X149921695Y-101274124D01*
X149921694Y-101274121D01*
X149921692Y-101274118D01*
X149921690Y-101274114D01*
X149834089Y-101143011D01*
X149834086Y-101143007D01*
X149722592Y-101031513D01*
X149722588Y-101031510D01*
X149591485Y-100943909D01*
X149591472Y-100943902D01*
X149445801Y-100883564D01*
X149445791Y-100883561D01*
X149290451Y-100852662D01*
X149228541Y-100820277D01*
X149226962Y-100818726D01*
X147855690Y-99447455D01*
X147855688Y-99447452D01*
X147736817Y-99328581D01*
X147736816Y-99328580D01*
X147650004Y-99278460D01*
X147599885Y-99249523D01*
X147486869Y-99219240D01*
X147481280Y-99217149D01*
X147457913Y-99199620D01*
X147432975Y-99184419D01*
X147427946Y-99177140D01*
X147425388Y-99175221D01*
X147423950Y-99171356D01*
X147414244Y-99157305D01*
X147405883Y-99140895D01*
X147345643Y-99022667D01*
X147206817Y-98831590D01*
X147039810Y-98664583D01*
X147005172Y-98639417D01*
X146962507Y-98584089D01*
X146956528Y-98514475D01*
X146989133Y-98452680D01*
X147005173Y-98438782D01*
X147039810Y-98413617D01*
X147206817Y-98246610D01*
X147345643Y-98055533D01*
X147452868Y-97845092D01*
X147525853Y-97620468D01*
X147544630Y-97501916D01*
X147562800Y-97387197D01*
X147562800Y-97151002D01*
X147525853Y-96917731D01*
X147452866Y-96693103D01*
X147345642Y-96482666D01*
X147342148Y-96477857D01*
X147206817Y-96291590D01*
X147039810Y-96124583D01*
X147005172Y-96099417D01*
X146962507Y-96044089D01*
X146956528Y-95974475D01*
X146989133Y-95912680D01*
X147005173Y-95898782D01*
X147039810Y-95873617D01*
X147206817Y-95706610D01*
X147345643Y-95515533D01*
X147452868Y-95305092D01*
X147525853Y-95080468D01*
X147562800Y-94847197D01*
X147562800Y-94611002D01*
X147525853Y-94377731D01*
X147452866Y-94153103D01*
X147345642Y-93942666D01*
X147342148Y-93937857D01*
X147206817Y-93751590D01*
X147039810Y-93584583D01*
X147005172Y-93559417D01*
X146962507Y-93504089D01*
X146956528Y-93434475D01*
X146989133Y-93372680D01*
X147005173Y-93358782D01*
X147039810Y-93333617D01*
X147206817Y-93166610D01*
X147345643Y-92975533D01*
X147452868Y-92765092D01*
X147525853Y-92540468D01*
X147544630Y-92421915D01*
X147562800Y-92307197D01*
X147562800Y-92071002D01*
X147525853Y-91837731D01*
X147452866Y-91613103D01*
X147396302Y-91502091D01*
X147345643Y-91402667D01*
X147206817Y-91211590D01*
X147039810Y-91044583D01*
X147005172Y-91019417D01*
X146962507Y-90964089D01*
X146956528Y-90894475D01*
X146989133Y-90832680D01*
X147005173Y-90818782D01*
X147039810Y-90793617D01*
X147206817Y-90626610D01*
X147345643Y-90435533D01*
X147452868Y-90225092D01*
X147525853Y-90000468D01*
X147544671Y-89881657D01*
X147562800Y-89767197D01*
X147562800Y-89531002D01*
X147525853Y-89297731D01*
X147452866Y-89073103D01*
X147396302Y-88962091D01*
X147345643Y-88862667D01*
X147206817Y-88671590D01*
X147039810Y-88504583D01*
X147005172Y-88479417D01*
X146962507Y-88424089D01*
X146956528Y-88354475D01*
X146989133Y-88292680D01*
X147005173Y-88278782D01*
X147008679Y-88276235D01*
X147039810Y-88253617D01*
X147206817Y-88086610D01*
X147345643Y-87895533D01*
X147452868Y-87685092D01*
X147525853Y-87460468D01*
X147562800Y-87227197D01*
X147562800Y-86991002D01*
X147525853Y-86757731D01*
X147452866Y-86533103D01*
X147345642Y-86322666D01*
X147206817Y-86131590D01*
X147039810Y-85964583D01*
X147005172Y-85939417D01*
X146962507Y-85884089D01*
X146956528Y-85814475D01*
X146989133Y-85752680D01*
X147005173Y-85738782D01*
X147039810Y-85713617D01*
X147206817Y-85546610D01*
X147345643Y-85355533D01*
X147452868Y-85145092D01*
X147525853Y-84920468D01*
X147530570Y-84890687D01*
X147562800Y-84687197D01*
X147562800Y-84451002D01*
X147525853Y-84217731D01*
X147452866Y-83993103D01*
X147363184Y-83817094D01*
X147345643Y-83782667D01*
X147206817Y-83591590D01*
X147039810Y-83424583D01*
X147005172Y-83399417D01*
X146962507Y-83344089D01*
X146956528Y-83274475D01*
X146989133Y-83212680D01*
X147005173Y-83198782D01*
X147039810Y-83173617D01*
X147206817Y-83006610D01*
X147345643Y-82815533D01*
X147452868Y-82605092D01*
X147525853Y-82380468D01*
X147531565Y-82344402D01*
X147562800Y-82147197D01*
X147562800Y-81911002D01*
X147525853Y-81677731D01*
X147483887Y-81548575D01*
X147452868Y-81453108D01*
X147452866Y-81453105D01*
X147452866Y-81453103D01*
X147374886Y-81300060D01*
X147345643Y-81242667D01*
X147206817Y-81051590D01*
X147039810Y-80884583D01*
X147005172Y-80859417D01*
X146962507Y-80804089D01*
X146956528Y-80734475D01*
X146989133Y-80672680D01*
X147005173Y-80658782D01*
X147039810Y-80633617D01*
X147206817Y-80466610D01*
X147345643Y-80275533D01*
X147452868Y-80065092D01*
X147525853Y-79840468D01*
X147562800Y-79607197D01*
X147562800Y-79371002D01*
X147525853Y-79137731D01*
X147464926Y-78950218D01*
X147452868Y-78913108D01*
X147452866Y-78913105D01*
X147452866Y-78913103D01*
X147387026Y-78783885D01*
X147345643Y-78702667D01*
X147206817Y-78511590D01*
X147039810Y-78344583D01*
X146848733Y-78205757D01*
X146802276Y-78182086D01*
X146638296Y-78098533D01*
X146413668Y-78025546D01*
X146180397Y-77988600D01*
X146180392Y-77988600D01*
X146146592Y-77988600D01*
X146079553Y-77968915D01*
X146033798Y-77916111D01*
X146023854Y-77846953D01*
X146052879Y-77783397D01*
X146111657Y-77745623D01*
X146114464Y-77744834D01*
X146206187Y-77720258D01*
X146418188Y-77632444D01*
X146616912Y-77517711D01*
X146798961Y-77378019D01*
X146798965Y-77378014D01*
X146798970Y-77378011D01*
X146961211Y-77215770D01*
X146961214Y-77215765D01*
X146961219Y-77215761D01*
X147100911Y-77033712D01*
X147215644Y-76834988D01*
X147303458Y-76622987D01*
X147362848Y-76401338D01*
X147392800Y-76173834D01*
X147392800Y-75944366D01*
X147362848Y-75716862D01*
X147303458Y-75495213D01*
X147215644Y-75283212D01*
X147100911Y-75084488D01*
X147100908Y-75084485D01*
X147100907Y-75084482D01*
X146961218Y-74902438D01*
X146961211Y-74902430D01*
X146798970Y-74740189D01*
X146798961Y-74740181D01*
X146616917Y-74600492D01*
X146418190Y-74485757D01*
X146418176Y-74485750D01*
X146206187Y-74397942D01*
X146133161Y-74378375D01*
X145984538Y-74338552D01*
X145946515Y-74333546D01*
X145757041Y-74308600D01*
X145757034Y-74308600D01*
X145527566Y-74308600D01*
X145527558Y-74308600D01*
X145311015Y-74337109D01*
X145300062Y-74338552D01*
X145252146Y-74351391D01*
X145078412Y-74397942D01*
X144866423Y-74485750D01*
X144866409Y-74485757D01*
X144667682Y-74600492D01*
X144485638Y-74740181D01*
X144323381Y-74902438D01*
X144183692Y-75084482D01*
X144068957Y-75283209D01*
X144068950Y-75283223D01*
X143981142Y-75495212D01*
X143921753Y-75716859D01*
X143921751Y-75716870D01*
X143891800Y-75944358D01*
X143891800Y-76173841D01*
X143916746Y-76363315D01*
X143921752Y-76401338D01*
X143921753Y-76401340D01*
X143981142Y-76622987D01*
X144068950Y-76834976D01*
X144068957Y-76834990D01*
X144183692Y-77033717D01*
X144323381Y-77215761D01*
X144323389Y-77215770D01*
X144485630Y-77378011D01*
X144485638Y-77378018D01*
X144485639Y-77378019D01*
X144500333Y-77389294D01*
X144667682Y-77517707D01*
X144667685Y-77517708D01*
X144667688Y-77517711D01*
X144866412Y-77632444D01*
X144866417Y-77632446D01*
X144866423Y-77632449D01*
X144924604Y-77656548D01*
X145078413Y-77720258D01*
X145300062Y-77779648D01*
X145527566Y-77809600D01*
X145527573Y-77809600D01*
X145592643Y-77809600D01*
X145659682Y-77829285D01*
X145705437Y-77882089D01*
X145715381Y-77951247D01*
X145686356Y-78014803D01*
X145630962Y-78051531D01*
X145486303Y-78098533D01*
X145275866Y-78205757D01*
X145166850Y-78284962D01*
X145084790Y-78344583D01*
X145084788Y-78344585D01*
X145084787Y-78344585D01*
X144917785Y-78511587D01*
X144917785Y-78511588D01*
X144917783Y-78511590D01*
X144858162Y-78593650D01*
X144778957Y-78702666D01*
X144671733Y-78913103D01*
X144598746Y-79137731D01*
X144561800Y-79371002D01*
X144561800Y-79607197D01*
X144598746Y-79840468D01*
X144671733Y-80065096D01*
X144762230Y-80242705D01*
X144778957Y-80275533D01*
X144917783Y-80466610D01*
X145084790Y-80633617D01*
X145119427Y-80658783D01*
X145162092Y-80714113D01*
X145168071Y-80783726D01*
X145135465Y-80845521D01*
X145119430Y-80859415D01*
X145101665Y-80872322D01*
X145084788Y-80884584D01*
X144917785Y-81051587D01*
X144917785Y-81051588D01*
X144917783Y-81051590D01*
X144917556Y-81051903D01*
X144778957Y-81242666D01*
X144671733Y-81453103D01*
X144598746Y-81677731D01*
X144561800Y-81911002D01*
X144561800Y-82147197D01*
X144598746Y-82380468D01*
X144671733Y-82605096D01*
X144737773Y-82734705D01*
X144750669Y-82803374D01*
X144724393Y-82868115D01*
X144667286Y-82908372D01*
X144627288Y-82915000D01*
X144589955Y-82915000D01*
X144435310Y-82945761D01*
X144435298Y-82945764D01*
X144289627Y-83006102D01*
X144289614Y-83006109D01*
X144157925Y-83094102D01*
X144091247Y-83114980D01*
X144089034Y-83115000D01*
X127545597Y-83115000D01*
X127478558Y-83095315D01*
X127457916Y-83078681D01*
X125140016Y-80760781D01*
X125106531Y-80699458D01*
X125111515Y-80629766D01*
X125153387Y-80573833D01*
X125218851Y-80549416D01*
X125227697Y-80549100D01*
X142272300Y-80549100D01*
X142272300Y-74059100D01*
X124582300Y-74059100D01*
X124582300Y-79903703D01*
X124562615Y-79970742D01*
X124509811Y-80016497D01*
X124440653Y-80026441D01*
X124377097Y-79997416D01*
X124370619Y-79991384D01*
X122181290Y-77802055D01*
X122174221Y-77794986D01*
X122174220Y-77794984D01*
X122087884Y-77708648D01*
X122059437Y-77656548D01*
X122054402Y-77647328D01*
X122059386Y-77577636D01*
X122067187Y-77567215D01*
X122101258Y-77521702D01*
X122101260Y-77521700D01*
X122106680Y-77517866D01*
X122106916Y-77517708D01*
X122175069Y-77465412D01*
X122241433Y-77414488D01*
X122306601Y-77389294D01*
X122375046Y-77403332D01*
X122425036Y-77452145D01*
X122431480Y-77465412D01*
X122483902Y-77591972D01*
X122483909Y-77591985D01*
X122571510Y-77723088D01*
X122571513Y-77723092D01*
X122683007Y-77834586D01*
X122683011Y-77834589D01*
X122814114Y-77922190D01*
X122814127Y-77922197D01*
X122891166Y-77954107D01*
X122959803Y-77982537D01*
X123108390Y-78012093D01*
X123114453Y-78013299D01*
X123114456Y-78013300D01*
X123114458Y-78013300D01*
X123272144Y-78013300D01*
X123272145Y-78013299D01*
X123426797Y-77982537D01*
X123572479Y-77922194D01*
X123703589Y-77834589D01*
X123815089Y-77723089D01*
X123902694Y-77591979D01*
X123963037Y-77446297D01*
X123993800Y-77291642D01*
X123993800Y-77133958D01*
X123993800Y-77133955D01*
X123993799Y-77133953D01*
X123973883Y-77033830D01*
X123963037Y-76979303D01*
X123937286Y-76917134D01*
X123902697Y-76833627D01*
X123902690Y-76833614D01*
X123814698Y-76701925D01*
X123793820Y-76635247D01*
X123793800Y-76633034D01*
X123793800Y-75262060D01*
X123793801Y-75262047D01*
X123793801Y-75093944D01*
X123777839Y-75034373D01*
X123752877Y-74941216D01*
X123723707Y-74890692D01*
X123673824Y-74804290D01*
X123673818Y-74804282D01*
X122041990Y-73172455D01*
X122034921Y-73165386D01*
X122034920Y-73165384D01*
X121949514Y-73079978D01*
X121923701Y-73032703D01*
X121916032Y-73018658D01*
X121921016Y-72948966D01*
X121932519Y-72933600D01*
X121962888Y-72893032D01*
X122010568Y-72875248D01*
X122028352Y-72868616D01*
X122037198Y-72868300D01*
X123590934Y-72868300D01*
X123657973Y-72887985D01*
X123659825Y-72889198D01*
X123791514Y-72977190D01*
X123791527Y-72977197D01*
X123937198Y-73037535D01*
X123937203Y-73037537D01*
X124091853Y-73068299D01*
X124091856Y-73068300D01*
X124091858Y-73068300D01*
X124249544Y-73068300D01*
X124249545Y-73068299D01*
X124404197Y-73037537D01*
X124549879Y-72977194D01*
X124680989Y-72889589D01*
X124792489Y-72778089D01*
X124880094Y-72646979D01*
X124940437Y-72501297D01*
X124971200Y-72346642D01*
X124971200Y-72188958D01*
X124971200Y-72188955D01*
X124971199Y-72188953D01*
X124949383Y-72079277D01*
X124940437Y-72034303D01*
X124918491Y-71981320D01*
X124880097Y-71888627D01*
X124880090Y-71888614D01*
X124792489Y-71757511D01*
X124792486Y-71757507D01*
X124680992Y-71646013D01*
X124680988Y-71646010D01*
X124549885Y-71558409D01*
X124549872Y-71558402D01*
X124404201Y-71498064D01*
X124404189Y-71498061D01*
X124249545Y-71467300D01*
X124249542Y-71467300D01*
X124091858Y-71467300D01*
X124091855Y-71467300D01*
X123937210Y-71498061D01*
X123937198Y-71498064D01*
X123791527Y-71558402D01*
X123791514Y-71558409D01*
X123659825Y-71646402D01*
X123593147Y-71667280D01*
X123590934Y-71667300D01*
X110823597Y-71667300D01*
X110756558Y-71647615D01*
X110735916Y-71630981D01*
X109508770Y-70403835D01*
X127051800Y-70403835D01*
X127051800Y-72499570D01*
X127051801Y-72499576D01*
X127058208Y-72559183D01*
X127108502Y-72694028D01*
X127108506Y-72694035D01*
X127194752Y-72809244D01*
X127194755Y-72809247D01*
X127309964Y-72895493D01*
X127309971Y-72895497D01*
X127444817Y-72945791D01*
X127444816Y-72945791D01*
X127451744Y-72946535D01*
X127504427Y-72952200D01*
X129600172Y-72952199D01*
X129659783Y-72945791D01*
X129794631Y-72895496D01*
X129909846Y-72809246D01*
X129996096Y-72694031D01*
X130046391Y-72559183D01*
X130046391Y-72559181D01*
X130048174Y-72551638D01*
X130050446Y-72552174D01*
X130072729Y-72498388D01*
X130130123Y-72458543D01*
X130169276Y-72452200D01*
X139929542Y-72452200D01*
X139960566Y-72446028D01*
X140026188Y-72432975D01*
X140122836Y-72413751D01*
X140176165Y-72391661D01*
X140304914Y-72338332D01*
X140468782Y-72228839D01*
X140608139Y-72089482D01*
X140608140Y-72089479D01*
X140767902Y-71929717D01*
X140829225Y-71896234D01*
X140855582Y-71893400D01*
X156970776Y-71893400D01*
X157037815Y-71913085D01*
X157071094Y-71944515D01*
X157097830Y-71981314D01*
X157097835Y-71981320D01*
X157242586Y-72126071D01*
X157384037Y-72228839D01*
X157408190Y-72246387D01*
X157524407Y-72305603D01*
X157590576Y-72339318D01*
X157590578Y-72339318D01*
X157590581Y-72339320D01*
X157694937Y-72373227D01*
X157785265Y-72402577D01*
X157855816Y-72413751D01*
X157933313Y-72426025D01*
X157996448Y-72455954D01*
X158001597Y-72460817D01*
X158427135Y-72886355D01*
X158427164Y-72886386D01*
X158569614Y-73028836D01*
X158569618Y-73028839D01*
X158733479Y-73138328D01*
X158733492Y-73138335D01*
X158862233Y-73191661D01*
X158905144Y-73209435D01*
X158915564Y-73213751D01*
X159012212Y-73232975D01*
X159060535Y-73242587D01*
X159108858Y-73252200D01*
X159108859Y-73252200D01*
X159108860Y-73252200D01*
X159305940Y-73252200D01*
X169072823Y-73252200D01*
X169139862Y-73271885D01*
X169185617Y-73324689D01*
X169193066Y-73351834D01*
X169193924Y-73351632D01*
X169195707Y-73359179D01*
X169246002Y-73494028D01*
X169246006Y-73494035D01*
X169332252Y-73609244D01*
X169332255Y-73609247D01*
X169447464Y-73695493D01*
X169447471Y-73695497D01*
X169582317Y-73745791D01*
X169582316Y-73745791D01*
X169589244Y-73746535D01*
X169641927Y-73752200D01*
X171737672Y-73752199D01*
X171797283Y-73745791D01*
X171932131Y-73695496D01*
X172047346Y-73609246D01*
X172133596Y-73494031D01*
X172183891Y-73359183D01*
X172190300Y-73299573D01*
X172190299Y-71203828D01*
X172183891Y-71144217D01*
X172136594Y-71017408D01*
X172133597Y-71009371D01*
X172133593Y-71009364D01*
X172047347Y-70894155D01*
X172047344Y-70894152D01*
X171932135Y-70807906D01*
X171932128Y-70807902D01*
X171797282Y-70757608D01*
X171797283Y-70757608D01*
X171737683Y-70751201D01*
X171737681Y-70751200D01*
X171737673Y-70751200D01*
X171737664Y-70751200D01*
X169641929Y-70751200D01*
X169641923Y-70751201D01*
X169582316Y-70757608D01*
X169447471Y-70807902D01*
X169447464Y-70807906D01*
X169332255Y-70894152D01*
X169332252Y-70894155D01*
X169246006Y-71009364D01*
X169246002Y-71009371D01*
X169195708Y-71144217D01*
X169193926Y-71151762D01*
X169191653Y-71151225D01*
X169169371Y-71205012D01*
X169111977Y-71244857D01*
X169072824Y-71251200D01*
X159673182Y-71251200D01*
X159643741Y-71242555D01*
X159613755Y-71236032D01*
X159608739Y-71232277D01*
X159606143Y-71231515D01*
X159585501Y-71214881D01*
X159416517Y-71045897D01*
X159383032Y-70984574D01*
X159381725Y-70977613D01*
X159358277Y-70829566D01*
X159358277Y-70829565D01*
X159295018Y-70634876D01*
X159261303Y-70568707D01*
X159202087Y-70452490D01*
X159186848Y-70431515D01*
X159081771Y-70286886D01*
X158937013Y-70142128D01*
X158771413Y-70021815D01*
X158771412Y-70021814D01*
X158771410Y-70021813D01*
X158714453Y-69992791D01*
X158589023Y-69928881D01*
X158394334Y-69865622D01*
X158219795Y-69837978D01*
X158192152Y-69833600D01*
X157987448Y-69833600D01*
X157940579Y-69841023D01*
X157785269Y-69865622D01*
X157785268Y-69865622D01*
X157763439Y-69872715D01*
X157721532Y-69886331D01*
X157683216Y-69892400D01*
X141700315Y-69892400D01*
X141633276Y-69872715D01*
X141589830Y-69824695D01*
X141586812Y-69818773D01*
X141502087Y-69652490D01*
X141488727Y-69634101D01*
X141381771Y-69486886D01*
X141237013Y-69342128D01*
X141071413Y-69221815D01*
X141071412Y-69221814D01*
X141071410Y-69221813D01*
X141014453Y-69192791D01*
X140889023Y-69128881D01*
X140694334Y-69065622D01*
X140519795Y-69037978D01*
X140492152Y-69033600D01*
X140287448Y-69033600D01*
X140263129Y-69037451D01*
X140085265Y-69065622D01*
X139890576Y-69128881D01*
X139708186Y-69221815D01*
X139542586Y-69342128D01*
X139397828Y-69486886D01*
X139277515Y-69652486D01*
X139184581Y-69834876D01*
X139121322Y-70029565D01*
X139089300Y-70231748D01*
X139089300Y-70327200D01*
X139069615Y-70394239D01*
X139016811Y-70439994D01*
X138965300Y-70451200D01*
X130169277Y-70451200D01*
X130102238Y-70431515D01*
X130056483Y-70378711D01*
X130049033Y-70351565D01*
X130048176Y-70351768D01*
X130046392Y-70344220D01*
X129996097Y-70209371D01*
X129996093Y-70209364D01*
X129909847Y-70094155D01*
X129909844Y-70094152D01*
X129794635Y-70007906D01*
X129794628Y-70007902D01*
X129659782Y-69957608D01*
X129659783Y-69957608D01*
X129600183Y-69951201D01*
X129600181Y-69951200D01*
X129600173Y-69951200D01*
X129600164Y-69951200D01*
X127504429Y-69951200D01*
X127504423Y-69951201D01*
X127444816Y-69957608D01*
X127309971Y-70007902D01*
X127309964Y-70007906D01*
X127194755Y-70094152D01*
X127194752Y-70094155D01*
X127108506Y-70209364D01*
X127108502Y-70209371D01*
X127058208Y-70344217D01*
X127051801Y-70403816D01*
X127051800Y-70403835D01*
X109508770Y-70403835D01*
X108626618Y-69521683D01*
X108593133Y-69460360D01*
X108590299Y-69434002D01*
X108590299Y-67434098D01*
X108590298Y-67434081D01*
X108579799Y-67331303D01*
X108579798Y-67331300D01*
X108538052Y-67205319D01*
X108537517Y-67203705D01*
X108524614Y-67164766D01*
X108432512Y-67015444D01*
X108308456Y-66891388D01*
X108159134Y-66799286D01*
X107992597Y-66744101D01*
X107992595Y-66744100D01*
X107889810Y-66733600D01*
X105689798Y-66733600D01*
X105689781Y-66733601D01*
X105587003Y-66744100D01*
X105587000Y-66744101D01*
X105420468Y-66799285D01*
X105420463Y-66799287D01*
X105271142Y-66891389D01*
X105147089Y-67015442D01*
X105054987Y-67164763D01*
X105054985Y-67164768D01*
X105028081Y-67245959D01*
X104999801Y-67331303D01*
X104999801Y-67331304D01*
X104999800Y-67331304D01*
X104989300Y-67434083D01*
X99590333Y-67434083D01*
X99590333Y-63833647D01*
X127052300Y-63833647D01*
X127052300Y-64069752D01*
X127089234Y-64302947D01*
X127162197Y-64527502D01*
X127269387Y-64737874D01*
X127329638Y-64820804D01*
X127329640Y-64820805D01*
X128069337Y-64081108D01*
X128086375Y-64144693D01*
X128152201Y-64258707D01*
X128245293Y-64351799D01*
X128359307Y-64417625D01*
X128422890Y-64434662D01*
X127683193Y-65174358D01*
X127766128Y-65234614D01*
X127976497Y-65341802D01*
X128201052Y-65414765D01*
X128201051Y-65414765D01*
X128434248Y-65451700D01*
X128670352Y-65451700D01*
X128903547Y-65414765D01*
X129128102Y-65341802D01*
X129338463Y-65234618D01*
X129338469Y-65234614D01*
X129342367Y-65231782D01*
X139089800Y-65231782D01*
X139089800Y-65436417D01*
X139121809Y-65638517D01*
X139185044Y-65833131D01*
X139277941Y-66015450D01*
X139277947Y-66015459D01*
X139310323Y-66060021D01*
X139310324Y-66060022D01*
X139989800Y-65380546D01*
X139989800Y-65386761D01*
X140017059Y-65488494D01*
X140069720Y-65579706D01*
X140144194Y-65654180D01*
X140235406Y-65706841D01*
X140337139Y-65734100D01*
X140343353Y-65734100D01*
X139663876Y-66413574D01*
X139708450Y-66445959D01*
X139890768Y-66538855D01*
X140085382Y-66602090D01*
X140287483Y-66634100D01*
X140492117Y-66634100D01*
X140694217Y-66602090D01*
X140888831Y-66538855D01*
X141071149Y-66445959D01*
X141115721Y-66413574D01*
X140436247Y-65734100D01*
X140442461Y-65734100D01*
X140544194Y-65706841D01*
X140635406Y-65654180D01*
X140709880Y-65579706D01*
X140762541Y-65488494D01*
X140789800Y-65386761D01*
X140789800Y-65380548D01*
X141469274Y-66060022D01*
X141469274Y-66060021D01*
X141489792Y-66031782D01*
X156789800Y-66031782D01*
X156789800Y-66236417D01*
X156821809Y-66438517D01*
X156885044Y-66633131D01*
X156977941Y-66815450D01*
X156977947Y-66815459D01*
X157010323Y-66860021D01*
X157010324Y-66860022D01*
X157689800Y-66180546D01*
X157689800Y-66186761D01*
X157717059Y-66288494D01*
X157769720Y-66379706D01*
X157844194Y-66454180D01*
X157935406Y-66506841D01*
X158037139Y-66534100D01*
X158043353Y-66534100D01*
X157363876Y-67213574D01*
X157408450Y-67245959D01*
X157590768Y-67338855D01*
X157785382Y-67402090D01*
X157987483Y-67434100D01*
X158192117Y-67434100D01*
X158394217Y-67402090D01*
X158588831Y-67338855D01*
X158771149Y-67245959D01*
X158815721Y-67213574D01*
X158136247Y-66534100D01*
X158142461Y-66534100D01*
X158244194Y-66506841D01*
X158335406Y-66454180D01*
X158409880Y-66379706D01*
X158462541Y-66288494D01*
X158489800Y-66186761D01*
X158489800Y-66180547D01*
X159169274Y-66860021D01*
X159201659Y-66815449D01*
X159294555Y-66633131D01*
X159357790Y-66438517D01*
X159389800Y-66236417D01*
X159389800Y-66031782D01*
X159376292Y-65946497D01*
X159357790Y-65829682D01*
X159294555Y-65635068D01*
X159201659Y-65452750D01*
X159169274Y-65408177D01*
X159169274Y-65408176D01*
X158489800Y-66087651D01*
X158489800Y-66081439D01*
X158462541Y-65979706D01*
X158409880Y-65888494D01*
X158335406Y-65814020D01*
X158244194Y-65761359D01*
X158142461Y-65734100D01*
X158136246Y-65734100D01*
X158815722Y-65054624D01*
X158815721Y-65054623D01*
X158771159Y-65022247D01*
X158771150Y-65022241D01*
X158588831Y-64929344D01*
X158394217Y-64866109D01*
X158192117Y-64834100D01*
X157987483Y-64834100D01*
X157785382Y-64866109D01*
X157590768Y-64929344D01*
X157408444Y-65022243D01*
X157363877Y-65054623D01*
X157363877Y-65054624D01*
X158043354Y-65734100D01*
X158037139Y-65734100D01*
X157935406Y-65761359D01*
X157844194Y-65814020D01*
X157769720Y-65888494D01*
X157717059Y-65979706D01*
X157689800Y-66081439D01*
X157689800Y-66087653D01*
X157010324Y-65408177D01*
X157010323Y-65408177D01*
X156977943Y-65452744D01*
X156885044Y-65635068D01*
X156821809Y-65829682D01*
X156789800Y-66031782D01*
X141489792Y-66031782D01*
X141501659Y-66015449D01*
X141524501Y-65970621D01*
X141524502Y-65970619D01*
X141594554Y-65833134D01*
X141657790Y-65638517D01*
X141689800Y-65436417D01*
X141689800Y-65231782D01*
X141672298Y-65121281D01*
X141657790Y-65029682D01*
X141594555Y-64835068D01*
X141518127Y-64685070D01*
X141518126Y-64685068D01*
X141501661Y-64652752D01*
X141487780Y-64633647D01*
X169189800Y-64633647D01*
X169189800Y-64869752D01*
X169226734Y-65102947D01*
X169299697Y-65327502D01*
X169406887Y-65537874D01*
X169467138Y-65620804D01*
X169467140Y-65620805D01*
X170206837Y-64881108D01*
X170223875Y-64944693D01*
X170289701Y-65058707D01*
X170382793Y-65151799D01*
X170496807Y-65217625D01*
X170560390Y-65234662D01*
X169820693Y-65974358D01*
X169903628Y-66034614D01*
X170113997Y-66141802D01*
X170338552Y-66214765D01*
X170338551Y-66214765D01*
X170571748Y-66251700D01*
X170807852Y-66251700D01*
X171041047Y-66214765D01*
X171265602Y-66141802D01*
X171475963Y-66034618D01*
X171475969Y-66034614D01*
X171558904Y-65974358D01*
X171558905Y-65974358D01*
X170819208Y-65234662D01*
X170882793Y-65217625D01*
X170996807Y-65151799D01*
X171089899Y-65058707D01*
X171155725Y-64944693D01*
X171172762Y-64881109D01*
X171912458Y-65620805D01*
X171912458Y-65620804D01*
X171972714Y-65537869D01*
X171972718Y-65537863D01*
X172079902Y-65327502D01*
X172152865Y-65102947D01*
X172189800Y-64869752D01*
X172189800Y-64633647D01*
X172152865Y-64400452D01*
X172079902Y-64175897D01*
X171972714Y-63965528D01*
X171912458Y-63882594D01*
X171912458Y-63882593D01*
X171172762Y-64622290D01*
X171155725Y-64558707D01*
X171089899Y-64444693D01*
X170996807Y-64351601D01*
X170882793Y-64285775D01*
X170819209Y-64268737D01*
X171558905Y-63529040D01*
X171558904Y-63529038D01*
X171475974Y-63468787D01*
X171265602Y-63361597D01*
X171041047Y-63288634D01*
X171041048Y-63288634D01*
X170807852Y-63251700D01*
X170571748Y-63251700D01*
X170338552Y-63288634D01*
X170113997Y-63361597D01*
X169903630Y-63468784D01*
X169820694Y-63529040D01*
X170560391Y-64268737D01*
X170496807Y-64285775D01*
X170382793Y-64351601D01*
X170289701Y-64444693D01*
X170223875Y-64558707D01*
X170206837Y-64622291D01*
X169467140Y-63882594D01*
X169406884Y-63965530D01*
X169299697Y-64175897D01*
X169226734Y-64400452D01*
X169189800Y-64633647D01*
X141487780Y-64633647D01*
X141469274Y-64608177D01*
X141469274Y-64608176D01*
X140789800Y-65287651D01*
X140789800Y-65281439D01*
X140762541Y-65179706D01*
X140709880Y-65088494D01*
X140635406Y-65014020D01*
X140544194Y-64961359D01*
X140442461Y-64934100D01*
X140436246Y-64934100D01*
X141115722Y-64254624D01*
X141115721Y-64254623D01*
X141071159Y-64222247D01*
X141071150Y-64222241D01*
X140888831Y-64129344D01*
X140694217Y-64066109D01*
X140492117Y-64034100D01*
X140287483Y-64034100D01*
X140085382Y-64066109D01*
X139890768Y-64129344D01*
X139708444Y-64222243D01*
X139663877Y-64254623D01*
X139663877Y-64254624D01*
X140343354Y-64934100D01*
X140337139Y-64934100D01*
X140235406Y-64961359D01*
X140144194Y-65014020D01*
X140069720Y-65088494D01*
X140017059Y-65179706D01*
X139989800Y-65281439D01*
X139989800Y-65287653D01*
X139310324Y-64608177D01*
X139310323Y-64608177D01*
X139277943Y-64652744D01*
X139185044Y-64835068D01*
X139121809Y-65029682D01*
X139089800Y-65231782D01*
X129342367Y-65231782D01*
X129421404Y-65174358D01*
X129421404Y-65174357D01*
X128681708Y-64434662D01*
X128745293Y-64417625D01*
X128859307Y-64351799D01*
X128952399Y-64258707D01*
X129018225Y-64144693D01*
X129035262Y-64081109D01*
X129774958Y-64820805D01*
X129774958Y-64820804D01*
X129835214Y-64737869D01*
X129835218Y-64737863D01*
X129942402Y-64527502D01*
X130015365Y-64302949D01*
X130018607Y-64282483D01*
X130018607Y-64282481D01*
X130052300Y-64069752D01*
X130052300Y-63833647D01*
X130015367Y-63600457D01*
X130015365Y-63600452D01*
X129942402Y-63375897D01*
X129835214Y-63165528D01*
X129774958Y-63082594D01*
X129774958Y-63082593D01*
X129035262Y-63822290D01*
X129018225Y-63758707D01*
X128952399Y-63644693D01*
X128859307Y-63551601D01*
X128745293Y-63485775D01*
X128681709Y-63468737D01*
X129421405Y-62729040D01*
X129421404Y-62729038D01*
X129338474Y-62668787D01*
X129128102Y-62561597D01*
X128903547Y-62488634D01*
X128903548Y-62488634D01*
X128670352Y-62451700D01*
X128434248Y-62451700D01*
X128201052Y-62488634D01*
X127976497Y-62561597D01*
X127766130Y-62668784D01*
X127683194Y-62729040D01*
X128422891Y-63468737D01*
X128359307Y-63485775D01*
X128245293Y-63551601D01*
X128152201Y-63644693D01*
X128086375Y-63758707D01*
X128069337Y-63822291D01*
X127329640Y-63082594D01*
X127269384Y-63165530D01*
X127162197Y-63375897D01*
X127089234Y-63600452D01*
X127052300Y-63833647D01*
X99590333Y-63833647D01*
X99590333Y-58775814D01*
X146289800Y-58775814D01*
X146289800Y-59011785D01*
X146320599Y-59245714D01*
X146381670Y-59473637D01*
X146471960Y-59691619D01*
X146471965Y-59691628D01*
X146589944Y-59895971D01*
X146589945Y-59895972D01*
X146652521Y-59977523D01*
X147488758Y-59141287D01*
X147513778Y-59201690D01*
X147584912Y-59308151D01*
X147675449Y-59398688D01*
X147781910Y-59469822D01*
X147842311Y-59494841D01*
X147006075Y-60331077D01*
X147087627Y-60393654D01*
X147087628Y-60393655D01*
X147291971Y-60511634D01*
X147291980Y-60511639D01*
X147509963Y-60601929D01*
X147509961Y-60601929D01*
X147737885Y-60663000D01*
X147971814Y-60693799D01*
X147971829Y-60693800D01*
X148207771Y-60693800D01*
X148207785Y-60693799D01*
X148441714Y-60663000D01*
X148669637Y-60601929D01*
X148887619Y-60511639D01*
X148887628Y-60511634D01*
X149091981Y-60393650D01*
X149173523Y-60331079D01*
X149173523Y-60331076D01*
X148337287Y-59494841D01*
X148397690Y-59469822D01*
X148504151Y-59398688D01*
X148594688Y-59308151D01*
X148665822Y-59201690D01*
X148690841Y-59141288D01*
X149527076Y-59977523D01*
X149527079Y-59977523D01*
X149589650Y-59895981D01*
X149707634Y-59691628D01*
X149707639Y-59691619D01*
X149797929Y-59473637D01*
X149859000Y-59245714D01*
X149889799Y-59011785D01*
X149889800Y-59011771D01*
X149889800Y-58775828D01*
X149889799Y-58775814D01*
X149859000Y-58541885D01*
X149797929Y-58313962D01*
X149707639Y-58095980D01*
X149707634Y-58095971D01*
X149589655Y-57891628D01*
X149589648Y-57891617D01*
X149570086Y-57866124D01*
X149570083Y-57866121D01*
X149527077Y-57810075D01*
X148690841Y-58646311D01*
X148665822Y-58585910D01*
X148594688Y-58479449D01*
X148504151Y-58388912D01*
X148397690Y-58317778D01*
X148337288Y-58292758D01*
X148836262Y-57793783D01*
X151289300Y-57793783D01*
X151289300Y-59993801D01*
X151289301Y-59993818D01*
X151299800Y-60096596D01*
X151299801Y-60096599D01*
X151354985Y-60263131D01*
X151354986Y-60263134D01*
X151447088Y-60412456D01*
X151571144Y-60536512D01*
X151720466Y-60628614D01*
X151887003Y-60683799D01*
X151989791Y-60694300D01*
X154189808Y-60694299D01*
X154292597Y-60683799D01*
X154459134Y-60628614D01*
X154608456Y-60536512D01*
X154732512Y-60412456D01*
X154824614Y-60263134D01*
X154879799Y-60096597D01*
X154890300Y-59993809D01*
X154890299Y-57793792D01*
X154879799Y-57691003D01*
X154824614Y-57524466D01*
X154732512Y-57375144D01*
X154608456Y-57251088D01*
X154459134Y-57158986D01*
X154292597Y-57103801D01*
X154292595Y-57103800D01*
X154189810Y-57093300D01*
X151989798Y-57093300D01*
X151989781Y-57093301D01*
X151887003Y-57103800D01*
X151887000Y-57103801D01*
X151720468Y-57158985D01*
X151720463Y-57158987D01*
X151571142Y-57251089D01*
X151447089Y-57375142D01*
X151354987Y-57524463D01*
X151354986Y-57524466D01*
X151299801Y-57691003D01*
X151299801Y-57691004D01*
X151299800Y-57691004D01*
X151289300Y-57793783D01*
X148836262Y-57793783D01*
X149173523Y-57456521D01*
X149091972Y-57393945D01*
X149091971Y-57393944D01*
X148887628Y-57275965D01*
X148887619Y-57275960D01*
X148669636Y-57185670D01*
X148669638Y-57185670D01*
X148441714Y-57124599D01*
X148207785Y-57093800D01*
X147971814Y-57093800D01*
X147737885Y-57124599D01*
X147509962Y-57185670D01*
X147291980Y-57275960D01*
X147291971Y-57275965D01*
X147087628Y-57393944D01*
X147087618Y-57393950D01*
X147006075Y-57456520D01*
X147006075Y-57456521D01*
X147842312Y-58292758D01*
X147781910Y-58317778D01*
X147675449Y-58388912D01*
X147584912Y-58479449D01*
X147513778Y-58585910D01*
X147488758Y-58646311D01*
X146652521Y-57810075D01*
X146652520Y-57810075D01*
X146589950Y-57891618D01*
X146589944Y-57891628D01*
X146471965Y-58095971D01*
X146471960Y-58095980D01*
X146381670Y-58313962D01*
X146320599Y-58541885D01*
X146289800Y-58775814D01*
X99590333Y-58775814D01*
X99590333Y-53338127D01*
X99590599Y-53330017D01*
X99606910Y-53081204D01*
X99609027Y-53065122D01*
X99656884Y-52824546D01*
X99661082Y-52808879D01*
X99739932Y-52576603D01*
X99746136Y-52561626D01*
X99854633Y-52341624D01*
X99862731Y-52327598D01*
X99999025Y-52123625D01*
X100008878Y-52110784D01*
X100170627Y-51926350D01*
X100182085Y-51914892D01*
X100366516Y-51753154D01*
X100379372Y-51743290D01*
X100583345Y-51607003D01*
X100597367Y-51598908D01*
X100817373Y-51490417D01*
X100832353Y-51484211D01*
X101064641Y-51405364D01*
X101080283Y-51401173D01*
X101320878Y-51353319D01*
X101336944Y-51351204D01*
X101586801Y-51334831D01*
X101594882Y-51334567D01*
X101655718Y-51334568D01*
X101655722Y-51334567D01*
X192585773Y-51334567D01*
X192593883Y-51334832D01*
G37*
%TD.AperFunction*%
%TD*%
M02*
