%TF.GenerationSoftware,KiCad,Pcbnew,9.0.0*%
%TF.CreationDate,2025-03-24T12:51:38-05:00*%
%TF.ProjectId,DIIN-proyecto,4449494e-2d70-4726-9f79-6563746f2e6b,rev?*%
%TF.SameCoordinates,Original*%
%TF.FileFunction,Soldermask,Top*%
%TF.FilePolarity,Negative*%
%FSLAX46Y46*%
G04 Gerber Fmt 4.6, Leading zero omitted, Abs format (unit mm)*
G04 Created by KiCad (PCBNEW 9.0.0) date 2025-03-24 12:51:38*
%MOMM*%
%LPD*%
G01*
G04 APERTURE LIST*
G04 Aperture macros list*
%AMRoundRect*
0 Rectangle with rounded corners*
0 $1 Rounding radius*
0 $2 $3 $4 $5 $6 $7 $8 $9 X,Y pos of 4 corners*
0 Add a 4 corners polygon primitive as box body*
4,1,4,$2,$3,$4,$5,$6,$7,$8,$9,$2,$3,0*
0 Add four circle primitives for the rounded corners*
1,1,$1+$1,$2,$3*
1,1,$1+$1,$4,$5*
1,1,$1+$1,$6,$7*
1,1,$1+$1,$8,$9*
0 Add four rect primitives between the rounded corners*
20,1,$1+$1,$2,$3,$4,$5,0*
20,1,$1+$1,$4,$5,$6,$7,0*
20,1,$1+$1,$6,$7,$8,$9,0*
20,1,$1+$1,$8,$9,$2,$3,0*%
G04 Aperture macros list end*
%ADD10R,1.700000X1.700000*%
%ADD11O,1.700000X1.700000*%
%ADD12C,1.600000*%
%ADD13R,2.000000X2.000000*%
%ADD14C,2.000000*%
%ADD15C,3.000000*%
%ADD16RoundRect,0.102000X1.000000X1.000000X-1.000000X1.000000X-1.000000X-1.000000X1.000000X-1.000000X0*%
%ADD17C,2.204000*%
%ADD18RoundRect,0.250000X-1.050000X1.050000X-1.050000X-1.050000X1.050000X-1.050000X1.050000X1.050000X0*%
%ADD19C,2.600000*%
%ADD20RoundRect,0.250000X1.050000X1.050000X-1.050000X1.050000X-1.050000X-1.050000X1.050000X-1.050000X0*%
%ADD21RoundRect,0.250000X-1.050000X-1.050000X1.050000X-1.050000X1.050000X1.050000X-1.050000X1.050000X0*%
G04 APERTURE END LIST*
D10*
%TO.C,J1*%
X186049800Y-89174100D03*
D11*
X188589800Y-89174100D03*
X186049800Y-91714100D03*
X188589800Y-91714100D03*
X186049800Y-94254100D03*
X188589800Y-94254100D03*
X186049800Y-96794100D03*
X188589800Y-96794100D03*
X186049800Y-99334100D03*
X188589800Y-99334100D03*
X186049800Y-101874100D03*
X188589800Y-101874100D03*
X186049800Y-104414100D03*
X188589800Y-104414100D03*
X186049800Y-106954100D03*
X188589800Y-106954100D03*
X186049800Y-109494100D03*
X188589800Y-109494100D03*
%TD*%
D12*
%TO.C,C6*%
X158089800Y-71134100D03*
X158089800Y-66134100D03*
%TD*%
%TO.C,C4*%
X140389800Y-70334100D03*
X140389800Y-65334100D03*
%TD*%
D13*
%TO.C,C3*%
X128552300Y-71451700D03*
D14*
X128552300Y-63951700D03*
%TD*%
D13*
%TO.C,C5*%
X170689800Y-72251700D03*
D14*
X170689800Y-64751700D03*
%TD*%
D15*
%TO.C,U6*%
X176197300Y-123009100D03*
X176197300Y-76059100D03*
X151687300Y-123009100D03*
X151687300Y-76059100D03*
D16*
X176617300Y-115049100D03*
D17*
X176617300Y-112509100D03*
X176617300Y-109969100D03*
X176617300Y-107429100D03*
X176617300Y-104889100D03*
X176617300Y-102349100D03*
X176617300Y-99809100D03*
X176617300Y-97269100D03*
X176617300Y-94729100D03*
X176617300Y-92189100D03*
X176617300Y-89649100D03*
X176617300Y-87109100D03*
X176617300Y-84569100D03*
X176617300Y-82029100D03*
X176617300Y-79489100D03*
X151217300Y-79489100D03*
X151217300Y-82029100D03*
X151217300Y-84569100D03*
X151217300Y-87109100D03*
X151217300Y-89649100D03*
X151217300Y-92189100D03*
X151217300Y-94729100D03*
X151217300Y-97269100D03*
X151217300Y-99809100D03*
X151217300Y-102349100D03*
X151217300Y-104889100D03*
X151217300Y-107429100D03*
X151217300Y-109969100D03*
X151217300Y-112509100D03*
X151217300Y-115049100D03*
%TD*%
D15*
%TO.C,U8*%
X145642300Y-123009100D03*
X145642300Y-76059100D03*
X121132300Y-123009100D03*
X121132300Y-76059100D03*
D16*
X146062300Y-115049100D03*
D17*
X146062300Y-112509100D03*
X146062300Y-109969100D03*
X146062300Y-107429100D03*
X146062300Y-104889100D03*
X146062300Y-102349100D03*
X146062300Y-99809100D03*
X146062300Y-97269100D03*
X146062300Y-94729100D03*
X146062300Y-92189100D03*
X146062300Y-89649100D03*
X146062300Y-87109100D03*
X146062300Y-84569100D03*
X146062300Y-82029100D03*
X146062300Y-79489100D03*
X120662300Y-79489100D03*
X120662300Y-82029100D03*
X120662300Y-84569100D03*
X120662300Y-87109100D03*
X120662300Y-89649100D03*
X120662300Y-92189100D03*
X120662300Y-94729100D03*
X120662300Y-97269100D03*
X120662300Y-99809100D03*
X120662300Y-102349100D03*
X120662300Y-104889100D03*
X120662300Y-107429100D03*
X120662300Y-109969100D03*
X120662300Y-112509100D03*
X120662300Y-115049100D03*
%TD*%
D18*
%TO.C,J14*%
X106789800Y-108034100D03*
D19*
X106789800Y-113034100D03*
X106789800Y-118034100D03*
%TD*%
D20*
%TO.C,J7*%
X153089800Y-58893800D03*
D19*
X148089800Y-58893800D03*
%TD*%
D21*
%TO.C,J11*%
X114389800Y-133134100D03*
D19*
X119389800Y-133134100D03*
X124389800Y-133134100D03*
%TD*%
D18*
%TO.C,J9*%
X106789800Y-68534100D03*
D19*
X106789800Y-73534100D03*
X106789800Y-78534100D03*
X106789800Y-83534100D03*
%TD*%
D21*
%TO.C,J13*%
X143389800Y-133134100D03*
D19*
X148389800Y-133134100D03*
X153389800Y-133134100D03*
%TD*%
D21*
%TO.C,J12*%
X172389800Y-133134100D03*
D19*
X177389800Y-133134100D03*
X182389800Y-133134100D03*
%TD*%
M02*
