%TF.GenerationSoftware,KiCad,Pcbnew,9.0.0*%
%TF.CreationDate,2025-03-24T12:32:59-05:00*%
%TF.ProjectId,DIIN-proyecto,4449494e-2d70-4726-9f79-6563746f2e6b,rev?*%
%TF.SameCoordinates,Original*%
%TF.FileFunction,Copper,L2,Bot*%
%TF.FilePolarity,Positive*%
%FSLAX46Y46*%
G04 Gerber Fmt 4.6, Leading zero omitted, Abs format (unit mm)*
G04 Created by KiCad (PCBNEW 9.0.0) date 2025-03-24 12:32:59*
%MOMM*%
%LPD*%
G01*
G04 APERTURE LIST*
G04 Aperture macros list*
%AMRoundRect*
0 Rectangle with rounded corners*
0 $1 Rounding radius*
0 $2 $3 $4 $5 $6 $7 $8 $9 X,Y pos of 4 corners*
0 Add a 4 corners polygon primitive as box body*
4,1,4,$2,$3,$4,$5,$6,$7,$8,$9,$2,$3,0*
0 Add four circle primitives for the rounded corners*
1,1,$1+$1,$2,$3*
1,1,$1+$1,$4,$5*
1,1,$1+$1,$6,$7*
1,1,$1+$1,$8,$9*
0 Add four rect primitives between the rounded corners*
20,1,$1+$1,$2,$3,$4,$5,0*
20,1,$1+$1,$4,$5,$6,$7,0*
20,1,$1+$1,$6,$7,$8,$9,0*
20,1,$1+$1,$8,$9,$2,$3,0*%
G04 Aperture macros list end*
%TA.AperFunction,ComponentPad*%
%ADD10RoundRect,0.250000X-1.050000X1.050000X-1.050000X-1.050000X1.050000X-1.050000X1.050000X1.050000X0*%
%TD*%
%TA.AperFunction,ComponentPad*%
%ADD11C,2.600000*%
%TD*%
%TA.AperFunction,ComponentPad*%
%ADD12C,1.600000*%
%TD*%
%TA.AperFunction,ComponentPad*%
%ADD13RoundRect,0.250000X-0.550000X0.550000X-0.550000X-0.550000X0.550000X-0.550000X0.550000X0.550000X0*%
%TD*%
%TA.AperFunction,ComponentPad*%
%ADD14RoundRect,0.250000X-0.550000X-0.550000X0.550000X-0.550000X0.550000X0.550000X-0.550000X0.550000X0*%
%TD*%
%TA.AperFunction,ComponentPad*%
%ADD15R,2.000000X2.000000*%
%TD*%
%TA.AperFunction,ComponentPad*%
%ADD16C,2.000000*%
%TD*%
%TA.AperFunction,ComponentPad*%
%ADD17RoundRect,0.250000X1.050000X-1.050000X1.050000X1.050000X-1.050000X1.050000X-1.050000X-1.050000X0*%
%TD*%
%TA.AperFunction,ComponentPad*%
%ADD18RoundRect,0.250000X1.050000X1.050000X-1.050000X1.050000X-1.050000X-1.050000X1.050000X-1.050000X0*%
%TD*%
%TA.AperFunction,ComponentPad*%
%ADD19R,2.200000X2.200000*%
%TD*%
%TA.AperFunction,ComponentPad*%
%ADD20O,2.200000X2.200000*%
%TD*%
%TA.AperFunction,ViaPad*%
%ADD21C,0.600000*%
%TD*%
%TA.AperFunction,Conductor*%
%ADD22C,1.000000*%
%TD*%
%TA.AperFunction,Conductor*%
%ADD23C,0.200000*%
%TD*%
G04 APERTURE END LIST*
D10*
%TO.P,J3,1,Pin_1*%
%TO.N,X1*%
X108469250Y-107570750D03*
D11*
%TO.P,J3,2,Pin_2*%
%TO.N,X2*%
X108469250Y-112570750D03*
%TD*%
%TO.P,J6,2,Pin_2*%
%TO.N,Y2*%
X108469250Y-128070750D03*
D10*
%TO.P,J6,1,Pin_1*%
%TO.N,Y1*%
X108469250Y-123070750D03*
%TD*%
D12*
%TO.P,U1,15,O2*%
%TO.N,B2*%
X135319250Y-98885750D03*
%TO.P,U1,14,O3*%
%TO.N,B3*%
X132779250Y-98885750D03*
%TO.P,U1,13,O4*%
%TO.N,B4*%
X130239250Y-98885750D03*
%TO.P,U1,12,O5*%
%TO.N,unconnected-(U1-O5-Pad12)*%
X127699250Y-98885750D03*
%TO.P,U1,11,O6*%
%TO.N,unconnected-(U1-O6-Pad11)*%
X125159250Y-98885750D03*
%TO.P,U1,10,O7*%
%TO.N,unconnected-(U1-O7-Pad10)*%
X122619250Y-98885750D03*
%TO.P,U1,9,COM*%
%TO.N,COM*%
X120079250Y-98885750D03*
%TO.P,U1,5,I5*%
%TO.N,unconnected-(U1-I5-Pad5)*%
X127699250Y-91265750D03*
%TO.P,U1,4,I4*%
%TO.N,FM4*%
X130239250Y-91265750D03*
%TO.P,U1,3,I3*%
%TO.N,FM3*%
X132779250Y-91265750D03*
%TO.P,U1,2,I2*%
%TO.N,FM2*%
X135319250Y-91265750D03*
D13*
%TO.P,U1,1,I1*%
%TO.N,FM1*%
X137859250Y-91265750D03*
D12*
%TO.P,U1,16,O1*%
%TO.N,B1*%
X137859250Y-98885750D03*
%TO.P,U1,6,I6*%
%TO.N,unconnected-(U1-I6-Pad6)*%
X125159250Y-91265750D03*
%TO.P,U1,7,I7*%
%TO.N,unconnected-(U1-I7-Pad7)*%
X122619250Y-91265750D03*
%TO.P,U1,8,GND*%
%TO.N,GND*%
X120079250Y-91265750D03*
%TD*%
%TO.P,U5,16,VCC1*%
%TO.N,+12V*%
X139284250Y-107430750D03*
%TO.P,U5,15,4A*%
%TO.N,IN2_N*%
X139284250Y-109970750D03*
%TO.P,U5,14,4Y*%
%TO.N,Y2*%
X139284250Y-112510750D03*
%TO.P,U5,11,3Y*%
%TO.N,Y1*%
X139284250Y-120130750D03*
%TO.P,U5,10,3A*%
%TO.N,IN2*%
X139284250Y-122670750D03*
%TO.P,U5,9,EN3\u002C4*%
%TO.N,PWM2*%
X139284250Y-125210750D03*
%TO.P,U5,8,VCC2*%
%TO.N,+12V*%
X131664250Y-125210750D03*
%TO.P,U5,3,1Y*%
%TO.N,X1*%
X131664250Y-112510750D03*
%TO.P,U5,2,1A*%
%TO.N,IN1*%
X131664250Y-109970750D03*
D14*
%TO.P,U5,1,EN1\u002C2*%
%TO.N,PWM1*%
X131664250Y-107430750D03*
D12*
%TO.P,U5,7,2A*%
%TO.N,IN1_N*%
X131664250Y-122670750D03*
%TO.P,U5,4,GND*%
%TO.N,GND*%
X131664250Y-115050750D03*
%TO.P,U5,5,GND*%
X131664250Y-117590750D03*
%TO.P,U5,13,GND*%
X139284250Y-115050750D03*
%TO.P,U5,12,GND*%
X139284250Y-117590750D03*
%TO.P,U5,6,2Y*%
%TO.N,X2*%
X131664250Y-120130750D03*
%TD*%
D15*
%TO.P,C7,1*%
%TO.N,+12V*%
X158469250Y-116188450D03*
D16*
%TO.P,C7,2*%
%TO.N,GND*%
X158469250Y-108688450D03*
%TD*%
D11*
%TO.P,J10,4,Pin_4*%
%TO.N,B4*%
X108469250Y-97070750D03*
%TO.P,J10,3,Pin_3*%
%TO.N,B3*%
X108469250Y-92070750D03*
%TO.P,J10,2,Pin_2*%
%TO.N,B2*%
X108469250Y-87070750D03*
D10*
%TO.P,J10,1,Pin_1*%
%TO.N,B1*%
X108469250Y-82070750D03*
%TD*%
D12*
%TO.P,C8,1*%
%TO.N,+12V*%
X155969250Y-121070750D03*
%TO.P,C8,2*%
%TO.N,GND*%
X160969250Y-121070750D03*
%TD*%
D11*
%TO.P,J13,3,Pin_3*%
%TO.N,PWM2*%
X172469250Y-95020750D03*
%TO.P,J13,2,Pin_2*%
%TO.N,IN2_N*%
X172469250Y-100020750D03*
D17*
%TO.P,J13,1,Pin_1*%
%TO.N,IN2*%
X172469250Y-105020750D03*
%TD*%
D15*
%TO.P,C1,1*%
%TO.N,COM*%
X152469250Y-95070750D03*
D16*
%TO.P,C1,2*%
%TO.N,GND*%
X144969250Y-95070750D03*
%TD*%
D11*
%TO.P,J12,3,Pin_3*%
%TO.N,PWM1*%
X172469250Y-78270750D03*
D17*
%TO.P,J12,1,Pin_1*%
%TO.N,IN1*%
X172469250Y-88270750D03*
D11*
%TO.P,J12,2,Pin_2*%
%TO.N,IN1_N*%
X172469250Y-83270750D03*
%TD*%
D18*
%TO.P,J8,1,Pin_1*%
%TO.N,COM*%
X130969250Y-81070750D03*
D11*
%TO.P,J8,2,Pin_2*%
%TO.N,GND*%
X125969250Y-81070750D03*
%TD*%
%TO.P,J9,4,Pin_4*%
%TO.N,FM4*%
X172469250Y-111770750D03*
%TO.P,J9,3,Pin_3*%
%TO.N,FM3*%
X172469250Y-116770750D03*
%TO.P,J9,2,Pin_2*%
%TO.N,FM2*%
X172469250Y-121770750D03*
D17*
%TO.P,J9,1,Pin_1*%
%TO.N,FM1*%
X172469250Y-126770750D03*
%TD*%
D12*
%TO.P,C2,1*%
%TO.N,COM*%
X158469250Y-97570750D03*
%TO.P,C2,2*%
%TO.N,GND*%
X158469250Y-92570750D03*
%TD*%
D18*
%TO.P,J2,1,Pin_1*%
%TO.N,+12V*%
X154469250Y-81070750D03*
D11*
%TO.P,J2,2,Pin_2*%
%TO.N,GND*%
X149469250Y-81070750D03*
%TD*%
D19*
%TO.P,D8,1,K*%
%TO.N,Y2*%
X148769250Y-117470750D03*
D20*
%TO.P,D8,2,A*%
%TO.N,GND*%
X148769250Y-127630750D03*
%TD*%
D19*
%TO.P,D6,1,K*%
%TO.N,Y1*%
X144269250Y-117470750D03*
D20*
%TO.P,D6,2,A*%
%TO.N,GND*%
X144269250Y-127630750D03*
%TD*%
%TO.P,D7,2,A*%
%TO.N,Y2*%
X148769250Y-114130750D03*
D19*
%TO.P,D7,1,K*%
%TO.N,+12V*%
X148769250Y-103970750D03*
%TD*%
D20*
%TO.P,D5,2,A*%
%TO.N,Y1*%
X144269250Y-114130750D03*
D19*
%TO.P,D5,1,K*%
%TO.N,+12V*%
X144269250Y-103970750D03*
%TD*%
%TO.P,D1,1,K*%
%TO.N,X1*%
X119902550Y-117490750D03*
D20*
%TO.P,D1,2,A*%
%TO.N,GND*%
X119902550Y-127650750D03*
%TD*%
D19*
%TO.P,D3,1,K*%
%TO.N,+12V*%
X124569250Y-103990750D03*
D20*
%TO.P,D3,2,A*%
%TO.N,X2*%
X124569250Y-114150750D03*
%TD*%
%TO.P,D4,2,A*%
%TO.N,GND*%
X124569250Y-127650750D03*
D19*
%TO.P,D4,1,K*%
%TO.N,X2*%
X124569250Y-117490750D03*
%TD*%
D20*
%TO.P,D2,2,A*%
%TO.N,X1*%
X119902550Y-114150750D03*
D19*
%TO.P,D2,1,K*%
%TO.N,+12V*%
X119902550Y-103990750D03*
%TD*%
D21*
%TO.N,IN1*%
X164613550Y-111084650D03*
%TO.N,IN1_N*%
X129061250Y-86403250D03*
%TO.N,PWM1*%
X134082850Y-78270750D03*
%TO.N,FM1*%
X163786550Y-91040550D03*
%TO.N,PWM2*%
X174506750Y-124471450D03*
%TO.N,FM4*%
X173187250Y-97785750D03*
%TO.N,FM2*%
X136673750Y-123774050D03*
%TO.N,IN2*%
X168382250Y-121817750D03*
%TO.N,FM3*%
X134049250Y-116448250D03*
%TD*%
D22*
%TO.N,+12V*%
X154469250Y-112839250D02*
X154469250Y-102569050D01*
X158469250Y-116839250D02*
X154469250Y-112839250D01*
D23*
%TO.N,X2*%
X124569250Y-117490750D02*
X124569250Y-114150750D01*
%TO.N,X1*%
X119902550Y-114150750D02*
X119902550Y-117490750D01*
D22*
%TO.N,+12V*%
X154469250Y-102569050D02*
X148769250Y-102569050D01*
X148769250Y-103970750D02*
X148769250Y-102569050D01*
X158469250Y-117490150D02*
X155969250Y-119990150D01*
X155969250Y-119990150D02*
X155969250Y-121070750D01*
X158469250Y-116188450D02*
X158469250Y-116839250D01*
X158469250Y-116839250D02*
X158469250Y-117490150D01*
D23*
%TO.N,IN1_N*%
X129061250Y-120067750D02*
X129061250Y-86403250D01*
%TO.N,FM1*%
X172469250Y-126770750D02*
X163786550Y-118088050D01*
%TO.N,FM4*%
X174105050Y-110134950D02*
X172469250Y-111770750D01*
%TO.N,FM3*%
X132779250Y-91265750D02*
X134049250Y-92535750D01*
%TO.N,PWM1*%
X131664250Y-107430750D02*
X131664250Y-83257350D01*
%TO.N,FM3*%
X134049250Y-92535750D02*
X134049250Y-116448250D01*
%TO.N,PWM1*%
X131664250Y-83257350D02*
X134082850Y-80838750D01*
X134082850Y-80838750D02*
X134082850Y-78270750D01*
%TO.N,FM4*%
X173187250Y-97785750D02*
X174105050Y-98703550D01*
%TO.N,Y1*%
X144269250Y-114130750D02*
X144269250Y-117470750D01*
%TO.N,FM2*%
X136673750Y-92620250D02*
X136673750Y-123774050D01*
%TO.N,Y2*%
X148769250Y-114130750D02*
X148769250Y-117470750D01*
%TO.N,FM4*%
X174105050Y-98703550D02*
X174105050Y-110134950D01*
%TO.N,FM2*%
X135319250Y-91265750D02*
X136673750Y-92620250D01*
%TO.N,FM1*%
X163786550Y-118088050D02*
X163786550Y-91040550D01*
%TO.N,IN1_N*%
X131664250Y-122670750D02*
X129061250Y-120067750D01*
%TO.N,IN2*%
X172469250Y-105020750D02*
X168382250Y-109107750D01*
%TO.N,IN1*%
X164613550Y-96126450D02*
X164613550Y-111084650D01*
%TO.N,IN2*%
X168382250Y-109107750D02*
X168382250Y-121817750D01*
D22*
%TO.N,+12V*%
X131664250Y-125210750D02*
X127369250Y-120915750D01*
X124569250Y-105392450D02*
X124569250Y-103990750D01*
X127369250Y-120915750D02*
X127369250Y-108192450D01*
D23*
%TO.N,PWM2*%
X172469250Y-95020750D02*
X174506750Y-97058250D01*
X174506750Y-97058250D02*
X174506750Y-124471450D01*
%TO.N,IN1*%
X172469250Y-88270750D02*
X164613550Y-96126450D01*
D22*
%TO.N,+12V*%
X127369250Y-108192450D02*
X124569250Y-105392450D01*
X155569250Y-82170750D02*
X154469250Y-81070750D01*
%TO.N,COM*%
X116669250Y-79970750D02*
X116669250Y-96670750D01*
X130969250Y-78170750D02*
X130169250Y-77370750D01*
X130969250Y-81070750D02*
X130969250Y-78170750D01*
%TO.N,+12V*%
X154469250Y-102569050D02*
X155569250Y-101469050D01*
X155569250Y-101469050D02*
X155569250Y-82170750D01*
%TO.N,COM*%
X116669250Y-96670750D02*
X118884250Y-98885750D01*
X119269250Y-77370750D02*
X116669250Y-79970750D01*
X118884250Y-98885750D02*
X120079250Y-98885750D01*
X130169250Y-77370750D02*
X119269250Y-77370750D01*
%TD*%
%TA.AperFunction,Conductor*%
%TO.N,GND*%
G36*
X131016864Y-100030475D02*
G01*
X131057122Y-100087581D01*
X131063750Y-100127580D01*
X131063750Y-106018587D01*
X131044065Y-106085626D01*
X130991261Y-106131381D01*
X130965709Y-106139839D01*
X130961457Y-106140749D01*
X130794918Y-106195935D01*
X130794913Y-106195937D01*
X130645592Y-106288039D01*
X130521539Y-106412092D01*
X130429437Y-106561413D01*
X130429436Y-106561416D01*
X130374251Y-106727953D01*
X130374251Y-106727954D01*
X130374250Y-106727954D01*
X130363750Y-106830733D01*
X130363750Y-108030751D01*
X130363751Y-108030768D01*
X130374250Y-108133546D01*
X130374251Y-108133549D01*
X130392444Y-108188450D01*
X130429436Y-108300084D01*
X130521538Y-108449406D01*
X130645594Y-108573462D01*
X130794916Y-108665564D01*
X130876820Y-108692704D01*
X130934265Y-108732477D01*
X130961088Y-108796993D01*
X130948773Y-108865768D01*
X130910701Y-108910728D01*
X130817037Y-108978778D01*
X130817032Y-108978782D01*
X130672278Y-109123536D01*
X130551965Y-109289136D01*
X130459031Y-109471526D01*
X130395772Y-109666215D01*
X130369063Y-109834851D01*
X130363750Y-109868398D01*
X130363750Y-110073102D01*
X130368128Y-110100745D01*
X130395772Y-110275284D01*
X130459031Y-110469973D01*
X130551965Y-110652363D01*
X130672278Y-110817963D01*
X130817036Y-110962721D01*
X130965357Y-111070480D01*
X130982640Y-111083037D01*
X131074090Y-111129633D01*
X131075330Y-111130265D01*
X131126126Y-111178240D01*
X131142921Y-111246061D01*
X131120384Y-111312196D01*
X131075330Y-111351235D01*
X130982636Y-111398465D01*
X130817036Y-111518778D01*
X130672278Y-111663536D01*
X130551965Y-111829136D01*
X130459031Y-112011526D01*
X130395772Y-112206215D01*
X130363750Y-112408398D01*
X130363750Y-112613101D01*
X130395772Y-112815284D01*
X130459031Y-113009973D01*
X130509027Y-113108094D01*
X130540854Y-113170558D01*
X130551965Y-113192363D01*
X130672278Y-113357963D01*
X130817036Y-113502721D01*
X130982635Y-113623034D01*
X130982637Y-113623035D01*
X130982640Y-113623037D01*
X131075880Y-113670545D01*
X131126676Y-113718520D01*
X131143471Y-113786341D01*
X131120934Y-113852475D01*
X131075880Y-113891515D01*
X130982894Y-113938893D01*
X130938327Y-113971273D01*
X130938327Y-113971274D01*
X131617804Y-114650750D01*
X131611589Y-114650750D01*
X131509856Y-114678009D01*
X131418644Y-114730670D01*
X131344170Y-114805144D01*
X131291509Y-114896356D01*
X131264250Y-114998089D01*
X131264250Y-115004303D01*
X130584774Y-114324827D01*
X130584773Y-114324827D01*
X130552393Y-114369394D01*
X130459494Y-114551718D01*
X130396259Y-114746332D01*
X130364250Y-114948432D01*
X130364250Y-115153067D01*
X130396259Y-115355167D01*
X130459494Y-115549781D01*
X130552391Y-115732100D01*
X130552397Y-115732109D01*
X130584773Y-115776671D01*
X130584774Y-115776672D01*
X131264250Y-115097196D01*
X131264250Y-115103411D01*
X131291509Y-115205144D01*
X131344170Y-115296356D01*
X131418644Y-115370830D01*
X131509856Y-115423491D01*
X131611589Y-115450750D01*
X131617803Y-115450750D01*
X130938326Y-116130224D01*
X130982900Y-116162609D01*
X131076430Y-116210265D01*
X131127226Y-116258239D01*
X131144021Y-116326060D01*
X131121484Y-116392195D01*
X131076430Y-116431235D01*
X130982894Y-116478893D01*
X130938327Y-116511273D01*
X130938327Y-116511274D01*
X131617804Y-117190750D01*
X131611589Y-117190750D01*
X131509856Y-117218009D01*
X131418644Y-117270670D01*
X131344170Y-117345144D01*
X131291509Y-117436356D01*
X131264250Y-117538089D01*
X131264250Y-117544303D01*
X130584774Y-116864827D01*
X130584773Y-116864827D01*
X130552393Y-116909394D01*
X130459494Y-117091718D01*
X130396259Y-117286332D01*
X130364250Y-117488432D01*
X130364250Y-117693067D01*
X130396259Y-117895167D01*
X130459494Y-118089781D01*
X130552391Y-118272100D01*
X130552397Y-118272109D01*
X130584773Y-118316671D01*
X130584774Y-118316672D01*
X131264250Y-117637196D01*
X131264250Y-117643411D01*
X131291509Y-117745144D01*
X131344170Y-117836356D01*
X131418644Y-117910830D01*
X131509856Y-117963491D01*
X131611589Y-117990750D01*
X131617803Y-117990750D01*
X130938326Y-118670224D01*
X130982902Y-118702611D01*
X131075878Y-118749984D01*
X131126675Y-118797958D01*
X131143470Y-118865779D01*
X131120933Y-118931914D01*
X131075880Y-118970953D01*
X130982638Y-119018463D01*
X130817036Y-119138778D01*
X130672278Y-119283536D01*
X130551965Y-119449136D01*
X130459031Y-119631526D01*
X130395772Y-119826215D01*
X130363750Y-120028398D01*
X130363750Y-120221653D01*
X130344065Y-120288692D01*
X130291261Y-120334447D01*
X130222103Y-120344391D01*
X130158547Y-120315366D01*
X130152069Y-120309334D01*
X129698069Y-119855334D01*
X129664584Y-119794011D01*
X129661750Y-119767653D01*
X129661750Y-100236206D01*
X129681435Y-100169167D01*
X129734239Y-100123412D01*
X129803397Y-100113468D01*
X129824062Y-100118273D01*
X129896066Y-100141669D01*
X129934715Y-100154227D01*
X130029042Y-100169167D01*
X130136898Y-100186250D01*
X130136899Y-100186250D01*
X130341601Y-100186250D01*
X130341602Y-100186250D01*
X130543784Y-100154227D01*
X130738469Y-100090970D01*
X130738474Y-100090967D01*
X130738478Y-100090966D01*
X130883455Y-100017096D01*
X130952124Y-100004199D01*
X131016864Y-100030475D01*
G37*
%TD.AperFunction*%
%TA.AperFunction,Conductor*%
G36*
X129732908Y-78379894D02*
G01*
X129762895Y-78386418D01*
X129767910Y-78390172D01*
X129770507Y-78390935D01*
X129791149Y-78407569D01*
X129932431Y-78548851D01*
X129965916Y-78610174D01*
X129968750Y-78636532D01*
X129968750Y-79148107D01*
X129949065Y-79215146D01*
X129896261Y-79260901D01*
X129857352Y-79271465D01*
X129766452Y-79280751D01*
X129766450Y-79280751D01*
X129599918Y-79335935D01*
X129599913Y-79335937D01*
X129450592Y-79428039D01*
X129326539Y-79552092D01*
X129234437Y-79701413D01*
X129234436Y-79701416D01*
X129179251Y-79867953D01*
X129179251Y-79867954D01*
X129179250Y-79867954D01*
X129168750Y-79970733D01*
X129168750Y-82170751D01*
X129168751Y-82170768D01*
X129179250Y-82273546D01*
X129179251Y-82273549D01*
X129234435Y-82440081D01*
X129234436Y-82440084D01*
X129326538Y-82589406D01*
X129450594Y-82713462D01*
X129599916Y-82805564D01*
X129766453Y-82860749D01*
X129869241Y-82871250D01*
X130984422Y-82871249D01*
X131051461Y-82890934D01*
X131097216Y-82943737D01*
X131107160Y-83012896D01*
X131104198Y-83027336D01*
X131063749Y-83178293D01*
X131063749Y-83178295D01*
X131063749Y-83346396D01*
X131063750Y-83346409D01*
X131063750Y-90023919D01*
X131044065Y-90090958D01*
X130991261Y-90136713D01*
X130922103Y-90146657D01*
X130883455Y-90134404D01*
X130738473Y-90060531D01*
X130543784Y-89997272D01*
X130369245Y-89969628D01*
X130341602Y-89965250D01*
X130136898Y-89965250D01*
X130070605Y-89975750D01*
X129934714Y-89997273D01*
X129934711Y-89997273D01*
X129824068Y-90033224D01*
X129754227Y-90035219D01*
X129694394Y-89999139D01*
X129663566Y-89936438D01*
X129661750Y-89915293D01*
X129661750Y-86983015D01*
X129681435Y-86915976D01*
X129682648Y-86914124D01*
X129770640Y-86782435D01*
X129770640Y-86782434D01*
X129770644Y-86782429D01*
X129830987Y-86636747D01*
X129861750Y-86482092D01*
X129861750Y-86324408D01*
X129861750Y-86324405D01*
X129861749Y-86324403D01*
X129830988Y-86169760D01*
X129830987Y-86169753D01*
X129788962Y-86068295D01*
X129770647Y-86024077D01*
X129770640Y-86024064D01*
X129683039Y-85892961D01*
X129683036Y-85892957D01*
X129571542Y-85781463D01*
X129571538Y-85781460D01*
X129440435Y-85693859D01*
X129440422Y-85693852D01*
X129294751Y-85633514D01*
X129294739Y-85633511D01*
X129140095Y-85602750D01*
X129140092Y-85602750D01*
X128982408Y-85602750D01*
X128982405Y-85602750D01*
X128827760Y-85633511D01*
X128827748Y-85633514D01*
X128682077Y-85693852D01*
X128682064Y-85693859D01*
X128550961Y-85781460D01*
X128550957Y-85781463D01*
X128439463Y-85892957D01*
X128439460Y-85892961D01*
X128351859Y-86024064D01*
X128351852Y-86024077D01*
X128291514Y-86169748D01*
X128291511Y-86169760D01*
X128260750Y-86324403D01*
X128260750Y-86482096D01*
X128291511Y-86636739D01*
X128291514Y-86636751D01*
X128351852Y-86782422D01*
X128351859Y-86782435D01*
X128439852Y-86914124D01*
X128460730Y-86980801D01*
X128460750Y-86983015D01*
X128460750Y-89991819D01*
X128441065Y-90058858D01*
X128388261Y-90104613D01*
X128319103Y-90114557D01*
X128280455Y-90102304D01*
X128198473Y-90060531D01*
X128003784Y-89997272D01*
X127829245Y-89969628D01*
X127801602Y-89965250D01*
X127596898Y-89965250D01*
X127572579Y-89969101D01*
X127394715Y-89997272D01*
X127200026Y-90060531D01*
X127017636Y-90153465D01*
X126852036Y-90273778D01*
X126707278Y-90418536D01*
X126586965Y-90584136D01*
X126539735Y-90676830D01*
X126491760Y-90727626D01*
X126423939Y-90744421D01*
X126357804Y-90721884D01*
X126318765Y-90676830D01*
X126271670Y-90584402D01*
X126271537Y-90584140D01*
X126239342Y-90539827D01*
X126151221Y-90418536D01*
X126006463Y-90273778D01*
X125840863Y-90153465D01*
X125840862Y-90153464D01*
X125840860Y-90153463D01*
X125764503Y-90114557D01*
X125658473Y-90060531D01*
X125463784Y-89997272D01*
X125289245Y-89969628D01*
X125261602Y-89965250D01*
X125056898Y-89965250D01*
X125032579Y-89969101D01*
X124854715Y-89997272D01*
X124660026Y-90060531D01*
X124477636Y-90153465D01*
X124312036Y-90273778D01*
X124167278Y-90418536D01*
X124046965Y-90584136D01*
X123999735Y-90676830D01*
X123951760Y-90727626D01*
X123883939Y-90744421D01*
X123817804Y-90721884D01*
X123778765Y-90676830D01*
X123731670Y-90584402D01*
X123731537Y-90584140D01*
X123699342Y-90539827D01*
X123611221Y-90418536D01*
X123466463Y-90273778D01*
X123300863Y-90153465D01*
X123300862Y-90153464D01*
X123300860Y-90153463D01*
X123224503Y-90114557D01*
X123118473Y-90060531D01*
X122923784Y-89997272D01*
X122749245Y-89969628D01*
X122721602Y-89965250D01*
X122516898Y-89965250D01*
X122492579Y-89969101D01*
X122314715Y-89997272D01*
X122120026Y-90060531D01*
X121937636Y-90153465D01*
X121772036Y-90273778D01*
X121627278Y-90418536D01*
X121506963Y-90584138D01*
X121459453Y-90677380D01*
X121411478Y-90728176D01*
X121343657Y-90744970D01*
X121277522Y-90722432D01*
X121238484Y-90677378D01*
X121191111Y-90584402D01*
X121158724Y-90539827D01*
X121158724Y-90539826D01*
X120479250Y-91219301D01*
X120479250Y-91213089D01*
X120451991Y-91111356D01*
X120399330Y-91020144D01*
X120324856Y-90945670D01*
X120233644Y-90893009D01*
X120131911Y-90865750D01*
X120125696Y-90865750D01*
X120805172Y-90186274D01*
X120805171Y-90186273D01*
X120760609Y-90153897D01*
X120760600Y-90153891D01*
X120578281Y-90060994D01*
X120383667Y-89997759D01*
X120181567Y-89965750D01*
X119976933Y-89965750D01*
X119774832Y-89997759D01*
X119580218Y-90060994D01*
X119397894Y-90153893D01*
X119353327Y-90186273D01*
X119353327Y-90186274D01*
X120032804Y-90865750D01*
X120026589Y-90865750D01*
X119924856Y-90893009D01*
X119833644Y-90945670D01*
X119759170Y-91020144D01*
X119706509Y-91111356D01*
X119679250Y-91213089D01*
X119679250Y-91219303D01*
X118999774Y-90539827D01*
X118999773Y-90539827D01*
X118967393Y-90584394D01*
X118874494Y-90766718D01*
X118811259Y-90961332D01*
X118779250Y-91163432D01*
X118779250Y-91368067D01*
X118811259Y-91570167D01*
X118874494Y-91764781D01*
X118967391Y-91947100D01*
X118967397Y-91947109D01*
X118999773Y-91991671D01*
X118999774Y-91991672D01*
X119679250Y-91312196D01*
X119679250Y-91318411D01*
X119706509Y-91420144D01*
X119759170Y-91511356D01*
X119833644Y-91585830D01*
X119924856Y-91638491D01*
X120026589Y-91665750D01*
X120032803Y-91665750D01*
X119353326Y-92345224D01*
X119397900Y-92377609D01*
X119580218Y-92470505D01*
X119774832Y-92533740D01*
X119976933Y-92565750D01*
X120181567Y-92565750D01*
X120383667Y-92533740D01*
X120578281Y-92470505D01*
X120760599Y-92377609D01*
X120805171Y-92345224D01*
X120125697Y-91665750D01*
X120131911Y-91665750D01*
X120233644Y-91638491D01*
X120324856Y-91585830D01*
X120399330Y-91511356D01*
X120451991Y-91420144D01*
X120479250Y-91318411D01*
X120479250Y-91312197D01*
X121158724Y-91991671D01*
X121191111Y-91947097D01*
X121191111Y-91947096D01*
X121238484Y-91854121D01*
X121286458Y-91803325D01*
X121354278Y-91786529D01*
X121420414Y-91809066D01*
X121459453Y-91854119D01*
X121506963Y-91947361D01*
X121627278Y-92112963D01*
X121772036Y-92257721D01*
X121864838Y-92325144D01*
X121937640Y-92378037D01*
X122053857Y-92437253D01*
X122120026Y-92470968D01*
X122120028Y-92470968D01*
X122120031Y-92470970D01*
X122211106Y-92500562D01*
X122314715Y-92534227D01*
X122349144Y-92539680D01*
X122516898Y-92566250D01*
X122516899Y-92566250D01*
X122721601Y-92566250D01*
X122721602Y-92566250D01*
X122923784Y-92534227D01*
X123118469Y-92470970D01*
X123300860Y-92378037D01*
X123429732Y-92284407D01*
X123466463Y-92257721D01*
X123466465Y-92257718D01*
X123466469Y-92257716D01*
X123611216Y-92112969D01*
X123611218Y-92112965D01*
X123611221Y-92112963D01*
X123731534Y-91947364D01*
X123731536Y-91947361D01*
X123731537Y-91947360D01*
X123778766Y-91854667D01*
X123826739Y-91803873D01*
X123894560Y-91787078D01*
X123960695Y-91809615D01*
X123999733Y-91854667D01*
X124005389Y-91865766D01*
X124046965Y-91947364D01*
X124167278Y-92112963D01*
X124312036Y-92257721D01*
X124404838Y-92325144D01*
X124477640Y-92378037D01*
X124593857Y-92437253D01*
X124660026Y-92470968D01*
X124660028Y-92470968D01*
X124660031Y-92470970D01*
X124751106Y-92500562D01*
X124854715Y-92534227D01*
X124889144Y-92539680D01*
X125056898Y-92566250D01*
X125056899Y-92566250D01*
X125261601Y-92566250D01*
X125261602Y-92566250D01*
X125463784Y-92534227D01*
X125658469Y-92470970D01*
X125840860Y-92378037D01*
X125969732Y-92284407D01*
X126006463Y-92257721D01*
X126006465Y-92257718D01*
X126006469Y-92257716D01*
X126151216Y-92112969D01*
X126151218Y-92112965D01*
X126151221Y-92112963D01*
X126271534Y-91947364D01*
X126271536Y-91947361D01*
X126271537Y-91947360D01*
X126318766Y-91854667D01*
X126366739Y-91803873D01*
X126434560Y-91787078D01*
X126500695Y-91809615D01*
X126539733Y-91854667D01*
X126545389Y-91865766D01*
X126586965Y-91947364D01*
X126707278Y-92112963D01*
X126852036Y-92257721D01*
X126944838Y-92325144D01*
X127017640Y-92378037D01*
X127133857Y-92437253D01*
X127200026Y-92470968D01*
X127200028Y-92470968D01*
X127200031Y-92470970D01*
X127291106Y-92500562D01*
X127394715Y-92534227D01*
X127429144Y-92539680D01*
X127596898Y-92566250D01*
X127596899Y-92566250D01*
X127801601Y-92566250D01*
X127801602Y-92566250D01*
X128003784Y-92534227D01*
X128198469Y-92470970D01*
X128280455Y-92429195D01*
X128349123Y-92416299D01*
X128413864Y-92442575D01*
X128454121Y-92499681D01*
X128460750Y-92539680D01*
X128460750Y-97611819D01*
X128441065Y-97678858D01*
X128388261Y-97724613D01*
X128319103Y-97734557D01*
X128280455Y-97722304D01*
X128198473Y-97680531D01*
X128003784Y-97617272D01*
X127829245Y-97589628D01*
X127801602Y-97585250D01*
X127596898Y-97585250D01*
X127572579Y-97589101D01*
X127394715Y-97617272D01*
X127200026Y-97680531D01*
X127017636Y-97773465D01*
X126852036Y-97893778D01*
X126707278Y-98038536D01*
X126586965Y-98204136D01*
X126539735Y-98296830D01*
X126491760Y-98347626D01*
X126423939Y-98364421D01*
X126357804Y-98341884D01*
X126318765Y-98296830D01*
X126300227Y-98260447D01*
X126271537Y-98204140D01*
X126211681Y-98121754D01*
X126151221Y-98038536D01*
X126006463Y-97893778D01*
X125840863Y-97773465D01*
X125840862Y-97773464D01*
X125840860Y-97773463D01*
X125744249Y-97724237D01*
X125658473Y-97680531D01*
X125463784Y-97617272D01*
X125289245Y-97589628D01*
X125261602Y-97585250D01*
X125056898Y-97585250D01*
X125032579Y-97589101D01*
X124854715Y-97617272D01*
X124660026Y-97680531D01*
X124477636Y-97773465D01*
X124312036Y-97893778D01*
X124167278Y-98038536D01*
X124046965Y-98204136D01*
X123999735Y-98296830D01*
X123951760Y-98347626D01*
X123883939Y-98364421D01*
X123817804Y-98341884D01*
X123778765Y-98296830D01*
X123760227Y-98260447D01*
X123731537Y-98204140D01*
X123671681Y-98121754D01*
X123611221Y-98038536D01*
X123466463Y-97893778D01*
X123300863Y-97773465D01*
X123300862Y-97773464D01*
X123300860Y-97773463D01*
X123204249Y-97724237D01*
X123118473Y-97680531D01*
X122923784Y-97617272D01*
X122749245Y-97589628D01*
X122721602Y-97585250D01*
X122516898Y-97585250D01*
X122492579Y-97589101D01*
X122314715Y-97617272D01*
X122120026Y-97680531D01*
X121937636Y-97773465D01*
X121772036Y-97893778D01*
X121627278Y-98038536D01*
X121506965Y-98204136D01*
X121459735Y-98296830D01*
X121411760Y-98347626D01*
X121343939Y-98364421D01*
X121277804Y-98341884D01*
X121238765Y-98296830D01*
X121220227Y-98260447D01*
X121191537Y-98204140D01*
X121131681Y-98121754D01*
X121071221Y-98038536D01*
X120926463Y-97893778D01*
X120760863Y-97773465D01*
X120760862Y-97773464D01*
X120760860Y-97773463D01*
X120664249Y-97724237D01*
X120578473Y-97680531D01*
X120383784Y-97617272D01*
X120209245Y-97589628D01*
X120181602Y-97585250D01*
X119976898Y-97585250D01*
X119952579Y-97589101D01*
X119774715Y-97617272D01*
X119580026Y-97680531D01*
X119397641Y-97773462D01*
X119397639Y-97773463D01*
X119361249Y-97799902D01*
X119295442Y-97823381D01*
X119227389Y-97807555D01*
X119200684Y-97787264D01*
X117706069Y-96292649D01*
X117672584Y-96231326D01*
X117669750Y-96204968D01*
X117669750Y-80952764D01*
X124169250Y-80952764D01*
X124169250Y-81188735D01*
X124200049Y-81422664D01*
X124261120Y-81650587D01*
X124351410Y-81868569D01*
X124351415Y-81868578D01*
X124469394Y-82072921D01*
X124469395Y-82072922D01*
X124531971Y-82154473D01*
X125368208Y-81318237D01*
X125393228Y-81378640D01*
X125464362Y-81485101D01*
X125554899Y-81575638D01*
X125661360Y-81646772D01*
X125721761Y-81671791D01*
X124885525Y-82508027D01*
X124967077Y-82570604D01*
X124967078Y-82570605D01*
X125171421Y-82688584D01*
X125171430Y-82688589D01*
X125389413Y-82778879D01*
X125389411Y-82778879D01*
X125617335Y-82839950D01*
X125851264Y-82870749D01*
X125851279Y-82870750D01*
X126087221Y-82870750D01*
X126087235Y-82870749D01*
X126321164Y-82839950D01*
X126549087Y-82778879D01*
X126767069Y-82688589D01*
X126767078Y-82688584D01*
X126971431Y-82570600D01*
X127052973Y-82508029D01*
X127052973Y-82508026D01*
X126216737Y-81671791D01*
X126277140Y-81646772D01*
X126383601Y-81575638D01*
X126474138Y-81485101D01*
X126545272Y-81378640D01*
X126570291Y-81318238D01*
X127406526Y-82154473D01*
X127406529Y-82154473D01*
X127469100Y-82072931D01*
X127587084Y-81868578D01*
X127587089Y-81868569D01*
X127677379Y-81650587D01*
X127738450Y-81422664D01*
X127769249Y-81188735D01*
X127769250Y-81188721D01*
X127769250Y-80952778D01*
X127769249Y-80952764D01*
X127738450Y-80718835D01*
X127677379Y-80490912D01*
X127587089Y-80272930D01*
X127587084Y-80272921D01*
X127469105Y-80068578D01*
X127469104Y-80068577D01*
X127406527Y-79987025D01*
X126570291Y-80823261D01*
X126545272Y-80762860D01*
X126474138Y-80656399D01*
X126383601Y-80565862D01*
X126277140Y-80494728D01*
X126216738Y-80469708D01*
X127052973Y-79633471D01*
X126971422Y-79570895D01*
X126971421Y-79570894D01*
X126767078Y-79452915D01*
X126767069Y-79452910D01*
X126549086Y-79362620D01*
X126549088Y-79362620D01*
X126321164Y-79301549D01*
X126087235Y-79270750D01*
X125851264Y-79270750D01*
X125617335Y-79301549D01*
X125389412Y-79362620D01*
X125171430Y-79452910D01*
X125171421Y-79452915D01*
X124967078Y-79570894D01*
X124967068Y-79570900D01*
X124885525Y-79633470D01*
X124885525Y-79633471D01*
X125721762Y-80469708D01*
X125661360Y-80494728D01*
X125554899Y-80565862D01*
X125464362Y-80656399D01*
X125393228Y-80762860D01*
X125368208Y-80823261D01*
X124531971Y-79987025D01*
X124531970Y-79987025D01*
X124469400Y-80068568D01*
X124469394Y-80068578D01*
X124351415Y-80272921D01*
X124351410Y-80272930D01*
X124261120Y-80490912D01*
X124200049Y-80718835D01*
X124169250Y-80952764D01*
X117669750Y-80952764D01*
X117669750Y-80436532D01*
X117689435Y-80369493D01*
X117706069Y-80348851D01*
X118461177Y-79593743D01*
X118692301Y-79362620D01*
X119647352Y-78407569D01*
X119708675Y-78374084D01*
X119735033Y-78371250D01*
X129703468Y-78371250D01*
X129732908Y-78379894D01*
G37*
%TD.AperFunction*%
%TA.AperFunction,Conductor*%
G36*
X178394744Y-73571251D02*
G01*
X178403364Y-73571250D01*
X178403368Y-73571252D01*
X178465196Y-73571250D01*
X178473304Y-73571515D01*
X178722143Y-73587819D01*
X178738214Y-73589935D01*
X178978807Y-73637789D01*
X178994457Y-73641982D01*
X179226740Y-73720828D01*
X179241726Y-73727035D01*
X179461730Y-73835527D01*
X179475765Y-73843630D01*
X179679726Y-73979911D01*
X179692595Y-73989786D01*
X179877014Y-74151516D01*
X179888483Y-74162985D01*
X180050213Y-74347404D01*
X180060088Y-74360273D01*
X180196365Y-74564228D01*
X180204475Y-74578275D01*
X180312964Y-74798273D01*
X180319171Y-74813259D01*
X180398014Y-75045532D01*
X180402212Y-75061200D01*
X180450063Y-75301781D01*
X180452180Y-75317863D01*
X180468484Y-75566695D01*
X180468749Y-75574804D01*
X180468748Y-75645255D01*
X180468750Y-75645284D01*
X180468750Y-130004860D01*
X180468748Y-130004868D01*
X180468749Y-130047106D01*
X180468749Y-130066694D01*
X180468749Y-130066696D01*
X180468484Y-130074805D01*
X180452180Y-130323636D01*
X180450063Y-130339718D01*
X180402212Y-130580299D01*
X180398014Y-130595967D01*
X180319171Y-130828240D01*
X180312964Y-130843226D01*
X180204475Y-131063224D01*
X180196365Y-131077271D01*
X180060088Y-131281226D01*
X180050213Y-131294095D01*
X179888483Y-131478514D01*
X179877014Y-131489983D01*
X179692595Y-131651713D01*
X179679726Y-131661588D01*
X179475771Y-131797865D01*
X179461724Y-131805975D01*
X179241726Y-131914464D01*
X179226740Y-131920671D01*
X178994467Y-131999514D01*
X178978799Y-132003712D01*
X178738218Y-132051563D01*
X178722136Y-132053680D01*
X178473304Y-132069984D01*
X178465195Y-132070249D01*
X178410943Y-132070248D01*
X178403368Y-132070248D01*
X178403367Y-132070248D01*
X178394744Y-132070248D01*
X178394716Y-132070250D01*
X102543782Y-132070250D01*
X102535138Y-132070249D01*
X102535132Y-132070248D01*
X102492984Y-132070249D01*
X102473300Y-132070249D01*
X102473299Y-132070248D01*
X102465195Y-132069984D01*
X102216363Y-132053680D01*
X102200281Y-132051563D01*
X101959700Y-132003712D01*
X101944032Y-131999514D01*
X101711759Y-131920671D01*
X101696773Y-131914464D01*
X101476775Y-131805975D01*
X101462728Y-131797865D01*
X101258773Y-131661588D01*
X101245904Y-131651713D01*
X101061485Y-131489983D01*
X101050016Y-131478514D01*
X100888286Y-131294095D01*
X100878411Y-131281226D01*
X100742130Y-131077265D01*
X100734027Y-131063230D01*
X100625535Y-130843226D01*
X100619328Y-130828240D01*
X100540482Y-130595957D01*
X100536289Y-130580307D01*
X100488435Y-130339714D01*
X100486319Y-130323636D01*
X100470015Y-130074805D01*
X100469750Y-130066694D01*
X100469752Y-130004868D01*
X100469750Y-130004863D01*
X100469751Y-129997284D01*
X100469750Y-129997250D01*
X100469750Y-127952745D01*
X106668750Y-127952745D01*
X106668750Y-128188754D01*
X106668751Y-128188770D01*
X106699556Y-128422760D01*
X106760644Y-128650743D01*
X106850964Y-128868795D01*
X106850969Y-128868806D01*
X106921927Y-128991707D01*
X106968977Y-129073200D01*
X106968979Y-129073203D01*
X106968980Y-129073204D01*
X107112656Y-129260447D01*
X107112662Y-129260454D01*
X107279545Y-129427337D01*
X107279551Y-129427342D01*
X107466800Y-129571023D01*
X107598168Y-129646868D01*
X107671193Y-129689030D01*
X107671198Y-129689032D01*
X107671201Y-129689034D01*
X107889257Y-129779356D01*
X108117236Y-129840443D01*
X108351239Y-129871250D01*
X108351246Y-129871250D01*
X108587254Y-129871250D01*
X108587261Y-129871250D01*
X108821264Y-129840443D01*
X109049243Y-129779356D01*
X109267299Y-129689034D01*
X109471700Y-129571023D01*
X109658949Y-129427342D01*
X109825842Y-129260449D01*
X109969523Y-129073200D01*
X110087534Y-128868799D01*
X110177856Y-128650743D01*
X110238943Y-128422764D01*
X110269750Y-128188761D01*
X110269750Y-127952739D01*
X110261357Y-127888993D01*
X110260157Y-127879872D01*
X110238943Y-127718739D01*
X110238943Y-127718736D01*
X110177856Y-127490757D01*
X110140574Y-127400750D01*
X118322202Y-127400750D01*
X119411802Y-127400750D01*
X119390032Y-127438458D01*
X119352550Y-127578341D01*
X119352550Y-127723159D01*
X119390032Y-127863042D01*
X119411802Y-127900750D01*
X118322202Y-127900750D01*
X118341947Y-128025418D01*
X118341947Y-128025421D01*
X118419769Y-128264934D01*
X118534107Y-128489333D01*
X118682140Y-128693081D01*
X118682140Y-128693082D01*
X118860217Y-128871159D01*
X119063966Y-129019192D01*
X119288365Y-129133530D01*
X119527879Y-129211352D01*
X119652550Y-129231098D01*
X119652550Y-128141497D01*
X119690258Y-128163268D01*
X119830141Y-128200750D01*
X119974959Y-128200750D01*
X120114842Y-128163268D01*
X120152550Y-128141497D01*
X120152550Y-129231097D01*
X120277218Y-129211352D01*
X120277221Y-129211352D01*
X120516734Y-129133530D01*
X120741133Y-129019192D01*
X120944881Y-128871159D01*
X120944882Y-128871159D01*
X121122959Y-128693082D01*
X121122959Y-128693081D01*
X121270992Y-128489333D01*
X121385330Y-128264934D01*
X121463152Y-128025421D01*
X121463152Y-128025418D01*
X121482898Y-127900750D01*
X120393298Y-127900750D01*
X120415068Y-127863042D01*
X120452550Y-127723159D01*
X120452550Y-127578341D01*
X120415068Y-127438458D01*
X120393298Y-127400750D01*
X121482898Y-127400750D01*
X122988902Y-127400750D01*
X124078502Y-127400750D01*
X124056732Y-127438458D01*
X124019250Y-127578341D01*
X124019250Y-127723159D01*
X124056732Y-127863042D01*
X124078502Y-127900750D01*
X122988902Y-127900750D01*
X123008647Y-128025418D01*
X123008647Y-128025421D01*
X123086469Y-128264934D01*
X123200807Y-128489333D01*
X123348840Y-128693081D01*
X123348840Y-128693082D01*
X123526917Y-128871159D01*
X123730666Y-129019192D01*
X123955065Y-129133530D01*
X124194579Y-129211352D01*
X124319250Y-129231098D01*
X124319250Y-128141497D01*
X124356958Y-128163268D01*
X124496841Y-128200750D01*
X124641659Y-128200750D01*
X124781542Y-128163268D01*
X124819250Y-128141497D01*
X124819250Y-129231097D01*
X124943918Y-129211352D01*
X124943921Y-129211352D01*
X125183434Y-129133530D01*
X125407833Y-129019192D01*
X125611581Y-128871159D01*
X125611582Y-128871159D01*
X125789659Y-128693082D01*
X125789659Y-128693081D01*
X125937692Y-128489333D01*
X126052030Y-128264934D01*
X126129852Y-128025421D01*
X126129852Y-128025418D01*
X126149598Y-127900750D01*
X125059998Y-127900750D01*
X125081768Y-127863042D01*
X125119250Y-127723159D01*
X125119250Y-127578341D01*
X125081768Y-127438458D01*
X125059998Y-127400750D01*
X126149598Y-127400750D01*
X126146430Y-127380750D01*
X142688902Y-127380750D01*
X143778502Y-127380750D01*
X143756732Y-127418458D01*
X143719250Y-127558341D01*
X143719250Y-127703159D01*
X143756732Y-127843042D01*
X143778502Y-127880750D01*
X142688902Y-127880750D01*
X142708647Y-128005418D01*
X142708647Y-128005421D01*
X142786469Y-128244934D01*
X142900807Y-128469333D01*
X143048840Y-128673081D01*
X143048840Y-128673082D01*
X143226917Y-128851159D01*
X143430666Y-128999192D01*
X143655065Y-129113530D01*
X143894579Y-129191352D01*
X144019250Y-129211098D01*
X144019250Y-128121497D01*
X144056958Y-128143268D01*
X144196841Y-128180750D01*
X144341659Y-128180750D01*
X144481542Y-128143268D01*
X144519250Y-128121497D01*
X144519250Y-129211097D01*
X144643918Y-129191352D01*
X144643921Y-129191352D01*
X144883434Y-129113530D01*
X145107833Y-128999192D01*
X145311581Y-128851159D01*
X145311582Y-128851159D01*
X145489659Y-128673082D01*
X145489659Y-128673081D01*
X145637692Y-128469333D01*
X145752030Y-128244934D01*
X145829852Y-128005421D01*
X145829852Y-128005418D01*
X145849598Y-127880750D01*
X144759998Y-127880750D01*
X144781768Y-127843042D01*
X144819250Y-127703159D01*
X144819250Y-127558341D01*
X144781768Y-127418458D01*
X144759998Y-127380750D01*
X145849598Y-127380750D01*
X147188902Y-127380750D01*
X148278502Y-127380750D01*
X148256732Y-127418458D01*
X148219250Y-127558341D01*
X148219250Y-127703159D01*
X148256732Y-127843042D01*
X148278502Y-127880750D01*
X147188902Y-127880750D01*
X147208647Y-128005418D01*
X147208647Y-128005421D01*
X147286469Y-128244934D01*
X147400807Y-128469333D01*
X147548840Y-128673081D01*
X147548840Y-128673082D01*
X147726917Y-128851159D01*
X147930666Y-128999192D01*
X148155065Y-129113530D01*
X148394579Y-129191352D01*
X148519250Y-129211098D01*
X148519250Y-128121497D01*
X148556958Y-128143268D01*
X148696841Y-128180750D01*
X148841659Y-128180750D01*
X148981542Y-128143268D01*
X149019250Y-128121497D01*
X149019250Y-129211097D01*
X149143918Y-129191352D01*
X149143921Y-129191352D01*
X149383434Y-129113530D01*
X149607833Y-128999192D01*
X149811581Y-128851159D01*
X149811582Y-128851159D01*
X149989659Y-128673082D01*
X149989659Y-128673081D01*
X150137692Y-128469333D01*
X150252030Y-128244934D01*
X150329852Y-128005421D01*
X150329852Y-128005418D01*
X150349598Y-127880750D01*
X149259998Y-127880750D01*
X149281768Y-127843042D01*
X149319250Y-127703159D01*
X149319250Y-127558341D01*
X149281768Y-127418458D01*
X149259998Y-127380750D01*
X150349598Y-127380750D01*
X150329852Y-127256081D01*
X150329852Y-127256078D01*
X150252030Y-127016565D01*
X150137692Y-126792166D01*
X149989659Y-126588418D01*
X149989659Y-126588417D01*
X149811582Y-126410340D01*
X149607833Y-126262307D01*
X149383434Y-126147969D01*
X149143920Y-126070147D01*
X149019250Y-126050400D01*
X149019250Y-127140002D01*
X148981542Y-127118232D01*
X148841659Y-127080750D01*
X148696841Y-127080750D01*
X148556958Y-127118232D01*
X148519250Y-127140002D01*
X148519250Y-126050400D01*
X148394580Y-126070147D01*
X148394577Y-126070147D01*
X148155065Y-126147969D01*
X147930666Y-126262307D01*
X147726918Y-126410340D01*
X147726917Y-126410340D01*
X147548840Y-126588417D01*
X147548840Y-126588418D01*
X147400807Y-126792166D01*
X147286469Y-127016565D01*
X147208647Y-127256078D01*
X147208647Y-127256081D01*
X147188902Y-127380750D01*
X145849598Y-127380750D01*
X145829852Y-127256081D01*
X145829852Y-127256078D01*
X145752030Y-127016565D01*
X145637692Y-126792166D01*
X145489659Y-126588418D01*
X145489659Y-126588417D01*
X145311582Y-126410340D01*
X145107833Y-126262307D01*
X144883434Y-126147969D01*
X144643920Y-126070147D01*
X144519250Y-126050400D01*
X144519250Y-127140002D01*
X144481542Y-127118232D01*
X144341659Y-127080750D01*
X144196841Y-127080750D01*
X144056958Y-127118232D01*
X144019250Y-127140002D01*
X144019250Y-126050400D01*
X143894580Y-126070147D01*
X143894577Y-126070147D01*
X143655065Y-126147969D01*
X143430666Y-126262307D01*
X143226918Y-126410340D01*
X143226917Y-126410340D01*
X143048840Y-126588417D01*
X143048840Y-126588418D01*
X142900807Y-126792166D01*
X142786469Y-127016565D01*
X142708647Y-127256078D01*
X142708647Y-127256081D01*
X142688902Y-127380750D01*
X126146430Y-127380750D01*
X126129852Y-127276081D01*
X126129852Y-127276078D01*
X126052030Y-127036565D01*
X125937692Y-126812166D01*
X125789659Y-126608418D01*
X125789659Y-126608417D01*
X125611582Y-126430340D01*
X125407833Y-126282307D01*
X125183434Y-126167969D01*
X124943920Y-126090147D01*
X124819250Y-126070400D01*
X124819250Y-127160002D01*
X124781542Y-127138232D01*
X124641659Y-127100750D01*
X124496841Y-127100750D01*
X124356958Y-127138232D01*
X124319250Y-127160002D01*
X124319250Y-126070400D01*
X124194580Y-126090147D01*
X124194577Y-126090147D01*
X123955065Y-126167969D01*
X123730666Y-126282307D01*
X123526918Y-126430340D01*
X123526917Y-126430340D01*
X123348840Y-126608417D01*
X123348840Y-126608418D01*
X123200807Y-126812166D01*
X123086469Y-127036565D01*
X123008647Y-127276078D01*
X123008647Y-127276081D01*
X122988902Y-127400750D01*
X121482898Y-127400750D01*
X121463152Y-127276081D01*
X121463152Y-127276078D01*
X121385330Y-127036565D01*
X121270992Y-126812166D01*
X121122959Y-126608418D01*
X121122959Y-126608417D01*
X120944882Y-126430340D01*
X120741133Y-126282307D01*
X120516734Y-126167969D01*
X120277220Y-126090147D01*
X120152550Y-126070400D01*
X120152550Y-127160002D01*
X120114842Y-127138232D01*
X119974959Y-127100750D01*
X119830141Y-127100750D01*
X119690258Y-127138232D01*
X119652550Y-127160002D01*
X119652550Y-126070400D01*
X119527880Y-126090147D01*
X119527877Y-126090147D01*
X119288365Y-126167969D01*
X119063966Y-126282307D01*
X118860218Y-126430340D01*
X118860217Y-126430340D01*
X118682140Y-126608417D01*
X118682140Y-126608418D01*
X118534107Y-126812166D01*
X118419769Y-127036565D01*
X118341947Y-127276078D01*
X118341947Y-127276081D01*
X118322202Y-127400750D01*
X110140574Y-127400750D01*
X110087538Y-127272710D01*
X110087530Y-127272693D01*
X109998351Y-127118232D01*
X109969523Y-127068300D01*
X109825842Y-126881051D01*
X109825837Y-126881045D01*
X109658954Y-126714162D01*
X109658947Y-126714156D01*
X109471704Y-126570480D01*
X109471703Y-126570479D01*
X109471700Y-126570477D01*
X109369116Y-126511250D01*
X109267306Y-126452469D01*
X109267295Y-126452464D01*
X109049243Y-126362144D01*
X108821260Y-126301056D01*
X108587270Y-126270251D01*
X108587267Y-126270250D01*
X108587261Y-126270250D01*
X108351239Y-126270250D01*
X108351233Y-126270250D01*
X108351229Y-126270251D01*
X108117239Y-126301056D01*
X107889256Y-126362144D01*
X107671204Y-126452464D01*
X107671193Y-126452469D01*
X107466795Y-126570480D01*
X107279552Y-126714156D01*
X107279545Y-126714162D01*
X107112662Y-126881045D01*
X107112656Y-126881052D01*
X106968980Y-127068295D01*
X106850969Y-127272693D01*
X106850964Y-127272704D01*
X106760644Y-127490756D01*
X106699556Y-127718739D01*
X106668751Y-127952729D01*
X106668750Y-127952745D01*
X100469750Y-127952745D01*
X100469750Y-121970733D01*
X106668750Y-121970733D01*
X106668750Y-124170751D01*
X106668751Y-124170768D01*
X106679250Y-124273546D01*
X106679251Y-124273549D01*
X106734435Y-124440081D01*
X106734437Y-124440086D01*
X106761182Y-124483447D01*
X106826538Y-124589406D01*
X106950594Y-124713462D01*
X107099916Y-124805564D01*
X107266453Y-124860749D01*
X107369241Y-124871250D01*
X109569258Y-124871249D01*
X109672047Y-124860749D01*
X109838584Y-124805564D01*
X109987906Y-124713462D01*
X110111962Y-124589406D01*
X110204064Y-124440084D01*
X110259249Y-124273547D01*
X110269750Y-124170759D01*
X110269749Y-121970742D01*
X110261375Y-121888770D01*
X110259249Y-121867953D01*
X110259248Y-121867950D01*
X110204064Y-121701416D01*
X110111962Y-121552094D01*
X109987906Y-121428038D01*
X109849309Y-121342551D01*
X109838586Y-121335937D01*
X109838581Y-121335935D01*
X109818573Y-121329305D01*
X109672047Y-121280751D01*
X109672045Y-121280750D01*
X109569260Y-121270250D01*
X107369248Y-121270250D01*
X107369231Y-121270251D01*
X107266453Y-121280750D01*
X107266450Y-121280751D01*
X107099918Y-121335935D01*
X107099913Y-121335937D01*
X106950592Y-121428039D01*
X106826539Y-121552092D01*
X106734437Y-121701413D01*
X106734436Y-121701416D01*
X106679251Y-121867953D01*
X106679251Y-121867954D01*
X106679250Y-121867954D01*
X106668750Y-121970733D01*
X100469750Y-121970733D01*
X100469750Y-112452745D01*
X106668750Y-112452745D01*
X106668750Y-112688754D01*
X106668751Y-112688770D01*
X106699556Y-112922760D01*
X106760644Y-113150743D01*
X106850964Y-113368795D01*
X106850969Y-113368806D01*
X106914796Y-113479356D01*
X106968977Y-113573200D01*
X106968979Y-113573203D01*
X106968980Y-113573204D01*
X107112656Y-113760447D01*
X107112662Y-113760454D01*
X107279545Y-113927337D01*
X107279552Y-113927343D01*
X107294610Y-113938897D01*
X107466800Y-114071023D01*
X107598168Y-114146868D01*
X107671193Y-114189030D01*
X107671198Y-114189032D01*
X107671201Y-114189034D01*
X107889257Y-114279356D01*
X108117236Y-114340443D01*
X108351239Y-114371250D01*
X108351246Y-114371250D01*
X108587254Y-114371250D01*
X108587261Y-114371250D01*
X108821264Y-114340443D01*
X109049243Y-114279356D01*
X109267299Y-114189034D01*
X109471700Y-114071023D01*
X109531955Y-114024788D01*
X118302050Y-114024788D01*
X118302050Y-114276712D01*
X118329734Y-114451499D01*
X118341460Y-114525535D01*
X118419310Y-114765133D01*
X118486172Y-114896356D01*
X118523823Y-114970250D01*
X118533682Y-114989598D01*
X118681751Y-115193399D01*
X118681755Y-115193404D01*
X118859895Y-115371544D01*
X118859900Y-115371548D01*
X118967574Y-115449777D01*
X119063705Y-115519620D01*
X119234345Y-115606565D01*
X119245409Y-115617014D01*
X119259253Y-115623337D01*
X119270293Y-115640516D01*
X119285141Y-115654539D01*
X119289382Y-115670220D01*
X119297027Y-115682115D01*
X119302050Y-115717050D01*
X119302050Y-115766250D01*
X119282365Y-115833289D01*
X119229561Y-115879044D01*
X119178050Y-115890250D01*
X118754679Y-115890250D01*
X118754673Y-115890251D01*
X118695066Y-115896658D01*
X118560221Y-115946952D01*
X118560214Y-115946956D01*
X118445005Y-116033202D01*
X118445002Y-116033205D01*
X118358756Y-116148414D01*
X118358752Y-116148421D01*
X118308458Y-116283267D01*
X118304200Y-116322877D01*
X118302051Y-116342873D01*
X118302050Y-116342885D01*
X118302050Y-118638620D01*
X118302051Y-118638626D01*
X118308458Y-118698233D01*
X118358752Y-118833078D01*
X118358756Y-118833085D01*
X118445002Y-118948294D01*
X118445005Y-118948297D01*
X118560214Y-119034543D01*
X118560221Y-119034547D01*
X118695067Y-119084841D01*
X118695066Y-119084841D01*
X118701994Y-119085585D01*
X118754677Y-119091250D01*
X121050422Y-119091249D01*
X121110033Y-119084841D01*
X121244881Y-119034546D01*
X121360096Y-118948296D01*
X121446346Y-118833081D01*
X121496641Y-118698233D01*
X121503050Y-118638623D01*
X121503049Y-116342878D01*
X121496641Y-116283267D01*
X121491483Y-116269439D01*
X121446347Y-116148421D01*
X121446343Y-116148414D01*
X121360097Y-116033205D01*
X121360094Y-116033202D01*
X121244885Y-115946956D01*
X121244878Y-115946952D01*
X121110032Y-115896658D01*
X121110033Y-115896658D01*
X121050433Y-115890251D01*
X121050431Y-115890250D01*
X121050423Y-115890250D01*
X121050415Y-115890250D01*
X120627050Y-115890250D01*
X120618364Y-115887699D01*
X120609403Y-115888988D01*
X120585362Y-115878009D01*
X120560011Y-115870565D01*
X120554083Y-115863724D01*
X120545847Y-115859963D01*
X120531557Y-115837728D01*
X120514256Y-115817761D01*
X120511968Y-115807246D01*
X120508073Y-115801185D01*
X120503050Y-115766250D01*
X120503050Y-115717050D01*
X120522735Y-115650011D01*
X120570754Y-115606565D01*
X120741395Y-115519620D01*
X120945206Y-115371543D01*
X121123343Y-115193406D01*
X121271420Y-114989595D01*
X121385791Y-114765129D01*
X121463640Y-114525535D01*
X121503050Y-114276712D01*
X121503050Y-114024788D01*
X121463640Y-113775965D01*
X121385791Y-113536371D01*
X121385789Y-113536368D01*
X121385789Y-113536366D01*
X121344297Y-113454934D01*
X121271420Y-113311905D01*
X121175153Y-113179404D01*
X121123348Y-113108100D01*
X121123344Y-113108095D01*
X120945204Y-112929955D01*
X120945199Y-112929951D01*
X120741398Y-112781882D01*
X120741397Y-112781881D01*
X120741395Y-112781880D01*
X120660594Y-112740710D01*
X120516933Y-112667510D01*
X120277335Y-112589660D01*
X120028512Y-112550250D01*
X119776588Y-112550250D01*
X119659500Y-112568795D01*
X119527764Y-112589660D01*
X119288166Y-112667510D01*
X119063701Y-112781882D01*
X118859900Y-112929951D01*
X118859895Y-112929955D01*
X118681755Y-113108095D01*
X118681751Y-113108100D01*
X118533682Y-113311901D01*
X118419310Y-113536366D01*
X118341460Y-113775964D01*
X118315654Y-113938897D01*
X118302050Y-114024788D01*
X109531955Y-114024788D01*
X109658949Y-113927342D01*
X109825842Y-113760449D01*
X109969523Y-113573200D01*
X110087534Y-113368799D01*
X110177856Y-113150743D01*
X110238943Y-112922764D01*
X110269750Y-112688761D01*
X110269750Y-112452739D01*
X110238943Y-112218736D01*
X110177856Y-111990757D01*
X110087534Y-111772701D01*
X110087532Y-111772698D01*
X110087530Y-111772693D01*
X110045368Y-111699668D01*
X109969523Y-111568300D01*
X109825842Y-111381051D01*
X109825837Y-111381045D01*
X109658954Y-111214162D01*
X109658947Y-111214156D01*
X109471704Y-111070480D01*
X109471703Y-111070479D01*
X109471700Y-111070477D01*
X109359685Y-111005805D01*
X109267306Y-110952469D01*
X109267295Y-110952464D01*
X109049243Y-110862144D01*
X109008224Y-110851153D01*
X108821264Y-110801057D01*
X108821263Y-110801056D01*
X108821260Y-110801056D01*
X108587270Y-110770251D01*
X108587267Y-110770250D01*
X108587261Y-110770250D01*
X108351239Y-110770250D01*
X108351233Y-110770250D01*
X108351229Y-110770251D01*
X108117239Y-110801056D01*
X107889256Y-110862144D01*
X107671204Y-110952464D01*
X107671193Y-110952469D01*
X107466795Y-111070480D01*
X107279552Y-111214156D01*
X107279545Y-111214162D01*
X107112662Y-111381045D01*
X107112656Y-111381052D01*
X106968980Y-111568295D01*
X106850969Y-111772693D01*
X106850964Y-111772704D01*
X106760644Y-111990756D01*
X106699556Y-112218739D01*
X106668751Y-112452729D01*
X106668750Y-112452745D01*
X100469750Y-112452745D01*
X100469750Y-106470733D01*
X106668750Y-106470733D01*
X106668750Y-108670751D01*
X106668751Y-108670768D01*
X106679250Y-108773546D01*
X106679251Y-108773549D01*
X106734435Y-108940081D01*
X106734437Y-108940086D01*
X106758305Y-108978782D01*
X106826538Y-109089406D01*
X106950594Y-109213462D01*
X107099916Y-109305564D01*
X107266453Y-109360749D01*
X107369241Y-109371250D01*
X109569258Y-109371249D01*
X109672047Y-109360749D01*
X109838584Y-109305564D01*
X109987906Y-109213462D01*
X110111962Y-109089406D01*
X110204064Y-108940084D01*
X110259249Y-108773547D01*
X110269750Y-108670759D01*
X110269749Y-106470742D01*
X110266484Y-106438784D01*
X110259249Y-106367953D01*
X110259248Y-106367950D01*
X110242850Y-106318465D01*
X110204064Y-106201416D01*
X110111962Y-106052094D01*
X109987906Y-105928038D01*
X109838584Y-105835936D01*
X109672047Y-105780751D01*
X109672045Y-105780750D01*
X109569260Y-105770250D01*
X107369248Y-105770250D01*
X107369231Y-105770251D01*
X107266453Y-105780750D01*
X107266450Y-105780751D01*
X107099918Y-105835935D01*
X107099913Y-105835937D01*
X106950592Y-105928039D01*
X106826539Y-106052092D01*
X106734437Y-106201413D01*
X106734436Y-106201416D01*
X106679251Y-106367953D01*
X106679251Y-106367954D01*
X106679250Y-106367954D01*
X106668750Y-106470733D01*
X100469750Y-106470733D01*
X100469750Y-102842885D01*
X118302050Y-102842885D01*
X118302050Y-105138620D01*
X118302051Y-105138626D01*
X118308458Y-105198233D01*
X118358752Y-105333078D01*
X118358756Y-105333085D01*
X118445002Y-105448294D01*
X118445005Y-105448297D01*
X118560214Y-105534543D01*
X118560221Y-105534547D01*
X118695067Y-105584841D01*
X118695066Y-105584841D01*
X118701994Y-105585585D01*
X118754677Y-105591250D01*
X121050422Y-105591249D01*
X121110033Y-105584841D01*
X121244881Y-105534546D01*
X121360096Y-105448296D01*
X121446346Y-105333081D01*
X121496641Y-105198233D01*
X121503050Y-105138623D01*
X121503049Y-102842878D01*
X121496641Y-102783267D01*
X121489181Y-102763267D01*
X121446347Y-102648421D01*
X121446343Y-102648414D01*
X121360097Y-102533205D01*
X121360094Y-102533202D01*
X121244885Y-102446956D01*
X121244878Y-102446952D01*
X121110032Y-102396658D01*
X121110033Y-102396658D01*
X121050433Y-102390251D01*
X121050431Y-102390250D01*
X121050423Y-102390250D01*
X121050414Y-102390250D01*
X118754679Y-102390250D01*
X118754673Y-102390251D01*
X118695066Y-102396658D01*
X118560221Y-102446952D01*
X118560214Y-102446956D01*
X118445005Y-102533202D01*
X118445002Y-102533205D01*
X118358756Y-102648414D01*
X118358752Y-102648421D01*
X118308458Y-102783267D01*
X118304200Y-102822877D01*
X118302051Y-102842873D01*
X118302050Y-102842885D01*
X100469750Y-102842885D01*
X100469750Y-96952740D01*
X106668750Y-96952740D01*
X106668750Y-97188754D01*
X106668751Y-97188770D01*
X106697425Y-97406577D01*
X106699557Y-97422764D01*
X106749190Y-97607997D01*
X106760644Y-97650743D01*
X106850964Y-97868795D01*
X106850969Y-97868806D01*
X106921927Y-97991707D01*
X106968977Y-98073200D01*
X106968979Y-98073203D01*
X106968980Y-98073204D01*
X107112656Y-98260447D01*
X107112662Y-98260454D01*
X107279545Y-98427337D01*
X107279551Y-98427342D01*
X107466800Y-98571023D01*
X107598168Y-98646868D01*
X107671193Y-98689030D01*
X107671198Y-98689032D01*
X107671201Y-98689034D01*
X107889257Y-98779356D01*
X108117236Y-98840443D01*
X108351239Y-98871250D01*
X108351246Y-98871250D01*
X108587254Y-98871250D01*
X108587261Y-98871250D01*
X108821264Y-98840443D01*
X109049243Y-98779356D01*
X109267299Y-98689034D01*
X109471700Y-98571023D01*
X109658949Y-98427342D01*
X109825842Y-98260449D01*
X109969523Y-98073200D01*
X110087534Y-97868799D01*
X110177856Y-97650743D01*
X110238943Y-97422764D01*
X110269750Y-97188761D01*
X110269750Y-96952739D01*
X110245599Y-96769293D01*
X115668749Y-96769293D01*
X115707197Y-96962579D01*
X115707200Y-96962589D01*
X115782614Y-97144657D01*
X115782621Y-97144670D01*
X115892110Y-97308531D01*
X115892113Y-97308535D01*
X116035787Y-97452209D01*
X116035809Y-97452229D01*
X118103985Y-99520405D01*
X118104014Y-99520436D01*
X118246464Y-99662886D01*
X118246468Y-99662889D01*
X118410329Y-99772378D01*
X118410342Y-99772385D01*
X118539083Y-99825711D01*
X118581994Y-99843485D01*
X118592414Y-99847801D01*
X118689062Y-99867025D01*
X118737385Y-99876637D01*
X118785708Y-99886250D01*
X118785709Y-99886250D01*
X118785710Y-99886250D01*
X118982790Y-99886250D01*
X119203488Y-99886250D01*
X119270527Y-99905935D01*
X119276369Y-99909929D01*
X119397640Y-99998037D01*
X119505546Y-100053018D01*
X119580026Y-100090968D01*
X119580028Y-100090968D01*
X119580031Y-100090970D01*
X119672377Y-100120975D01*
X119774715Y-100154227D01*
X119869042Y-100169167D01*
X119976898Y-100186250D01*
X119976899Y-100186250D01*
X120181601Y-100186250D01*
X120181602Y-100186250D01*
X120383784Y-100154227D01*
X120578469Y-100090970D01*
X120760860Y-99998037D01*
X120887629Y-99905935D01*
X120926463Y-99877721D01*
X120926465Y-99877718D01*
X120926469Y-99877716D01*
X121071216Y-99732969D01*
X121071218Y-99732965D01*
X121071221Y-99732963D01*
X121191534Y-99567364D01*
X121191535Y-99567363D01*
X121191537Y-99567360D01*
X121238766Y-99474667D01*
X121286739Y-99423873D01*
X121354560Y-99407078D01*
X121420695Y-99429615D01*
X121459733Y-99474667D01*
X121503598Y-99560756D01*
X121506965Y-99567364D01*
X121627278Y-99732963D01*
X121772036Y-99877721D01*
X121926999Y-99990306D01*
X121937640Y-99998037D01*
X122045546Y-100053018D01*
X122120026Y-100090968D01*
X122120028Y-100090968D01*
X122120031Y-100090970D01*
X122212377Y-100120975D01*
X122314715Y-100154227D01*
X122409042Y-100169167D01*
X122516898Y-100186250D01*
X122516899Y-100186250D01*
X122721601Y-100186250D01*
X122721602Y-100186250D01*
X122923784Y-100154227D01*
X123118469Y-100090970D01*
X123300860Y-99998037D01*
X123427629Y-99905935D01*
X123466463Y-99877721D01*
X123466465Y-99877718D01*
X123466469Y-99877716D01*
X123611216Y-99732969D01*
X123611218Y-99732965D01*
X123611221Y-99732963D01*
X123731534Y-99567364D01*
X123731535Y-99567363D01*
X123731537Y-99567360D01*
X123778766Y-99474667D01*
X123826739Y-99423873D01*
X123894560Y-99407078D01*
X123960695Y-99429615D01*
X123999733Y-99474667D01*
X124043598Y-99560756D01*
X124046965Y-99567364D01*
X124167278Y-99732963D01*
X124312036Y-99877721D01*
X124466999Y-99990306D01*
X124477640Y-99998037D01*
X124585546Y-100053018D01*
X124660026Y-100090968D01*
X124660028Y-100090968D01*
X124660031Y-100090970D01*
X124752377Y-100120975D01*
X124854715Y-100154227D01*
X124949042Y-100169167D01*
X125056898Y-100186250D01*
X125056899Y-100186250D01*
X125261601Y-100186250D01*
X125261602Y-100186250D01*
X125463784Y-100154227D01*
X125658469Y-100090970D01*
X125840860Y-99998037D01*
X125967629Y-99905935D01*
X126006463Y-99877721D01*
X126006465Y-99877718D01*
X126006469Y-99877716D01*
X126151216Y-99732969D01*
X126151218Y-99732965D01*
X126151221Y-99732963D01*
X126271534Y-99567364D01*
X126271535Y-99567363D01*
X126271537Y-99567360D01*
X126318766Y-99474667D01*
X126366739Y-99423873D01*
X126434560Y-99407078D01*
X126500695Y-99429615D01*
X126539733Y-99474667D01*
X126583598Y-99560756D01*
X126586965Y-99567364D01*
X126707278Y-99732963D01*
X126852036Y-99877721D01*
X127006999Y-99990306D01*
X127017640Y-99998037D01*
X127125546Y-100053018D01*
X127200026Y-100090968D01*
X127200028Y-100090968D01*
X127200031Y-100090970D01*
X127292377Y-100120975D01*
X127394715Y-100154227D01*
X127489042Y-100169167D01*
X127596898Y-100186250D01*
X127596899Y-100186250D01*
X127801601Y-100186250D01*
X127801602Y-100186250D01*
X128003784Y-100154227D01*
X128198469Y-100090970D01*
X128280455Y-100049195D01*
X128349123Y-100036299D01*
X128413864Y-100062575D01*
X128454121Y-100119681D01*
X128460750Y-100159680D01*
X128460750Y-107616368D01*
X128441065Y-107683407D01*
X128388261Y-107729162D01*
X128319103Y-107739106D01*
X128255547Y-107710081D01*
X128233648Y-107685259D01*
X128146389Y-107554668D01*
X128146386Y-107554664D01*
X128003936Y-107412214D01*
X128003905Y-107412185D01*
X126108432Y-105516712D01*
X126074947Y-105455389D01*
X126079931Y-105385697D01*
X126096848Y-105354718D01*
X126113046Y-105333081D01*
X126163341Y-105198233D01*
X126169750Y-105138623D01*
X126169749Y-102842878D01*
X126163341Y-102783267D01*
X126155881Y-102763267D01*
X126113047Y-102648421D01*
X126113043Y-102648414D01*
X126026797Y-102533205D01*
X126026794Y-102533202D01*
X125911585Y-102446956D01*
X125911578Y-102446952D01*
X125776732Y-102396658D01*
X125776733Y-102396658D01*
X125717133Y-102390251D01*
X125717131Y-102390250D01*
X125717123Y-102390250D01*
X125717114Y-102390250D01*
X123421379Y-102390250D01*
X123421373Y-102390251D01*
X123361766Y-102396658D01*
X123226921Y-102446952D01*
X123226914Y-102446956D01*
X123111705Y-102533202D01*
X123111702Y-102533205D01*
X123025456Y-102648414D01*
X123025452Y-102648421D01*
X122975158Y-102783267D01*
X122970900Y-102822877D01*
X122968751Y-102842873D01*
X122968750Y-102842885D01*
X122968750Y-105138620D01*
X122968751Y-105138626D01*
X122975158Y-105198233D01*
X123025452Y-105333078D01*
X123025456Y-105333085D01*
X123111702Y-105448294D01*
X123111705Y-105448297D01*
X123226914Y-105534543D01*
X123226921Y-105534547D01*
X123271868Y-105551311D01*
X123361767Y-105584841D01*
X123421377Y-105591250D01*
X123487011Y-105591249D01*
X123554049Y-105610933D01*
X123599805Y-105663736D01*
X123605667Y-105679240D01*
X123607195Y-105684278D01*
X123682614Y-105866357D01*
X123682621Y-105866370D01*
X123792110Y-106030231D01*
X123792113Y-106030235D01*
X123935787Y-106173909D01*
X123935809Y-106173929D01*
X126332431Y-108570551D01*
X126365916Y-108631874D01*
X126368750Y-108658232D01*
X126368750Y-113726808D01*
X126349065Y-113793847D01*
X126296261Y-113839602D01*
X126227103Y-113849546D01*
X126163547Y-113820521D01*
X126126819Y-113765127D01*
X126052489Y-113536366D01*
X126010997Y-113454934D01*
X125938120Y-113311905D01*
X125841853Y-113179404D01*
X125790048Y-113108100D01*
X125790044Y-113108095D01*
X125611904Y-112929955D01*
X125611899Y-112929951D01*
X125408098Y-112781882D01*
X125408097Y-112781881D01*
X125408095Y-112781880D01*
X125327294Y-112740710D01*
X125183633Y-112667510D01*
X124944035Y-112589660D01*
X124695212Y-112550250D01*
X124443288Y-112550250D01*
X124326200Y-112568795D01*
X124194464Y-112589660D01*
X123954866Y-112667510D01*
X123730401Y-112781882D01*
X123526600Y-112929951D01*
X123526595Y-112929955D01*
X123348455Y-113108095D01*
X123348451Y-113108100D01*
X123200382Y-113311901D01*
X123086010Y-113536366D01*
X123008160Y-113775964D01*
X122982354Y-113938897D01*
X122968750Y-114024788D01*
X122968750Y-114276712D01*
X122996434Y-114451499D01*
X123008160Y-114525535D01*
X123086010Y-114765133D01*
X123152872Y-114896356D01*
X123190523Y-114970250D01*
X123200382Y-114989598D01*
X123348451Y-115193399D01*
X123348455Y-115193404D01*
X123526595Y-115371544D01*
X123526600Y-115371548D01*
X123634274Y-115449777D01*
X123730405Y-115519620D01*
X123901045Y-115606565D01*
X123912109Y-115617014D01*
X123925953Y-115623337D01*
X123936993Y-115640516D01*
X123951841Y-115654539D01*
X123956082Y-115670220D01*
X123963727Y-115682115D01*
X123968750Y-115717050D01*
X123968750Y-115766250D01*
X123949065Y-115833289D01*
X123896261Y-115879044D01*
X123844750Y-115890250D01*
X123421379Y-115890250D01*
X123421373Y-115890251D01*
X123361766Y-115896658D01*
X123226921Y-115946952D01*
X123226914Y-115946956D01*
X123111705Y-116033202D01*
X123111702Y-116033205D01*
X123025456Y-116148414D01*
X123025452Y-116148421D01*
X122975158Y-116283267D01*
X122970900Y-116322877D01*
X122968751Y-116342873D01*
X122968750Y-116342885D01*
X122968750Y-118638620D01*
X122968751Y-118638626D01*
X122975158Y-118698233D01*
X123025452Y-118833078D01*
X123025456Y-118833085D01*
X123111702Y-118948294D01*
X123111705Y-118948297D01*
X123226914Y-119034543D01*
X123226921Y-119034547D01*
X123361767Y-119084841D01*
X123361766Y-119084841D01*
X123368694Y-119085585D01*
X123421377Y-119091250D01*
X125717122Y-119091249D01*
X125776733Y-119084841D01*
X125911581Y-119034546D01*
X126026796Y-118948296D01*
X126113046Y-118833081D01*
X126128568Y-118791465D01*
X126170439Y-118735531D01*
X126235903Y-118711114D01*
X126304176Y-118725965D01*
X126353582Y-118775370D01*
X126368750Y-118834798D01*
X126368750Y-121014291D01*
X126369505Y-121018089D01*
X126375458Y-121048013D01*
X126407199Y-121207586D01*
X126429288Y-121260915D01*
X126448325Y-121306875D01*
X126482616Y-121389661D01*
X126482621Y-121389670D01*
X126592109Y-121553530D01*
X126592110Y-121553531D01*
X126592111Y-121553532D01*
X126731468Y-121692889D01*
X126731469Y-121692889D01*
X126738536Y-121699956D01*
X126738535Y-121699956D01*
X126738539Y-121699959D01*
X130337531Y-125298952D01*
X130371016Y-125360275D01*
X130372323Y-125367234D01*
X130395772Y-125515281D01*
X130395773Y-125515284D01*
X130459030Y-125709969D01*
X130527571Y-125844489D01*
X130551965Y-125892363D01*
X130672278Y-126057963D01*
X130817036Y-126202721D01*
X130952387Y-126301057D01*
X130982640Y-126323037D01*
X131059392Y-126362144D01*
X131165026Y-126415968D01*
X131165028Y-126415968D01*
X131165031Y-126415970D01*
X131269387Y-126449877D01*
X131359715Y-126479227D01*
X131460807Y-126495238D01*
X131561898Y-126511250D01*
X131561899Y-126511250D01*
X131766601Y-126511250D01*
X131766602Y-126511250D01*
X131968784Y-126479227D01*
X132163469Y-126415970D01*
X132345860Y-126323037D01*
X132438840Y-126255482D01*
X132511463Y-126202721D01*
X132511465Y-126202718D01*
X132511469Y-126202716D01*
X132656216Y-126057969D01*
X132656218Y-126057965D01*
X132656221Y-126057963D01*
X132708982Y-125985340D01*
X132776537Y-125892360D01*
X132869470Y-125709969D01*
X132932727Y-125515284D01*
X132964750Y-125313102D01*
X132964750Y-125108398D01*
X132932727Y-124906216D01*
X132914663Y-124850622D01*
X132900023Y-124805564D01*
X132869470Y-124711531D01*
X132869468Y-124711528D01*
X132869468Y-124711526D01*
X132835753Y-124645357D01*
X132776537Y-124529140D01*
X132768806Y-124518499D01*
X132656221Y-124363536D01*
X132511463Y-124218778D01*
X132345864Y-124098465D01*
X132333719Y-124092277D01*
X132253167Y-124051233D01*
X132202373Y-124003261D01*
X132185578Y-123935440D01*
X132208115Y-123869305D01*
X132253167Y-123830266D01*
X132345860Y-123783037D01*
X132367020Y-123767663D01*
X132511463Y-123662721D01*
X132511465Y-123662718D01*
X132511469Y-123662716D01*
X132656216Y-123517969D01*
X132656218Y-123517965D01*
X132656221Y-123517963D01*
X132708982Y-123445340D01*
X132776537Y-123352360D01*
X132869470Y-123169969D01*
X132932727Y-122975284D01*
X132964750Y-122773102D01*
X132964750Y-122568398D01*
X132932727Y-122366216D01*
X132869470Y-122171531D01*
X132869468Y-122171528D01*
X132869468Y-122171526D01*
X132808178Y-122051239D01*
X132776537Y-121989140D01*
X132763170Y-121970742D01*
X132656221Y-121823536D01*
X132511463Y-121678778D01*
X132345864Y-121558465D01*
X132333356Y-121552092D01*
X132253167Y-121511233D01*
X132202373Y-121463261D01*
X132185578Y-121395440D01*
X132208115Y-121329305D01*
X132253167Y-121290266D01*
X132345860Y-121243037D01*
X132417818Y-121190757D01*
X132511463Y-121122721D01*
X132511465Y-121122718D01*
X132511469Y-121122716D01*
X132656216Y-120977969D01*
X132656218Y-120977965D01*
X132656221Y-120977963D01*
X132708982Y-120905340D01*
X132776537Y-120812360D01*
X132869470Y-120629969D01*
X132932727Y-120435284D01*
X132964750Y-120233102D01*
X132964750Y-120028398D01*
X132953741Y-119958891D01*
X132932727Y-119826215D01*
X132869468Y-119631526D01*
X132810724Y-119516236D01*
X132776537Y-119449140D01*
X132768806Y-119438499D01*
X132656221Y-119283536D01*
X132511463Y-119138778D01*
X132345861Y-119018463D01*
X132252619Y-118970953D01*
X132201824Y-118922979D01*
X132185029Y-118855157D01*
X132207567Y-118789023D01*
X132252621Y-118749984D01*
X132345596Y-118702611D01*
X132345597Y-118702611D01*
X132390171Y-118670224D01*
X131710697Y-117990750D01*
X131716911Y-117990750D01*
X131818644Y-117963491D01*
X131909856Y-117910830D01*
X131984330Y-117836356D01*
X132036991Y-117745144D01*
X132064250Y-117643411D01*
X132064250Y-117637197D01*
X132743724Y-118316671D01*
X132776109Y-118272099D01*
X132869005Y-118089781D01*
X132932240Y-117895167D01*
X132964250Y-117693067D01*
X132964250Y-117488432D01*
X132932240Y-117286332D01*
X132869005Y-117091718D01*
X132776109Y-116909400D01*
X132743724Y-116864827D01*
X132743724Y-116864826D01*
X132064250Y-117544301D01*
X132064250Y-117538089D01*
X132036991Y-117436356D01*
X131984330Y-117345144D01*
X131909856Y-117270670D01*
X131818644Y-117218009D01*
X131716911Y-117190750D01*
X131710696Y-117190750D01*
X132390172Y-116511274D01*
X132390171Y-116511273D01*
X132345609Y-116478897D01*
X132345600Y-116478891D01*
X132252069Y-116431235D01*
X132201273Y-116383261D01*
X132184478Y-116315440D01*
X132207015Y-116249305D01*
X132252070Y-116210265D01*
X132345596Y-116162611D01*
X132345597Y-116162611D01*
X132390171Y-116130224D01*
X131710697Y-115450750D01*
X131716911Y-115450750D01*
X131818644Y-115423491D01*
X131909856Y-115370830D01*
X131984330Y-115296356D01*
X132036991Y-115205144D01*
X132064250Y-115103411D01*
X132064250Y-115097197D01*
X132743724Y-115776671D01*
X132776109Y-115732099D01*
X132869005Y-115549781D01*
X132932240Y-115355167D01*
X132964250Y-115153067D01*
X132964250Y-114948432D01*
X132932240Y-114746332D01*
X132869005Y-114551718D01*
X132776109Y-114369400D01*
X132743724Y-114324827D01*
X132743724Y-114324826D01*
X132064250Y-115004301D01*
X132064250Y-114998089D01*
X132036991Y-114896356D01*
X131984330Y-114805144D01*
X131909856Y-114730670D01*
X131818644Y-114678009D01*
X131716911Y-114650750D01*
X131710696Y-114650750D01*
X132390172Y-113971274D01*
X132390171Y-113971273D01*
X132345609Y-113938897D01*
X132345600Y-113938891D01*
X132252619Y-113891515D01*
X132201823Y-113843540D01*
X132185028Y-113775719D01*
X132207565Y-113709585D01*
X132252620Y-113670545D01*
X132345860Y-113623037D01*
X132459542Y-113540443D01*
X132511463Y-113502721D01*
X132511465Y-113502718D01*
X132511469Y-113502716D01*
X132656216Y-113357969D01*
X132656218Y-113357965D01*
X132656221Y-113357963D01*
X132719388Y-113271019D01*
X132776537Y-113192360D01*
X132869470Y-113009969D01*
X132932727Y-112815284D01*
X132964750Y-112613102D01*
X132964750Y-112408398D01*
X132955618Y-112350743D01*
X132932727Y-112206215D01*
X132869468Y-112011526D01*
X132806915Y-111888761D01*
X132776537Y-111829140D01*
X132751041Y-111794047D01*
X132656221Y-111663536D01*
X132511463Y-111518778D01*
X132345864Y-111398465D01*
X132311675Y-111381045D01*
X132253167Y-111351233D01*
X132202373Y-111303261D01*
X132185578Y-111235440D01*
X132208115Y-111169305D01*
X132253167Y-111130266D01*
X132345860Y-111083037D01*
X132367020Y-111067663D01*
X132511463Y-110962721D01*
X132511465Y-110962718D01*
X132511469Y-110962716D01*
X132656216Y-110817969D01*
X132656218Y-110817965D01*
X132656221Y-110817963D01*
X132708982Y-110745340D01*
X132776537Y-110652360D01*
X132869470Y-110469969D01*
X132932727Y-110275284D01*
X132964750Y-110073102D01*
X132964750Y-109868398D01*
X132932727Y-109666216D01*
X132869470Y-109471531D01*
X132869468Y-109471528D01*
X132869468Y-109471526D01*
X132818374Y-109371250D01*
X132776537Y-109289140D01*
X132758455Y-109264252D01*
X132656221Y-109123536D01*
X132511469Y-108978784D01*
X132458205Y-108940086D01*
X132417797Y-108910728D01*
X132375132Y-108855399D01*
X132369153Y-108785786D01*
X132401758Y-108723990D01*
X132451676Y-108692705D01*
X132533584Y-108665564D01*
X132682906Y-108573462D01*
X132806962Y-108449406D01*
X132899064Y-108300084D01*
X132954249Y-108133547D01*
X132964750Y-108030759D01*
X132964749Y-106830742D01*
X132954249Y-106727953D01*
X132899064Y-106561416D01*
X132806962Y-106412094D01*
X132682906Y-106288038D01*
X132533584Y-106195936D01*
X132533581Y-106195935D01*
X132367045Y-106140750D01*
X132362783Y-106139838D01*
X132301352Y-106106551D01*
X132267669Y-106045336D01*
X132264750Y-106018587D01*
X132264750Y-100256676D01*
X132284435Y-100189637D01*
X132337239Y-100143882D01*
X132406397Y-100133938D01*
X132427070Y-100138746D01*
X132474708Y-100154225D01*
X132474711Y-100154225D01*
X132474716Y-100154227D01*
X132676898Y-100186250D01*
X132676899Y-100186250D01*
X132881601Y-100186250D01*
X132881602Y-100186250D01*
X133083784Y-100154227D01*
X133278469Y-100090970D01*
X133278472Y-100090968D01*
X133283102Y-100089464D01*
X133283531Y-100090785D01*
X133346764Y-100083986D01*
X133409244Y-100115259D01*
X133444898Y-100175347D01*
X133448750Y-100206016D01*
X133448750Y-115868484D01*
X133429065Y-115935523D01*
X133427852Y-115937375D01*
X133339859Y-116069064D01*
X133339852Y-116069077D01*
X133279514Y-116214748D01*
X133279511Y-116214760D01*
X133248750Y-116369403D01*
X133248750Y-116527096D01*
X133279511Y-116681739D01*
X133279514Y-116681751D01*
X133339852Y-116827422D01*
X133339859Y-116827435D01*
X133427460Y-116958538D01*
X133427463Y-116958542D01*
X133538957Y-117070036D01*
X133538961Y-117070039D01*
X133670064Y-117157640D01*
X133670077Y-117157647D01*
X133815748Y-117217985D01*
X133815753Y-117217987D01*
X133912323Y-117237196D01*
X133970403Y-117248749D01*
X133970406Y-117248750D01*
X133970408Y-117248750D01*
X134128094Y-117248750D01*
X134128095Y-117248749D01*
X134282747Y-117217987D01*
X134428429Y-117157644D01*
X134559539Y-117070039D01*
X134671039Y-116958539D01*
X134758644Y-116827429D01*
X134818987Y-116681747D01*
X134849750Y-116527092D01*
X134849750Y-116369408D01*
X134849750Y-116369405D01*
X134849749Y-116369403D01*
X134840495Y-116322879D01*
X134818987Y-116214753D01*
X134797389Y-116162611D01*
X134758647Y-116069077D01*
X134758640Y-116069064D01*
X134670648Y-115937375D01*
X134649770Y-115870697D01*
X134649750Y-115868484D01*
X134649750Y-100206016D01*
X134669435Y-100138977D01*
X134722239Y-100093222D01*
X134791397Y-100083278D01*
X134815279Y-100089830D01*
X134815398Y-100089464D01*
X134820027Y-100090968D01*
X134820031Y-100090970D01*
X134932705Y-100127580D01*
X135014715Y-100154227D01*
X135109042Y-100169167D01*
X135216898Y-100186250D01*
X135216899Y-100186250D01*
X135421601Y-100186250D01*
X135421602Y-100186250D01*
X135623784Y-100154227D01*
X135818469Y-100090970D01*
X135892954Y-100053018D01*
X135961624Y-100040121D01*
X136026364Y-100066397D01*
X136066622Y-100123503D01*
X136073250Y-100163502D01*
X136073250Y-123194284D01*
X136053565Y-123261323D01*
X136052352Y-123263175D01*
X135964359Y-123394864D01*
X135964352Y-123394877D01*
X135904014Y-123540548D01*
X135904011Y-123540560D01*
X135873250Y-123695203D01*
X135873250Y-123852896D01*
X135904011Y-124007539D01*
X135904014Y-124007551D01*
X135964352Y-124153222D01*
X135964359Y-124153235D01*
X136051960Y-124284338D01*
X136051963Y-124284342D01*
X136163457Y-124395836D01*
X136163461Y-124395839D01*
X136294564Y-124483440D01*
X136294577Y-124483447D01*
X136440248Y-124543785D01*
X136440253Y-124543787D01*
X136594903Y-124574549D01*
X136594906Y-124574550D01*
X136594908Y-124574550D01*
X136752594Y-124574550D01*
X136752595Y-124574549D01*
X136907247Y-124543787D01*
X137052929Y-124483444D01*
X137184039Y-124395839D01*
X137295539Y-124284339D01*
X137383144Y-124153229D01*
X137443487Y-124007547D01*
X137474250Y-123852892D01*
X137474250Y-123695208D01*
X137474250Y-123695205D01*
X137474249Y-123695203D01*
X137449593Y-123571250D01*
X137443487Y-123540553D01*
X137443485Y-123540548D01*
X137383147Y-123394877D01*
X137383140Y-123394864D01*
X137295148Y-123263175D01*
X137274270Y-123196497D01*
X137274250Y-123194284D01*
X137274250Y-107328398D01*
X137983750Y-107328398D01*
X137983750Y-107533101D01*
X138015772Y-107735284D01*
X138079031Y-107929973D01*
X138171965Y-108112363D01*
X138292278Y-108277963D01*
X138437036Y-108422721D01*
X138537151Y-108495457D01*
X138602640Y-108543037D01*
X138694090Y-108589633D01*
X138695330Y-108590265D01*
X138746126Y-108638240D01*
X138762921Y-108706061D01*
X138740384Y-108772196D01*
X138695330Y-108811235D01*
X138602636Y-108858465D01*
X138437036Y-108978778D01*
X138292278Y-109123536D01*
X138171965Y-109289136D01*
X138079031Y-109471526D01*
X138015772Y-109666215D01*
X137989063Y-109834851D01*
X137983750Y-109868398D01*
X137983750Y-110073102D01*
X137988128Y-110100745D01*
X138015772Y-110275284D01*
X138079031Y-110469973D01*
X138171965Y-110652363D01*
X138292278Y-110817963D01*
X138437036Y-110962721D01*
X138585357Y-111070480D01*
X138602640Y-111083037D01*
X138694090Y-111129633D01*
X138695330Y-111130265D01*
X138746126Y-111178240D01*
X138762921Y-111246061D01*
X138740384Y-111312196D01*
X138695330Y-111351235D01*
X138602636Y-111398465D01*
X138437036Y-111518778D01*
X138292278Y-111663536D01*
X138171965Y-111829136D01*
X138079031Y-112011526D01*
X138015772Y-112206215D01*
X137983750Y-112408398D01*
X137983750Y-112613101D01*
X138015772Y-112815284D01*
X138079031Y-113009973D01*
X138129027Y-113108094D01*
X138160854Y-113170558D01*
X138171965Y-113192363D01*
X138292278Y-113357963D01*
X138437036Y-113502721D01*
X138602635Y-113623034D01*
X138602637Y-113623035D01*
X138602640Y-113623037D01*
X138695880Y-113670545D01*
X138746676Y-113718520D01*
X138763471Y-113786341D01*
X138740934Y-113852475D01*
X138695880Y-113891515D01*
X138602894Y-113938893D01*
X138558327Y-113971273D01*
X138558327Y-113971274D01*
X139237804Y-114650750D01*
X139231589Y-114650750D01*
X139129856Y-114678009D01*
X139038644Y-114730670D01*
X138964170Y-114805144D01*
X138911509Y-114896356D01*
X138884250Y-114998089D01*
X138884250Y-115004303D01*
X138204774Y-114324827D01*
X138204773Y-114324827D01*
X138172393Y-114369394D01*
X138079494Y-114551718D01*
X138016259Y-114746332D01*
X137984250Y-114948432D01*
X137984250Y-115153067D01*
X138016259Y-115355167D01*
X138079494Y-115549781D01*
X138172391Y-115732100D01*
X138172397Y-115732109D01*
X138204773Y-115776671D01*
X138204774Y-115776672D01*
X138884250Y-115097196D01*
X138884250Y-115103411D01*
X138911509Y-115205144D01*
X138964170Y-115296356D01*
X139038644Y-115370830D01*
X139129856Y-115423491D01*
X139231589Y-115450750D01*
X139237803Y-115450750D01*
X138558326Y-116130224D01*
X138602900Y-116162609D01*
X138696430Y-116210265D01*
X138747226Y-116258239D01*
X138764021Y-116326060D01*
X138741484Y-116392195D01*
X138696430Y-116431235D01*
X138602894Y-116478893D01*
X138558327Y-116511273D01*
X138558327Y-116511274D01*
X139237804Y-117190750D01*
X139231589Y-117190750D01*
X139129856Y-117218009D01*
X139038644Y-117270670D01*
X138964170Y-117345144D01*
X138911509Y-117436356D01*
X138884250Y-117538089D01*
X138884250Y-117544303D01*
X138204774Y-116864827D01*
X138204773Y-116864827D01*
X138172393Y-116909394D01*
X138079494Y-117091718D01*
X138016259Y-117286332D01*
X137984250Y-117488432D01*
X137984250Y-117693067D01*
X138016259Y-117895167D01*
X138079494Y-118089781D01*
X138172391Y-118272100D01*
X138172397Y-118272109D01*
X138204773Y-118316671D01*
X138204774Y-118316672D01*
X138884250Y-117637196D01*
X138884250Y-117643411D01*
X138911509Y-117745144D01*
X138964170Y-117836356D01*
X139038644Y-117910830D01*
X139129856Y-117963491D01*
X139231589Y-117990750D01*
X139237803Y-117990750D01*
X138558326Y-118670224D01*
X138602902Y-118702611D01*
X138695878Y-118749984D01*
X138746675Y-118797958D01*
X138763470Y-118865779D01*
X138740933Y-118931914D01*
X138695880Y-118970953D01*
X138602638Y-119018463D01*
X138437036Y-119138778D01*
X138292278Y-119283536D01*
X138171965Y-119449136D01*
X138079031Y-119631526D01*
X138015772Y-119826215D01*
X137988080Y-120001057D01*
X137983750Y-120028398D01*
X137983750Y-120233102D01*
X137988128Y-120260745D01*
X138015772Y-120435284D01*
X138079031Y-120629973D01*
X138113698Y-120698009D01*
X138148451Y-120766216D01*
X138171965Y-120812363D01*
X138292278Y-120977963D01*
X138437036Y-121122721D01*
X138553845Y-121207586D01*
X138602640Y-121243037D01*
X138676656Y-121280750D01*
X138695330Y-121290265D01*
X138746126Y-121338240D01*
X138762921Y-121406061D01*
X138740384Y-121472196D01*
X138695330Y-121511235D01*
X138602636Y-121558465D01*
X138437036Y-121678778D01*
X138292278Y-121823536D01*
X138171965Y-121989136D01*
X138079031Y-122171526D01*
X138015772Y-122366215D01*
X137983750Y-122568398D01*
X137983750Y-122773101D01*
X138015772Y-122975284D01*
X138079031Y-123169973D01*
X138171965Y-123352363D01*
X138292278Y-123517963D01*
X138437036Y-123662721D01*
X138591999Y-123775306D01*
X138602640Y-123783037D01*
X138694090Y-123829633D01*
X138695330Y-123830265D01*
X138746126Y-123878240D01*
X138762921Y-123946061D01*
X138740384Y-124012196D01*
X138695330Y-124051235D01*
X138602636Y-124098465D01*
X138437036Y-124218778D01*
X138292278Y-124363536D01*
X138171965Y-124529136D01*
X138079031Y-124711526D01*
X138015772Y-124906215D01*
X137983750Y-125108398D01*
X137983750Y-125313101D01*
X138015772Y-125515284D01*
X138079031Y-125709973D01*
X138134831Y-125819485D01*
X138147571Y-125844489D01*
X138171965Y-125892363D01*
X138292278Y-126057963D01*
X138437036Y-126202721D01*
X138572387Y-126301057D01*
X138602640Y-126323037D01*
X138679392Y-126362144D01*
X138785026Y-126415968D01*
X138785028Y-126415968D01*
X138785031Y-126415970D01*
X138889387Y-126449877D01*
X138979715Y-126479227D01*
X139080807Y-126495238D01*
X139181898Y-126511250D01*
X139181899Y-126511250D01*
X139386601Y-126511250D01*
X139386602Y-126511250D01*
X139588784Y-126479227D01*
X139783469Y-126415970D01*
X139965860Y-126323037D01*
X140058840Y-126255482D01*
X140131463Y-126202721D01*
X140131465Y-126202718D01*
X140131469Y-126202716D01*
X140276216Y-126057969D01*
X140276218Y-126057965D01*
X140276221Y-126057963D01*
X140328982Y-125985340D01*
X140396537Y-125892360D01*
X140489470Y-125709969D01*
X140552727Y-125515284D01*
X140584750Y-125313102D01*
X140584750Y-125108398D01*
X140552727Y-124906216D01*
X140534663Y-124850622D01*
X140520023Y-124805564D01*
X140489470Y-124711531D01*
X140489468Y-124711528D01*
X140489468Y-124711526D01*
X140455753Y-124645357D01*
X140396537Y-124529140D01*
X140388806Y-124518499D01*
X140276221Y-124363536D01*
X140131463Y-124218778D01*
X139965864Y-124098465D01*
X139953719Y-124092277D01*
X139873167Y-124051233D01*
X139822373Y-124003261D01*
X139805578Y-123935440D01*
X139828115Y-123869305D01*
X139873167Y-123830266D01*
X139965860Y-123783037D01*
X139987020Y-123767663D01*
X140131463Y-123662721D01*
X140131465Y-123662718D01*
X140131469Y-123662716D01*
X140276216Y-123517969D01*
X140276218Y-123517965D01*
X140276221Y-123517963D01*
X140328982Y-123445340D01*
X140396537Y-123352360D01*
X140489470Y-123169969D01*
X140552727Y-122975284D01*
X140584750Y-122773102D01*
X140584750Y-122568398D01*
X140552727Y-122366216D01*
X140489470Y-122171531D01*
X140489468Y-122171528D01*
X140489468Y-122171526D01*
X140428178Y-122051239D01*
X140396537Y-121989140D01*
X140383170Y-121970742D01*
X140276221Y-121823536D01*
X140131463Y-121678778D01*
X139965864Y-121558465D01*
X139953356Y-121552092D01*
X139873167Y-121511233D01*
X139822373Y-121463261D01*
X139805578Y-121395440D01*
X139828115Y-121329305D01*
X139873167Y-121290266D01*
X139965860Y-121243037D01*
X140037818Y-121190757D01*
X140131463Y-121122721D01*
X140131465Y-121122718D01*
X140131469Y-121122716D01*
X140276216Y-120977969D01*
X140276218Y-120977965D01*
X140276221Y-120977963D01*
X140328982Y-120905340D01*
X140396537Y-120812360D01*
X140489470Y-120629969D01*
X140552727Y-120435284D01*
X140584750Y-120233102D01*
X140584750Y-120028398D01*
X140573741Y-119958891D01*
X140552727Y-119826215D01*
X140489468Y-119631526D01*
X140430724Y-119516236D01*
X140396537Y-119449140D01*
X140388806Y-119438499D01*
X140276221Y-119283536D01*
X140131463Y-119138778D01*
X139965861Y-119018463D01*
X139872619Y-118970953D01*
X139821824Y-118922979D01*
X139805029Y-118855157D01*
X139827567Y-118789023D01*
X139872621Y-118749984D01*
X139965596Y-118702611D01*
X139965597Y-118702611D01*
X140010171Y-118670224D01*
X139330697Y-117990750D01*
X139336911Y-117990750D01*
X139438644Y-117963491D01*
X139529856Y-117910830D01*
X139604330Y-117836356D01*
X139656991Y-117745144D01*
X139684250Y-117643411D01*
X139684250Y-117637198D01*
X140363724Y-118316672D01*
X140363724Y-118316671D01*
X140396109Y-118272099D01*
X140489005Y-118089781D01*
X140552240Y-117895167D01*
X140584250Y-117693067D01*
X140584250Y-117488432D01*
X140552240Y-117286332D01*
X140489005Y-117091718D01*
X140396109Y-116909400D01*
X140363724Y-116864827D01*
X140363724Y-116864826D01*
X139684250Y-117544301D01*
X139684250Y-117538089D01*
X139656991Y-117436356D01*
X139604330Y-117345144D01*
X139529856Y-117270670D01*
X139438644Y-117218009D01*
X139336911Y-117190750D01*
X139330696Y-117190750D01*
X140010172Y-116511274D01*
X140010171Y-116511273D01*
X139965609Y-116478897D01*
X139965600Y-116478891D01*
X139872069Y-116431235D01*
X139821273Y-116383261D01*
X139804478Y-116315440D01*
X139827015Y-116249305D01*
X139872070Y-116210265D01*
X139965596Y-116162611D01*
X139965597Y-116162611D01*
X140010171Y-116130224D01*
X139330697Y-115450750D01*
X139336911Y-115450750D01*
X139438644Y-115423491D01*
X139529856Y-115370830D01*
X139604330Y-115296356D01*
X139656991Y-115205144D01*
X139684250Y-115103411D01*
X139684250Y-115097198D01*
X140363724Y-115776672D01*
X140363724Y-115776671D01*
X140396109Y-115732099D01*
X140489005Y-115549781D01*
X140552240Y-115355167D01*
X140584250Y-115153067D01*
X140584250Y-114948432D01*
X140552240Y-114746332D01*
X140489005Y-114551718D01*
X140396109Y-114369400D01*
X140363724Y-114324827D01*
X140363724Y-114324826D01*
X139684250Y-115004301D01*
X139684250Y-114998089D01*
X139656991Y-114896356D01*
X139604330Y-114805144D01*
X139529856Y-114730670D01*
X139438644Y-114678009D01*
X139336911Y-114650750D01*
X139330696Y-114650750D01*
X139976658Y-114004788D01*
X142668750Y-114004788D01*
X142668750Y-114256712D01*
X142701489Y-114463414D01*
X142708160Y-114505535D01*
X142786010Y-114745133D01*
X142829712Y-114830902D01*
X142888419Y-114946121D01*
X142900382Y-114969598D01*
X143048451Y-115173399D01*
X143048455Y-115173404D01*
X143226595Y-115351544D01*
X143226600Y-115351548D01*
X143325622Y-115423491D01*
X143430405Y-115499620D01*
X143601045Y-115586565D01*
X143612109Y-115597014D01*
X143625953Y-115603337D01*
X143636993Y-115620516D01*
X143651841Y-115634539D01*
X143656082Y-115650220D01*
X143663727Y-115662115D01*
X143668750Y-115697050D01*
X143668750Y-115746250D01*
X143649065Y-115813289D01*
X143596261Y-115859044D01*
X143544750Y-115870250D01*
X143121379Y-115870250D01*
X143121373Y-115870251D01*
X143061766Y-115876658D01*
X142926921Y-115926952D01*
X142926914Y-115926956D01*
X142811705Y-116013202D01*
X142811702Y-116013205D01*
X142725456Y-116128414D01*
X142725452Y-116128421D01*
X142675158Y-116263267D01*
X142668751Y-116322866D01*
X142668751Y-116322873D01*
X142668750Y-116322885D01*
X142668750Y-118618620D01*
X142668751Y-118618626D01*
X142675158Y-118678233D01*
X142725452Y-118813078D01*
X142725456Y-118813085D01*
X142811702Y-118928294D01*
X142811705Y-118928297D01*
X142926914Y-119014543D01*
X142926921Y-119014547D01*
X143061767Y-119064841D01*
X143061766Y-119064841D01*
X143068694Y-119065585D01*
X143121377Y-119071250D01*
X145417122Y-119071249D01*
X145476733Y-119064841D01*
X145611581Y-119014546D01*
X145726796Y-118928296D01*
X145813046Y-118813081D01*
X145863341Y-118678233D01*
X145869750Y-118618623D01*
X145869749Y-116322878D01*
X145864549Y-116274507D01*
X145863341Y-116263266D01*
X145813047Y-116128421D01*
X145813043Y-116128414D01*
X145726797Y-116013205D01*
X145726794Y-116013202D01*
X145611585Y-115926956D01*
X145611578Y-115926952D01*
X145476732Y-115876658D01*
X145476733Y-115876658D01*
X145417133Y-115870251D01*
X145417131Y-115870250D01*
X145417123Y-115870250D01*
X145417115Y-115870250D01*
X144993750Y-115870250D01*
X144985064Y-115867699D01*
X144976103Y-115868988D01*
X144952062Y-115858009D01*
X144926711Y-115850565D01*
X144920783Y-115843724D01*
X144912547Y-115839963D01*
X144898257Y-115817728D01*
X144880956Y-115797761D01*
X144878668Y-115787246D01*
X144874773Y-115781185D01*
X144869750Y-115746250D01*
X144869750Y-115697050D01*
X144889435Y-115630011D01*
X144937454Y-115586565D01*
X145108095Y-115499620D01*
X145311906Y-115351543D01*
X145490043Y-115173406D01*
X145638120Y-114969595D01*
X145752491Y-114745129D01*
X145830340Y-114505535D01*
X145869750Y-114256712D01*
X145869750Y-114004788D01*
X147168750Y-114004788D01*
X147168750Y-114256712D01*
X147201489Y-114463414D01*
X147208160Y-114505535D01*
X147286010Y-114745133D01*
X147329712Y-114830902D01*
X147388419Y-114946121D01*
X147400382Y-114969598D01*
X147548451Y-115173399D01*
X147548455Y-115173404D01*
X147726595Y-115351544D01*
X147726600Y-115351548D01*
X147825622Y-115423491D01*
X147930405Y-115499620D01*
X148101045Y-115586565D01*
X148112109Y-115597014D01*
X148125953Y-115603337D01*
X148136993Y-115620516D01*
X148151841Y-115634539D01*
X148156082Y-115650220D01*
X148163727Y-115662115D01*
X148168750Y-115697050D01*
X148168750Y-115746250D01*
X148149065Y-115813289D01*
X148096261Y-115859044D01*
X148044750Y-115870250D01*
X147621379Y-115870250D01*
X147621373Y-115870251D01*
X147561766Y-115876658D01*
X147426921Y-115926952D01*
X147426914Y-115926956D01*
X147311705Y-116013202D01*
X147311702Y-116013205D01*
X147225456Y-116128414D01*
X147225452Y-116128421D01*
X147175158Y-116263267D01*
X147168751Y-116322866D01*
X147168751Y-116322873D01*
X147168750Y-116322885D01*
X147168750Y-118618620D01*
X147168751Y-118618626D01*
X147175158Y-118678233D01*
X147225452Y-118813078D01*
X147225456Y-118813085D01*
X147311702Y-118928294D01*
X147311705Y-118928297D01*
X147426914Y-119014543D01*
X147426921Y-119014547D01*
X147561767Y-119064841D01*
X147561766Y-119064841D01*
X147568694Y-119065585D01*
X147621377Y-119071250D01*
X149917122Y-119071249D01*
X149976733Y-119064841D01*
X150111581Y-119014546D01*
X150226796Y-118928296D01*
X150313046Y-118813081D01*
X150363341Y-118678233D01*
X150369750Y-118618623D01*
X150369749Y-116322878D01*
X150364549Y-116274507D01*
X150363341Y-116263266D01*
X150313047Y-116128421D01*
X150313043Y-116128414D01*
X150226797Y-116013205D01*
X150226794Y-116013202D01*
X150111585Y-115926956D01*
X150111578Y-115926952D01*
X149976732Y-115876658D01*
X149976733Y-115876658D01*
X149917133Y-115870251D01*
X149917131Y-115870250D01*
X149917123Y-115870250D01*
X149917115Y-115870250D01*
X149493750Y-115870250D01*
X149485064Y-115867699D01*
X149476103Y-115868988D01*
X149452062Y-115858009D01*
X149426711Y-115850565D01*
X149420783Y-115843724D01*
X149412547Y-115839963D01*
X149398257Y-115817728D01*
X149380956Y-115797761D01*
X149378668Y-115787246D01*
X149374773Y-115781185D01*
X149369750Y-115746250D01*
X149369750Y-115697050D01*
X149389435Y-115630011D01*
X149437454Y-115586565D01*
X149608095Y-115499620D01*
X149811906Y-115351543D01*
X149990043Y-115173406D01*
X150138120Y-114969595D01*
X150252491Y-114745129D01*
X150330340Y-114505535D01*
X150369750Y-114256712D01*
X150369750Y-114004788D01*
X150330340Y-113755965D01*
X150252491Y-113516371D01*
X150252489Y-113516368D01*
X150252489Y-113516366D01*
X150187610Y-113389035D01*
X150138120Y-113291905D01*
X150065799Y-113192363D01*
X149990048Y-113088100D01*
X149990044Y-113088095D01*
X149811904Y-112909955D01*
X149811899Y-112909951D01*
X149608098Y-112761882D01*
X149608097Y-112761881D01*
X149608095Y-112761880D01*
X149537997Y-112726163D01*
X149383633Y-112647510D01*
X149144035Y-112569660D01*
X149021486Y-112550250D01*
X148895212Y-112530250D01*
X148643288Y-112530250D01*
X148518876Y-112549955D01*
X148394464Y-112569660D01*
X148154866Y-112647510D01*
X147930401Y-112761882D01*
X147726600Y-112909951D01*
X147726595Y-112909955D01*
X147548455Y-113088095D01*
X147548451Y-113088100D01*
X147400382Y-113291901D01*
X147286010Y-113516366D01*
X147208160Y-113755964D01*
X147203349Y-113786341D01*
X147168750Y-114004788D01*
X145869750Y-114004788D01*
X145830340Y-113755965D01*
X145752491Y-113516371D01*
X145752489Y-113516368D01*
X145752489Y-113516366D01*
X145687610Y-113389035D01*
X145638120Y-113291905D01*
X145565799Y-113192363D01*
X145490048Y-113088100D01*
X145490044Y-113088095D01*
X145311904Y-112909955D01*
X145311899Y-112909951D01*
X145108098Y-112761882D01*
X145108097Y-112761881D01*
X145108095Y-112761880D01*
X145037997Y-112726163D01*
X144883633Y-112647510D01*
X144644035Y-112569660D01*
X144521486Y-112550250D01*
X144395212Y-112530250D01*
X144143288Y-112530250D01*
X144018876Y-112549955D01*
X143894464Y-112569660D01*
X143654866Y-112647510D01*
X143430401Y-112761882D01*
X143226600Y-112909951D01*
X143226595Y-112909955D01*
X143048455Y-113088095D01*
X143048451Y-113088100D01*
X142900382Y-113291901D01*
X142786010Y-113516366D01*
X142708160Y-113755964D01*
X142703349Y-113786341D01*
X142668750Y-114004788D01*
X139976658Y-114004788D01*
X140010172Y-113971274D01*
X140010172Y-113971273D01*
X139965609Y-113938897D01*
X139965600Y-113938891D01*
X139872619Y-113891515D01*
X139821823Y-113843540D01*
X139805028Y-113775719D01*
X139827565Y-113709585D01*
X139872620Y-113670545D01*
X139965860Y-113623037D01*
X140079542Y-113540443D01*
X140131463Y-113502721D01*
X140131465Y-113502718D01*
X140131469Y-113502716D01*
X140276216Y-113357969D01*
X140276218Y-113357965D01*
X140276221Y-113357963D01*
X140339388Y-113271019D01*
X140396537Y-113192360D01*
X140489470Y-113009969D01*
X140552727Y-112815284D01*
X140584750Y-112613102D01*
X140584750Y-112408398D01*
X140575618Y-112350743D01*
X140552727Y-112206215D01*
X140489468Y-112011526D01*
X140426915Y-111888761D01*
X140396537Y-111829140D01*
X140371041Y-111794047D01*
X140276221Y-111663536D01*
X140131463Y-111518778D01*
X139965864Y-111398465D01*
X139931675Y-111381045D01*
X139873167Y-111351233D01*
X139822373Y-111303261D01*
X139805578Y-111235440D01*
X139828115Y-111169305D01*
X139873167Y-111130266D01*
X139965860Y-111083037D01*
X139987020Y-111067663D01*
X140131463Y-110962721D01*
X140131465Y-110962718D01*
X140131469Y-110962716D01*
X140276216Y-110817969D01*
X140276218Y-110817965D01*
X140276221Y-110817963D01*
X140328982Y-110745340D01*
X140396537Y-110652360D01*
X140489470Y-110469969D01*
X140552727Y-110275284D01*
X140584750Y-110073102D01*
X140584750Y-109868398D01*
X140552727Y-109666216D01*
X140489470Y-109471531D01*
X140489468Y-109471528D01*
X140489468Y-109471526D01*
X140438374Y-109371250D01*
X140396537Y-109289140D01*
X140378455Y-109264252D01*
X140276221Y-109123536D01*
X140131463Y-108978778D01*
X139965864Y-108858465D01*
X139959256Y-108855098D01*
X139873167Y-108811233D01*
X139822373Y-108763261D01*
X139805578Y-108695440D01*
X139828115Y-108629305D01*
X139873167Y-108590266D01*
X139965860Y-108543037D01*
X140094732Y-108449407D01*
X140131463Y-108422721D01*
X140131465Y-108422718D01*
X140131469Y-108422716D01*
X140276216Y-108277969D01*
X140276218Y-108277965D01*
X140276221Y-108277963D01*
X140381142Y-108133549D01*
X140396537Y-108112360D01*
X140489470Y-107929969D01*
X140552727Y-107735284D01*
X140584750Y-107533102D01*
X140584750Y-107328398D01*
X140552727Y-107126216D01*
X140489470Y-106931531D01*
X140489468Y-106931528D01*
X140489468Y-106931526D01*
X140438115Y-106830741D01*
X140396537Y-106749140D01*
X140381142Y-106727950D01*
X140276221Y-106583536D01*
X140131463Y-106438778D01*
X139965863Y-106318465D01*
X139965862Y-106318464D01*
X139965860Y-106318463D01*
X139906148Y-106288038D01*
X139783473Y-106225531D01*
X139588784Y-106162272D01*
X139414245Y-106134628D01*
X139386602Y-106130250D01*
X139181898Y-106130250D01*
X139157579Y-106134101D01*
X138979715Y-106162272D01*
X138785026Y-106225531D01*
X138602636Y-106318465D01*
X138437036Y-106438778D01*
X138292278Y-106583536D01*
X138171965Y-106749136D01*
X138079031Y-106931526D01*
X138015772Y-107126215D01*
X137983750Y-107328398D01*
X137274250Y-107328398D01*
X137274250Y-102822885D01*
X142668750Y-102822885D01*
X142668750Y-105118620D01*
X142668751Y-105118626D01*
X142675158Y-105178233D01*
X142725452Y-105313078D01*
X142725456Y-105313085D01*
X142811702Y-105428294D01*
X142811705Y-105428297D01*
X142926914Y-105514543D01*
X142926921Y-105514547D01*
X143061767Y-105564841D01*
X143061766Y-105564841D01*
X143068694Y-105565585D01*
X143121377Y-105571250D01*
X145417122Y-105571249D01*
X145476733Y-105564841D01*
X145611581Y-105514546D01*
X145726796Y-105428296D01*
X145813046Y-105313081D01*
X145863341Y-105178233D01*
X145869750Y-105118623D01*
X145869749Y-102822885D01*
X147168750Y-102822885D01*
X147168750Y-105118620D01*
X147168751Y-105118626D01*
X147175158Y-105178233D01*
X147225452Y-105313078D01*
X147225456Y-105313085D01*
X147311702Y-105428294D01*
X147311705Y-105428297D01*
X147426914Y-105514543D01*
X147426921Y-105514547D01*
X147561767Y-105564841D01*
X147561766Y-105564841D01*
X147568694Y-105565585D01*
X147621377Y-105571250D01*
X149917122Y-105571249D01*
X149976733Y-105564841D01*
X150111581Y-105514546D01*
X150226796Y-105428296D01*
X150313046Y-105313081D01*
X150363341Y-105178233D01*
X150369750Y-105118623D01*
X150369749Y-103693549D01*
X150389434Y-103626511D01*
X150442237Y-103580756D01*
X150493749Y-103569550D01*
X153344750Y-103569550D01*
X153411789Y-103589235D01*
X153457544Y-103642039D01*
X153468750Y-103693550D01*
X153468750Y-112937794D01*
X153507197Y-113131079D01*
X153507200Y-113131089D01*
X153524869Y-113173745D01*
X153582614Y-113313156D01*
X153582616Y-113313161D01*
X153582618Y-113313164D01*
X153692111Y-113477032D01*
X153831468Y-113616389D01*
X153831470Y-113616390D01*
X153838536Y-113623456D01*
X153838535Y-113623456D01*
X153838539Y-113623459D01*
X156932431Y-116717352D01*
X156965916Y-116778675D01*
X156968750Y-116805033D01*
X156968750Y-117236320D01*
X156968751Y-117236326D01*
X156975158Y-117295933D01*
X157021577Y-117420388D01*
X157026561Y-117490080D01*
X156993076Y-117551402D01*
X156155449Y-118389030D01*
X155331471Y-119213008D01*
X155331468Y-119213011D01*
X155261788Y-119282690D01*
X155192109Y-119352369D01*
X155082621Y-119516229D01*
X155082614Y-119516242D01*
X155007200Y-119698310D01*
X155007197Y-119698320D01*
X154968750Y-119891606D01*
X154968750Y-120194987D01*
X154949065Y-120262026D01*
X154945068Y-120267872D01*
X154856965Y-120389136D01*
X154764031Y-120571526D01*
X154700772Y-120766215D01*
X154668750Y-120968398D01*
X154668750Y-121173101D01*
X154700772Y-121375284D01*
X154764031Y-121569973D01*
X154819471Y-121678778D01*
X154856835Y-121752109D01*
X154856965Y-121752363D01*
X154977278Y-121917963D01*
X155122036Y-122062721D01*
X155242476Y-122150224D01*
X155287640Y-122183037D01*
X155403857Y-122242253D01*
X155470026Y-122275968D01*
X155470028Y-122275968D01*
X155470031Y-122275970D01*
X155574387Y-122309877D01*
X155664715Y-122339227D01*
X155737424Y-122350743D01*
X155866898Y-122371250D01*
X155866899Y-122371250D01*
X156071601Y-122371250D01*
X156071602Y-122371250D01*
X156273784Y-122339227D01*
X156468469Y-122275970D01*
X156650860Y-122183037D01*
X156743840Y-122115482D01*
X156816463Y-122062721D01*
X156816465Y-122062718D01*
X156816469Y-122062716D01*
X156961216Y-121917969D01*
X156961218Y-121917965D01*
X156961221Y-121917963D01*
X157029825Y-121823536D01*
X157081537Y-121752360D01*
X157174470Y-121569969D01*
X157237727Y-121375284D01*
X157269750Y-121173102D01*
X157269750Y-120968432D01*
X159669250Y-120968432D01*
X159669250Y-121173067D01*
X159701259Y-121375167D01*
X159764494Y-121569781D01*
X159857391Y-121752100D01*
X159857397Y-121752109D01*
X159889773Y-121796671D01*
X159889774Y-121796672D01*
X160569250Y-121117196D01*
X160569250Y-121123411D01*
X160596509Y-121225144D01*
X160649170Y-121316356D01*
X160723644Y-121390830D01*
X160814856Y-121443491D01*
X160916589Y-121470750D01*
X160922803Y-121470750D01*
X160243326Y-122150224D01*
X160287900Y-122182609D01*
X160470218Y-122275505D01*
X160664832Y-122338740D01*
X160866933Y-122370750D01*
X161071567Y-122370750D01*
X161273667Y-122338740D01*
X161468281Y-122275505D01*
X161650599Y-122182609D01*
X161695171Y-122150224D01*
X161015697Y-121470750D01*
X161021911Y-121470750D01*
X161123644Y-121443491D01*
X161214856Y-121390830D01*
X161289330Y-121316356D01*
X161341991Y-121225144D01*
X161369250Y-121123411D01*
X161369250Y-121117197D01*
X162048724Y-121796671D01*
X162081109Y-121752099D01*
X162174005Y-121569781D01*
X162237240Y-121375167D01*
X162269250Y-121173067D01*
X162269250Y-120968432D01*
X162237240Y-120766332D01*
X162174005Y-120571718D01*
X162081109Y-120389400D01*
X162048724Y-120344827D01*
X162048724Y-120344826D01*
X161369250Y-121024301D01*
X161369250Y-121018089D01*
X161341991Y-120916356D01*
X161289330Y-120825144D01*
X161214856Y-120750670D01*
X161123644Y-120698009D01*
X161021911Y-120670750D01*
X161015696Y-120670750D01*
X161695172Y-119991274D01*
X161695171Y-119991273D01*
X161650609Y-119958897D01*
X161650600Y-119958891D01*
X161468281Y-119865994D01*
X161273667Y-119802759D01*
X161071567Y-119770750D01*
X160866933Y-119770750D01*
X160664832Y-119802759D01*
X160470218Y-119865994D01*
X160287894Y-119958893D01*
X160243327Y-119991273D01*
X160243327Y-119991274D01*
X160922804Y-120670750D01*
X160916589Y-120670750D01*
X160814856Y-120698009D01*
X160723644Y-120750670D01*
X160649170Y-120825144D01*
X160596509Y-120916356D01*
X160569250Y-121018089D01*
X160569250Y-121024303D01*
X159889774Y-120344827D01*
X159889773Y-120344827D01*
X159857393Y-120389394D01*
X159764494Y-120571718D01*
X159701259Y-120766332D01*
X159669250Y-120968432D01*
X157269750Y-120968432D01*
X157269750Y-120968398D01*
X157261507Y-120916356D01*
X157237727Y-120766215D01*
X157193459Y-120629973D01*
X157174470Y-120571531D01*
X157174468Y-120571528D01*
X157174468Y-120571526D01*
X157125229Y-120474890D01*
X157089911Y-120405576D01*
X157077016Y-120336909D01*
X157103292Y-120272169D01*
X157112707Y-120261611D01*
X159107028Y-118267291D01*
X159107032Y-118267289D01*
X159246389Y-118127932D01*
X159355882Y-117964064D01*
X159423300Y-117801301D01*
X159431301Y-117781986D01*
X159432461Y-117776149D01*
X159435824Y-117767025D01*
X159451068Y-117746490D01*
X159462911Y-117723829D01*
X159471546Y-117718907D01*
X159477472Y-117710925D01*
X159501398Y-117701891D01*
X159523613Y-117689230D01*
X159538923Y-117686605D01*
X159576733Y-117682541D01*
X159711581Y-117632246D01*
X159826796Y-117545996D01*
X159913046Y-117430781D01*
X159963341Y-117295933D01*
X159969750Y-117236323D01*
X159969749Y-115140578D01*
X159963341Y-115080967D01*
X159956320Y-115062144D01*
X159913047Y-114946121D01*
X159913043Y-114946114D01*
X159826797Y-114830905D01*
X159826794Y-114830902D01*
X159711585Y-114744656D01*
X159711578Y-114744652D01*
X159576732Y-114694358D01*
X159576733Y-114694358D01*
X159517133Y-114687951D01*
X159517131Y-114687950D01*
X159517123Y-114687950D01*
X159517115Y-114687950D01*
X157784233Y-114687950D01*
X157717194Y-114668265D01*
X157696552Y-114651631D01*
X155506069Y-112461148D01*
X155472584Y-112399825D01*
X155469750Y-112373467D01*
X155469750Y-108570397D01*
X156969250Y-108570397D01*
X156969250Y-108806502D01*
X157006184Y-109039697D01*
X157079147Y-109264252D01*
X157186337Y-109474624D01*
X157246588Y-109557554D01*
X157246590Y-109557555D01*
X157986287Y-108817858D01*
X158003325Y-108881443D01*
X158069151Y-108995457D01*
X158162243Y-109088549D01*
X158276257Y-109154375D01*
X158339840Y-109171412D01*
X157600143Y-109911108D01*
X157683078Y-109971364D01*
X157893447Y-110078552D01*
X158118002Y-110151515D01*
X158118001Y-110151515D01*
X158351198Y-110188450D01*
X158587302Y-110188450D01*
X158820497Y-110151515D01*
X159045052Y-110078552D01*
X159255413Y-109971368D01*
X159255419Y-109971364D01*
X159338354Y-109911108D01*
X159338355Y-109911108D01*
X158598658Y-109171412D01*
X158662243Y-109154375D01*
X158776257Y-109088549D01*
X158869349Y-108995457D01*
X158935175Y-108881443D01*
X158952212Y-108817858D01*
X159691908Y-109557555D01*
X159691908Y-109557554D01*
X159752164Y-109474619D01*
X159752168Y-109474613D01*
X159859352Y-109264252D01*
X159932315Y-109039697D01*
X159969250Y-108806502D01*
X159969250Y-108570397D01*
X159932315Y-108337202D01*
X159859352Y-108112647D01*
X159752164Y-107902278D01*
X159691908Y-107819344D01*
X159691908Y-107819343D01*
X158952212Y-108559040D01*
X158935175Y-108495457D01*
X158869349Y-108381443D01*
X158776257Y-108288351D01*
X158662243Y-108222525D01*
X158598659Y-108205487D01*
X159338355Y-107465790D01*
X159338354Y-107465788D01*
X159255424Y-107405537D01*
X159045052Y-107298347D01*
X158820497Y-107225384D01*
X158820498Y-107225384D01*
X158587302Y-107188450D01*
X158351198Y-107188450D01*
X158118002Y-107225384D01*
X157893447Y-107298347D01*
X157683080Y-107405534D01*
X157600144Y-107465790D01*
X158339841Y-108205487D01*
X158276257Y-108222525D01*
X158162243Y-108288351D01*
X158069151Y-108381443D01*
X158003325Y-108495457D01*
X157986287Y-108559041D01*
X157246590Y-107819344D01*
X157186334Y-107902280D01*
X157079147Y-108112647D01*
X157006184Y-108337202D01*
X156969250Y-108570397D01*
X155469750Y-108570397D01*
X155469750Y-103034831D01*
X155489435Y-102967792D01*
X155506065Y-102947154D01*
X156207028Y-102246191D01*
X156207032Y-102246189D01*
X156346389Y-102106832D01*
X156455882Y-101942964D01*
X156531301Y-101760885D01*
X156564702Y-101592971D01*
X156569750Y-101567593D01*
X156569750Y-97468398D01*
X157168750Y-97468398D01*
X157168750Y-97673102D01*
X157170107Y-97681669D01*
X157200772Y-97875284D01*
X157264031Y-98069973D01*
X157322250Y-98184232D01*
X157356299Y-98251057D01*
X157356965Y-98252363D01*
X157477278Y-98417963D01*
X157622036Y-98562721D01*
X157776999Y-98675306D01*
X157787640Y-98683037D01*
X157903857Y-98742253D01*
X157970026Y-98775968D01*
X157970028Y-98775968D01*
X157970031Y-98775970D01*
X158074387Y-98809877D01*
X158164715Y-98839227D01*
X158265807Y-98855238D01*
X158366898Y-98871250D01*
X158366899Y-98871250D01*
X158571601Y-98871250D01*
X158571602Y-98871250D01*
X158773784Y-98839227D01*
X158968469Y-98775970D01*
X159150860Y-98683037D01*
X159291006Y-98581216D01*
X159316463Y-98562721D01*
X159316465Y-98562718D01*
X159316469Y-98562716D01*
X159461216Y-98417969D01*
X159461218Y-98417965D01*
X159461221Y-98417963D01*
X159516495Y-98341884D01*
X159581537Y-98252360D01*
X159674470Y-98069969D01*
X159737727Y-97875284D01*
X159769750Y-97673102D01*
X159769750Y-97468398D01*
X159737727Y-97266216D01*
X159674470Y-97071531D01*
X159674468Y-97071528D01*
X159674468Y-97071526D01*
X159630812Y-96985847D01*
X159581537Y-96889140D01*
X159543359Y-96836592D01*
X159461221Y-96723536D01*
X159316463Y-96578778D01*
X159150863Y-96458465D01*
X159150862Y-96458464D01*
X159150860Y-96458463D01*
X159091650Y-96428294D01*
X158968473Y-96365531D01*
X158773784Y-96302272D01*
X158599245Y-96274628D01*
X158571602Y-96270250D01*
X158366898Y-96270250D01*
X158342579Y-96274101D01*
X158164715Y-96302272D01*
X157970026Y-96365531D01*
X157787636Y-96458465D01*
X157622036Y-96578778D01*
X157477278Y-96723536D01*
X157356965Y-96889136D01*
X157264031Y-97071526D01*
X157200772Y-97266215D01*
X157175978Y-97422760D01*
X157168750Y-97468398D01*
X156569750Y-97468398D01*
X156569750Y-92468432D01*
X157169250Y-92468432D01*
X157169250Y-92673067D01*
X157201259Y-92875167D01*
X157264494Y-93069781D01*
X157357391Y-93252100D01*
X157357397Y-93252109D01*
X157389773Y-93296671D01*
X157389774Y-93296672D01*
X158069250Y-92617196D01*
X158069250Y-92623411D01*
X158096509Y-92725144D01*
X158149170Y-92816356D01*
X158223644Y-92890830D01*
X158314856Y-92943491D01*
X158416589Y-92970750D01*
X158422803Y-92970750D01*
X157743326Y-93650224D01*
X157787900Y-93682609D01*
X157970218Y-93775505D01*
X158164832Y-93838740D01*
X158366933Y-93870750D01*
X158571567Y-93870750D01*
X158773667Y-93838740D01*
X158968281Y-93775505D01*
X159150599Y-93682609D01*
X159195171Y-93650224D01*
X158515697Y-92970750D01*
X158521911Y-92970750D01*
X158623644Y-92943491D01*
X158714856Y-92890830D01*
X158789330Y-92816356D01*
X158841991Y-92725144D01*
X158869250Y-92623411D01*
X158869250Y-92617198D01*
X159548724Y-93296672D01*
X159548724Y-93296671D01*
X159581109Y-93252099D01*
X159674005Y-93069781D01*
X159737240Y-92875167D01*
X159769250Y-92673067D01*
X159769250Y-92468432D01*
X159737240Y-92266332D01*
X159674005Y-92071718D01*
X159581109Y-91889400D01*
X159548724Y-91844827D01*
X159548724Y-91844826D01*
X158869250Y-92524301D01*
X158869250Y-92518089D01*
X158841991Y-92416356D01*
X158789330Y-92325144D01*
X158714856Y-92250670D01*
X158623644Y-92198009D01*
X158521911Y-92170750D01*
X158515696Y-92170750D01*
X159195172Y-91491274D01*
X159195171Y-91491273D01*
X159150609Y-91458897D01*
X159150600Y-91458891D01*
X158968281Y-91365994D01*
X158773667Y-91302759D01*
X158571567Y-91270750D01*
X158366933Y-91270750D01*
X158164832Y-91302759D01*
X157970218Y-91365994D01*
X157787894Y-91458893D01*
X157743327Y-91491273D01*
X157743327Y-91491274D01*
X158422804Y-92170750D01*
X158416589Y-92170750D01*
X158314856Y-92198009D01*
X158223644Y-92250670D01*
X158149170Y-92325144D01*
X158096509Y-92416356D01*
X158069250Y-92518089D01*
X158069250Y-92524303D01*
X157389774Y-91844827D01*
X157389773Y-91844827D01*
X157357393Y-91889394D01*
X157264494Y-92071718D01*
X157201259Y-92266332D01*
X157169250Y-92468432D01*
X156569750Y-92468432D01*
X156569750Y-90961703D01*
X162986050Y-90961703D01*
X162986050Y-91119396D01*
X163016811Y-91274039D01*
X163016814Y-91274051D01*
X163077152Y-91419722D01*
X163077159Y-91419735D01*
X163165152Y-91551424D01*
X163186030Y-91618101D01*
X163186050Y-91620315D01*
X163186050Y-118001380D01*
X163186049Y-118001398D01*
X163186049Y-118167104D01*
X163186048Y-118167104D01*
X163226973Y-118319835D01*
X163255908Y-118369950D01*
X163255909Y-118369954D01*
X163255910Y-118369954D01*
X163306029Y-118456764D01*
X163306031Y-118456767D01*
X163424899Y-118575635D01*
X163424905Y-118575640D01*
X170632431Y-125783166D01*
X170665916Y-125844489D01*
X170668750Y-125870847D01*
X170668750Y-127870751D01*
X170668751Y-127870768D01*
X170679250Y-127973546D01*
X170679251Y-127973549D01*
X170696439Y-128025418D01*
X170734436Y-128140084D01*
X170826538Y-128289406D01*
X170950594Y-128413462D01*
X171099916Y-128505564D01*
X171266453Y-128560749D01*
X171369241Y-128571250D01*
X173569258Y-128571249D01*
X173672047Y-128560749D01*
X173838584Y-128505564D01*
X173987906Y-128413462D01*
X174111962Y-128289406D01*
X174204064Y-128140084D01*
X174259249Y-127973547D01*
X174269750Y-127870759D01*
X174269749Y-125670742D01*
X174259249Y-125567953D01*
X174209332Y-125417316D01*
X174206931Y-125347491D01*
X174242662Y-125287449D01*
X174305183Y-125256256D01*
X174351231Y-125256698D01*
X174427905Y-125271950D01*
X174427908Y-125271950D01*
X174585594Y-125271950D01*
X174585595Y-125271949D01*
X174740247Y-125241187D01*
X174885929Y-125180844D01*
X175017039Y-125093239D01*
X175128539Y-124981739D01*
X175216144Y-124850629D01*
X175276487Y-124704947D01*
X175307250Y-124550292D01*
X175307250Y-124392608D01*
X175307250Y-124392605D01*
X175307249Y-124392603D01*
X175285714Y-124284339D01*
X175276487Y-124237953D01*
X175268545Y-124218778D01*
X175216147Y-124092277D01*
X175216140Y-124092264D01*
X175128148Y-123960575D01*
X175107270Y-123893897D01*
X175107250Y-123891684D01*
X175107250Y-96979193D01*
X175100162Y-96952739D01*
X175066327Y-96826465D01*
X175033317Y-96769290D01*
X175033317Y-96769289D01*
X174987274Y-96689540D01*
X174987271Y-96689536D01*
X174987270Y-96689534D01*
X174875466Y-96577730D01*
X174875465Y-96577729D01*
X174871135Y-96573399D01*
X174871124Y-96573389D01*
X174154614Y-95856879D01*
X174121129Y-95795556D01*
X174126113Y-95725864D01*
X174127718Y-95721783D01*
X174177856Y-95600743D01*
X174238943Y-95372764D01*
X174269750Y-95138761D01*
X174269750Y-94902739D01*
X174238943Y-94668736D01*
X174177856Y-94440757D01*
X174087534Y-94222701D01*
X174087532Y-94222698D01*
X174087530Y-94222693D01*
X174045368Y-94149668D01*
X173969523Y-94018300D01*
X173856304Y-93870750D01*
X173825843Y-93831052D01*
X173825837Y-93831045D01*
X173658954Y-93664162D01*
X173658947Y-93664156D01*
X173471704Y-93520480D01*
X173471703Y-93520479D01*
X173471700Y-93520477D01*
X173390207Y-93473427D01*
X173267306Y-93402469D01*
X173267295Y-93402464D01*
X173049243Y-93312144D01*
X172825190Y-93252109D01*
X172821264Y-93251057D01*
X172821263Y-93251056D01*
X172821260Y-93251056D01*
X172587270Y-93220251D01*
X172587267Y-93220250D01*
X172587261Y-93220250D01*
X172351239Y-93220250D01*
X172351233Y-93220250D01*
X172351229Y-93220251D01*
X172117239Y-93251056D01*
X171889256Y-93312144D01*
X171671204Y-93402464D01*
X171671193Y-93402469D01*
X171466795Y-93520480D01*
X171279552Y-93664156D01*
X171279545Y-93664162D01*
X171112662Y-93831045D01*
X171112656Y-93831052D01*
X170968980Y-94018295D01*
X170968977Y-94018299D01*
X170968977Y-94018300D01*
X170966334Y-94022878D01*
X170850969Y-94222693D01*
X170850964Y-94222704D01*
X170760644Y-94440756D01*
X170699556Y-94668739D01*
X170668751Y-94902729D01*
X170668750Y-94902745D01*
X170668750Y-95138754D01*
X170668751Y-95138770D01*
X170699556Y-95372760D01*
X170760644Y-95600743D01*
X170850964Y-95818795D01*
X170850969Y-95818806D01*
X170920857Y-95939854D01*
X170968977Y-96023200D01*
X170968979Y-96023203D01*
X170968980Y-96023204D01*
X171112656Y-96210447D01*
X171112662Y-96210454D01*
X171279545Y-96377337D01*
X171279551Y-96377342D01*
X171466800Y-96521023D01*
X171566835Y-96578778D01*
X171671193Y-96639030D01*
X171671198Y-96639032D01*
X171671201Y-96639034D01*
X171889257Y-96729356D01*
X172117236Y-96790443D01*
X172351239Y-96821250D01*
X172351246Y-96821250D01*
X172587254Y-96821250D01*
X172587261Y-96821250D01*
X172821264Y-96790443D01*
X173049243Y-96729356D01*
X173170246Y-96679233D01*
X173239714Y-96671765D01*
X173302193Y-96703039D01*
X173305379Y-96706114D01*
X173374534Y-96775269D01*
X173408019Y-96836592D01*
X173403035Y-96906284D01*
X173361163Y-96962217D01*
X173295699Y-96986634D01*
X173272224Y-96985165D01*
X173272157Y-96985847D01*
X173266095Y-96985250D01*
X173266092Y-96985250D01*
X173108408Y-96985250D01*
X173108405Y-96985250D01*
X172953760Y-97016011D01*
X172953748Y-97016014D01*
X172808077Y-97076352D01*
X172808064Y-97076359D01*
X172676961Y-97163960D01*
X172676957Y-97163963D01*
X172565463Y-97275457D01*
X172565460Y-97275461D01*
X172477859Y-97406564D01*
X172477852Y-97406577D01*
X172417514Y-97552248D01*
X172417511Y-97552260D01*
X172386750Y-97706903D01*
X172386750Y-97864596D01*
X172417511Y-98019239D01*
X172417513Y-98019247D01*
X172431197Y-98052284D01*
X172438664Y-98121754D01*
X172407389Y-98184232D01*
X172347299Y-98219884D01*
X172332821Y-98222674D01*
X172117239Y-98251056D01*
X171889256Y-98312144D01*
X171671204Y-98402464D01*
X171671193Y-98402469D01*
X171466795Y-98520480D01*
X171279552Y-98664156D01*
X171279545Y-98664162D01*
X171112662Y-98831045D01*
X171112656Y-98831052D01*
X170968980Y-99018295D01*
X170850969Y-99222693D01*
X170850964Y-99222704D01*
X170760644Y-99440756D01*
X170699556Y-99668739D01*
X170668751Y-99902729D01*
X170668750Y-99902745D01*
X170668750Y-100138754D01*
X170668751Y-100138770D01*
X170699556Y-100372760D01*
X170760644Y-100600743D01*
X170850964Y-100818795D01*
X170850969Y-100818806D01*
X170921927Y-100941707D01*
X170968977Y-101023200D01*
X170968979Y-101023203D01*
X170968980Y-101023204D01*
X171112656Y-101210447D01*
X171112662Y-101210454D01*
X171279545Y-101377337D01*
X171279551Y-101377342D01*
X171466800Y-101521023D01*
X171591418Y-101592971D01*
X171671193Y-101639030D01*
X171671198Y-101639032D01*
X171671201Y-101639034D01*
X171889257Y-101729356D01*
X172117236Y-101790443D01*
X172351239Y-101821250D01*
X172351246Y-101821250D01*
X172587254Y-101821250D01*
X172587261Y-101821250D01*
X172821264Y-101790443D01*
X173049243Y-101729356D01*
X173267299Y-101639034D01*
X173267306Y-101639029D01*
X173267310Y-101639028D01*
X173318549Y-101609445D01*
X173386449Y-101592971D01*
X173452476Y-101615823D01*
X173495667Y-101670744D01*
X173504550Y-101716831D01*
X173504550Y-103096250D01*
X173484865Y-103163289D01*
X173432061Y-103209044D01*
X173380550Y-103220250D01*
X171369248Y-103220250D01*
X171369231Y-103220251D01*
X171266453Y-103230750D01*
X171266450Y-103230751D01*
X171099918Y-103285935D01*
X171099913Y-103285937D01*
X170950592Y-103378039D01*
X170826539Y-103502092D01*
X170734437Y-103651413D01*
X170734436Y-103651416D01*
X170679251Y-103817953D01*
X170679251Y-103817954D01*
X170679250Y-103817954D01*
X170668750Y-103920733D01*
X170668750Y-105920652D01*
X170649065Y-105987691D01*
X170632431Y-106008333D01*
X167901731Y-108739032D01*
X167901729Y-108739035D01*
X167851611Y-108825844D01*
X167851609Y-108825846D01*
X167822675Y-108875959D01*
X167822674Y-108875960D01*
X167822673Y-108875965D01*
X167781749Y-109028693D01*
X167781749Y-109028695D01*
X167781749Y-109196796D01*
X167781750Y-109196809D01*
X167781750Y-120934653D01*
X167762065Y-121001692D01*
X167709261Y-121047447D01*
X167640103Y-121057391D01*
X167576547Y-121028366D01*
X167570069Y-121022334D01*
X164423369Y-117875634D01*
X164389884Y-117814311D01*
X164387050Y-117787953D01*
X164387050Y-112006873D01*
X164406735Y-111939834D01*
X164459539Y-111894079D01*
X164528697Y-111884135D01*
X164534506Y-111885130D01*
X164534706Y-111885150D01*
X164534708Y-111885150D01*
X164692394Y-111885150D01*
X164692395Y-111885149D01*
X164847047Y-111854387D01*
X164992729Y-111794044D01*
X165123839Y-111706439D01*
X165235339Y-111594939D01*
X165322944Y-111463829D01*
X165383287Y-111318147D01*
X165414050Y-111163492D01*
X165414050Y-111005808D01*
X165414050Y-111005805D01*
X165414049Y-111005803D01*
X165407465Y-110972704D01*
X165383287Y-110851153D01*
X165369542Y-110817969D01*
X165322947Y-110705477D01*
X165322940Y-110705464D01*
X165234948Y-110573775D01*
X165214070Y-110507097D01*
X165214050Y-110504884D01*
X165214050Y-96426546D01*
X165233735Y-96359507D01*
X165250364Y-96338870D01*
X171481666Y-90107567D01*
X171542989Y-90074083D01*
X171569347Y-90071249D01*
X173569252Y-90071249D01*
X173569258Y-90071249D01*
X173672047Y-90060749D01*
X173838584Y-90005564D01*
X173987906Y-89913462D01*
X174111962Y-89789406D01*
X174204064Y-89640084D01*
X174259249Y-89473547D01*
X174269750Y-89370759D01*
X174269749Y-87170742D01*
X174259249Y-87067953D01*
X174204064Y-86901416D01*
X174111962Y-86752094D01*
X173987906Y-86628038D01*
X173838584Y-86535936D01*
X173672047Y-86480751D01*
X173672045Y-86480750D01*
X173569260Y-86470250D01*
X171369248Y-86470250D01*
X171369231Y-86470251D01*
X171266453Y-86480750D01*
X171266450Y-86480751D01*
X171099918Y-86535935D01*
X171099913Y-86535937D01*
X170950592Y-86628039D01*
X170826539Y-86752092D01*
X170734437Y-86901413D01*
X170734435Y-86901418D01*
X170717429Y-86952739D01*
X170679251Y-87067953D01*
X170679251Y-87067954D01*
X170679250Y-87067954D01*
X170668750Y-87170733D01*
X170668750Y-89170652D01*
X170649065Y-89237691D01*
X170632431Y-89258333D01*
X164598731Y-95292033D01*
X164537408Y-95325518D01*
X164467716Y-95320534D01*
X164411783Y-95278662D01*
X164387366Y-95213198D01*
X164387050Y-95204352D01*
X164387050Y-91620315D01*
X164406735Y-91553276D01*
X164407948Y-91551424D01*
X164448485Y-91490757D01*
X164495944Y-91419729D01*
X164556287Y-91274047D01*
X164587050Y-91119392D01*
X164587050Y-90961708D01*
X164587050Y-90961705D01*
X164587049Y-90961703D01*
X164571005Y-90881045D01*
X164556287Y-90807053D01*
X164539580Y-90766718D01*
X164495947Y-90661377D01*
X164495940Y-90661364D01*
X164408339Y-90530261D01*
X164408336Y-90530257D01*
X164296842Y-90418763D01*
X164296838Y-90418760D01*
X164165735Y-90331159D01*
X164165722Y-90331152D01*
X164020051Y-90270814D01*
X164020039Y-90270811D01*
X163865395Y-90240050D01*
X163865392Y-90240050D01*
X163707708Y-90240050D01*
X163707705Y-90240050D01*
X163553060Y-90270811D01*
X163553048Y-90270814D01*
X163407377Y-90331152D01*
X163407364Y-90331159D01*
X163276261Y-90418760D01*
X163276257Y-90418763D01*
X163164763Y-90530257D01*
X163164760Y-90530261D01*
X163077159Y-90661364D01*
X163077152Y-90661377D01*
X163016814Y-90807048D01*
X163016811Y-90807060D01*
X162986050Y-90961703D01*
X156569750Y-90961703D01*
X156569750Y-83152745D01*
X170668750Y-83152745D01*
X170668750Y-83388754D01*
X170668751Y-83388770D01*
X170699556Y-83622760D01*
X170760644Y-83850743D01*
X170850964Y-84068795D01*
X170850969Y-84068806D01*
X170921927Y-84191707D01*
X170968977Y-84273200D01*
X170968979Y-84273203D01*
X170968980Y-84273204D01*
X171112656Y-84460447D01*
X171112662Y-84460454D01*
X171279545Y-84627337D01*
X171279551Y-84627342D01*
X171466800Y-84771023D01*
X171598168Y-84846868D01*
X171671193Y-84889030D01*
X171671198Y-84889032D01*
X171671201Y-84889034D01*
X171889257Y-84979356D01*
X172117236Y-85040443D01*
X172351239Y-85071250D01*
X172351246Y-85071250D01*
X172587254Y-85071250D01*
X172587261Y-85071250D01*
X172821264Y-85040443D01*
X173049243Y-84979356D01*
X173267299Y-84889034D01*
X173471700Y-84771023D01*
X173658949Y-84627342D01*
X173825842Y-84460449D01*
X173969523Y-84273200D01*
X174087534Y-84068799D01*
X174177856Y-83850743D01*
X174238943Y-83622764D01*
X174269750Y-83388761D01*
X174269750Y-83152739D01*
X174238943Y-82918736D01*
X174177856Y-82690757D01*
X174087534Y-82472701D01*
X174087532Y-82472698D01*
X174087530Y-82472693D01*
X174045368Y-82399668D01*
X173969523Y-82268300D01*
X173825842Y-82081051D01*
X173825837Y-82081045D01*
X173658954Y-81914162D01*
X173658947Y-81914156D01*
X173471704Y-81770480D01*
X173471703Y-81770479D01*
X173471700Y-81770477D01*
X173385570Y-81720750D01*
X173267306Y-81652469D01*
X173267295Y-81652464D01*
X173049243Y-81562144D01*
X172821260Y-81501056D01*
X172587270Y-81470251D01*
X172587267Y-81470250D01*
X172587261Y-81470250D01*
X172351239Y-81470250D01*
X172351233Y-81470250D01*
X172351229Y-81470251D01*
X172117239Y-81501056D01*
X171889256Y-81562144D01*
X171671204Y-81652464D01*
X171671193Y-81652469D01*
X171466795Y-81770480D01*
X171279552Y-81914156D01*
X171279545Y-81914162D01*
X171112662Y-82081045D01*
X171112656Y-82081052D01*
X170968980Y-82268295D01*
X170968977Y-82268299D01*
X170968977Y-82268300D01*
X170961264Y-82281659D01*
X170850969Y-82472693D01*
X170850964Y-82472704D01*
X170760644Y-82690756D01*
X170699556Y-82918739D01*
X170668751Y-83152729D01*
X170668750Y-83152745D01*
X156569750Y-83152745D01*
X156569750Y-82072206D01*
X156531302Y-81878920D01*
X156531301Y-81878919D01*
X156531301Y-81878915D01*
X156486385Y-81770477D01*
X156455885Y-81696842D01*
X156455878Y-81696829D01*
X156346389Y-81532968D01*
X156346386Y-81532964D01*
X156306068Y-81492646D01*
X156272583Y-81431323D01*
X156269749Y-81404965D01*
X156269749Y-79970748D01*
X156269748Y-79970731D01*
X156259249Y-79867953D01*
X156259248Y-79867950D01*
X156204064Y-79701416D01*
X156111962Y-79552094D01*
X155987906Y-79428038D01*
X155838584Y-79335936D01*
X155672047Y-79280751D01*
X155672045Y-79280750D01*
X155569260Y-79270250D01*
X153369248Y-79270250D01*
X153369231Y-79270251D01*
X153266453Y-79280750D01*
X153266450Y-79280751D01*
X153099918Y-79335935D01*
X153099913Y-79335937D01*
X152950592Y-79428039D01*
X152826539Y-79552092D01*
X152734437Y-79701413D01*
X152734436Y-79701416D01*
X152679251Y-79867953D01*
X152679251Y-79867954D01*
X152679250Y-79867954D01*
X152668750Y-79970733D01*
X152668750Y-82170751D01*
X152668751Y-82170768D01*
X152679250Y-82273546D01*
X152679251Y-82273549D01*
X152734435Y-82440081D01*
X152734436Y-82440084D01*
X152826538Y-82589406D01*
X152950594Y-82713462D01*
X153099916Y-82805564D01*
X153266453Y-82860749D01*
X153369241Y-82871250D01*
X154444750Y-82871249D01*
X154511789Y-82890933D01*
X154557544Y-82943737D01*
X154568750Y-82995249D01*
X154568750Y-101003268D01*
X154549065Y-101070307D01*
X154532431Y-101090949D01*
X154091149Y-101532231D01*
X154029826Y-101565716D01*
X154003468Y-101568550D01*
X148670707Y-101568550D01*
X148477420Y-101606997D01*
X148477410Y-101607000D01*
X148295342Y-101682414D01*
X148295329Y-101682421D01*
X148131468Y-101791910D01*
X148131464Y-101791913D01*
X147992113Y-101931264D01*
X147992110Y-101931268D01*
X147882621Y-102095129D01*
X147882614Y-102095142D01*
X147807198Y-102277214D01*
X147805667Y-102282262D01*
X147767361Y-102340695D01*
X147703545Y-102369143D01*
X147687013Y-102370250D01*
X147621380Y-102370250D01*
X147621373Y-102370251D01*
X147561766Y-102376658D01*
X147426921Y-102426952D01*
X147426914Y-102426956D01*
X147311705Y-102513202D01*
X147311702Y-102513205D01*
X147225456Y-102628414D01*
X147225452Y-102628421D01*
X147175158Y-102763267D01*
X147168751Y-102822866D01*
X147168750Y-102822885D01*
X145869749Y-102822885D01*
X145869749Y-102822878D01*
X145863341Y-102763267D01*
X145820506Y-102648421D01*
X145813047Y-102628421D01*
X145813043Y-102628414D01*
X145726797Y-102513205D01*
X145726794Y-102513202D01*
X145611585Y-102426956D01*
X145611578Y-102426952D01*
X145476732Y-102376658D01*
X145476733Y-102376658D01*
X145417133Y-102370251D01*
X145417131Y-102370250D01*
X145417123Y-102370250D01*
X145417114Y-102370250D01*
X143121379Y-102370250D01*
X143121373Y-102370251D01*
X143061766Y-102376658D01*
X142926921Y-102426952D01*
X142926914Y-102426956D01*
X142811705Y-102513202D01*
X142811702Y-102513205D01*
X142725456Y-102628414D01*
X142725452Y-102628421D01*
X142675158Y-102763267D01*
X142668751Y-102822866D01*
X142668750Y-102822885D01*
X137274250Y-102822885D01*
X137274250Y-100233769D01*
X137293935Y-100166730D01*
X137346739Y-100120975D01*
X137415897Y-100111031D01*
X137436561Y-100115836D01*
X137517522Y-100142142D01*
X137554715Y-100154227D01*
X137649042Y-100169167D01*
X137756898Y-100186250D01*
X137756899Y-100186250D01*
X137961601Y-100186250D01*
X137961602Y-100186250D01*
X138163784Y-100154227D01*
X138358469Y-100090970D01*
X138540860Y-99998037D01*
X138667629Y-99905935D01*
X138706463Y-99877721D01*
X138706465Y-99877718D01*
X138706469Y-99877716D01*
X138851216Y-99732969D01*
X138851218Y-99732965D01*
X138851221Y-99732963D01*
X138903982Y-99660340D01*
X138971537Y-99567360D01*
X139064470Y-99384969D01*
X139127727Y-99190284D01*
X139159750Y-98988102D01*
X139159750Y-98783398D01*
X139127727Y-98581216D01*
X139064470Y-98386531D01*
X139064468Y-98386528D01*
X139064468Y-98386526D01*
X139000230Y-98260454D01*
X138971537Y-98204140D01*
X138911681Y-98121754D01*
X138851221Y-98038536D01*
X138706463Y-97893778D01*
X138540863Y-97773465D01*
X138540862Y-97773464D01*
X138540860Y-97773463D01*
X138444249Y-97724237D01*
X138358473Y-97680531D01*
X138163784Y-97617272D01*
X137989245Y-97589628D01*
X137961602Y-97585250D01*
X137756898Y-97585250D01*
X137689504Y-97595924D01*
X137554714Y-97617273D01*
X137554711Y-97617273D01*
X137436568Y-97655661D01*
X137366727Y-97657656D01*
X137306894Y-97621576D01*
X137276066Y-97558875D01*
X137274250Y-97537730D01*
X137274250Y-94952697D01*
X143469250Y-94952697D01*
X143469250Y-95188802D01*
X143506184Y-95421997D01*
X143579147Y-95646552D01*
X143686337Y-95856924D01*
X143746588Y-95939854D01*
X143746590Y-95939855D01*
X144486287Y-95200158D01*
X144503325Y-95263743D01*
X144569151Y-95377757D01*
X144662243Y-95470849D01*
X144776257Y-95536675D01*
X144839840Y-95553712D01*
X144100143Y-96293408D01*
X144183078Y-96353664D01*
X144393447Y-96460852D01*
X144618002Y-96533815D01*
X144618001Y-96533815D01*
X144851198Y-96570750D01*
X145087302Y-96570750D01*
X145320497Y-96533815D01*
X145545052Y-96460852D01*
X145755413Y-96353668D01*
X145755419Y-96353664D01*
X145838354Y-96293408D01*
X145838355Y-96293408D01*
X145098658Y-95553712D01*
X145162243Y-95536675D01*
X145276257Y-95470849D01*
X145369349Y-95377757D01*
X145435175Y-95263743D01*
X145452212Y-95200159D01*
X146191908Y-95939855D01*
X146191908Y-95939854D01*
X146252164Y-95856919D01*
X146252168Y-95856913D01*
X146359352Y-95646552D01*
X146432315Y-95421997D01*
X146469250Y-95188802D01*
X146469250Y-94952697D01*
X146432315Y-94719502D01*
X146359352Y-94494947D01*
X146252164Y-94284578D01*
X146191908Y-94201644D01*
X146191908Y-94201643D01*
X145452212Y-94941340D01*
X145435175Y-94877757D01*
X145369349Y-94763743D01*
X145276257Y-94670651D01*
X145162243Y-94604825D01*
X145098659Y-94587787D01*
X145663561Y-94022885D01*
X150968750Y-94022885D01*
X150968750Y-96118620D01*
X150968751Y-96118626D01*
X150975158Y-96178233D01*
X151025452Y-96313078D01*
X151025456Y-96313085D01*
X151111702Y-96428294D01*
X151111705Y-96428297D01*
X151226914Y-96514543D01*
X151226921Y-96514547D01*
X151361767Y-96564841D01*
X151361766Y-96564841D01*
X151368694Y-96565585D01*
X151421377Y-96571250D01*
X153517122Y-96571249D01*
X153576733Y-96564841D01*
X153711581Y-96514546D01*
X153826796Y-96428296D01*
X153913046Y-96313081D01*
X153963341Y-96178233D01*
X153969750Y-96118623D01*
X153969749Y-94022878D01*
X153963341Y-93963267D01*
X153928834Y-93870750D01*
X153913047Y-93828421D01*
X153913043Y-93828414D01*
X153826797Y-93713205D01*
X153826794Y-93713202D01*
X153711585Y-93626956D01*
X153711578Y-93626952D01*
X153576732Y-93576658D01*
X153576733Y-93576658D01*
X153517133Y-93570251D01*
X153517131Y-93570250D01*
X153517123Y-93570250D01*
X153517114Y-93570250D01*
X151421379Y-93570250D01*
X151421373Y-93570251D01*
X151361766Y-93576658D01*
X151226921Y-93626952D01*
X151226914Y-93626956D01*
X151111705Y-93713202D01*
X151111702Y-93713205D01*
X151025456Y-93828414D01*
X151025452Y-93828421D01*
X150975158Y-93963267D01*
X150969242Y-94018300D01*
X150968751Y-94022873D01*
X150968750Y-94022885D01*
X145663561Y-94022885D01*
X145754571Y-93931875D01*
X145838355Y-93848090D01*
X145838354Y-93848088D01*
X145755424Y-93787837D01*
X145545052Y-93680647D01*
X145320497Y-93607684D01*
X145320498Y-93607684D01*
X145087302Y-93570750D01*
X144851198Y-93570750D01*
X144618002Y-93607684D01*
X144393447Y-93680647D01*
X144183080Y-93787834D01*
X144100144Y-93848090D01*
X144839841Y-94587787D01*
X144776257Y-94604825D01*
X144662243Y-94670651D01*
X144569151Y-94763743D01*
X144503325Y-94877757D01*
X144486287Y-94941341D01*
X143746590Y-94201644D01*
X143686334Y-94284580D01*
X143579147Y-94494947D01*
X143506184Y-94719502D01*
X143469250Y-94952697D01*
X137274250Y-94952697D01*
X137274250Y-92690249D01*
X137293935Y-92623210D01*
X137346739Y-92577455D01*
X137398250Y-92566249D01*
X138459252Y-92566249D01*
X138459258Y-92566249D01*
X138562047Y-92555749D01*
X138728584Y-92500564D01*
X138877906Y-92408462D01*
X139001962Y-92284406D01*
X139094064Y-92135084D01*
X139149249Y-91968547D01*
X139159750Y-91865759D01*
X139159749Y-90665742D01*
X139159302Y-90661371D01*
X139149249Y-90562953D01*
X139149248Y-90562950D01*
X139138416Y-90530261D01*
X139094064Y-90396416D01*
X139001962Y-90247094D01*
X138877906Y-90123038D01*
X138735528Y-90035219D01*
X138728586Y-90030937D01*
X138728581Y-90030935D01*
X138707408Y-90023919D01*
X138562047Y-89975751D01*
X138562045Y-89975750D01*
X138459260Y-89965250D01*
X137259248Y-89965250D01*
X137259231Y-89965251D01*
X137156453Y-89975750D01*
X137156450Y-89975751D01*
X136989918Y-90030935D01*
X136989913Y-90030937D01*
X136840592Y-90123039D01*
X136716539Y-90247092D01*
X136624437Y-90396413D01*
X136624436Y-90396416D01*
X136597295Y-90478321D01*
X136557521Y-90535766D01*
X136493005Y-90562588D01*
X136424229Y-90550272D01*
X136379271Y-90512202D01*
X136311216Y-90418531D01*
X136166469Y-90273784D01*
X136166463Y-90273778D01*
X136000863Y-90153465D01*
X136000862Y-90153464D01*
X136000860Y-90153463D01*
X135924503Y-90114557D01*
X135818473Y-90060531D01*
X135623784Y-89997272D01*
X135449245Y-89969628D01*
X135421602Y-89965250D01*
X135216898Y-89965250D01*
X135192579Y-89969101D01*
X135014715Y-89997272D01*
X134820026Y-90060531D01*
X134637636Y-90153465D01*
X134472036Y-90273778D01*
X134327278Y-90418536D01*
X134206965Y-90584136D01*
X134159735Y-90676830D01*
X134111760Y-90727626D01*
X134043939Y-90744421D01*
X133977804Y-90721884D01*
X133938765Y-90676830D01*
X133891670Y-90584402D01*
X133891537Y-90584140D01*
X133859342Y-90539827D01*
X133771221Y-90418536D01*
X133626463Y-90273778D01*
X133460863Y-90153465D01*
X133460862Y-90153464D01*
X133460860Y-90153463D01*
X133384503Y-90114557D01*
X133278473Y-90060531D01*
X133083784Y-89997272D01*
X132909245Y-89969628D01*
X132881602Y-89965250D01*
X132676898Y-89965250D01*
X132610605Y-89975750D01*
X132474714Y-89997273D01*
X132474711Y-89997273D01*
X132427068Y-90012754D01*
X132357227Y-90014749D01*
X132297394Y-89978668D01*
X132266566Y-89915967D01*
X132264750Y-89894823D01*
X132264750Y-83557446D01*
X132284435Y-83490407D01*
X132301064Y-83469770D01*
X134451563Y-81319271D01*
X134451566Y-81319270D01*
X134563370Y-81207466D01*
X134613489Y-81120654D01*
X134642427Y-81070535D01*
X134673984Y-80952764D01*
X147669250Y-80952764D01*
X147669250Y-81188735D01*
X147700049Y-81422664D01*
X147761120Y-81650587D01*
X147851410Y-81868569D01*
X147851415Y-81868578D01*
X147969394Y-82072921D01*
X147969395Y-82072922D01*
X148031971Y-82154473D01*
X148868208Y-81318237D01*
X148893228Y-81378640D01*
X148964362Y-81485101D01*
X149054899Y-81575638D01*
X149161360Y-81646772D01*
X149221761Y-81671791D01*
X148385525Y-82508027D01*
X148467077Y-82570604D01*
X148467078Y-82570605D01*
X148671421Y-82688584D01*
X148671430Y-82688589D01*
X148889413Y-82778879D01*
X148889411Y-82778879D01*
X149117335Y-82839950D01*
X149351264Y-82870749D01*
X149351279Y-82870750D01*
X149587221Y-82870750D01*
X149587235Y-82870749D01*
X149821164Y-82839950D01*
X150049087Y-82778879D01*
X150267069Y-82688589D01*
X150267078Y-82688584D01*
X150471431Y-82570600D01*
X150552973Y-82508029D01*
X150552973Y-82508026D01*
X149716737Y-81671791D01*
X149777140Y-81646772D01*
X149883601Y-81575638D01*
X149974138Y-81485101D01*
X150045272Y-81378640D01*
X150070291Y-81318238D01*
X150906526Y-82154473D01*
X150906529Y-82154473D01*
X150969100Y-82072931D01*
X151087084Y-81868578D01*
X151087089Y-81868569D01*
X151177379Y-81650587D01*
X151238450Y-81422664D01*
X151269249Y-81188735D01*
X151269250Y-81188721D01*
X151269250Y-80952778D01*
X151269249Y-80952764D01*
X151238450Y-80718835D01*
X151177379Y-80490912D01*
X151087089Y-80272930D01*
X151087084Y-80272921D01*
X150969105Y-80068578D01*
X150969104Y-80068577D01*
X150906527Y-79987025D01*
X150070291Y-80823261D01*
X150045272Y-80762860D01*
X149974138Y-80656399D01*
X149883601Y-80565862D01*
X149777140Y-80494728D01*
X149716738Y-80469708D01*
X150552973Y-79633471D01*
X150471422Y-79570895D01*
X150471421Y-79570894D01*
X150267078Y-79452915D01*
X150267069Y-79452910D01*
X150049086Y-79362620D01*
X150049088Y-79362620D01*
X149821164Y-79301549D01*
X149587235Y-79270750D01*
X149351264Y-79270750D01*
X149117335Y-79301549D01*
X148889412Y-79362620D01*
X148671430Y-79452910D01*
X148671421Y-79452915D01*
X148467078Y-79570894D01*
X148467068Y-79570900D01*
X148385525Y-79633470D01*
X148385525Y-79633471D01*
X149221762Y-80469708D01*
X149161360Y-80494728D01*
X149054899Y-80565862D01*
X148964362Y-80656399D01*
X148893228Y-80762860D01*
X148868208Y-80823262D01*
X148031971Y-79987025D01*
X148031970Y-79987025D01*
X147969400Y-80068568D01*
X147969394Y-80068578D01*
X147851415Y-80272921D01*
X147851410Y-80272930D01*
X147761120Y-80490912D01*
X147700049Y-80718835D01*
X147669250Y-80952764D01*
X134673984Y-80952764D01*
X134683351Y-80917807D01*
X134683351Y-80759693D01*
X134683350Y-80759689D01*
X134683350Y-78850515D01*
X134703035Y-78783476D01*
X134704248Y-78781624D01*
X134792240Y-78649935D01*
X134792240Y-78649934D01*
X134792244Y-78649929D01*
X134852587Y-78504247D01*
X134883350Y-78349592D01*
X134883350Y-78191908D01*
X134883350Y-78191905D01*
X134883349Y-78191903D01*
X134879564Y-78172871D01*
X134875561Y-78152745D01*
X170668750Y-78152745D01*
X170668750Y-78388754D01*
X170668751Y-78388770D01*
X170694607Y-78585170D01*
X170699557Y-78622764D01*
X170741967Y-78781039D01*
X170760644Y-78850743D01*
X170850964Y-79068795D01*
X170850969Y-79068806D01*
X170919721Y-79187886D01*
X170968977Y-79273200D01*
X170968979Y-79273203D01*
X170968980Y-79273204D01*
X171112656Y-79460447D01*
X171112662Y-79460454D01*
X171279545Y-79627337D01*
X171279551Y-79627342D01*
X171466800Y-79771023D01*
X171598168Y-79846868D01*
X171671193Y-79889030D01*
X171671198Y-79889032D01*
X171671201Y-79889034D01*
X171889257Y-79979356D01*
X172117236Y-80040443D01*
X172351239Y-80071250D01*
X172351246Y-80071250D01*
X172587254Y-80071250D01*
X172587261Y-80071250D01*
X172821264Y-80040443D01*
X173049243Y-79979356D01*
X173267299Y-79889034D01*
X173471700Y-79771023D01*
X173658949Y-79627342D01*
X173825842Y-79460449D01*
X173969523Y-79273200D01*
X174087534Y-79068799D01*
X174177856Y-78850743D01*
X174238943Y-78622764D01*
X174269750Y-78388761D01*
X174269750Y-78152739D01*
X174238943Y-77918736D01*
X174177856Y-77690757D01*
X174087534Y-77472701D01*
X174087532Y-77472698D01*
X174087530Y-77472693D01*
X174040083Y-77390514D01*
X173969523Y-77268300D01*
X173825842Y-77081051D01*
X173825837Y-77081045D01*
X173658954Y-76914162D01*
X173658947Y-76914156D01*
X173471704Y-76770480D01*
X173471703Y-76770479D01*
X173471700Y-76770477D01*
X173390207Y-76723427D01*
X173267306Y-76652469D01*
X173267295Y-76652464D01*
X173049243Y-76562144D01*
X172821260Y-76501056D01*
X172587270Y-76470251D01*
X172587267Y-76470250D01*
X172587261Y-76470250D01*
X172351239Y-76470250D01*
X172351233Y-76470250D01*
X172351229Y-76470251D01*
X172117239Y-76501056D01*
X171889256Y-76562144D01*
X171671204Y-76652464D01*
X171671193Y-76652469D01*
X171466795Y-76770480D01*
X171279552Y-76914156D01*
X171279545Y-76914162D01*
X171112662Y-77081045D01*
X171112656Y-77081052D01*
X170968980Y-77268295D01*
X170850969Y-77472693D01*
X170850964Y-77472704D01*
X170760644Y-77690756D01*
X170699556Y-77918739D01*
X170668751Y-78152729D01*
X170668750Y-78152745D01*
X134875561Y-78152745D01*
X134852588Y-78037258D01*
X134852587Y-78037257D01*
X134852587Y-78037253D01*
X134852585Y-78037248D01*
X134792247Y-77891577D01*
X134792240Y-77891564D01*
X134704639Y-77760461D01*
X134704636Y-77760457D01*
X134593142Y-77648963D01*
X134593138Y-77648960D01*
X134462035Y-77561359D01*
X134462022Y-77561352D01*
X134316351Y-77501014D01*
X134316339Y-77501011D01*
X134161695Y-77470250D01*
X134161692Y-77470250D01*
X134004008Y-77470250D01*
X134004005Y-77470250D01*
X133849360Y-77501011D01*
X133849348Y-77501014D01*
X133703677Y-77561352D01*
X133703664Y-77561359D01*
X133572561Y-77648960D01*
X133572557Y-77648963D01*
X133461063Y-77760457D01*
X133461060Y-77760461D01*
X133373459Y-77891564D01*
X133373452Y-77891577D01*
X133313114Y-78037248D01*
X133313111Y-78037260D01*
X133282350Y-78191903D01*
X133282350Y-78349596D01*
X133313111Y-78504239D01*
X133313114Y-78504251D01*
X133373452Y-78649922D01*
X133373459Y-78649935D01*
X133461452Y-78781624D01*
X133482330Y-78848301D01*
X133482350Y-78850515D01*
X133482350Y-80538652D01*
X133462665Y-80605691D01*
X133446031Y-80626333D01*
X132981430Y-81090934D01*
X132920107Y-81124419D01*
X132850415Y-81119435D01*
X132794482Y-81077563D01*
X132770065Y-81012099D01*
X132769749Y-81003253D01*
X132769749Y-79970748D01*
X132769748Y-79970731D01*
X132759249Y-79867953D01*
X132759248Y-79867950D01*
X132704064Y-79701416D01*
X132611962Y-79552094D01*
X132487906Y-79428038D01*
X132338584Y-79335936D01*
X132172047Y-79280751D01*
X132172044Y-79280750D01*
X132081147Y-79271464D01*
X132016455Y-79245067D01*
X131976304Y-79187886D01*
X131969750Y-79148106D01*
X131969750Y-78072206D01*
X131935900Y-77902034D01*
X131935900Y-77902033D01*
X131931302Y-77878920D01*
X131931301Y-77878914D01*
X131909211Y-77825584D01*
X131909211Y-77825583D01*
X131855885Y-77696842D01*
X131855878Y-77696829D01*
X131746389Y-77532968D01*
X131746386Y-77532964D01*
X131603936Y-77390514D01*
X131603905Y-77390485D01*
X130950729Y-76737309D01*
X130950709Y-76737287D01*
X130807035Y-76593613D01*
X130807031Y-76593610D01*
X130643170Y-76484121D01*
X130643161Y-76484116D01*
X130570565Y-76454046D01*
X130514415Y-76430788D01*
X130461086Y-76408699D01*
X130461082Y-76408698D01*
X130461078Y-76408696D01*
X130364438Y-76389474D01*
X130267794Y-76370250D01*
X130267791Y-76370250D01*
X119170709Y-76370250D01*
X119170705Y-76370250D01*
X119074062Y-76389474D01*
X118977417Y-76408697D01*
X118977411Y-76408699D01*
X118924084Y-76430787D01*
X118924084Y-76430788D01*
X118890455Y-76444717D01*
X118795338Y-76484116D01*
X118678562Y-76562144D01*
X118678561Y-76562145D01*
X118631465Y-76593612D01*
X118631464Y-76593613D01*
X116676228Y-78548851D01*
X116031470Y-79193609D01*
X116031468Y-79193611D01*
X115980012Y-79245067D01*
X115892109Y-79332969D01*
X115782621Y-79496829D01*
X115782614Y-79496842D01*
X115707200Y-79678910D01*
X115707197Y-79678920D01*
X115668750Y-79872206D01*
X115668750Y-96769289D01*
X115668749Y-96769293D01*
X110245599Y-96769293D01*
X110238943Y-96718736D01*
X110177856Y-96490757D01*
X110087534Y-96272701D01*
X110087532Y-96272698D01*
X110087530Y-96272693D01*
X110032992Y-96178232D01*
X109969523Y-96068300D01*
X109825842Y-95881051D01*
X109825837Y-95881045D01*
X109658954Y-95714162D01*
X109658947Y-95714156D01*
X109471704Y-95570480D01*
X109471703Y-95570479D01*
X109471700Y-95570477D01*
X109356065Y-95503715D01*
X109267306Y-95452469D01*
X109267295Y-95452464D01*
X109049243Y-95362144D01*
X108821260Y-95301056D01*
X108587270Y-95270251D01*
X108587267Y-95270250D01*
X108587261Y-95270250D01*
X108351239Y-95270250D01*
X108351233Y-95270250D01*
X108351229Y-95270251D01*
X108117239Y-95301056D01*
X107889256Y-95362144D01*
X107671204Y-95452464D01*
X107671193Y-95452469D01*
X107466795Y-95570480D01*
X107279552Y-95714156D01*
X107279545Y-95714162D01*
X107112662Y-95881045D01*
X107112656Y-95881052D01*
X106968980Y-96068295D01*
X106850969Y-96272693D01*
X106850964Y-96272704D01*
X106760644Y-96490756D01*
X106699556Y-96718739D01*
X106668751Y-96952729D01*
X106668750Y-96952740D01*
X100469750Y-96952740D01*
X100469750Y-91952745D01*
X106668750Y-91952745D01*
X106668750Y-92188754D01*
X106668751Y-92188770D01*
X106698705Y-92416299D01*
X106699557Y-92422764D01*
X106723987Y-92513938D01*
X106760644Y-92650743D01*
X106850964Y-92868795D01*
X106850969Y-92868806D01*
X106865509Y-92893989D01*
X106968977Y-93073200D01*
X106968979Y-93073203D01*
X106968980Y-93073204D01*
X107112656Y-93260447D01*
X107112662Y-93260454D01*
X107279545Y-93427337D01*
X107279551Y-93427342D01*
X107466800Y-93571023D01*
X107563679Y-93626956D01*
X107671193Y-93689030D01*
X107671198Y-93689032D01*
X107671201Y-93689034D01*
X107889257Y-93779356D01*
X108117236Y-93840443D01*
X108351239Y-93871250D01*
X108351246Y-93871250D01*
X108587254Y-93871250D01*
X108587261Y-93871250D01*
X108821264Y-93840443D01*
X109049243Y-93779356D01*
X109267299Y-93689034D01*
X109471700Y-93571023D01*
X109658949Y-93427342D01*
X109825842Y-93260449D01*
X109969523Y-93073200D01*
X110087534Y-92868799D01*
X110177856Y-92650743D01*
X110238943Y-92422764D01*
X110269750Y-92188761D01*
X110269750Y-91952739D01*
X110238943Y-91718736D01*
X110177856Y-91490757D01*
X110087534Y-91272701D01*
X110087532Y-91272698D01*
X110087530Y-91272693D01*
X109999023Y-91119396D01*
X109969523Y-91068300D01*
X109875426Y-90945670D01*
X109825843Y-90881052D01*
X109825837Y-90881045D01*
X109658954Y-90714162D01*
X109658947Y-90714156D01*
X109471704Y-90570480D01*
X109471703Y-90570479D01*
X109471700Y-90570477D01*
X109370763Y-90512201D01*
X109267306Y-90452469D01*
X109267295Y-90452464D01*
X109049243Y-90362144D01*
X108933606Y-90331159D01*
X108821264Y-90301057D01*
X108821263Y-90301056D01*
X108821260Y-90301056D01*
X108587270Y-90270251D01*
X108587267Y-90270250D01*
X108587261Y-90270250D01*
X108351239Y-90270250D01*
X108351233Y-90270250D01*
X108351229Y-90270251D01*
X108117239Y-90301056D01*
X107889256Y-90362144D01*
X107671204Y-90452464D01*
X107671193Y-90452469D01*
X107466795Y-90570480D01*
X107279552Y-90714156D01*
X107279545Y-90714162D01*
X107112662Y-90881045D01*
X107112656Y-90881052D01*
X106968980Y-91068295D01*
X106850969Y-91272693D01*
X106850964Y-91272704D01*
X106760644Y-91490756D01*
X106699556Y-91718739D01*
X106668751Y-91952729D01*
X106668750Y-91952745D01*
X100469750Y-91952745D01*
X100469750Y-86952745D01*
X106668750Y-86952745D01*
X106668750Y-87188754D01*
X106668751Y-87188770D01*
X106699556Y-87422760D01*
X106760644Y-87650743D01*
X106850964Y-87868795D01*
X106850969Y-87868806D01*
X106921927Y-87991707D01*
X106968977Y-88073200D01*
X106968979Y-88073203D01*
X106968980Y-88073204D01*
X107112656Y-88260447D01*
X107112662Y-88260454D01*
X107279545Y-88427337D01*
X107279551Y-88427342D01*
X107466800Y-88571023D01*
X107598168Y-88646868D01*
X107671193Y-88689030D01*
X107671198Y-88689032D01*
X107671201Y-88689034D01*
X107889257Y-88779356D01*
X108117236Y-88840443D01*
X108351239Y-88871250D01*
X108351246Y-88871250D01*
X108587254Y-88871250D01*
X108587261Y-88871250D01*
X108821264Y-88840443D01*
X109049243Y-88779356D01*
X109267299Y-88689034D01*
X109471700Y-88571023D01*
X109658949Y-88427342D01*
X109825842Y-88260449D01*
X109969523Y-88073200D01*
X110087534Y-87868799D01*
X110177856Y-87650743D01*
X110238943Y-87422764D01*
X110269750Y-87188761D01*
X110269750Y-86952739D01*
X110238943Y-86718736D01*
X110177856Y-86490757D01*
X110087534Y-86272701D01*
X110087532Y-86272698D01*
X110087530Y-86272693D01*
X110028094Y-86169748D01*
X109969523Y-86068300D01*
X109825842Y-85881051D01*
X109825837Y-85881045D01*
X109658954Y-85714162D01*
X109658947Y-85714156D01*
X109471704Y-85570480D01*
X109471703Y-85570479D01*
X109471700Y-85570477D01*
X109390207Y-85523427D01*
X109267306Y-85452469D01*
X109267295Y-85452464D01*
X109049243Y-85362144D01*
X108821260Y-85301056D01*
X108587270Y-85270251D01*
X108587267Y-85270250D01*
X108587261Y-85270250D01*
X108351239Y-85270250D01*
X108351233Y-85270250D01*
X108351229Y-85270251D01*
X108117239Y-85301056D01*
X107889256Y-85362144D01*
X107671204Y-85452464D01*
X107671193Y-85452469D01*
X107466795Y-85570480D01*
X107279552Y-85714156D01*
X107279545Y-85714162D01*
X107112662Y-85881045D01*
X107112656Y-85881052D01*
X106968980Y-86068295D01*
X106850969Y-86272693D01*
X106850964Y-86272704D01*
X106760644Y-86490756D01*
X106699556Y-86718739D01*
X106668751Y-86952729D01*
X106668750Y-86952745D01*
X100469750Y-86952745D01*
X100469750Y-80970733D01*
X106668750Y-80970733D01*
X106668750Y-83170751D01*
X106668751Y-83170768D01*
X106679250Y-83273546D01*
X106679251Y-83273549D01*
X106703395Y-83346409D01*
X106734436Y-83440084D01*
X106826538Y-83589406D01*
X106950594Y-83713462D01*
X107099916Y-83805564D01*
X107266453Y-83860749D01*
X107369241Y-83871250D01*
X109569258Y-83871249D01*
X109672047Y-83860749D01*
X109838584Y-83805564D01*
X109987906Y-83713462D01*
X110111962Y-83589406D01*
X110204064Y-83440084D01*
X110259249Y-83273547D01*
X110269750Y-83170759D01*
X110269749Y-80970742D01*
X110259249Y-80867953D01*
X110204064Y-80701416D01*
X110111962Y-80552094D01*
X109987906Y-80428038D01*
X109838584Y-80335936D01*
X109672047Y-80280751D01*
X109672045Y-80280750D01*
X109569260Y-80270250D01*
X107369248Y-80270250D01*
X107369231Y-80270251D01*
X107266453Y-80280750D01*
X107266450Y-80280751D01*
X107099918Y-80335935D01*
X107099913Y-80335937D01*
X106950592Y-80428039D01*
X106826539Y-80552092D01*
X106734437Y-80701413D01*
X106734436Y-80701416D01*
X106679251Y-80867953D01*
X106679251Y-80867954D01*
X106679250Y-80867954D01*
X106668750Y-80970733D01*
X100469750Y-80970733D01*
X100469750Y-75636639D01*
X100469752Y-75636632D01*
X100469750Y-75574797D01*
X100470015Y-75566695D01*
X100480052Y-75413509D01*
X100486320Y-75317854D01*
X100488436Y-75301781D01*
X100528425Y-75100729D01*
X100536290Y-75061188D01*
X100540481Y-75045545D01*
X100619329Y-74813254D01*
X100625535Y-74798273D01*
X100734030Y-74578263D01*
X100742126Y-74564240D01*
X100878417Y-74360264D01*
X100888279Y-74347412D01*
X101050021Y-74162979D01*
X101061479Y-74151521D01*
X101245912Y-73989779D01*
X101258764Y-73979917D01*
X101462740Y-73843626D01*
X101476763Y-73835530D01*
X101696779Y-73727032D01*
X101711754Y-73720829D01*
X101944045Y-73641981D01*
X101959688Y-73637790D01*
X102200287Y-73589935D01*
X102216354Y-73587820D01*
X102465196Y-73571514D01*
X102473302Y-73571250D01*
X102535132Y-73571252D01*
X102535135Y-73571250D01*
X102543755Y-73571251D01*
X102543784Y-73571250D01*
X178394716Y-73571250D01*
X178394744Y-73571251D01*
G37*
%TD.AperFunction*%
%TD*%
M02*
